<svg width="62" height="44" viewBox="0 0 62 44" fill="none" xmlns="http://www.w3.org/2000/svg">
<g filter="url(#filter0_d_151_7945)">
<mask id="path-1-inside-1_151_7945" fill="white">
<path fill-rule="evenodd" clip-rule="evenodd" d="M31 35.5919C28.3524 37.1235 25.2786 38 22 38C12.0589 38 4 29.9411 4 20C4 10.0589 12.0589 2 22 2C25.2786 2 28.3524 2.87655 31 4.40808C33.6476 2.87655 36.7214 2 40 2C49.9411 2 58 10.0589 58 20C58 29.9411 49.9411 38 40 38C36.7214 38 33.6476 37.1235 31 35.5919Z"/>
</mask>
<path fill-rule="evenodd" clip-rule="evenodd" d="M31 35.5919C28.3524 37.1235 25.2786 38 22 38C12.0589 38 4 29.9411 4 20C4 10.0589 12.0589 2 22 2C25.2786 2 28.3524 2.87655 31 4.40808C33.6476 2.87655 36.7214 2 40 2C49.9411 2 58 10.0589 58 20C58 29.9411 49.9411 38 40 38C36.7214 38 33.6476 37.1235 31 35.5919Z" fill="url(#paint0_linear_151_7945)"/>
<path d="M31 35.5919L32.0015 33.8607L31 33.2814L29.9985 33.8607L31 35.5919ZM31 4.40808L29.9986 6.13929L31 6.7186L32.0015 6.13929L31 4.40808ZM29.9985 33.8607C27.6472 35.2209 24.9176 36 22 36V40C25.6395 40 29.0577 39.026 32.0015 37.3231L29.9985 33.8607ZM22 36C13.1634 36 6 28.8366 6 20H2C2 31.0457 10.9543 40 22 40V36ZM6 20C6 11.1634 13.1634 4 22 4V0C10.9543 0 2 8.9543 2 20H6ZM22 4C24.9176 4 27.6472 4.77911 29.9986 6.13929L32.0015 2.67687C29.0577 0.973988 25.6395 0 22 0V4ZM32.0015 6.13929C34.3528 4.77911 37.0824 4 40 4V0C36.3605 0 32.9423 0.973989 29.9986 2.67687L32.0015 6.13929ZM40 4C48.8366 4 56 11.1634 56 20H60C60 8.9543 51.0457 0 40 0V4ZM56 20C56 28.8366 48.8366 36 40 36V40C51.0457 40 60 31.0457 60 20H56ZM40 36C37.0824 36 34.3528 35.2209 32.0015 33.8607L29.9985 37.3231C32.9423 39.026 36.3605 40 40 40V36Z" fill="white" mask="url(#path-1-inside-1_151_7945)"/>
</g>
<path d="M30.8878 13.044C31.6558 12.404 32.2678 11.872 32.7238 11.448C33.1798 11.016 33.5598 10.568 33.8638 10.104C34.1678 9.64 34.3198 9.184 34.3198 8.736C34.3198 8.328 34.2238 8.008 34.0318 7.776C33.8398 7.544 33.5438 7.428 33.1438 7.428C32.7438 7.428 32.4358 7.564 32.2198 7.836C32.0038 8.1 31.8918 8.464 31.8838 8.928H30.2518C30.2838 7.968 30.5678 7.24 31.1038 6.744C31.6478 6.248 32.3358 6 33.1678 6C34.0798 6 34.7798 6.244 35.2678 6.732C35.7558 7.212 35.9998 7.848 35.9998 8.64C35.9998 9.264 35.8318 9.86 35.4958 10.428C35.1598 10.996 34.7758 11.492 34.3438 11.916C33.9118 12.332 33.3478 12.836 32.6518 13.428H36.1918V14.82H30.2638V13.572L30.8878 13.044Z" fill="#7C444F"/>
<path d="M25.8082 7.74V6.192H28.7002V14.94H26.9722V7.74H25.8082Z" fill="#7C444F"/>
<defs>
<filter id="filter0_d_151_7945" x="0" y="0" width="62" height="44" filterUnits="userSpaceOnUse" color-interpolation-filters="sRGB">
<feFlood flood-opacity="0" result="BackgroundImageFix"/>
<feColorMatrix in="SourceAlpha" type="matrix" values="0 0 0 0 0 0 0 0 0 0 0 0 0 0 0 0 0 0 127 0" result="hardAlpha"/>
<feOffset dy="2"/>
<feGaussianBlur stdDeviation="2"/>
<feComposite in2="hardAlpha" operator="out"/>
<feColorMatrix type="matrix" values="0 0 0 0 0 0 0 0 0 0 0 0 0 0 0 0 0 0 0.5 0"/>
<feBlend mode="normal" in2="BackgroundImageFix" result="effect1_dropShadow_151_7945"/>
<feBlend mode="normal" in="SourceGraphic" in2="effect1_dropShadow_151_7945" result="shape"/>
</filter>
<linearGradient id="paint0_linear_151_7945" x1="4" y1="20" x2="58" y2="20" gradientUnits="userSpaceOnUse">
<stop offset="0.45" stop-color="#F39E60"/>
<stop offset="0.55" stop-color="#E16A54"/>
</linearGradient>
</defs>
</svg>
