<svg width="62" height="44" viewBox="0 0 62 44" fill="none" xmlns="http://www.w3.org/2000/svg">
<g filter="url(#filter0_d_152_7994)">
<mask id="path-1-inside-1_152_7994" fill="white">
<path fill-rule="evenodd" clip-rule="evenodd" d="M31 35.5919C28.3524 37.1235 25.2786 38 22 38C12.0589 38 4 29.9411 4 20C4 10.0589 12.0589 2 22 2C25.2786 2 28.3524 2.87655 31 4.40808C33.6476 2.87655 36.7214 2 40 2C49.9411 2 58 10.0589 58 20C58 29.9411 49.9411 38 40 38C36.7214 38 33.6476 37.1235 31 35.5919Z"/>
</mask>
<path fill-rule="evenodd" clip-rule="evenodd" d="M31 35.5919C28.3524 37.1235 25.2786 38 22 38C12.0589 38 4 29.9411 4 20C4 10.0589 12.0589 2 22 2C25.2786 2 28.3524 2.87655 31 4.40808C33.6476 2.87655 36.7214 2 40 2C49.9411 2 58 10.0589 58 20C58 29.9411 49.9411 38 40 38C36.7214 38 33.6476 37.1235 31 35.5919Z" fill="url(#paint0_linear_152_7994)"/>
<path d="M31 35.5919L32.0015 33.8607L31 33.2814L29.9985 33.8607L31 35.5919ZM31 4.40808L29.9986 6.13929L31 6.7186L32.0015 6.13929L31 4.40808ZM29.9985 33.8607C27.6472 35.2209 24.9176 36 22 36V40C25.6395 40 29.0577 39.026 32.0015 37.3231L29.9985 33.8607ZM22 36C13.1634 36 6 28.8366 6 20H2C2 31.0457 10.9543 40 22 40V36ZM6 20C6 11.1634 13.1634 4 22 4V0C10.9543 0 2 8.9543 2 20H6ZM22 4C24.9176 4 27.6472 4.77911 29.9986 6.13929L32.0015 2.67687C29.0577 0.973988 25.6395 0 22 0V4ZM32.0015 6.13929C34.3528 4.77911 37.0824 4 40 4V0C36.3605 0 32.9423 0.973989 29.9986 2.67687L32.0015 6.13929ZM40 4C48.8366 4 56 11.1634 56 20H60C60 8.9543 51.0457 0 40 0V4ZM56 20C56 28.8366 48.8366 36 40 36V40C51.0457 40 60 31.0457 60 20H56ZM40 36C37.0824 36 34.3528 35.2209 32.0015 33.8607L29.9985 37.3231C32.9423 39.026 36.3605 40 40 40V36Z" fill="white" mask="url(#path-1-inside-1_152_7994)"/>
</g>
<path d="M32.1178 12.492C32.1818 12.844 32.3258 13.116 32.5498 13.308C32.7818 13.492 33.0898 13.584 33.4738 13.584C33.9698 13.584 34.3298 13.38 34.5538 12.972C34.7778 12.556 34.8898 11.86 34.8898 10.884C34.7058 11.14 34.4458 11.34 34.1098 11.484C33.7818 11.628 33.4258 11.7 33.0418 11.7C32.5298 11.7 32.0658 11.596 31.6498 11.388C31.2418 11.172 30.9178 10.856 30.6778 10.44C30.4378 10.016 30.3178 9.50399 30.3178 8.90399C30.3178 8.01599 30.5818 7.31199 31.1098 6.79199C31.6378 6.26399 32.3578 6 33.2698 6C34.4058 6 35.2058 6.364 35.6698 7.092C36.1418 7.82 36.3778 8.91599 36.3778 10.38C36.3778 11.42 36.2858 12.272 36.1018 12.936C35.9258 13.6 35.6178 14.104 35.1778 14.448C34.7458 14.792 34.1538 14.964 33.4018 14.964C32.8098 14.964 32.3058 14.852 31.8898 14.628C31.4738 14.396 31.1538 14.096 30.9298 13.728C30.7138 13.352 30.5898 12.94 30.5578 12.492H32.1178ZM33.3898 10.332C33.8058 10.332 34.1338 10.204 34.3738 9.948C34.6138 9.692 34.7338 9.348 34.7338 8.916C34.7338 8.444 34.6058 8.07999 34.3498 7.82399C34.1018 7.55999 33.7618 7.42799 33.3298 7.42799C32.8978 7.42799 32.5538 7.564 32.2978 7.836C32.0498 8.1 31.9258 8.452 31.9258 8.892C31.9258 9.316 32.0458 9.66399 32.2858 9.93599C32.5338 10.2 32.9018 10.332 33.3898 10.332Z" fill="#7C444F"/>
<path d="M25.6222 7.752V6.20399H28.5142V14.952H26.7862V7.752H25.6222Z" fill="#7C444F"/>
<defs>
<filter id="filter0_d_152_7994" x="0" y="0" width="62" height="44" filterUnits="userSpaceOnUse" color-interpolation-filters="sRGB">
<feFlood flood-opacity="0" result="BackgroundImageFix"/>
<feColorMatrix in="SourceAlpha" type="matrix" values="0 0 0 0 0 0 0 0 0 0 0 0 0 0 0 0 0 0 127 0" result="hardAlpha"/>
<feOffset dy="2"/>
<feGaussianBlur stdDeviation="2"/>
<feComposite in2="hardAlpha" operator="out"/>
<feColorMatrix type="matrix" values="0 0 0 0 0 0 0 0 0 0 0 0 0 0 0 0 0 0 0.5 0"/>
<feBlend mode="normal" in2="BackgroundImageFix" result="effect1_dropShadow_152_7994"/>
<feBlend mode="normal" in="SourceGraphic" in2="effect1_dropShadow_152_7994" result="shape"/>
</filter>
<linearGradient id="paint0_linear_152_7994" x1="4" y1="20" x2="58" y2="20" gradientUnits="userSpaceOnUse">
<stop offset="0.45" stop-color="#F39E60"/>
<stop offset="0.55" stop-color="#E16A54"/>
</linearGradient>
</defs>
</svg>
