<svg width="62" height="44" viewBox="0 0 62 44" fill="none" xmlns="http://www.w3.org/2000/svg">
<g filter="url(#filter0_d_152_8022)">
<mask id="path-1-inside-1_152_8022" fill="white">
<path fill-rule="evenodd" clip-rule="evenodd" d="M31 35.5919C28.3524 37.1235 25.2786 38 22 38C12.0589 38 4 29.9411 4 20C4 10.0589 12.0589 2 22 2C25.2786 2 28.3524 2.87655 31 4.40808C33.6476 2.87655 36.7214 2 40 2C49.9411 2 58 10.0589 58 20C58 29.9411 49.9411 38 40 38C36.7214 38 33.6476 37.1235 31 35.5919Z"/>
</mask>
<path fill-rule="evenodd" clip-rule="evenodd" d="M31 35.5919C28.3524 37.1235 25.2786 38 22 38C12.0589 38 4 29.9411 4 20C4 10.0589 12.0589 2 22 2C25.2786 2 28.3524 2.87655 31 4.40808C33.6476 2.87655 36.7214 2 40 2C49.9411 2 58 10.0589 58 20C58 29.9411 49.9411 38 40 38C36.7214 38 33.6476 37.1235 31 35.5919Z" fill="url(#paint0_linear_152_8022)"/>
<path d="M31 35.5919L32.0015 33.8607L31 33.2814L29.9985 33.8607L31 35.5919ZM31 4.40808L29.9986 6.13929L31 6.7186L32.0015 6.13929L31 4.40808ZM29.9985 33.8607C27.6472 35.2209 24.9176 36 22 36V40C25.6395 40 29.0577 39.026 32.0015 37.3231L29.9985 33.8607ZM22 36C13.1634 36 6 28.8366 6 20H2C2 31.0457 10.9543 40 22 40V36ZM6 20C6 11.1634 13.1634 4 22 4V0C10.9543 0 2 8.9543 2 20H6ZM22 4C24.9176 4 27.6472 4.77911 29.9986 6.13929L32.0015 2.67687C29.0577 0.973988 25.6395 0 22 0V4ZM32.0015 6.13929C34.3528 4.77911 37.0824 4 40 4V0C36.3605 0 32.9423 0.973989 29.9986 2.67687L32.0015 6.13929ZM40 4C48.8366 4 56 11.1634 56 20H60C60 8.9543 51.0457 0 40 0V4ZM56 20C56 28.8366 48.8366 36 40 36V40C51.0457 40 60 31.0457 60 20H56ZM40 36C37.0824 36 34.3528 35.2209 32.0015 33.8607L29.9985 37.3231C32.9423 39.026 36.3605 40 40 40V36Z" fill="white" mask="url(#path-1-inside-1_152_8022)"/>
</g>
<path d="M31.5954 8.508C31.6354 7.708 31.9154 7.092 32.4354 6.66C32.9634 6.22 33.6554 6 34.5114 6C35.0954 6 35.5954 6.104 36.0114 6.312C36.4274 6.512 36.7394 6.788 36.9474 7.14C37.1634 7.484 37.2714 7.876 37.2714 8.316C37.2714 8.82 37.1394 9.248 36.8754 9.6C36.6194 9.944 36.3114 10.176 35.9514 10.296V10.344C36.4154 10.488 36.7754 10.744 37.0314 11.112C37.2954 11.48 37.4274 11.952 37.4274 12.528C37.4274 13.008 37.3154 13.436 37.0914 13.812C36.8754 14.188 36.5514 14.484 36.1194 14.7C35.6954 14.908 35.1834 15.012 34.5834 15.012C33.6794 15.012 32.9434 14.784 32.3754 14.328C31.8074 13.872 31.5074 13.2 31.4754 12.312H33.1074C33.1234 12.704 33.2554 13.02 33.5034 13.26C33.7594 13.492 34.1074 13.608 34.5474 13.608C34.9554 13.608 35.2674 13.496 35.4834 13.272C35.7074 13.04 35.8194 12.744 35.8194 12.384C35.8194 11.904 35.6674 11.56 35.3634 11.352C35.0594 11.144 34.5874 11.04 33.9474 11.04H33.5994V9.66H33.9474C35.0834 9.66 35.6514 9.28 35.6514 8.52C35.6514 8.176 35.5474 7.908 35.3394 7.716C35.1394 7.524 34.8474 7.428 34.4634 7.428C34.0874 7.428 33.7954 7.532 33.5874 7.74C33.3874 7.94 33.2714 8.196 33.2394 8.508H31.5954Z" fill="#7C444F"/>
<path d="M25.2086 13.056C25.9766 12.416 26.5886 11.884 27.0446 11.46C27.5006 11.028 27.8806 10.58 28.1846 10.116C28.4886 9.652 28.6406 9.196 28.6406 8.748C28.6406 8.34 28.5446 8.02 28.3526 7.788C28.1606 7.556 27.8646 7.44 27.4646 7.44C27.0646 7.44 26.7566 7.576 26.5406 7.848C26.3246 8.112 26.2126 8.476 26.2046 8.94H24.5726C24.6046 7.98 24.8886 7.252 25.4246 6.756C25.9686 6.26 26.6566 6.012 27.4886 6.012C28.4006 6.012 29.1006 6.256 29.5886 6.744C30.0766 7.224 30.3206 7.86 30.3206 8.652C30.3206 9.276 30.1526 9.872 29.8166 10.44C29.4806 11.008 29.0966 11.504 28.6646 11.928C28.2326 12.344 27.6686 12.848 26.9726 13.44H30.5126V14.832H24.5846V13.584L25.2086 13.056Z" fill="#7C444F"/>
<defs>
<filter id="filter0_d_152_8022" x="0" y="0" width="62" height="44" filterUnits="userSpaceOnUse" color-interpolation-filters="sRGB">
<feFlood flood-opacity="0" result="BackgroundImageFix"/>
<feColorMatrix in="SourceAlpha" type="matrix" values="0 0 0 0 0 0 0 0 0 0 0 0 0 0 0 0 0 0 127 0" result="hardAlpha"/>
<feOffset dy="2"/>
<feGaussianBlur stdDeviation="2"/>
<feComposite in2="hardAlpha" operator="out"/>
<feColorMatrix type="matrix" values="0 0 0 0 0 0 0 0 0 0 0 0 0 0 0 0 0 0 0.5 0"/>
<feBlend mode="normal" in2="BackgroundImageFix" result="effect1_dropShadow_152_8022"/>
<feBlend mode="normal" in="SourceGraphic" in2="effect1_dropShadow_152_8022" result="shape"/>
</filter>
<linearGradient id="paint0_linear_152_8022" x1="4" y1="20" x2="58" y2="20" gradientUnits="userSpaceOnUse">
<stop offset="0.45" stop-color="#F39E60"/>
<stop offset="0.55" stop-color="#E16A54"/>
</linearGradient>
</defs>
</svg>
