<svg width="62" height="44" viewBox="0 0 62 44" fill="none" xmlns="http://www.w3.org/2000/svg">
<g filter="url(#filter0_d_153_8071)">
<mask id="path-1-inside-1_153_8071" fill="white">
<path fill-rule="evenodd" clip-rule="evenodd" d="M31 35.5919C28.3524 37.1235 25.2786 38 22 38C12.0589 38 4 29.9411 4 20C4 10.0589 12.0589 2 22 2C25.2786 2 28.3524 2.87655 31 4.40808C33.6476 2.87655 36.7214 2 40 2C49.9411 2 58 10.0589 58 20C58 29.9411 49.9411 38 40 38C36.7214 38 33.6476 37.1235 31 35.5919Z"/>
</mask>
<path fill-rule="evenodd" clip-rule="evenodd" d="M31 35.5919C28.3524 37.1235 25.2786 38 22 38C12.0589 38 4 29.9411 4 20C4 10.0589 12.0589 2 22 2C25.2786 2 28.3524 2.87655 31 4.40808C33.6476 2.87655 36.7214 2 40 2C49.9411 2 58 10.0589 58 20C58 29.9411 49.9411 38 40 38C36.7214 38 33.6476 37.1235 31 35.5919Z" fill="url(#paint0_linear_153_8071)"/>
<path d="M31 35.5919L32.0015 33.8607L31 33.2814L29.9985 33.8607L31 35.5919ZM31 4.40808L29.9986 6.13929L31 6.7186L32.0015 6.13929L31 4.40808ZM29.9985 33.8607C27.6472 35.2209 24.9176 36 22 36V40C25.6395 40 29.0577 39.026 32.0015 37.3231L29.9985 33.8607ZM22 36C13.1634 36 6 28.8366 6 20H2C2 31.0457 10.9543 40 22 40V36ZM6 20C6 11.1634 13.1634 4 22 4V0C10.9543 0 2 8.9543 2 20H6ZM22 4C24.9176 4 27.6472 4.77911 29.9986 6.13929L32.0015 2.67687C29.0577 0.973988 25.6395 0 22 0V4ZM32.0015 6.13929C34.3528 4.77911 37.0824 4 40 4V0C36.3605 0 32.9423 0.973989 29.9986 2.67687L32.0015 6.13929ZM40 4C48.8366 4 56 11.1634 56 20H60C60 8.9543 51.0457 0 40 0V4ZM56 20C56 28.8366 48.8366 36 40 36V40C51.0457 40 60 31.0457 60 20H56ZM40 36C37.0824 36 34.3528 35.2209 32.0015 33.8607L29.9985 37.3231C32.9423 39.026 36.3605 40 40 40V36Z" fill="white" mask="url(#path-1-inside-1_153_8071)"/>
</g>
<path d="M31.3998 10.464C31.3998 9.07999 31.6478 7.99599 32.1438 7.21199C32.6478 6.42799 33.4798 6.036 34.6398 6.036C35.7998 6.036 36.6278 6.42799 37.1238 7.21199C37.6278 7.99599 37.8798 9.07999 37.8798 10.464C37.8798 11.856 37.6278 12.948 37.1238 13.74C36.6278 14.532 35.7998 14.928 34.6398 14.928C33.4798 14.928 32.6478 14.532 32.1438 13.74C31.6478 12.948 31.3998 11.856 31.3998 10.464ZM36.2238 10.464C36.2238 9.87199 36.1838 9.376 36.1038 8.976C36.0318 8.568 35.8798 8.236 35.6478 7.98C35.4238 7.724 35.0878 7.59599 34.6398 7.59599C34.1918 7.59599 33.8518 7.724 33.6198 7.98C33.3958 8.236 33.2438 8.568 33.1638 8.976C33.0918 9.376 33.0558 9.87199 33.0558 10.464C33.0558 11.072 33.0918 11.584 33.1638 12C33.2358 12.408 33.3878 12.74 33.6198 12.996C33.8518 13.244 34.1918 13.368 34.6398 13.368C35.0878 13.368 35.4278 13.244 35.6598 12.996C35.8918 12.74 36.0438 12.408 36.1158 12C36.1878 11.584 36.2238 11.072 36.2238 10.464Z" fill="#7C444F"/>
<path d="M24.2402 8.508C24.2802 7.708 24.5602 7.09199 25.0802 6.65999C25.6082 6.21999 26.3002 6 27.1562 6C27.7402 6 28.2402 6.104 28.6562 6.312C29.0722 6.512 29.3842 6.788 29.5922 7.14C29.8082 7.484 29.9162 7.87599 29.9162 8.31599C29.9162 8.81999 29.7842 9.24799 29.5202 9.59999C29.2642 9.94399 28.9562 10.176 28.5962 10.296V10.344C29.0602 10.488 29.4202 10.744 29.6762 11.112C29.9402 11.48 30.0722 11.952 30.0722 12.528C30.0722 13.008 29.9602 13.436 29.7362 13.812C29.5202 14.188 29.1962 14.484 28.7642 14.7C28.3402 14.908 27.8282 15.012 27.2282 15.012C26.3242 15.012 25.5882 14.784 25.0202 14.328C24.4522 13.872 24.1522 13.2 24.1202 12.312H25.7522C25.7682 12.704 25.9002 13.02 26.1482 13.26C26.4042 13.492 26.7522 13.608 27.1922 13.608C27.6002 13.608 27.9122 13.496 28.1282 13.272C28.3522 13.04 28.4642 12.744 28.4642 12.384C28.4642 11.904 28.3122 11.56 28.0082 11.352C27.7042 11.144 27.2322 11.04 26.5922 11.04H26.2442V9.65999H26.5922C27.7282 9.65999 28.2962 9.27999 28.2962 8.51999C28.2962 8.17599 28.1922 7.90799 27.9842 7.71599C27.7842 7.52399 27.4922 7.42799 27.1082 7.42799C26.7322 7.42799 26.4402 7.53199 26.2322 7.73999C26.0322 7.93999 25.9162 8.196 25.8842 8.508H24.2402Z" fill="#7C444F"/>
<defs>
<filter id="filter0_d_153_8071" x="0" y="0" width="62" height="44" filterUnits="userSpaceOnUse" color-interpolation-filters="sRGB">
<feFlood flood-opacity="0" result="BackgroundImageFix"/>
<feColorMatrix in="SourceAlpha" type="matrix" values="0 0 0 0 0 0 0 0 0 0 0 0 0 0 0 0 0 0 127 0" result="hardAlpha"/>
<feOffset dy="2"/>
<feGaussianBlur stdDeviation="2"/>
<feComposite in2="hardAlpha" operator="out"/>
<feColorMatrix type="matrix" values="0 0 0 0 0 0 0 0 0 0 0 0 0 0 0 0 0 0 0.5 0"/>
<feBlend mode="normal" in2="BackgroundImageFix" result="effect1_dropShadow_153_8071"/>
<feBlend mode="normal" in="SourceGraphic" in2="effect1_dropShadow_153_8071" result="shape"/>
</filter>
<linearGradient id="paint0_linear_153_8071" x1="4" y1="20" x2="58" y2="20" gradientUnits="userSpaceOnUse">
<stop offset="0.45" stop-color="#F39E60"/>
<stop offset="0.55" stop-color="#E16A54"/>
</linearGradient>
</defs>
</svg>
