<svg width="62" height="44" viewBox="0 0 62 44" fill="none" xmlns="http://www.w3.org/2000/svg">
<g filter="url(#filter0_d_151_7917)">
<mask id="path-1-inside-1_151_7917" fill="white">
<path fill-rule="evenodd" clip-rule="evenodd" d="M31 35.5919C28.3524 37.1235 25.2786 38 22 38C12.0589 38 4 29.9411 4 20C4 10.0589 12.0589 2 22 2C25.2786 2 28.3524 2.87655 31 4.40808C33.6476 2.87655 36.7214 2 40 2C49.9411 2 58 10.0589 58 20C58 29.9411 49.9411 38 40 38C36.7214 38 33.6476 37.1235 31 35.5919Z"/>
</mask>
<path fill-rule="evenodd" clip-rule="evenodd" d="M31 35.5919C28.3524 37.1235 25.2786 38 22 38C12.0589 38 4 29.9411 4 20C4 10.0589 12.0589 2 22 2C25.2786 2 28.3524 2.87655 31 4.40808C33.6476 2.87655 36.7214 2 40 2C49.9411 2 58 10.0589 58 20C58 29.9411 49.9411 38 40 38C36.7214 38 33.6476 37.1235 31 35.5919Z" fill="url(#paint0_linear_151_7917)"/>
<path d="M31 35.5919L32.0015 33.8607L31 33.2814L29.9985 33.8607L31 35.5919ZM31 4.40808L29.9986 6.13929L31 6.7186L32.0015 6.13929L31 4.40808ZM29.9985 33.8607C27.6472 35.2209 24.9176 36 22 36V40C25.6395 40 29.0577 39.026 32.0015 37.3231L29.9985 33.8607ZM22 36C13.1634 36 6 28.8366 6 20H2C2 31.0457 10.9543 40 22 40V36ZM6 20C6 11.1634 13.1634 4 22 4V0C10.9543 0 2 8.9543 2 20H6ZM22 4C24.9176 4 27.6472 4.77911 29.9986 6.13929L32.0015 2.67687C29.0577 0.973988 25.6395 0 22 0V4ZM32.0015 6.13929C34.3528 4.77911 37.0824 4 40 4V0C36.3605 0 32.9423 0.973989 29.9986 2.67687L32.0015 6.13929ZM40 4C48.8366 4 56 11.1634 56 20H60C60 8.9543 51.0457 0 40 0V4ZM56 20C56 28.8366 48.8366 36 40 36V40C51.0457 40 60 31.0457 60 20H56ZM40 36C37.0824 36 34.3528 35.2209 32.0015 33.8607L29.9985 37.3231C32.9423 39.026 36.3605 40 40 40V36Z" fill="white" mask="url(#path-1-inside-1_151_7917)"/>
</g>
<path d="M29.242 10.284C28.442 9.868 28.042 9.224 28.042 8.352C28.042 7.92 28.15 7.528 28.366 7.176C28.59 6.816 28.922 6.532 29.362 6.324C29.81 6.108 30.354 6 30.994 6C31.634 6 32.174 6.108 32.614 6.324C33.062 6.532 33.394 6.816 33.61 7.176C33.834 7.528 33.946 7.92 33.946 8.352C33.946 8.792 33.838 9.18 33.622 9.516C33.406 9.844 33.118 10.1 32.758 10.284C33.198 10.476 33.542 10.756 33.79 11.124C34.038 11.492 34.162 11.928 34.162 12.432C34.162 12.976 34.022 13.452 33.742 13.86C33.47 14.26 33.094 14.568 32.614 14.784C32.134 15 31.594 15.108 30.994 15.108C30.394 15.108 29.854 15 29.374 14.784C28.902 14.568 28.526 14.26 28.246 13.86C27.974 13.452 27.838 12.976 27.838 12.432C27.838 11.928 27.962 11.492 28.21 11.124C28.458 10.748 28.802 10.468 29.242 10.284ZM32.314 8.592C32.314 8.2 32.194 7.896 31.954 7.68C31.722 7.464 31.402 7.356 30.994 7.356C30.594 7.356 30.274 7.464 30.034 7.68C29.802 7.896 29.686 8.204 29.686 8.604C29.686 8.964 29.806 9.252 30.046 9.468C30.294 9.684 30.61 9.792 30.994 9.792C31.378 9.792 31.694 9.684 31.942 9.468C32.19 9.244 32.314 8.952 32.314 8.592ZM30.994 11.016C30.538 11.016 30.166 11.132 29.878 11.364C29.598 11.596 29.458 11.928 29.458 12.36C29.458 12.76 29.594 13.088 29.866 13.344C30.146 13.592 30.522 13.716 30.994 13.716C31.466 13.716 31.838 13.588 32.11 13.332C32.382 13.076 32.518 12.752 32.518 12.36C32.518 11.936 32.378 11.608 32.098 11.376C31.818 11.136 31.45 11.016 30.994 11.016Z" fill="#7C444F"/>
<defs>
<filter id="filter0_d_151_7917" x="0" y="0" width="62" height="44" filterUnits="userSpaceOnUse" color-interpolation-filters="sRGB">
<feFlood flood-opacity="0" result="BackgroundImageFix"/>
<feColorMatrix in="SourceAlpha" type="matrix" values="0 0 0 0 0 0 0 0 0 0 0 0 0 0 0 0 0 0 127 0" result="hardAlpha"/>
<feOffset dy="2"/>
<feGaussianBlur stdDeviation="2"/>
<feComposite in2="hardAlpha" operator="out"/>
<feColorMatrix type="matrix" values="0 0 0 0 0 0 0 0 0 0 0 0 0 0 0 0 0 0 0.5 0"/>
<feBlend mode="normal" in2="BackgroundImageFix" result="effect1_dropShadow_151_7917"/>
<feBlend mode="normal" in="SourceGraphic" in2="effect1_dropShadow_151_7917" result="shape"/>
</filter>
<linearGradient id="paint0_linear_151_7917" x1="4" y1="20" x2="58" y2="20" gradientUnits="userSpaceOnUse">
<stop offset="0.45" stop-color="#F39E60"/>
<stop offset="0.55" stop-color="#E16A54"/>
</linearGradient>
</defs>
</svg>
