<svg width="62" height="44" viewBox="0 0 62 44" fill="none" xmlns="http://www.w3.org/2000/svg">
<g filter="url(#filter0_d_89_6120)">
<mask id="path-1-inside-1_89_6120" fill="white">
<path fill-rule="evenodd" clip-rule="evenodd" d="M31 35.5919C28.3524 37.1235 25.2786 38 22 38C12.0589 38 4 29.9411 4 20C4 10.0589 12.0589 2 22 2C25.2786 2 28.3524 2.87655 31 4.40808C33.6476 2.87655 36.7214 2 40 2C49.9411 2 58 10.0589 58 20C58 29.9411 49.9411 38 40 38C36.7214 38 33.6476 37.1235 31 35.5919Z"/>
</mask>
<path fill-rule="evenodd" clip-rule="evenodd" d="M31 35.5919C28.3524 37.1235 25.2786 38 22 38C12.0589 38 4 29.9411 4 20C4 10.0589 12.0589 2 22 2C25.2786 2 28.3524 2.87655 31 4.40808C33.6476 2.87655 36.7214 2 40 2C49.9411 2 58 10.0589 58 20C58 29.9411 49.9411 38 40 38C36.7214 38 33.6476 37.1235 31 35.5919Z" fill="url(#paint0_linear_89_6120)"/>
<path d="M31 35.5919L32.0015 33.8607L31 33.2814L29.9985 33.8607L31 35.5919ZM31 4.40808L29.9986 6.13929L31 6.7186L32.0015 6.13929L31 4.40808ZM29.9985 33.8607C27.6472 35.2209 24.9176 36 22 36V40C25.6395 40 29.0577 39.026 32.0015 37.3231L29.9985 33.8607ZM22 36C13.1634 36 6 28.8366 6 20H2C2 31.0457 10.9543 40 22 40V36ZM6 20C6 11.1634 13.1634 4 22 4V0C10.9543 0 2 8.9543 2 20H6ZM22 4C24.9176 4 27.6472 4.77911 29.9986 6.13929L32.0015 2.67687C29.0577 0.973988 25.6395 0 22 0V4ZM32.0015 6.13929C34.3528 4.77911 37.0824 4 40 4V0C36.3605 0 32.9423 0.973989 29.9986 2.67687L32.0015 6.13929ZM40 4C48.8366 4 56 11.1634 56 20H60C60 8.9543 51.0457 0 40 0V4ZM56 20C56 28.8366 48.8366 36 40 36V40C51.0457 40 60 31.0457 60 20H56ZM40 36C37.0824 36 34.3528 35.2209 32.0015 33.8607L29.9985 37.3231C32.9423 39.026 36.3605 40 40 40V36Z" fill="white" mask="url(#path-1-inside-1_89_6120)"/>
</g>
<path d="M29.5046 10.428C29.5046 9.044 29.7526 7.96 30.2486 7.176C30.7526 6.392 31.5846 6 32.7446 6C33.9046 6 34.7326 6.392 35.2286 7.176C35.7326 7.96 35.9846 9.044 35.9846 10.428C35.9846 11.82 35.7326 12.912 35.2286 13.704C34.7326 14.496 33.9046 14.892 32.7446 14.892C31.5846 14.892 30.7526 14.496 30.2486 13.704C29.7526 12.912 29.5046 11.82 29.5046 10.428ZM34.3286 10.428C34.3286 9.836 34.2886 9.34 34.2086 8.94C34.1366 8.532 33.9846 8.2 33.7526 7.944C33.5286 7.688 33.1926 7.56 32.7446 7.56C32.2966 7.56 31.9566 7.688 31.7246 7.944C31.5006 8.2 31.3486 8.532 31.2686 8.94C31.1966 9.34 31.1606 9.836 31.1606 10.428C31.1606 11.036 31.1966 11.548 31.2686 11.964C31.3406 12.372 31.4926 12.704 31.7246 12.96C31.9566 13.208 32.2966 13.332 32.7446 13.332C33.1926 13.332 33.5326 13.208 33.7646 12.96C33.9966 12.704 34.1486 12.372 34.2206 11.964C34.2926 11.548 34.3286 11.036 34.3286 10.428Z" fill="#526E48"/>
<path d="M26.0154 7.548V6H28.9074V14.748H27.1794V7.548H26.0154Z" fill="#526E48"/>
<defs>
<filter id="filter0_d_89_6120" x="0" y="0" width="62" height="44" filterUnits="userSpaceOnUse" color-interpolation-filters="sRGB">
<feFlood flood-opacity="0" result="BackgroundImageFix"/>
<feColorMatrix in="SourceAlpha" type="matrix" values="0 0 0 0 0 0 0 0 0 0 0 0 0 0 0 0 0 0 127 0" result="hardAlpha"/>
<feOffset dy="2"/>
<feGaussianBlur stdDeviation="2"/>
<feComposite in2="hardAlpha" operator="out"/>
<feColorMatrix type="matrix" values="0 0 0 0 0 0 0 0 0 0 0 0 0 0 0 0 0 0 0.5 0"/>
<feBlend mode="normal" in2="BackgroundImageFix" result="effect1_dropShadow_89_6120"/>
<feBlend mode="normal" in="SourceGraphic" in2="effect1_dropShadow_89_6120" result="shape"/>
</filter>
<linearGradient id="paint0_linear_89_6120" x1="4" y1="20" x2="58" y2="20" gradientUnits="userSpaceOnUse">
<stop offset="0.45" stop-color="#C2FFC7"/>
<stop offset="0.55" stop-color="#9EDF9C"/>
</linearGradient>
</defs>
</svg>
