<svg width="62" height="44" viewBox="0 0 62 44" fill="none" xmlns="http://www.w3.org/2000/svg">
<g filter="url(#filter0_d_89_6112)">
<mask id="path-1-inside-1_89_6112" fill="white">
<path fill-rule="evenodd" clip-rule="evenodd" d="M31 35.5919C28.3524 37.1235 25.2786 38 22 38C12.0589 38 4 29.9411 4 20C4 10.0589 12.0589 2 22 2C25.2786 2 28.3524 2.87655 31 4.40808C33.6476 2.87655 36.7214 2 40 2C49.9411 2 58 10.0589 58 20C58 29.9411 49.9411 38 40 38C36.7214 38 33.6476 37.1235 31 35.5919Z"/>
</mask>
<path fill-rule="evenodd" clip-rule="evenodd" d="M31 35.5919C28.3524 37.1235 25.2786 38 22 38C12.0589 38 4 29.9411 4 20C4 10.0589 12.0589 2 22 2C25.2786 2 28.3524 2.87655 31 4.40808C33.6476 2.87655 36.7214 2 40 2C49.9411 2 58 10.0589 58 20C58 29.9411 49.9411 38 40 38C36.7214 38 33.6476 37.1235 31 35.5919Z" fill="url(#paint0_linear_89_6112)"/>
<path d="M31 35.5919L32.0015 33.8607L31 33.2814L29.9985 33.8607L31 35.5919ZM31 4.40808L29.9986 6.13929L31 6.7186L32.0015 6.13929L31 4.40808ZM29.9985 33.8607C27.6472 35.2209 24.9176 36 22 36V40C25.6395 40 29.0577 39.026 32.0015 37.3231L29.9985 33.8607ZM22 36C13.1634 36 6 28.8366 6 20H2C2 31.0457 10.9543 40 22 40V36ZM6 20C6 11.1634 13.1634 4 22 4V0C10.9543 0 2 8.9543 2 20H6ZM22 4C24.9176 4 27.6472 4.77911 29.9986 6.13929L32.0015 2.67687C29.0577 0.973988 25.6395 0 22 0V4ZM32.0015 6.13929C34.3528 4.77911 37.0824 4 40 4V0C36.3605 0 32.9423 0.973989 29.9986 2.67687L32.0015 6.13929ZM40 4C48.8366 4 56 11.1634 56 20H60C60 8.9543 51.0457 0 40 0V4ZM56 20C56 28.8366 48.8366 36 40 36V40C51.0457 40 60 31.0457 60 20H56ZM40 36C37.0824 36 34.3528 35.2209 32.0015 33.8607L29.9985 37.3231C32.9423 39.026 36.3605 40 40 40V36Z" fill="white" mask="url(#path-1-inside-1_89_6112)"/>
</g>
<path d="M31.5479 10.284C30.7479 9.868 30.3479 9.22401 30.3479 8.35201C30.3479 7.92001 30.4559 7.528 30.6719 7.17599C30.8959 6.81599 31.2279 6.532 31.6679 6.32401C32.1159 6.10801 32.6599 6 33.2999 6C33.9399 6 34.4799 6.10801 34.9199 6.32401C35.3679 6.532 35.6999 6.81599 35.9159 7.17599C36.1399 7.528 36.2519 7.92001 36.2519 8.35201C36.2519 8.79201 36.1439 9.18001 35.9279 9.51601C35.7119 9.84401 35.4239 10.1 35.0639 10.284C35.5039 10.476 35.8479 10.756 36.0959 11.124C36.3439 11.492 36.4679 11.928 36.4679 12.432C36.4679 12.976 36.3279 13.452 36.0479 13.86C35.7759 14.26 35.3999 14.568 34.9199 14.784C34.4399 15 33.8999 15.108 33.2999 15.108C32.6999 15.108 32.1599 15 31.6799 14.784C31.2079 14.568 30.8319 14.26 30.5519 13.86C30.2799 13.452 30.1439 12.976 30.1439 12.432C30.1439 11.928 30.2679 11.492 30.5159 11.124C30.7639 10.748 31.1079 10.468 31.5479 10.284ZM34.6199 8.592C34.6199 8.2 34.4999 7.89599 34.2599 7.67999C34.0279 7.46399 33.7079 7.356 33.2999 7.356C32.8999 7.356 32.5799 7.46399 32.3399 7.67999C32.1079 7.89599 31.9919 8.204 31.9919 8.604C31.9919 8.964 32.1119 9.252 32.3519 9.468C32.5999 9.684 32.9159 9.79201 33.2999 9.79201C33.6839 9.79201 33.9999 9.684 34.2479 9.468C34.4959 9.244 34.6199 8.952 34.6199 8.592ZM33.2999 11.016C32.8439 11.016 32.4719 11.132 32.1839 11.364C31.9039 11.596 31.7639 11.928 31.7639 12.36C31.7639 12.76 31.8999 13.088 32.1719 13.344C32.4519 13.592 32.8279 13.716 33.2999 13.716C33.7719 13.716 34.1439 13.588 34.4159 13.332C34.6879 13.076 34.8239 12.752 34.8239 12.36C34.8239 11.936 34.6839 11.608 34.4039 11.376C34.1239 11.136 33.7559 11.016 33.2999 11.016Z" fill="#526E48"/>
<path d="M25.5322 7.716V6.168H28.4242V14.916H26.6962V7.716H25.5322Z" fill="#526E48"/>
<defs>
<filter id="filter0_d_89_6112" x="0" y="0" width="62" height="44" filterUnits="userSpaceOnUse" color-interpolation-filters="sRGB">
<feFlood flood-opacity="0" result="BackgroundImageFix"/>
<feColorMatrix in="SourceAlpha" type="matrix" values="0 0 0 0 0 0 0 0 0 0 0 0 0 0 0 0 0 0 127 0" result="hardAlpha"/>
<feOffset dy="2"/>
<feGaussianBlur stdDeviation="2"/>
<feComposite in2="hardAlpha" operator="out"/>
<feColorMatrix type="matrix" values="0 0 0 0 0 0 0 0 0 0 0 0 0 0 0 0 0 0 0.5 0"/>
<feBlend mode="normal" in2="BackgroundImageFix" result="effect1_dropShadow_89_6112"/>
<feBlend mode="normal" in="SourceGraphic" in2="effect1_dropShadow_89_6112" result="shape"/>
</filter>
<linearGradient id="paint0_linear_89_6112" x1="4" y1="20" x2="58" y2="20" gradientUnits="userSpaceOnUse">
<stop offset="0.45" stop-color="#C2FFC7"/>
<stop offset="0.55" stop-color="#9EDF9C"/>
</linearGradient>
</defs>
</svg>
