<svg width="62" height="44" viewBox="0 0 62 44" fill="none" xmlns="http://www.w3.org/2000/svg">
<g filter="url(#filter0_d_89_6109)">
<mask id="path-1-inside-1_89_6109" fill="white">
<path fill-rule="evenodd" clip-rule="evenodd" d="M31 35.5919C28.3524 37.1235 25.2786 38 22 38C12.0589 38 4 29.9411 4 20C4 10.0589 12.0589 2 22 2C25.2786 2 28.3524 2.87655 31 4.40808C33.6476 2.87655 36.7214 2 40 2C49.9411 2 58 10.0589 58 20C58 29.9411 49.9411 38 40 38C36.7214 38 33.6476 37.1235 31 35.5919Z"/>
</mask>
<path fill-rule="evenodd" clip-rule="evenodd" d="M31 35.5919C28.3524 37.1235 25.2786 38 22 38C12.0589 38 4 29.9411 4 20C4 10.0589 12.0589 2 22 2C25.2786 2 28.3524 2.87655 31 4.40808C33.6476 2.87655 36.7214 2 40 2C49.9411 2 58 10.0589 58 20C58 29.9411 49.9411 38 40 38C36.7214 38 33.6476 37.1235 31 35.5919Z" fill="url(#paint0_linear_89_6109)"/>
<path d="M31 35.5919L32.0015 33.8607L31 33.2814L29.9985 33.8607L31 35.5919ZM31 4.40808L29.9986 6.13929L31 6.7186L32.0015 6.13929L31 4.40808ZM29.9985 33.8607C27.6472 35.2209 24.9176 36 22 36V40C25.6395 40 29.0577 39.026 32.0015 37.3231L29.9985 33.8607ZM22 36C13.1634 36 6 28.8366 6 20H2C2 31.0457 10.9543 40 22 40V36ZM6 20C6 11.1634 13.1634 4 22 4V0C10.9543 0 2 8.9543 2 20H6ZM22 4C24.9176 4 27.6472 4.77911 29.9986 6.13929L32.0015 2.67687C29.0577 0.973988 25.6395 0 22 0V4ZM32.0015 6.13929C34.3528 4.77911 37.0824 4 40 4V0C36.3605 0 32.9423 0.973989 29.9986 2.67687L32.0015 6.13929ZM40 4C48.8366 4 56 11.1634 56 20H60C60 8.9543 51.0457 0 40 0V4ZM56 20C56 28.8366 48.8366 36 40 36V40C51.0457 40 60 31.0457 60 20H56ZM40 36C37.0824 36 34.3528 35.2209 32.0015 33.8607L29.9985 37.3231C32.9423 39.026 36.3605 40 40 40V36Z" fill="white" mask="url(#path-1-inside-1_89_6109)"/>
</g>
<path d="M32.9513 7.74V6.192H35.8433V14.94H34.1153V7.74H32.9513Z" fill="#526E48"/>
<path d="M26.7926 13.044C27.5606 12.404 28.1726 11.872 28.6286 11.448C29.0846 11.016 29.4646 10.568 29.7686 10.104C30.0726 9.64 30.2246 9.184 30.2246 8.736C30.2246 8.328 30.1286 8.008 29.9366 7.776C29.7446 7.544 29.4486 7.428 29.0486 7.428C28.6486 7.428 28.3406 7.564 28.1246 7.836C27.9086 8.1 27.7966 8.464 27.7886 8.928H26.1566C26.1886 7.968 26.4726 7.24 27.0086 6.744C27.5526 6.248 28.2406 6 29.0726 6C29.9846 6 30.6846 6.244 31.1726 6.732C31.6606 7.212 31.9046 7.848 31.9046 8.64C31.9046 9.264 31.7366 9.86 31.4006 10.428C31.0646 10.996 30.6806 11.492 30.2486 11.916C29.8166 12.332 29.2526 12.836 28.5566 13.428H32.0966V14.82H26.1686V13.572L26.7926 13.044Z" fill="#526E48"/>
<defs>
<filter id="filter0_d_89_6109" x="0" y="0" width="62" height="44" filterUnits="userSpaceOnUse" color-interpolation-filters="sRGB">
<feFlood flood-opacity="0" result="BackgroundImageFix"/>
<feColorMatrix in="SourceAlpha" type="matrix" values="0 0 0 0 0 0 0 0 0 0 0 0 0 0 0 0 0 0 127 0" result="hardAlpha"/>
<feOffset dy="2"/>
<feGaussianBlur stdDeviation="2"/>
<feComposite in2="hardAlpha" operator="out"/>
<feColorMatrix type="matrix" values="0 0 0 0 0 0 0 0 0 0 0 0 0 0 0 0 0 0 0.5 0"/>
<feBlend mode="normal" in2="BackgroundImageFix" result="effect1_dropShadow_89_6109"/>
<feBlend mode="normal" in="SourceGraphic" in2="effect1_dropShadow_89_6109" result="shape"/>
</filter>
<linearGradient id="paint0_linear_89_6109" x1="4" y1="20" x2="58" y2="20" gradientUnits="userSpaceOnUse">
<stop offset="0.45" stop-color="#C2FFC7"/>
<stop offset="0.55" stop-color="#9EDF9C"/>
</linearGradient>
</defs>
</svg>
