<svg width="62" height="44" viewBox="0 0 62 44" fill="none" xmlns="http://www.w3.org/2000/svg">
<g filter="url(#filter0_d_89_6104)">
<mask id="path-1-inside-1_89_6104" fill="white">
<path fill-rule="evenodd" clip-rule="evenodd" d="M31 35.5919C28.3524 37.1235 25.2786 38 22 38C12.0589 38 4 29.9411 4 20C4 10.0589 12.0589 2 22 2C25.2786 2 28.3524 2.87655 31 4.40808C33.6476 2.87655 36.7214 2 40 2C49.9411 2 58 10.0589 58 20C58 29.9411 49.9411 38 40 38C36.7214 38 33.6476 37.1235 31 35.5919Z"/>
</mask>
<path fill-rule="evenodd" clip-rule="evenodd" d="M31 35.5919C28.3524 37.1235 25.2786 38 22 38C12.0589 38 4 29.9411 4 20C4 10.0589 12.0589 2 22 2C25.2786 2 28.3524 2.87655 31 4.40808C33.6476 2.87655 36.7214 2 40 2C49.9411 2 58 10.0589 58 20C58 29.9411 49.9411 38 40 38C36.7214 38 33.6476 37.1235 31 35.5919Z" fill="url(#paint0_linear_89_6104)"/>
<path d="M31 35.5919L32.0015 33.8607L31 33.2814L29.9985 33.8607L31 35.5919ZM31 4.40808L29.9986 6.13929L31 6.7186L32.0015 6.13929L31 4.40808ZM29.9985 33.8607C27.6472 35.2209 24.9176 36 22 36V40C25.6395 40 29.0577 39.026 32.0015 37.3231L29.9985 33.8607ZM22 36C13.1634 36 6 28.8366 6 20H2C2 31.0457 10.9543 40 22 40V36ZM6 20C6 11.1634 13.1634 4 22 4V0C10.9543 0 2 8.9543 2 20H6ZM22 4C24.9176 4 27.6472 4.77911 29.9986 6.13929L32.0015 2.67687C29.0577 0.973988 25.6395 0 22 0V4ZM32.0015 6.13929C34.3528 4.77911 37.0824 4 40 4V0C36.3605 0 32.9423 0.973989 29.9986 2.67687L32.0015 6.13929ZM40 4C48.8366 4 56 11.1634 56 20H60C60 8.9543 51.0457 0 40 0V4ZM56 20C56 28.8366 48.8366 36 40 36V40C51.0457 40 60 31.0457 60 20H56ZM40 36C37.0824 36 34.3528 35.2209 32.0015 33.8607L29.9985 37.3231C32.9423 39.026 36.3605 40 40 40V36Z" fill="white" mask="url(#path-1-inside-1_89_6104)"/>
</g>
<path d="M35.8613 8.388C35.7813 8.052 35.6413 7.8 35.4413 7.632C35.2493 7.464 34.9693 7.38 34.6013 7.38C34.0493 7.38 33.6413 7.604 33.3773 8.052C33.1213 8.492 32.9893 9.21201 32.9813 10.212C33.1733 9.89201 33.4533 9.644 33.8213 9.468C34.1893 9.284 34.5893 9.192 35.0213 9.192C35.5413 9.192 36.0013 9.304 36.4013 9.528C36.8013 9.752 37.1133 10.08 37.3373 10.512C37.5613 10.936 37.6733 11.448 37.6733 12.048C37.6733 12.616 37.5573 13.124 37.3253 13.572C37.1013 14.012 36.7693 14.356 36.3293 14.604C35.8893 14.852 35.3653 14.976 34.7573 14.976C33.9253 14.976 33.2693 14.792 32.7893 14.424C32.3173 14.056 31.9853 13.544 31.7933 12.888C31.6093 12.224 31.5173 11.408 31.5173 10.44C31.5173 8.976 31.7693 7.87201 32.2733 7.12801C32.7773 6.37601 33.5733 6 34.6613 6C35.5013 6 36.1533 6.22801 36.6173 6.68401C37.0813 7.14001 37.3493 7.708 37.4213 8.388H35.8613ZM34.6373 10.572C34.2133 10.572 33.8573 10.696 33.5693 10.944C33.2813 11.192 33.1373 11.552 33.1373 12.024C33.1373 12.496 33.2693 12.868 33.5333 13.14C33.8053 13.412 34.1853 13.548 34.6733 13.548C35.1053 13.548 35.4453 13.416 35.6933 13.152C35.9493 12.888 36.0773 12.532 36.0773 12.084C36.0773 11.62 35.9533 11.252 35.7053 10.98C35.4653 10.708 35.1093 10.572 34.6373 10.572Z" fill="#526E48"/>
<path d="M24.9627 13.056C25.7307 12.416 26.3427 11.884 26.7987 11.46C27.2547 11.028 27.6347 10.58 27.9387 10.116C28.2427 9.652 28.3947 9.196 28.3947 8.748C28.3947 8.34 28.2987 8.02 28.1067 7.788C27.9147 7.556 27.6187 7.44 27.2187 7.44C26.8187 7.44 26.5107 7.576 26.2947 7.848C26.0787 8.112 25.9667 8.476 25.9587 8.94H24.3267C24.3587 7.98 24.6427 7.252 25.1787 6.756C25.7227 6.26 26.4107 6.012 27.2427 6.012C28.1547 6.012 28.8547 6.256 29.3427 6.744C29.8307 7.224 30.0747 7.86 30.0747 8.652C30.0747 9.276 29.9067 9.872 29.5707 10.44C29.2347 11.008 28.8507 11.504 28.4187 11.928C27.9867 12.344 27.4227 12.848 26.7267 13.44H30.2667V14.832H24.3387V13.584L24.9627 13.056Z" fill="#526E48"/>
<defs>
<filter id="filter0_d_89_6104" x="0" y="0" width="62" height="44" filterUnits="userSpaceOnUse" color-interpolation-filters="sRGB">
<feFlood flood-opacity="0" result="BackgroundImageFix"/>
<feColorMatrix in="SourceAlpha" type="matrix" values="0 0 0 0 0 0 0 0 0 0 0 0 0 0 0 0 0 0 127 0" result="hardAlpha"/>
<feOffset dy="2"/>
<feGaussianBlur stdDeviation="2"/>
<feComposite in2="hardAlpha" operator="out"/>
<feColorMatrix type="matrix" values="0 0 0 0 0 0 0 0 0 0 0 0 0 0 0 0 0 0 0.5 0"/>
<feBlend mode="normal" in2="BackgroundImageFix" result="effect1_dropShadow_89_6104"/>
<feBlend mode="normal" in="SourceGraphic" in2="effect1_dropShadow_89_6104" result="shape"/>
</filter>
<linearGradient id="paint0_linear_89_6104" x1="4" y1="20" x2="58" y2="20" gradientUnits="userSpaceOnUse">
<stop offset="0.45" stop-color="#C2FFC7"/>
<stop offset="0.55" stop-color="#9EDF9C"/>
</linearGradient>
</defs>
</svg>
