<svg width="62" height="44" viewBox="0 0 62 44" fill="none" xmlns="http://www.w3.org/2000/svg">
<g filter="url(#filter0_d_89_6102)">
<mask id="path-1-inside-1_89_6102" fill="white">
<path fill-rule="evenodd" clip-rule="evenodd" d="M31 35.5919C28.3524 37.1235 25.2786 38 22 38C12.0589 38 4 29.9411 4 20C4 10.0589 12.0589 2 22 2C25.2786 2 28.3524 2.87655 31 4.40808C33.6476 2.87655 36.7214 2 40 2C49.9411 2 58 10.0589 58 20C58 29.9411 49.9411 38 40 38C36.7214 38 33.6476 37.1235 31 35.5919Z"/>
</mask>
<path fill-rule="evenodd" clip-rule="evenodd" d="M31 35.5919C28.3524 37.1235 25.2786 38 22 38C12.0589 38 4 29.9411 4 20C4 10.0589 12.0589 2 22 2C25.2786 2 28.3524 2.87655 31 4.40808C33.6476 2.87655 36.7214 2 40 2C49.9411 2 58 10.0589 58 20C58 29.9411 49.9411 38 40 38C36.7214 38 33.6476 37.1235 31 35.5919Z" fill="url(#paint0_linear_89_6102)"/>
<path d="M31 35.5919L32.0015 33.8607L31 33.2814L29.9985 33.8607L31 35.5919ZM31 4.40808L29.9986 6.13929L31 6.7186L32.0015 6.13929L31 4.40808ZM29.9985 33.8607C27.6472 35.2209 24.9176 36 22 36V40C25.6395 40 29.0577 39.026 32.0015 37.3231L29.9985 33.8607ZM22 36C13.1634 36 6 28.8366 6 20H2C2 31.0457 10.9543 40 22 40V36ZM6 20C6 11.1634 13.1634 4 22 4V0C10.9543 0 2 8.9543 2 20H6ZM22 4C24.9176 4 27.6472 4.77911 29.9986 6.13929L32.0015 2.67687C29.0577 0.973988 25.6395 0 22 0V4ZM32.0015 6.13929C34.3528 4.77911 37.0824 4 40 4V0C36.3605 0 32.9423 0.973989 29.9986 2.67687L32.0015 6.13929ZM40 4C48.8366 4 56 11.1634 56 20H60C60 8.9543 51.0457 0 40 0V4ZM56 20C56 28.8366 48.8366 36 40 36V40C51.0457 40 60 31.0457 60 20H56ZM40 36C37.0824 36 34.3528 35.2209 32.0015 33.8607L29.9985 37.3231C32.9423 39.026 36.3605 40 40 40V36Z" fill="white" mask="url(#path-1-inside-1_89_6102)"/>
</g>
<path d="M32.7714 10.308C31.9714 9.892 31.5714 9.24801 31.5714 8.37601C31.5714 7.94401 31.6794 7.552 31.8954 7.2C32.1194 6.84 32.4514 6.55601 32.8914 6.34801C33.3394 6.13201 33.8834 6.024 34.5234 6.024C35.1634 6.024 35.7034 6.13201 36.1434 6.34801C36.5914 6.55601 36.9234 6.84 37.1394 7.2C37.3634 7.552 37.4754 7.94401 37.4754 8.37601C37.4754 8.81601 37.3674 9.20401 37.1514 9.54001C36.9354 9.86801 36.6474 10.124 36.2874 10.308C36.7274 10.5 37.0714 10.78 37.3194 11.148C37.5674 11.516 37.6914 11.952 37.6914 12.456C37.6914 13 37.5514 13.476 37.2714 13.884C36.9994 14.284 36.6234 14.592 36.1434 14.808C35.6634 15.024 35.1234 15.132 34.5234 15.132C33.9234 15.132 33.3834 15.024 32.9034 14.808C32.4314 14.592 32.0554 14.284 31.7754 13.884C31.5034 13.476 31.3674 13 31.3674 12.456C31.3674 11.952 31.4914 11.516 31.7394 11.148C31.9874 10.772 32.3314 10.492 32.7714 10.308ZM35.8434 8.616C35.8434 8.224 35.7234 7.91999 35.4834 7.70399C35.2514 7.48799 34.9314 7.38 34.5234 7.38C34.1234 7.38 33.8034 7.48799 33.5634 7.70399C33.3314 7.91999 33.2154 8.22801 33.2154 8.62801C33.2154 8.98801 33.3354 9.276 33.5754 9.492C33.8234 9.708 34.1394 9.81601 34.5234 9.81601C34.9074 9.81601 35.2234 9.708 35.4714 9.492C35.7194 9.268 35.8434 8.976 35.8434 8.616ZM34.5234 11.04C34.0674 11.04 33.6954 11.156 33.4074 11.388C33.1274 11.62 32.9874 11.952 32.9874 12.384C32.9874 12.784 33.1234 13.112 33.3954 13.368C33.6754 13.616 34.0514 13.74 34.5234 13.74C34.9954 13.74 35.3674 13.612 35.6394 13.356C35.9114 13.1 36.0474 12.776 36.0474 12.384C36.0474 11.96 35.9074 11.632 35.6274 11.4C35.3474 11.16 34.9794 11.04 34.5234 11.04Z" fill="#526E48"/>
<path d="M24.9447 13.044C25.7127 12.404 26.3247 11.872 26.7807 11.448C27.2367 11.016 27.6167 10.568 27.9207 10.104C28.2247 9.64 28.3767 9.18401 28.3767 8.73601C28.3767 8.32801 28.2807 8.008 28.0887 7.776C27.8967 7.544 27.6007 7.42801 27.2007 7.42801C26.8007 7.42801 26.4927 7.564 26.2767 7.836C26.0607 8.1 25.9487 8.46401 25.9407 8.92801H24.3087C24.3407 7.96801 24.6247 7.24 25.1607 6.744C25.7047 6.248 26.3927 6 27.2247 6C28.1367 6 28.8367 6.24399 29.3247 6.73199C29.8127 7.21199 30.0567 7.848 30.0567 8.64C30.0567 9.264 29.8887 9.86001 29.5527 10.428C29.2167 10.996 28.8327 11.492 28.4007 11.916C27.9687 12.332 27.4047 12.836 26.7087 13.428H30.2487V14.82H24.3207V13.572L24.9447 13.044Z" fill="#526E48"/>
<defs>
<filter id="filter0_d_89_6102" x="0" y="0" width="62" height="44" filterUnits="userSpaceOnUse" color-interpolation-filters="sRGB">
<feFlood flood-opacity="0" result="BackgroundImageFix"/>
<feColorMatrix in="SourceAlpha" type="matrix" values="0 0 0 0 0 0 0 0 0 0 0 0 0 0 0 0 0 0 127 0" result="hardAlpha"/>
<feOffset dy="2"/>
<feGaussianBlur stdDeviation="2"/>
<feComposite in2="hardAlpha" operator="out"/>
<feColorMatrix type="matrix" values="0 0 0 0 0 0 0 0 0 0 0 0 0 0 0 0 0 0 0.5 0"/>
<feBlend mode="normal" in2="BackgroundImageFix" result="effect1_dropShadow_89_6102"/>
<feBlend mode="normal" in="SourceGraphic" in2="effect1_dropShadow_89_6102" result="shape"/>
</filter>
<linearGradient id="paint0_linear_89_6102" x1="4" y1="20" x2="58" y2="20" gradientUnits="userSpaceOnUse">
<stop offset="0.45" stop-color="#C2FFC7"/>
<stop offset="0.55" stop-color="#9EDF9C"/>
</linearGradient>
</defs>
</svg>
