<svg width="62" height="44" viewBox="0 0 62 44" fill="none" xmlns="http://www.w3.org/2000/svg">
<g filter="url(#filter0_d_89_6101)">
<mask id="path-1-inside-1_89_6101" fill="white">
<path fill-rule="evenodd" clip-rule="evenodd" d="M31 35.5919C28.3524 37.1235 25.2786 38 22 38C12.0589 38 4 29.9411 4 20C4 10.0589 12.0589 2 22 2C25.2786 2 28.3524 2.87655 31 4.40808C33.6476 2.87655 36.7214 2 40 2C49.9411 2 58 10.0589 58 20C58 29.9411 49.9411 38 40 38C36.7214 38 33.6476 37.1235 31 35.5919Z"/>
</mask>
<path fill-rule="evenodd" clip-rule="evenodd" d="M31 35.5919C28.3524 37.1235 25.2786 38 22 38C12.0589 38 4 29.9411 4 20C4 10.0589 12.0589 2 22 2C25.2786 2 28.3524 2.87655 31 4.40808C33.6476 2.87655 36.7214 2 40 2C49.9411 2 58 10.0589 58 20C58 29.9411 49.9411 38 40 38C36.7214 38 33.6476 37.1235 31 35.5919Z" fill="url(#paint0_linear_89_6101)"/>
<path d="M31 35.5919L32.0015 33.8607L31 33.2814L29.9985 33.8607L31 35.5919ZM31 4.40808L29.9986 6.13929L31 6.7186L32.0015 6.13929L31 4.40808ZM29.9985 33.8607C27.6472 35.2209 24.9176 36 22 36V40C25.6395 40 29.0577 39.026 32.0015 37.3231L29.9985 33.8607ZM22 36C13.1634 36 6 28.8366 6 20H2C2 31.0457 10.9543 40 22 40V36ZM6 20C6 11.1634 13.1634 4 22 4V0C10.9543 0 2 8.9543 2 20H6ZM22 4C24.9176 4 27.6472 4.77911 29.9986 6.13929L32.0015 2.67687C29.0577 0.973988 25.6395 0 22 0V4ZM32.0015 6.13929C34.3528 4.77911 37.0824 4 40 4V0C36.3605 0 32.9423 0.973989 29.9986 2.67687L32.0015 6.13929ZM40 4C48.8366 4 56 11.1634 56 20H60C60 8.9543 51.0457 0 40 0V4ZM56 20C56 28.8366 48.8366 36 40 36V40C51.0457 40 60 31.0457 60 20H56ZM40 36C37.0824 36 34.3528 35.2209 32.0015 33.8607L29.9985 37.3231C32.9423 39.026 36.3605 40 40 40V36Z" fill="white" mask="url(#path-1-inside-1_89_6101)"/>
</g>
<path d="M33.3414 12.492C33.4054 12.844 33.5494 13.116 33.7734 13.308C34.0054 13.492 34.3134 13.584 34.6974 13.584C35.1934 13.584 35.5534 13.38 35.7774 12.972C36.0014 12.556 36.1134 11.86 36.1134 10.884C35.9294 11.14 35.6694 11.34 35.3334 11.484C35.0054 11.628 34.6494 11.7 34.2654 11.7C33.7534 11.7 33.2894 11.596 32.8734 11.388C32.4654 11.172 32.1414 10.856 31.9014 10.44C31.6614 10.016 31.5414 9.50399 31.5414 8.90399C31.5414 8.01599 31.8054 7.31199 32.3334 6.79199C32.8614 6.26399 33.5814 6 34.4934 6C35.6294 6 36.4293 6.364 36.8934 7.092C37.3654 7.82 37.6014 8.91599 37.6014 10.38C37.6014 11.42 37.5094 12.272 37.3254 12.936C37.1494 13.6 36.8414 14.104 36.4014 14.448C35.9694 14.792 35.3774 14.964 34.6254 14.964C34.0334 14.964 33.5294 14.852 33.1134 14.628C32.6974 14.396 32.3774 14.096 32.1534 13.728C31.9374 13.352 31.8134 12.94 31.7814 12.492H33.3414ZM34.6134 10.332C35.0294 10.332 35.3574 10.204 35.5974 9.948C35.8374 9.692 35.9574 9.348 35.9574 8.916C35.9574 8.444 35.8294 8.07999 35.5734 7.82399C35.3254 7.55999 34.9854 7.42799 34.5534 7.42799C34.1214 7.42799 33.7774 7.564 33.5214 7.836C33.2734 8.1 33.1494 8.452 33.1494 8.892C33.1494 9.316 33.2694 9.66399 33.5094 9.93599C33.7574 10.2 34.1254 10.332 34.6134 10.332Z" fill="#526E48"/>
<path d="M25.0347 13.056C25.8027 12.416 26.4147 11.884 26.8707 11.46C27.3267 11.028 27.7067 10.58 28.0107 10.116C28.3147 9.652 28.4667 9.196 28.4667 8.748C28.4667 8.34 28.3707 8.01999 28.1787 7.78799C27.9867 7.55599 27.6907 7.44 27.2907 7.44C26.8907 7.44 26.5827 7.57599 26.3667 7.84799C26.1507 8.11199 26.0387 8.476 26.0307 8.94H24.3987C24.4307 7.98 24.7147 7.252 25.2507 6.756C25.7947 6.26 26.4827 6.01199 27.3147 6.01199C28.2267 6.01199 28.9267 6.25599 29.4147 6.74399C29.9027 7.22399 30.1467 7.85999 30.1467 8.65199C30.1467 9.27599 29.9787 9.872 29.6427 10.44C29.3067 11.008 28.9227 11.504 28.4907 11.928C28.0587 12.344 27.4947 12.848 26.7987 13.44H30.3387V14.832H24.4107V13.584L25.0347 13.056Z" fill="#526E48"/>
<defs>
<filter id="filter0_d_89_6101" x="0" y="0" width="62" height="44" filterUnits="userSpaceOnUse" color-interpolation-filters="sRGB">
<feFlood flood-opacity="0" result="BackgroundImageFix"/>
<feColorMatrix in="SourceAlpha" type="matrix" values="0 0 0 0 0 0 0 0 0 0 0 0 0 0 0 0 0 0 127 0" result="hardAlpha"/>
<feOffset dy="2"/>
<feGaussianBlur stdDeviation="2"/>
<feComposite in2="hardAlpha" operator="out"/>
<feColorMatrix type="matrix" values="0 0 0 0 0 0 0 0 0 0 0 0 0 0 0 0 0 0 0.5 0"/>
<feBlend mode="normal" in2="BackgroundImageFix" result="effect1_dropShadow_89_6101"/>
<feBlend mode="normal" in="SourceGraphic" in2="effect1_dropShadow_89_6101" result="shape"/>
</filter>
<linearGradient id="paint0_linear_89_6101" x1="4" y1="20" x2="58" y2="20" gradientUnits="userSpaceOnUse">
<stop offset="0.45" stop-color="#C2FFC7"/>
<stop offset="0.55" stop-color="#9EDF9C"/>
</linearGradient>
</defs>
</svg>
