<svg width="62" height="44" viewBox="0 0 62 44" fill="none" xmlns="http://www.w3.org/2000/svg">
<g filter="url(#filter0_d_85_2449)">
<mask id="path-1-inside-1_85_2449" fill="white">
<path fill-rule="evenodd" clip-rule="evenodd" d="M31 35.5919C28.3524 37.1235 25.2786 38 22 38C12.0589 38 4 29.9411 4 20C4 10.0589 12.0589 2 22 2C25.2786 2 28.3524 2.87655 31 4.40808C33.6476 2.87655 36.7214 2 40 2C49.9411 2 58 10.0589 58 20C58 29.9411 49.9411 38 40 38C36.7214 38 33.6476 37.1235 31 35.5919Z"/>
</mask>
<path fill-rule="evenodd" clip-rule="evenodd" d="M31 35.5919C28.3524 37.1235 25.2786 38 22 38C12.0589 38 4 29.9411 4 20C4 10.0589 12.0589 2 22 2C25.2786 2 28.3524 2.87655 31 4.40808C33.6476 2.87655 36.7214 2 40 2C49.9411 2 58 10.0589 58 20C58 29.9411 49.9411 38 40 38C36.7214 38 33.6476 37.1235 31 35.5919Z" fill="url(#paint0_linear_85_2449)"/>
<path d="M31 35.5919L32.0015 33.8607L31 33.2814L29.9985 33.8607L31 35.5919ZM31 4.40808L29.9986 6.13929L31 6.7186L32.0015 6.13929L31 4.40808ZM29.9985 33.8607C27.6472 35.2209 24.9176 36 22 36V40C25.6395 40 29.0577 39.026 32.0015 37.3231L29.9985 33.8607ZM22 36C13.1634 36 6 28.8366 6 20H2C2 31.0457 10.9543 40 22 40V36ZM6 20C6 11.1634 13.1634 4 22 4V0C10.9543 0 2 8.9543 2 20H6ZM22 4C24.9176 4 27.6472 4.77911 29.9986 6.13929L32.0015 2.67687C29.0577 0.973988 25.6395 0 22 0V4ZM32.0015 6.13929C34.3528 4.77911 37.0824 4 40 4V0C36.3605 0 32.9423 0.973989 29.9986 2.67687L32.0015 6.13929ZM40 4C48.8366 4 56 11.1634 56 20H60C60 8.9543 51.0457 0 40 0V4ZM56 20C56 28.8366 48.8366 36 40 36V40C51.0457 40 60 31.0457 60 20H56ZM40 36C37.0824 36 34.3528 35.2209 32.0015 33.8607L29.9985 37.3231C32.9423 39.026 36.3605 40 40 40V36Z" fill="white" mask="url(#path-1-inside-1_85_2449)"/>
</g>
<path d="M37.1573 7.644H33.2693V9.696C33.4373 9.488 33.6773 9.32 33.9893 9.192C34.3013 9.056 34.6333 8.988 34.9853 8.988C35.6253 8.988 36.1493 9.128 36.5573 9.408C36.9653 9.688 37.2613 10.048 37.4453 10.488C37.6293 10.92 37.7213 11.384 37.7213 11.88C37.7213 12.8 37.4573 13.54 36.9293 14.1C36.4093 14.66 35.6653 14.94 34.6973 14.94C33.7853 14.94 33.0573 14.712 32.5133 14.256C31.9693 13.8 31.6613 13.204 31.5893 12.468H33.2213C33.2933 12.788 33.4533 13.044 33.7013 13.236C33.9573 13.428 34.2813 13.524 34.6733 13.524C35.1453 13.524 35.5013 13.376 35.7413 13.08C35.9813 12.784 36.1013 12.392 36.1013 11.904C36.1013 11.408 35.9773 11.032 35.7293 10.776C35.4893 10.512 35.1333 10.38 34.6613 10.38C34.3253 10.38 34.0453 10.464 33.8213 10.632C33.5973 10.8 33.4373 11.024 33.3413 11.304H31.7333V6.168H37.1573V7.644Z" fill="#4D869C"/>
<path d="M24.9147 13.044C25.6827 12.404 26.2947 11.872 26.7507 11.448C27.2067 11.016 27.5867 10.568 27.8907 10.104C28.1947 9.64 28.3467 9.184 28.3467 8.736C28.3467 8.328 28.2507 8.008 28.0587 7.776C27.8667 7.544 27.5707 7.428 27.1707 7.428C26.7707 7.428 26.4627 7.564 26.2467 7.836C26.0307 8.1 25.9187 8.464 25.9107 8.928H24.2787C24.3107 7.968 24.5947 7.24 25.1307 6.744C25.6747 6.248 26.3627 6 27.1947 6C28.1067 6 28.8067 6.244 29.2947 6.732C29.7827 7.212 30.0267 7.848 30.0267 8.64C30.0267 9.264 29.8587 9.86 29.5227 10.428C29.1867 10.996 28.8027 11.492 28.3707 11.916C27.9387 12.332 27.3747 12.836 26.6787 13.428H30.2187V14.82H24.2907V13.572L24.9147 13.044Z" fill="#4D869C"/>
<defs>
<filter id="filter0_d_85_2449" x="0" y="0" width="62" height="44" filterUnits="userSpaceOnUse" color-interpolation-filters="sRGB">
<feFlood flood-opacity="0" result="BackgroundImageFix"/>
<feColorMatrix in="SourceAlpha" type="matrix" values="0 0 0 0 0 0 0 0 0 0 0 0 0 0 0 0 0 0 127 0" result="hardAlpha"/>
<feOffset dy="2"/>
<feGaussianBlur stdDeviation="2"/>
<feComposite in2="hardAlpha" operator="out"/>
<feColorMatrix type="matrix" values="0 0 0 0 0 0 0 0 0 0 0 0 0 0 0 0 0 0 0.5 0"/>
<feBlend mode="normal" in2="BackgroundImageFix" result="effect1_dropShadow_85_2449"/>
<feBlend mode="normal" in="SourceGraphic" in2="effect1_dropShadow_85_2449" result="shape"/>
</filter>
<linearGradient id="paint0_linear_85_2449" x1="4" y1="20" x2="58" y2="20" gradientUnits="userSpaceOnUse">
<stop offset="0.45" stop-color="#EEF7FF"/>
<stop offset="0.55" stop-color="#CDE8E5"/>
</linearGradient>
</defs>
</svg>
