<svg width="62" height="44" viewBox="0 0 62 44" fill="none" xmlns="http://www.w3.org/2000/svg">
<g filter="url(#filter0_d_85_2430)">
<mask id="path-1-inside-1_85_2430" fill="white">
<path fill-rule="evenodd" clip-rule="evenodd" d="M31 35.5919C28.3524 37.1235 25.2786 38 22 38C12.0589 38 4 29.9411 4 20C4 10.0589 12.0589 2 22 2C25.2786 2 28.3524 2.87655 31 4.40808C33.6476 2.87655 36.7214 2 40 2C49.9411 2 58 10.0589 58 20C58 29.9411 49.9411 38 40 38C36.7214 38 33.6476 37.1235 31 35.5919Z"/>
</mask>
<path fill-rule="evenodd" clip-rule="evenodd" d="M31 35.5919C28.3524 37.1235 25.2786 38 22 38C12.0589 38 4 29.9411 4 20C4 10.0589 12.0589 2 22 2C25.2786 2 28.3524 2.87655 31 4.40808C33.6476 2.87655 36.7214 2 40 2C49.9411 2 58 10.0589 58 20C58 29.9411 49.9411 38 40 38C36.7214 38 33.6476 37.1235 31 35.5919Z" fill="url(#paint0_linear_85_2430)"/>
<path d="M31 35.5919L32.0015 33.8607L31 33.2814L29.9985 33.8607L31 35.5919ZM31 4.40808L29.9986 6.13929L31 6.7186L32.0015 6.13929L31 4.40808ZM29.9985 33.8607C27.6472 35.2209 24.9176 36 22 36V40C25.6395 40 29.0577 39.026 32.0015 37.3231L29.9985 33.8607ZM22 36C13.1634 36 6 28.8366 6 20H2C2 31.0457 10.9543 40 22 40V36ZM6 20C6 11.1634 13.1634 4 22 4V0C10.9543 0 2 8.9543 2 20H6ZM22 4C24.9176 4 27.6472 4.77911 29.9986 6.13929L32.0015 2.67687C29.0577 0.973988 25.6395 0 22 0V4ZM32.0015 6.13929C34.3528 4.77911 37.0824 4 40 4V0C36.3605 0 32.9423 0.973989 29.9986 2.67687L32.0015 6.13929ZM40 4C48.8366 4 56 11.1634 56 20H60C60 8.9543 51.0457 0 40 0V4ZM56 20C56 28.8366 48.8366 36 40 36V40C51.0457 40 60 31.0457 60 20H56ZM40 36C37.0824 36 34.3528 35.2209 32.0015 33.8607L29.9985 37.3231C32.9423 39.026 36.3605 40 40 40V36Z" fill="white" mask="url(#path-1-inside-1_85_2430)"/>
</g>
<path d="M32.266 8.388C32.186 8.052 32.046 7.8 31.846 7.632C31.654 7.464 31.374 7.38 31.006 7.38C30.454 7.38 30.046 7.604 29.782 8.052C29.526 8.492 29.394 9.212 29.386 10.212C29.578 9.892 29.858 9.644 30.226 9.468C30.594 9.284 30.994 9.192 31.426 9.192C31.946 9.192 32.406 9.304 32.806 9.528C33.206 9.752 33.518 10.08 33.742 10.512C33.966 10.936 34.078 11.448 34.078 12.048C34.078 12.616 33.962 13.124 33.73 13.572C33.506 14.012 33.174 14.356 32.734 14.604C32.294 14.852 31.77 14.976 31.162 14.976C30.33 14.976 29.674 14.792 29.194 14.424C28.722 14.056 28.39 13.544 28.198 12.888C28.014 12.224 27.922 11.408 27.922 10.44C27.922 8.976 28.174 7.872 28.678 7.128C29.182 6.376 29.978 6 31.066 6C31.906 6 32.558 6.228 33.022 6.684C33.486 7.14 33.754 7.708 33.826 8.388H32.266ZM31.042 10.572C30.618 10.572 30.262 10.696 29.974 10.944C29.686 11.192 29.542 11.552 29.542 12.024C29.542 12.496 29.674 12.868 29.938 13.14C30.21 13.412 30.59 13.548 31.078 13.548C31.51 13.548 31.85 13.416 32.098 13.152C32.354 12.888 32.482 12.532 32.482 12.084C32.482 11.62 32.358 11.252 32.11 10.98C31.87 10.708 31.514 10.572 31.042 10.572Z" fill="#4D869C"/>
<defs>
<filter id="filter0_d_85_2430" x="0" y="0" width="62" height="44" filterUnits="userSpaceOnUse" color-interpolation-filters="sRGB">
<feFlood flood-opacity="0" result="BackgroundImageFix"/>
<feColorMatrix in="SourceAlpha" type="matrix" values="0 0 0 0 0 0 0 0 0 0 0 0 0 0 0 0 0 0 127 0" result="hardAlpha"/>
<feOffset dy="2"/>
<feGaussianBlur stdDeviation="2"/>
<feComposite in2="hardAlpha" operator="out"/>
<feColorMatrix type="matrix" values="0 0 0 0 0 0 0 0 0 0 0 0 0 0 0 0 0 0 0.5 0"/>
<feBlend mode="normal" in2="BackgroundImageFix" result="effect1_dropShadow_85_2430"/>
<feBlend mode="normal" in="SourceGraphic" in2="effect1_dropShadow_85_2430" result="shape"/>
</filter>
<linearGradient id="paint0_linear_85_2430" x1="4" y1="20" x2="58" y2="20" gradientUnits="userSpaceOnUse">
<stop offset="0.45" stop-color="#EEF7FF"/>
<stop offset="0.55" stop-color="#CDE8E5"/>
</linearGradient>
</defs>
</svg>
