<svg width="62" height="44" viewBox="0 0 62 44" fill="none" xmlns="http://www.w3.org/2000/svg">
<g filter="url(#filter0_d_90_6385)">
<mask id="path-1-inside-1_90_6385" fill="white">
<path fill-rule="evenodd" clip-rule="evenodd" d="M31 35.5919C28.3524 37.1235 25.2786 38 22 38C12.0589 38 4 29.9411 4 20C4 10.0589 12.0589 2 22 2C25.2786 2 28.3524 2.87655 31 4.40808C33.6476 2.87655 36.7214 2 40 2C49.9411 2 58 10.0589 58 20C58 29.9411 49.9411 38 40 38C36.7214 38 33.6476 37.1235 31 35.5919Z"/>
</mask>
<path fill-rule="evenodd" clip-rule="evenodd" d="M31 35.5919C28.3524 37.1235 25.2786 38 22 38C12.0589 38 4 29.9411 4 20C4 10.0589 12.0589 2 22 2C25.2786 2 28.3524 2.87655 31 4.40808C33.6476 2.87655 36.7214 2 40 2C49.9411 2 58 10.0589 58 20C58 29.9411 49.9411 38 40 38C36.7214 38 33.6476 37.1235 31 35.5919Z" fill="url(#paint0_linear_90_6385)"/>
<path d="M31 35.5919L32.0015 33.8607L31 33.2814L29.9985 33.8607L31 35.5919ZM31 4.40808L29.9986 6.13929L31 6.7186L32.0015 6.13929L31 4.40808ZM29.9985 33.8607C27.6472 35.2209 24.9176 36 22 36V40C25.6395 40 29.0577 39.026 32.0015 37.3231L29.9985 33.8607ZM22 36C13.1634 36 6 28.8366 6 20H2C2 31.0457 10.9543 40 22 40V36ZM6 20C6 11.1634 13.1634 4 22 4V0C10.9543 0 2 8.9543 2 20H6ZM22 4C24.9176 4 27.6472 4.77911 29.9986 6.13929L32.0015 2.67687C29.0577 0.973988 25.6395 0 22 0V4ZM32.0015 6.13929C34.3528 4.77911 37.0824 4 40 4V0C36.3605 0 32.9423 0.973989 29.9986 2.67687L32.0015 6.13929ZM40 4C48.8366 4 56 11.1634 56 20H60C60 8.9543 51.0457 0 40 0V4ZM56 20C56 28.8366 48.8366 36 40 36V40C51.0457 40 60 31.0457 60 20H56ZM40 36C37.0824 36 34.3528 35.2209 32.0015 33.8607L29.9985 37.3231C32.9423 39.026 36.3605 40 40 40V36Z" fill="white" mask="url(#path-1-inside-1_90_6385)"/>
</g>
<path d="M32.1113 13.044C32.8793 12.404 33.4913 11.872 33.9473 11.448C34.4033 11.016 34.7833 10.568 35.0873 10.104C35.3913 9.64 35.5433 9.184 35.5433 8.736C35.5433 8.328 35.4473 8.008 35.2553 7.776C35.0633 7.544 34.7673 7.428 34.3673 7.428C33.9673 7.428 33.6593 7.564 33.4433 7.836C33.2273 8.1 33.1153 8.464 33.1073 8.928H31.4753C31.5073 7.968 31.7913 7.24 32.3273 6.744C32.8713 6.248 33.5593 6 34.3913 6C35.3033 6 36.0033 6.244 36.4913 6.732C36.9793 7.212 37.2233 7.848 37.2233 8.64C37.2233 9.264 37.0553 9.86 36.7193 10.428C36.3833 10.996 35.9993 11.492 35.5673 11.916C35.1353 12.332 34.5713 12.836 33.8753 13.428H37.4153V14.82H31.4873V13.572L32.1113 13.044Z" fill="#416D19"/>
<path d="M25.2207 13.044C25.9887 12.404 26.6007 11.872 27.0567 11.448C27.5127 11.016 27.8927 10.568 28.1967 10.104C28.5007 9.64 28.6527 9.184 28.6527 8.736C28.6527 8.328 28.5567 8.008 28.3647 7.776C28.1727 7.544 27.8767 7.428 27.4767 7.428C27.0767 7.428 26.7687 7.564 26.5527 7.836C26.3367 8.1 26.2247 8.464 26.2167 8.928H24.5847C24.6167 7.968 24.9007 7.24 25.4367 6.744C25.9807 6.248 26.6687 6 27.5007 6C28.4127 6 29.1127 6.244 29.6007 6.732C30.0887 7.212 30.3327 7.848 30.3327 8.64C30.3327 9.264 30.1647 9.86 29.8287 10.428C29.4927 10.996 29.1087 11.492 28.6767 11.916C28.2447 12.332 27.6807 12.836 26.9847 13.428H30.5247V14.82H24.5967V13.572L25.2207 13.044Z" fill="#416D19"/>
<defs>
<filter id="filter0_d_90_6385" x="0" y="0" width="62" height="44" filterUnits="userSpaceOnUse" color-interpolation-filters="sRGB">
<feFlood flood-opacity="0" result="BackgroundImageFix"/>
<feColorMatrix in="SourceAlpha" type="matrix" values="0 0 0 0 0 0 0 0 0 0 0 0 0 0 0 0 0 0 127 0" result="hardAlpha"/>
<feOffset dy="2"/>
<feGaussianBlur stdDeviation="2"/>
<feComposite in2="hardAlpha" operator="out"/>
<feColorMatrix type="matrix" values="0 0 0 0 0 0 0 0 0 0 0 0 0 0 0 0 0 0 0.5 0"/>
<feBlend mode="normal" in2="BackgroundImageFix" result="effect1_dropShadow_90_6385"/>
<feBlend mode="normal" in="SourceGraphic" in2="effect1_dropShadow_90_6385" result="shape"/>
</filter>
<linearGradient id="paint0_linear_90_6385" x1="4" y1="20" x2="58" y2="20" gradientUnits="userSpaceOnUse">
<stop offset="0.45" stop-color="#FFF67E"/>
<stop offset="0.55" stop-color="#BFEA7C"/>
</linearGradient>
</defs>
</svg>
