<svg width="62" height="44" viewBox="0 0 62 44" fill="none" xmlns="http://www.w3.org/2000/svg">
<g filter="url(#filter0_d_160_9353)">
<mask id="path-1-inside-1_160_9353" fill="white">
<path fill-rule="evenodd" clip-rule="evenodd" d="M31 35.5919C28.3524 37.1235 25.2786 38 22 38C12.0589 38 4 29.9411 4 20C4 10.0589 12.0589 2 22 2C25.2786 2 28.3524 2.87655 31 4.40808C33.6476 2.87655 36.7214 2 40 2C49.9411 2 58 10.0589 58 20C58 29.9411 49.9411 38 40 38C36.7214 38 33.6476 37.1235 31 35.5919Z"/>
</mask>
<path fill-rule="evenodd" clip-rule="evenodd" d="M31 35.5919C28.3524 37.1235 25.2786 38 22 38C12.0589 38 4 29.9411 4 20C4 10.0589 12.0589 2 22 2C25.2786 2 28.3524 2.87655 31 4.40808C33.6476 2.87655 36.7214 2 40 2C49.9411 2 58 10.0589 58 20C58 29.9411 49.9411 38 40 38C36.7214 38 33.6476 37.1235 31 35.5919Z" fill="url(#paint0_linear_160_9353)"/>
<path d="M31 35.5919L32.0015 33.8607L31 33.2814L29.9985 33.8607L31 35.5919ZM31 4.40808L29.9986 6.13929L31 6.7186L32.0015 6.13929L31 4.40808ZM29.9985 33.8607C27.6472 35.2209 24.9176 36 22 36V40C25.6395 40 29.0577 39.026 32.0015 37.3231L29.9985 33.8607ZM22 36C13.1634 36 6 28.8366 6 20H2C2 31.0457 10.9543 40 22 40V36ZM6 20C6 11.1634 13.1634 4 22 4V0C10.9543 0 2 8.9543 2 20H6ZM22 4C24.9176 4 27.6472 4.77911 29.9986 6.13929L32.0015 2.67687C29.0577 0.973988 25.6395 0 22 0V4ZM32.0015 6.13929C34.3528 4.77911 37.0824 4 40 4V0C36.3605 0 32.9423 0.973989 29.9986 2.67687L32.0015 6.13929ZM40 4C48.8366 4 56 11.1634 56 20H60C60 8.9543 51.0457 0 40 0V4ZM56 20C56 28.8366 48.8366 36 40 36V40C51.0457 40 60 31.0457 60 20H56ZM40 36C37.0824 36 34.3528 35.2209 32.0015 33.8607L29.9985 37.3231C32.9423 39.026 36.3605 40 40 40V36Z" fill="white" mask="url(#path-1-inside-1_160_9353)"/>
</g>
<path d="M30.3718 8.508C30.4118 7.708 30.6918 7.092 31.2118 6.66C31.7398 6.22 32.4318 6 33.2878 6C33.8718 6 34.3718 6.104 34.7878 6.312C35.2038 6.512 35.5158 6.788 35.7238 7.14C35.9398 7.484 36.0478 7.876 36.0478 8.316C36.0478 8.82 35.9158 9.248 35.6518 9.6C35.3958 9.944 35.0878 10.176 34.7278 10.296V10.344C35.1918 10.488 35.5518 10.744 35.8078 11.112C36.0718 11.48 36.2038 11.952 36.2038 12.528C36.2038 13.008 36.0918 13.436 35.8678 13.812C35.6518 14.188 35.3278 14.484 34.8958 14.7C34.4718 14.908 33.9598 15.012 33.3598 15.012C32.4558 15.012 31.7198 14.784 31.1518 14.328C30.5838 13.872 30.2838 13.2 30.2518 12.312H31.8838C31.8998 12.704 32.0318 13.02 32.2798 13.26C32.5358 13.492 32.8838 13.608 33.3238 13.608C33.7318 13.608 34.0438 13.496 34.2598 13.272C34.4838 13.04 34.5958 12.744 34.5958 12.384C34.5958 11.904 34.4438 11.56 34.1398 11.352C33.8358 11.144 33.3638 11.04 32.7238 11.04H32.3758V9.66H32.7238C33.8598 9.66 34.4278 9.28 34.4278 8.52C34.4278 8.176 34.3238 7.908 34.1158 7.716C33.9158 7.524 33.6238 7.428 33.2398 7.428C32.8638 7.428 32.5718 7.532 32.3638 7.74C32.1638 7.94 32.0478 8.196 32.0158 8.508H30.3718Z" fill="#526E48"/>
<path d="M25.7962 7.752V6.204H28.6882V14.952H26.9602V7.752H25.7962Z" fill="#526E48"/>
<defs>
<filter id="filter0_d_160_9353" x="0" y="0" width="62" height="44" filterUnits="userSpaceOnUse" color-interpolation-filters="sRGB">
<feFlood flood-opacity="0" result="BackgroundImageFix"/>
<feColorMatrix in="SourceAlpha" type="matrix" values="0 0 0 0 0 0 0 0 0 0 0 0 0 0 0 0 0 0 127 0" result="hardAlpha"/>
<feOffset dy="2"/>
<feGaussianBlur stdDeviation="2"/>
<feComposite in2="hardAlpha" operator="out"/>
<feColorMatrix type="matrix" values="0 0 0 0 0 0 0 0 0 0 0 0 0 0 0 0 0 0 0.5 0"/>
<feBlend mode="normal" in2="BackgroundImageFix" result="effect1_dropShadow_160_9353"/>
<feBlend mode="normal" in="SourceGraphic" in2="effect1_dropShadow_160_9353" result="shape"/>
</filter>
<linearGradient id="paint0_linear_160_9353" x1="4" y1="20" x2="58" y2="20" gradientUnits="userSpaceOnUse">
<stop offset="0.45" stop-color="#FFFDEC"/>
<stop offset="0.55" stop-color="#FFCFCF"/>
</linearGradient>
</defs>
</svg>
