<svg width="62" height="44" viewBox="0 0 62 44" fill="none" xmlns="http://www.w3.org/2000/svg">
<g filter="url(#filter0_d_160_9367)">
<mask id="path-1-inside-1_160_9367" fill="white">
<path fill-rule="evenodd" clip-rule="evenodd" d="M31 35.5919C28.3524 37.1235 25.2786 38 22 38C12.0589 38 4 29.9411 4 20C4 10.0589 12.0589 2 22 2C25.2786 2 28.3524 2.87655 31 4.40808C33.6476 2.87655 36.7214 2 40 2C49.9411 2 58 10.0589 58 20C58 29.9411 49.9411 38 40 38C36.7214 38 33.6476 37.1235 31 35.5919Z"/>
</mask>
<path fill-rule="evenodd" clip-rule="evenodd" d="M31 35.5919C28.3524 37.1235 25.2786 38 22 38C12.0589 38 4 29.9411 4 20C4 10.0589 12.0589 2 22 2C25.2786 2 28.3524 2.87655 31 4.40808C33.6476 2.87655 36.7214 2 40 2C49.9411 2 58 10.0589 58 20C58 29.9411 49.9411 38 40 38C36.7214 38 33.6476 37.1235 31 35.5919Z" fill="url(#paint0_linear_160_9367)"/>
<path d="M31 35.5919L32.0015 33.8607L31 33.2814L29.9985 33.8607L31 35.5919ZM31 4.40808L29.9986 6.13929L31 6.7186L32.0015 6.13929L31 4.40808ZM29.9985 33.8607C27.6472 35.2209 24.9176 36 22 36V40C25.6395 40 29.0577 39.026 32.0015 37.3231L29.9985 33.8607ZM22 36C13.1634 36 6 28.8366 6 20H2C2 31.0457 10.9543 40 22 40V36ZM6 20C6 11.1634 13.1634 4 22 4V0C10.9543 0 2 8.9543 2 20H6ZM22 4C24.9176 4 27.6472 4.77911 29.9986 6.13929L32.0015 2.67687C29.0577 0.973988 25.6395 0 22 0V4ZM32.0015 6.13929C34.3528 4.77911 37.0824 4 40 4V0C36.3605 0 32.9423 0.973989 29.9986 2.67687L32.0015 6.13929ZM40 4C48.8366 4 56 11.1634 56 20H60C60 8.9543 51.0457 0 40 0V4ZM56 20C56 28.8366 48.8366 36 40 36V40C51.0457 40 60 31.0457 60 20H56ZM40 36C37.0824 36 34.3528 35.2209 32.0015 33.8607L29.9985 37.3231C32.9423 39.026 36.3605 40 40 40V36Z" fill="white" mask="url(#path-1-inside-1_160_9367)"/>
</g>
<path d="M35.9338 7.47601H32.0458V9.528C32.2138 9.32 32.4538 9.152 32.7658 9.024C33.0778 8.888 33.4098 8.82 33.7618 8.82C34.4018 8.82 34.9258 8.96001 35.3338 9.24001C35.7418 9.52001 36.0378 9.88 36.2218 10.32C36.4058 10.752 36.4978 11.216 36.4978 11.712C36.4978 12.632 36.2338 13.372 35.7058 13.932C35.1858 14.492 34.4418 14.772 33.4738 14.772C32.5618 14.772 31.8338 14.544 31.2898 14.088C30.7458 13.632 30.4378 13.036 30.3658 12.3H31.9978C32.0698 12.62 32.2298 12.876 32.4778 13.068C32.7338 13.26 33.0578 13.356 33.4498 13.356C33.9218 13.356 34.2778 13.208 34.5178 12.912C34.7578 12.616 34.8778 12.224 34.8778 11.736C34.8778 11.24 34.7538 10.864 34.5058 10.608C34.2658 10.344 33.9098 10.212 33.4378 10.212C33.1018 10.212 32.8218 10.296 32.5978 10.464C32.3738 10.632 32.2138 10.856 32.1178 11.136H30.5098V6H35.9338V7.47601Z" fill="#526E48"/>
<path d="M25.5022 7.57201V6.024H28.3942V14.772H26.6662V7.57201H25.5022Z" fill="#526E48"/>
<defs>
<filter id="filter0_d_160_9367" x="0" y="0" width="62" height="44" filterUnits="userSpaceOnUse" color-interpolation-filters="sRGB">
<feFlood flood-opacity="0" result="BackgroundImageFix"/>
<feColorMatrix in="SourceAlpha" type="matrix" values="0 0 0 0 0 0 0 0 0 0 0 0 0 0 0 0 0 0 127 0" result="hardAlpha"/>
<feOffset dy="2"/>
<feGaussianBlur stdDeviation="2"/>
<feComposite in2="hardAlpha" operator="out"/>
<feColorMatrix type="matrix" values="0 0 0 0 0 0 0 0 0 0 0 0 0 0 0 0 0 0 0.5 0"/>
<feBlend mode="normal" in2="BackgroundImageFix" result="effect1_dropShadow_160_9367"/>
<feBlend mode="normal" in="SourceGraphic" in2="effect1_dropShadow_160_9367" result="shape"/>
</filter>
<linearGradient id="paint0_linear_160_9367" x1="4" y1="20" x2="58" y2="20" gradientUnits="userSpaceOnUse">
<stop offset="0.45" stop-color="#FFFDEC"/>
<stop offset="0.55" stop-color="#FFCFCF"/>
</linearGradient>
</defs>
</svg>
