<svg width="62" height="44" viewBox="0 0 62 44" fill="none" xmlns="http://www.w3.org/2000/svg">
<g filter="url(#filter0_d_160_9409)">
<mask id="path-1-inside-1_160_9409" fill="white">
<path fill-rule="evenodd" clip-rule="evenodd" d="M31 35.5919C28.3524 37.1235 25.2786 38 22 38C12.0589 38 4 29.9411 4 20C4 10.0589 12.0589 2 22 2C25.2786 2 28.3524 2.87655 31 4.40808C33.6476 2.87655 36.7214 2 40 2C49.9411 2 58 10.0589 58 20C58 29.9411 49.9411 38 40 38C36.7214 38 33.6476 37.1235 31 35.5919Z"/>
</mask>
<path fill-rule="evenodd" clip-rule="evenodd" d="M31 35.5919C28.3524 37.1235 25.2786 38 22 38C12.0589 38 4 29.9411 4 20C4 10.0589 12.0589 2 22 2C25.2786 2 28.3524 2.87655 31 4.40808C33.6476 2.87655 36.7214 2 40 2C49.9411 2 58 10.0589 58 20C58 29.9411 49.9411 38 40 38C36.7214 38 33.6476 37.1235 31 35.5919Z" fill="url(#paint0_linear_160_9409)"/>
<path d="M31 35.5919L32.0015 33.8607L31 33.2814L29.9985 33.8607L31 35.5919ZM31 4.40808L29.9986 6.13929L31 6.7186L32.0015 6.13929L31 4.40808ZM29.9985 33.8607C27.6472 35.2209 24.9176 36 22 36V40C25.6395 40 29.0577 39.026 32.0015 37.3231L29.9985 33.8607ZM22 36C13.1634 36 6 28.8366 6 20H2C2 31.0457 10.9543 40 22 40V36ZM6 20C6 11.1634 13.1634 4 22 4V0C10.9543 0 2 8.9543 2 20H6ZM22 4C24.9176 4 27.6472 4.77911 29.9986 6.13929L32.0015 2.67687C29.0577 0.973988 25.6395 0 22 0V4ZM32.0015 6.13929C34.3528 4.77911 37.0824 4 40 4V0C36.3605 0 32.9423 0.973989 29.9986 2.67687L32.0015 6.13929ZM40 4C48.8366 4 56 11.1634 56 20H60C60 8.9543 51.0457 0 40 0V4ZM56 20C56 28.8366 48.8366 36 40 36V40C51.0457 40 60 31.0457 60 20H56ZM40 36C37.0824 36 34.3528 35.2209 32.0015 33.8607L29.9985 37.3231C32.9423 39.026 36.3605 40 40 40V36Z" fill="white" mask="url(#path-1-inside-1_160_9409)"/>
</g>
<path d="M32.9513 7.74V6.192H35.8433V14.94H34.1153V7.74H32.9513Z" fill="#526E48"/>
<path d="M26.7927 13.044C27.5607 12.404 28.1727 11.872 28.6287 11.448C29.0847 11.016 29.4647 10.568 29.7687 10.104C30.0727 9.64 30.2247 9.184 30.2247 8.736C30.2247 8.328 30.1287 8.008 29.9367 7.776C29.7447 7.544 29.4487 7.428 29.0487 7.428C28.6487 7.428 28.3407 7.564 28.1247 7.836C27.9087 8.1 27.7967 8.464 27.7887 8.928H26.1567C26.1887 7.968 26.4727 7.24 27.0087 6.744C27.5527 6.248 28.2407 6 29.0727 6C29.9847 6 30.6847 6.244 31.1727 6.732C31.6607 7.212 31.9047 7.848 31.9047 8.64C31.9047 9.264 31.7367 9.86 31.4007 10.428C31.0647 10.996 30.6807 11.492 30.2487 11.916C29.8167 12.332 29.2527 12.836 28.5567 13.428H32.0967V14.82H26.1687V13.572L26.7927 13.044Z" fill="#526E48"/>
<defs>
<filter id="filter0_d_160_9409" x="0" y="0" width="62" height="44" filterUnits="userSpaceOnUse" color-interpolation-filters="sRGB">
<feFlood flood-opacity="0" result="BackgroundImageFix"/>
<feColorMatrix in="SourceAlpha" type="matrix" values="0 0 0 0 0 0 0 0 0 0 0 0 0 0 0 0 0 0 127 0" result="hardAlpha"/>
<feOffset dy="2"/>
<feGaussianBlur stdDeviation="2"/>
<feComposite in2="hardAlpha" operator="out"/>
<feColorMatrix type="matrix" values="0 0 0 0 0 0 0 0 0 0 0 0 0 0 0 0 0 0 0.5 0"/>
<feBlend mode="normal" in2="BackgroundImageFix" result="effect1_dropShadow_160_9409"/>
<feBlend mode="normal" in="SourceGraphic" in2="effect1_dropShadow_160_9409" result="shape"/>
</filter>
<linearGradient id="paint0_linear_160_9409" x1="4" y1="20" x2="58" y2="20" gradientUnits="userSpaceOnUse">
<stop offset="0.45" stop-color="#FFFDEC"/>
<stop offset="0.55" stop-color="#FFCFCF"/>
</linearGradient>
</defs>
</svg>
