<svg width="62" height="44" viewBox="0 0 62 44" fill="none" xmlns="http://www.w3.org/2000/svg">
<g filter="url(#filter0_d_160_9276)">
<mask id="path-1-inside-1_160_9276" fill="white">
<path fill-rule="evenodd" clip-rule="evenodd" d="M31 35.5919C28.3524 37.1235 25.2786 38 22 38C12.0589 38 4 29.9411 4 20C4 10.0589 12.0589 2 22 2C25.2786 2 28.3524 2.87655 31 4.40808C33.6476 2.87655 36.7214 2 40 2C49.9411 2 58 10.0589 58 20C58 29.9411 49.9411 38 40 38C36.7214 38 33.6476 37.1235 31 35.5919Z"/>
</mask>
<path fill-rule="evenodd" clip-rule="evenodd" d="M31 35.5919C28.3524 37.1235 25.2786 38 22 38C12.0589 38 4 29.9411 4 20C4 10.0589 12.0589 2 22 2C25.2786 2 28.3524 2.87655 31 4.40808C33.6476 2.87655 36.7214 2 40 2C49.9411 2 58 10.0589 58 20C58 29.9411 49.9411 38 40 38C36.7214 38 33.6476 37.1235 31 35.5919Z" fill="url(#paint0_linear_160_9276)"/>
<path d="M31 35.5919L32.0015 33.8607L31 33.2814L29.9985 33.8607L31 35.5919ZM31 4.40808L29.9986 6.13929L31 6.7186L32.0015 6.13929L31 4.40808ZM29.9985 33.8607C27.6472 35.2209 24.9176 36 22 36V40C25.6395 40 29.0577 39.026 32.0015 37.3231L29.9985 33.8607ZM22 36C13.1634 36 6 28.8366 6 20H2C2 31.0457 10.9543 40 22 40V36ZM6 20C6 11.1634 13.1634 4 22 4V0C10.9543 0 2 8.9543 2 20H6ZM22 4C24.9176 4 27.6472 4.77911 29.9986 6.13929L32.0015 2.67687C29.0577 0.973988 25.6395 0 22 0V4ZM32.0015 6.13929C34.3528 4.77911 37.0824 4 40 4V0C36.3605 0 32.9423 0.973989 29.9986 2.67687L32.0015 6.13929ZM40 4C48.8366 4 56 11.1634 56 20H60C60 8.9543 51.0457 0 40 0V4ZM56 20C56 28.8366 48.8366 36 40 36V40C51.0457 40 60 31.0457 60 20H56ZM40 36C37.0824 36 34.3528 35.2209 32.0015 33.8607L29.9985 37.3231C32.9423 39.026 36.3605 40 40 40V36Z" fill="white" mask="url(#path-1-inside-1_160_9276)"/>
</g>
<path d="M28.144 8.508C28.184 7.708 28.464 7.092 28.984 6.66C29.512 6.22 30.204 6 31.06 6C31.644 6 32.144 6.104 32.56 6.312C32.976 6.512 33.288 6.788 33.496 7.14C33.712 7.484 33.82 7.876 33.82 8.316C33.82 8.82 33.688 9.248 33.424 9.6C33.168 9.944 32.86 10.176 32.5 10.296V10.344C32.964 10.488 33.324 10.744 33.58 11.112C33.844 11.48 33.976 11.952 33.976 12.528C33.976 13.008 33.864 13.436 33.64 13.812C33.424 14.188 33.1 14.484 32.668 14.7C32.244 14.908 31.732 15.012 31.132 15.012C30.228 15.012 29.492 14.784 28.924 14.328C28.356 13.872 28.056 13.2 28.024 12.312H29.656C29.672 12.704 29.804 13.02 30.052 13.26C30.308 13.492 30.656 13.608 31.096 13.608C31.504 13.608 31.816 13.496 32.032 13.272C32.256 13.04 32.368 12.744 32.368 12.384C32.368 11.904 32.216 11.56 31.912 11.352C31.608 11.144 31.136 11.04 30.496 11.04H30.148V9.66H30.496C31.632 9.66 32.2 9.28 32.2 8.52C32.2 8.176 32.096 7.908 31.888 7.716C31.688 7.524 31.396 7.428 31.012 7.428C30.636 7.428 30.344 7.532 30.136 7.74C29.936 7.94 29.82 8.196 29.788 8.508H28.144Z" fill="#526E48"/>
<defs>
<filter id="filter0_d_160_9276" x="0" y="0" width="62" height="44" filterUnits="userSpaceOnUse" color-interpolation-filters="sRGB">
<feFlood flood-opacity="0" result="BackgroundImageFix"/>
<feColorMatrix in="SourceAlpha" type="matrix" values="0 0 0 0 0 0 0 0 0 0 0 0 0 0 0 0 0 0 127 0" result="hardAlpha"/>
<feOffset dy="2"/>
<feGaussianBlur stdDeviation="2"/>
<feComposite in2="hardAlpha" operator="out"/>
<feColorMatrix type="matrix" values="0 0 0 0 0 0 0 0 0 0 0 0 0 0 0 0 0 0 0.5 0"/>
<feBlend mode="normal" in2="BackgroundImageFix" result="effect1_dropShadow_160_9276"/>
<feBlend mode="normal" in="SourceGraphic" in2="effect1_dropShadow_160_9276" result="shape"/>
</filter>
<linearGradient id="paint0_linear_160_9276" x1="4" y1="20" x2="58" y2="20" gradientUnits="userSpaceOnUse">
<stop offset="0.45" stop-color="#FFFDEC"/>
<stop offset="0.55" stop-color="#FFCFCF"/>
</linearGradient>
</defs>
</svg>
