<svg width="62" height="44" viewBox="0 0 62 44" fill="none" xmlns="http://www.w3.org/2000/svg">
<g filter="url(#filter0_d_160_9479)">
<mask id="path-1-inside-1_160_9479" fill="white">
<path fill-rule="evenodd" clip-rule="evenodd" d="M31 35.5919C28.3524 37.1235 25.2786 38 22 38C12.0589 38 4 29.9411 4 20C4 10.0589 12.0589 2 22 2C25.2786 2 28.3524 2.87655 31 4.40808C33.6476 2.87655 36.7214 2 40 2C49.9411 2 58 10.0589 58 20C58 29.9411 49.9411 38 40 38C36.7214 38 33.6476 37.1235 31 35.5919Z"/>
</mask>
<path fill-rule="evenodd" clip-rule="evenodd" d="M31 35.5919C28.3524 37.1235 25.2786 38 22 38C12.0589 38 4 29.9411 4 20C4 10.0589 12.0589 2 22 2C25.2786 2 28.3524 2.87655 31 4.40808C33.6476 2.87655 36.7214 2 40 2C49.9411 2 58 10.0589 58 20C58 29.9411 49.9411 38 40 38C36.7214 38 33.6476 37.1235 31 35.5919Z" fill="url(#paint0_linear_160_9479)"/>
<path d="M31 35.5919L32.0015 33.8607L31 33.2814L29.9985 33.8607L31 35.5919ZM31 4.40808L29.9986 6.13929L31 6.7186L32.0015 6.13929L31 4.40808ZM29.9985 33.8607C27.6472 35.2209 24.9176 36 22 36V40C25.6395 40 29.0577 39.026 32.0015 37.3231L29.9985 33.8607ZM22 36C13.1634 36 6 28.8366 6 20H2C2 31.0457 10.9543 40 22 40V36ZM6 20C6 11.1634 13.1634 4 22 4V0C10.9543 0 2 8.9543 2 20H6ZM22 4C24.9176 4 27.6472 4.77911 29.9986 6.13929L32.0015 2.67687C29.0577 0.973988 25.6395 0 22 0V4ZM32.0015 6.13929C34.3528 4.77911 37.0824 4 40 4V0C36.3605 0 32.9423 0.973989 29.9986 2.67687L32.0015 6.13929ZM40 4C48.8366 4 56 11.1634 56 20H60C60 8.9543 51.0457 0 40 0V4ZM56 20C56 28.8366 48.8366 36 40 36V40C51.0457 40 60 31.0457 60 20H56ZM40 36C37.0824 36 34.3528 35.2209 32.0015 33.8607L29.9985 37.3231C32.9423 39.026 36.3605 40 40 40V36Z" fill="white" mask="url(#path-1-inside-1_160_9479)"/>
</g>
<path d="M33.0918 7.752V6.20399H35.9838V14.952H34.2558V7.752H33.0918Z" fill="#526E48"/>
<path d="M26.1362 8.508C26.1762 7.708 26.4562 7.09199 26.9762 6.65999C27.5042 6.21999 28.1962 6 29.0522 6C29.6362 6 30.1362 6.104 30.5522 6.312C30.9682 6.512 31.2802 6.788 31.4882 7.14C31.7042 7.484 31.8122 7.87599 31.8122 8.31599C31.8122 8.81999 31.6802 9.24799 31.4162 9.59999C31.1602 9.94399 30.8522 10.176 30.4922 10.296V10.344C30.9562 10.488 31.3162 10.744 31.5722 11.112C31.8362 11.48 31.9682 11.952 31.9682 12.528C31.9682 13.008 31.8562 13.436 31.6322 13.812C31.4162 14.188 31.0922 14.484 30.6602 14.7C30.2362 14.908 29.7242 15.012 29.1242 15.012C28.2202 15.012 27.4842 14.784 26.9162 14.328C26.3482 13.872 26.0482 13.2 26.0162 12.312H27.6482C27.6642 12.704 27.7962 13.02 28.0442 13.26C28.3002 13.492 28.6482 13.608 29.0882 13.608C29.4962 13.608 29.8082 13.496 30.0242 13.272C30.2482 13.04 30.3602 12.744 30.3602 12.384C30.3602 11.904 30.2082 11.56 29.9042 11.352C29.6002 11.144 29.1282 11.04 28.4882 11.04H28.1402V9.65999H28.4882C29.6242 9.65999 30.1922 9.27999 30.1922 8.51999C30.1922 8.17599 30.0882 7.90799 29.8802 7.71599C29.6802 7.52399 29.3882 7.42799 29.0042 7.42799C28.6282 7.42799 28.3362 7.53199 28.1282 7.73999C27.9282 7.93999 27.8122 8.196 27.7802 8.508H26.1362Z" fill="#526E48"/>
<defs>
<filter id="filter0_d_160_9479" x="0" y="0" width="62" height="44" filterUnits="userSpaceOnUse" color-interpolation-filters="sRGB">
<feFlood flood-opacity="0" result="BackgroundImageFix"/>
<feColorMatrix in="SourceAlpha" type="matrix" values="0 0 0 0 0 0 0 0 0 0 0 0 0 0 0 0 0 0 127 0" result="hardAlpha"/>
<feOffset dy="2"/>
<feGaussianBlur stdDeviation="2"/>
<feComposite in2="hardAlpha" operator="out"/>
<feColorMatrix type="matrix" values="0 0 0 0 0 0 0 0 0 0 0 0 0 0 0 0 0 0 0.5 0"/>
<feBlend mode="normal" in2="BackgroundImageFix" result="effect1_dropShadow_160_9479"/>
<feBlend mode="normal" in="SourceGraphic" in2="effect1_dropShadow_160_9479" result="shape"/>
</filter>
<linearGradient id="paint0_linear_160_9479" x1="4" y1="20" x2="58" y2="20" gradientUnits="userSpaceOnUse">
<stop offset="0.45" stop-color="#FFFDEC"/>
<stop offset="0.55" stop-color="#FFCFCF"/>
</linearGradient>
</defs>
</svg>
