<svg width="62" height="44" viewBox="0 0 62 44" fill="none" xmlns="http://www.w3.org/2000/svg">
<g filter="url(#filter0_d_160_9325)">
<mask id="path-1-inside-1_160_9325" fill="white">
<path fill-rule="evenodd" clip-rule="evenodd" d="M31 35.5919C28.3524 37.1235 25.2786 38 22 38C12.0589 38 4 29.9411 4 20C4 10.0589 12.0589 2 22 2C25.2786 2 28.3524 2.87655 31 4.40808C33.6476 2.87655 36.7214 2 40 2C49.9411 2 58 10.0589 58 20C58 29.9411 49.9411 38 40 38C36.7214 38 33.6476 37.1235 31 35.5919Z"/>
</mask>
<path fill-rule="evenodd" clip-rule="evenodd" d="M31 35.5919C28.3524 37.1235 25.2786 38 22 38C12.0589 38 4 29.9411 4 20C4 10.0589 12.0589 2 22 2C25.2786 2 28.3524 2.87655 31 4.40808C33.6476 2.87655 36.7214 2 40 2C49.9411 2 58 10.0589 58 20C58 29.9411 49.9411 38 40 38C36.7214 38 33.6476 37.1235 31 35.5919Z" fill="url(#paint0_linear_160_9325)"/>
<path d="M31 35.5919L32.0015 33.8607L31 33.2814L29.9985 33.8607L31 35.5919ZM31 4.40808L29.9986 6.13929L31 6.7186L32.0015 6.13929L31 4.40808ZM29.9985 33.8607C27.6472 35.2209 24.9176 36 22 36V40C25.6395 40 29.0577 39.026 32.0015 37.3231L29.9985 33.8607ZM22 36C13.1634 36 6 28.8366 6 20H2C2 31.0457 10.9543 40 22 40V36ZM6 20C6 11.1634 13.1634 4 22 4V0C10.9543 0 2 8.9543 2 20H6ZM22 4C24.9176 4 27.6472 4.77911 29.9986 6.13929L32.0015 2.67687C29.0577 0.973988 25.6395 0 22 0V4ZM32.0015 6.13929C34.3528 4.77911 37.0824 4 40 4V0C36.3605 0 32.9423 0.973989 29.9986 2.67687L32.0015 6.13929ZM40 4C48.8366 4 56 11.1634 56 20H60C60 8.9543 51.0457 0 40 0V4ZM56 20C56 28.8366 48.8366 36 40 36V40C51.0457 40 60 31.0457 60 20H56ZM40 36C37.0824 36 34.3528 35.2209 32.0015 33.8607L29.9985 37.3231C32.9423 39.026 36.3605 40 40 40V36Z" fill="white" mask="url(#path-1-inside-1_160_9325)"/>
</g>
<path d="M29.77 12.492C29.834 12.844 29.978 13.116 30.202 13.308C30.434 13.492 30.742 13.584 31.126 13.584C31.622 13.584 31.982 13.38 32.206 12.972C32.43 12.556 32.542 11.86 32.542 10.884C32.358 11.14 32.098 11.34 31.762 11.484C31.434 11.628 31.078 11.7 30.694 11.7C30.182 11.7 29.718 11.596 29.302 11.388C28.894 11.172 28.57 10.856 28.33 10.44C28.09 10.016 27.97 9.504 27.97 8.904C27.97 8.016 28.234 7.312 28.762 6.792C29.29 6.264 30.01 6 30.922 6C32.058 6 32.858 6.364 33.322 7.092C33.794 7.82 34.03 8.916 34.03 10.38C34.03 11.42 33.938 12.272 33.754 12.936C33.578 13.6 33.27 14.104 32.83 14.448C32.398 14.792 31.806 14.964 31.054 14.964C30.462 14.964 29.958 14.852 29.542 14.628C29.126 14.396 28.806 14.096 28.582 13.728C28.366 13.352 28.242 12.94 28.21 12.492H29.77ZM31.042 10.332C31.458 10.332 31.786 10.204 32.026 9.948C32.266 9.692 32.386 9.348 32.386 8.916C32.386 8.444 32.258 8.08 32.002 7.824C31.754 7.56 31.414 7.428 30.982 7.428C30.55 7.428 30.206 7.564 29.95 7.836C29.702 8.1 29.578 8.452 29.578 8.892C29.578 9.316 29.698 9.664 29.938 9.936C30.186 10.2 30.554 10.332 31.042 10.332Z" fill="#526E48"/>
<defs>
<filter id="filter0_d_160_9325" x="0" y="0" width="62" height="44" filterUnits="userSpaceOnUse" color-interpolation-filters="sRGB">
<feFlood flood-opacity="0" result="BackgroundImageFix"/>
<feColorMatrix in="SourceAlpha" type="matrix" values="0 0 0 0 0 0 0 0 0 0 0 0 0 0 0 0 0 0 127 0" result="hardAlpha"/>
<feOffset dy="2"/>
<feGaussianBlur stdDeviation="2"/>
<feComposite in2="hardAlpha" operator="out"/>
<feColorMatrix type="matrix" values="0 0 0 0 0 0 0 0 0 0 0 0 0 0 0 0 0 0 0.5 0"/>
<feBlend mode="normal" in2="BackgroundImageFix" result="effect1_dropShadow_160_9325"/>
<feBlend mode="normal" in="SourceGraphic" in2="effect1_dropShadow_160_9325" result="shape"/>
</filter>
<linearGradient id="paint0_linear_160_9325" x1="4" y1="20" x2="58" y2="20" gradientUnits="userSpaceOnUse">
<stop offset="0.45" stop-color="#FFFDEC"/>
<stop offset="0.55" stop-color="#FFCFCF"/>
</linearGradient>
</defs>
</svg>
