<svg width="62" height="44" viewBox="0 0 62 44" fill="none" xmlns="http://www.w3.org/2000/svg">
<g filter="url(#filter0_d_114_3823)">
<mask id="path-1-inside-1_114_3823" fill="white">
<path fill-rule="evenodd" clip-rule="evenodd" d="M31 35.5919C28.3524 37.1235 25.2786 38 22 38C12.0589 38 4 29.9411 4 20C4 10.0589 12.0589 2 22 2C25.2786 2 28.3524 2.87655 31 4.40808C33.6476 2.87655 36.7214 2 40 2C49.9411 2 58 10.0589 58 20C58 29.9411 49.9411 38 40 38C36.7214 38 33.6476 37.1235 31 35.5919Z"/>
</mask>
<path fill-rule="evenodd" clip-rule="evenodd" d="M31 35.5919C28.3524 37.1235 25.2786 38 22 38C12.0589 38 4 29.9411 4 20C4 10.0589 12.0589 2 22 2C25.2786 2 28.3524 2.87655 31 4.40808C33.6476 2.87655 36.7214 2 40 2C49.9411 2 58 10.0589 58 20C58 29.9411 49.9411 38 40 38C36.7214 38 33.6476 37.1235 31 35.5919Z" fill="url(#paint0_linear_114_3823)"/>
<path d="M31 35.5919L32.0015 33.8607L31 33.2814L29.9985 33.8607L31 35.5919ZM31 4.40808L29.9986 6.13929L31 6.7186L32.0015 6.13929L31 4.40808ZM29.9985 33.8607C27.6472 35.2209 24.9176 36 22 36V40C25.6395 40 29.0577 39.026 32.0015 37.3231L29.9985 33.8607ZM22 36C13.1634 36 6 28.8366 6 20H2C2 31.0457 10.9543 40 22 40V36ZM6 20C6 11.1634 13.1634 4 22 4V0C10.9543 0 2 8.9543 2 20H6ZM22 4C24.9176 4 27.6472 4.77911 29.9986 6.13929L32.0015 2.67687C29.0577 0.973988 25.6395 0 22 0V4ZM32.0015 6.13929C34.3528 4.77911 37.0824 4 40 4V0C36.3605 0 32.9423 0.973989 29.9986 2.67687L32.0015 6.13929ZM40 4C48.8366 4 56 11.1634 56 20H60C60 8.9543 51.0457 0 40 0V4ZM56 20C56 28.8366 48.8366 36 40 36V40C51.0457 40 60 31.0457 60 20H56ZM40 36C37.0824 36 34.3528 35.2209 32.0015 33.8607L29.9985 37.3231C32.9423 39.026 36.3605 40 40 40V36Z" fill="white" mask="url(#path-1-inside-1_114_3823)"/>
</g>
<path d="M34.6378 8.388C34.5578 8.052 34.4178 7.8 34.2178 7.632C34.0258 7.464 33.7458 7.38 33.3778 7.38C32.8258 7.38 32.4178 7.604 32.1538 8.052C31.8978 8.492 31.7658 9.21201 31.7578 10.212C31.9498 9.89201 32.2298 9.644 32.5978 9.468C32.9658 9.284 33.3658 9.192 33.7978 9.192C34.3178 9.192 34.7778 9.304 35.1778 9.528C35.5778 9.752 35.8898 10.08 36.1138 10.512C36.3378 10.936 36.4498 11.448 36.4498 12.048C36.4498 12.616 36.3338 13.124 36.1018 13.572C35.8778 14.012 35.5458 14.356 35.1058 14.604C34.6658 14.852 34.1418 14.976 33.5338 14.976C32.7018 14.976 32.0458 14.792 31.5658 14.424C31.0938 14.056 30.7618 13.544 30.5698 12.888C30.3858 12.224 30.2938 11.408 30.2938 10.44C30.2938 8.976 30.5458 7.87201 31.0498 7.12801C31.5538 6.37601 32.3498 6 33.4378 6C34.2778 6 34.9298 6.22801 35.3938 6.68401C35.8578 7.14001 36.1258 7.708 36.1978 8.388H34.6378ZM33.4138 10.572C32.9898 10.572 32.6338 10.696 32.3458 10.944C32.0578 11.192 31.9138 11.552 31.9138 12.024C31.9138 12.496 32.0458 12.868 32.3098 13.14C32.5818 13.412 32.9618 13.548 33.4498 13.548C33.8818 13.548 34.2218 13.416 34.4698 13.152C34.7258 12.888 34.8538 12.532 34.8538 12.084C34.8538 11.62 34.7298 11.252 34.4818 10.98C34.2418 10.708 33.8858 10.572 33.4138 10.572Z" fill="#4C585B"/>
<path d="M25.5502 7.75201V6.204H28.4422V14.952H26.7142V7.75201H25.5502Z" fill="#4C585B"/>
<defs>
<filter id="filter0_d_114_3823" x="0" y="0" width="62" height="44" filterUnits="userSpaceOnUse" color-interpolation-filters="sRGB">
<feFlood flood-opacity="0" result="BackgroundImageFix"/>
<feColorMatrix in="SourceAlpha" type="matrix" values="0 0 0 0 0 0 0 0 0 0 0 0 0 0 0 0 0 0 127 0" result="hardAlpha"/>
<feOffset dy="2"/>
<feGaussianBlur stdDeviation="2"/>
<feComposite in2="hardAlpha" operator="out"/>
<feColorMatrix type="matrix" values="0 0 0 0 0 0 0 0 0 0 0 0 0 0 0 0 0 0 0.5 0"/>
<feBlend mode="normal" in2="BackgroundImageFix" result="effect1_dropShadow_114_3823"/>
<feBlend mode="normal" in="SourceGraphic" in2="effect1_dropShadow_114_3823" result="shape"/>
</filter>
<linearGradient id="paint0_linear_114_3823" x1="4" y1="20" x2="58" y2="20" gradientUnits="userSpaceOnUse">
<stop offset="0.45" stop-color="#F4EDD3"/>
<stop offset="0.55" stop-color="#A5BFCC"/>
</linearGradient>
</defs>
</svg>
