<svg width="62" height="44" viewBox="0 0 62 44" fill="none" xmlns="http://www.w3.org/2000/svg">
<g filter="url(#filter0_d_114_3851)">
<mask id="path-1-inside-1_114_3851" fill="white">
<path fill-rule="evenodd" clip-rule="evenodd" d="M31 35.5919C28.3524 37.1235 25.2786 38 22 38C12.0589 38 4 29.9411 4 20C4 10.0589 12.0589 2 22 2C25.2786 2 28.3524 2.87655 31 4.40808C33.6476 2.87655 36.7214 2 40 2C49.9411 2 58 10.0589 58 20C58 29.9411 49.9411 38 40 38C36.7214 38 33.6476 37.1235 31 35.5919Z"/>
</mask>
<path fill-rule="evenodd" clip-rule="evenodd" d="M31 35.5919C28.3524 37.1235 25.2786 38 22 38C12.0589 38 4 29.9411 4 20C4 10.0589 12.0589 2 22 2C25.2786 2 28.3524 2.87655 31 4.40808C33.6476 2.87655 36.7214 2 40 2C49.9411 2 58 10.0589 58 20C58 29.9411 49.9411 38 40 38C36.7214 38 33.6476 37.1235 31 35.5919Z" fill="url(#paint0_linear_114_3851)"/>
<path d="M31 35.5919L32.0015 33.8607L31 33.2814L29.9985 33.8607L31 35.5919ZM31 4.40808L29.9986 6.13929L31 6.7186L32.0015 6.13929L31 4.40808ZM29.9985 33.8607C27.6472 35.2209 24.9176 36 22 36V40C25.6395 40 29.0577 39.026 32.0015 37.3231L29.9985 33.8607ZM22 36C13.1634 36 6 28.8366 6 20H2C2 31.0457 10.9543 40 22 40V36ZM6 20C6 11.1634 13.1634 4 22 4V0C10.9543 0 2 8.9543 2 20H6ZM22 4C24.9176 4 27.6472 4.77911 29.9986 6.13929L32.0015 2.67687C29.0577 0.973988 25.6395 0 22 0V4ZM32.0015 6.13929C34.3528 4.77911 37.0824 4 40 4V0C36.3605 0 32.9423 0.973989 29.9986 2.67687L32.0015 6.13929ZM40 4C48.8366 4 56 11.1634 56 20H60C60 8.9543 51.0457 0 40 0V4ZM56 20C56 28.8366 48.8366 36 40 36V40C51.0457 40 60 31.0457 60 20H56ZM40 36C37.0824 36 34.3528 35.2209 32.0015 33.8607L29.9985 37.3231C32.9423 39.026 36.3605 40 40 40V36Z" fill="white" mask="url(#path-1-inside-1_114_3851)"/>
</g>
<path d="M31.5478 10.284C30.7478 9.868 30.3478 9.22401 30.3478 8.35201C30.3478 7.92001 30.4558 7.528 30.6718 7.17599C30.8958 6.81599 31.2278 6.532 31.6678 6.32401C32.1158 6.10801 32.6598 6 33.2998 6C33.9398 6 34.4798 6.10801 34.9198 6.32401C35.3678 6.532 35.6998 6.81599 35.9158 7.17599C36.1398 7.528 36.2518 7.92001 36.2518 8.35201C36.2518 8.79201 36.1438 9.18001 35.9278 9.51601C35.7118 9.84401 35.4238 10.1 35.0638 10.284C35.5038 10.476 35.8478 10.756 36.0958 11.124C36.3438 11.492 36.4678 11.928 36.4678 12.432C36.4678 12.976 36.3278 13.452 36.0478 13.86C35.7758 14.26 35.3998 14.568 34.9198 14.784C34.4398 15 33.8998 15.108 33.2998 15.108C32.6998 15.108 32.1598 15 31.6798 14.784C31.2078 14.568 30.8318 14.26 30.5518 13.86C30.2798 13.452 30.1438 12.976 30.1438 12.432C30.1438 11.928 30.2678 11.492 30.5158 11.124C30.7638 10.748 31.1078 10.468 31.5478 10.284ZM34.6198 8.592C34.6198 8.2 34.4998 7.89599 34.2598 7.67999C34.0278 7.46399 33.7078 7.356 33.2998 7.356C32.8998 7.356 32.5798 7.46399 32.3398 7.67999C32.1078 7.89599 31.9918 8.204 31.9918 8.604C31.9918 8.964 32.1118 9.252 32.3518 9.468C32.5998 9.684 32.9158 9.79201 33.2998 9.79201C33.6838 9.79201 33.9998 9.684 34.2478 9.468C34.4958 9.244 34.6198 8.952 34.6198 8.592ZM33.2998 11.016C32.8438 11.016 32.4718 11.132 32.1838 11.364C31.9038 11.596 31.7638 11.928 31.7638 12.36C31.7638 12.76 31.8998 13.088 32.1718 13.344C32.4518 13.592 32.8278 13.716 33.2998 13.716C33.7718 13.716 34.1438 13.588 34.4158 13.332C34.6878 13.076 34.8238 12.752 34.8238 12.36C34.8238 11.936 34.6838 11.608 34.4038 11.376C34.1238 11.136 33.7558 11.016 33.2998 11.016Z" fill="#4C585B"/>
<path d="M25.5322 7.716V6.168H28.4242V14.916H26.6962V7.716H25.5322Z" fill="#4C585B"/>
<defs>
<filter id="filter0_d_114_3851" x="0" y="0" width="62" height="44" filterUnits="userSpaceOnUse" color-interpolation-filters="sRGB">
<feFlood flood-opacity="0" result="BackgroundImageFix"/>
<feColorMatrix in="SourceAlpha" type="matrix" values="0 0 0 0 0 0 0 0 0 0 0 0 0 0 0 0 0 0 127 0" result="hardAlpha"/>
<feOffset dy="2"/>
<feGaussianBlur stdDeviation="2"/>
<feComposite in2="hardAlpha" operator="out"/>
<feColorMatrix type="matrix" values="0 0 0 0 0 0 0 0 0 0 0 0 0 0 0 0 0 0 0.5 0"/>
<feBlend mode="normal" in2="BackgroundImageFix" result="effect1_dropShadow_114_3851"/>
<feBlend mode="normal" in="SourceGraphic" in2="effect1_dropShadow_114_3851" result="shape"/>
</filter>
<linearGradient id="paint0_linear_114_3851" x1="4" y1="20" x2="58" y2="20" gradientUnits="userSpaceOnUse">
<stop offset="0.45" stop-color="#F4EDD3"/>
<stop offset="0.55" stop-color="#A5BFCC"/>
</linearGradient>
</defs>
</svg>
