<svg width="62" height="44" viewBox="0 0 62 44" fill="none" xmlns="http://www.w3.org/2000/svg">
<g filter="url(#filter0_d_114_4136)">
<mask id="path-1-inside-1_114_4136" fill="white">
<path fill-rule="evenodd" clip-rule="evenodd" d="M31 35.5919C28.3524 37.1235 25.2786 38 22 38C12.0589 38 4 29.9411 4 20C4 10.0589 12.0589 2 22 2C25.2786 2 28.3524 2.87655 31 4.40808C33.6476 2.87655 36.7214 2 40 2C49.9411 2 58 10.0589 58 20C58 29.9411 49.9411 38 40 38C36.7214 38 33.6476 37.1235 31 35.5919Z"/>
</mask>
<path fill-rule="evenodd" clip-rule="evenodd" d="M31 35.5919C28.3524 37.1235 25.2786 38 22 38C12.0589 38 4 29.9411 4 20C4 10.0589 12.0589 2 22 2C25.2786 2 28.3524 2.87655 31 4.40808C33.6476 2.87655 36.7214 2 40 2C49.9411 2 58 10.0589 58 20C58 29.9411 49.9411 38 40 38C36.7214 38 33.6476 37.1235 31 35.5919Z" fill="url(#paint0_linear_114_4136)"/>
<path d="M31 35.5919L32.0015 33.8607L31 33.2814L29.9985 33.8607L31 35.5919ZM31 4.40808L29.9986 6.13929L31 6.7186L32.0015 6.13929L31 4.40808ZM29.9985 33.8607C27.6472 35.2209 24.9176 36 22 36V40C25.6395 40 29.0577 39.026 32.0015 37.3231L29.9985 33.8607ZM22 36C13.1634 36 6 28.8366 6 20H2C2 31.0457 10.9543 40 22 40V36ZM6 20C6 11.1634 13.1634 4 22 4V0C10.9543 0 2 8.9543 2 20H6ZM22 4C24.9176 4 27.6472 4.77911 29.9986 6.13929L32.0015 2.67687C29.0577 0.973988 25.6395 0 22 0V4ZM32.0015 6.13929C34.3528 4.77911 37.0824 4 40 4V0C36.3605 0 32.9423 0.973989 29.9986 2.67687L32.0015 6.13929ZM40 4C48.8366 4 56 11.1634 56 20H60C60 8.9543 51.0457 0 40 0V4ZM56 20C56 28.8366 48.8366 36 40 36V40C51.0457 40 60 31.0457 60 20H56ZM40 36C37.0824 36 34.3528 35.2209 32.0015 33.8607L29.9985 37.3231C32.9423 39.026 36.3605 40 40 40V36Z" fill="white" mask="url(#path-1-inside-1_114_4136)"/>
</g>
<path d="M31.2593 10.452C31.2593 9.068 31.5073 7.984 32.0033 7.2C32.5073 6.416 33.3393 6.024 34.4993 6.024C35.6593 6.024 36.4873 6.416 36.9833 7.2C37.4873 7.984 37.7393 9.068 37.7393 10.452C37.7393 11.844 37.4873 12.936 36.9833 13.728C36.4873 14.52 35.6593 14.916 34.4993 14.916C33.3393 14.916 32.5073 14.52 32.0033 13.728C31.5073 12.936 31.2593 11.844 31.2593 10.452ZM36.0833 10.452C36.0833 9.86 36.0433 9.364 35.9633 8.964C35.8913 8.556 35.7393 8.224 35.5073 7.968C35.2833 7.712 34.9473 7.584 34.4993 7.584C34.0513 7.584 33.7113 7.712 33.4793 7.968C33.2553 8.224 33.1033 8.556 33.0233 8.964C32.9513 9.364 32.9153 9.86 32.9153 10.452C32.9153 11.06 32.9513 11.572 33.0233 11.988C33.0953 12.396 33.2473 12.728 33.4793 12.984C33.7113 13.232 34.0513 13.356 34.4993 13.356C34.9473 13.356 35.2873 13.232 35.5193 12.984C35.7513 12.728 35.9033 12.396 35.9753 11.988C36.0473 11.572 36.0833 11.06 36.0833 10.452Z" fill="#E7FBB4"/>
<path d="M24.8967 13.044C25.6647 12.404 26.2767 11.872 26.7327 11.448C27.1887 11.016 27.5687 10.568 27.8727 10.104C28.1767 9.64 28.3287 9.18401 28.3287 8.73601C28.3287 8.32801 28.2327 8.008 28.0407 7.776C27.8487 7.544 27.5527 7.42801 27.1527 7.42801C26.7527 7.42801 26.4447 7.564 26.2287 7.836C26.0127 8.1 25.9007 8.46401 25.8927 8.92801H24.2607C24.2927 7.96801 24.5767 7.24 25.1127 6.744C25.6567 6.248 26.3447 6 27.1767 6C28.0887 6 28.7887 6.24399 29.2767 6.73199C29.7647 7.21199 30.0087 7.848 30.0087 8.64C30.0087 9.264 29.8407 9.86001 29.5047 10.428C29.1687 10.996 28.7847 11.492 28.3527 11.916C27.9207 12.332 27.3567 12.836 26.6607 13.428H30.2007V14.82H24.2727V13.572L24.8967 13.044Z" fill="#E7FBB4"/>
<defs>
<filter id="filter0_d_114_4136" x="0" y="0" width="62" height="44" filterUnits="userSpaceOnUse" color-interpolation-filters="sRGB">
<feFlood flood-opacity="0" result="BackgroundImageFix"/>
<feColorMatrix in="SourceAlpha" type="matrix" values="0 0 0 0 0 0 0 0 0 0 0 0 0 0 0 0 0 0 127 0" result="hardAlpha"/>
<feOffset dy="2"/>
<feGaussianBlur stdDeviation="2"/>
<feComposite in2="hardAlpha" operator="out"/>
<feColorMatrix type="matrix" values="0 0 0 0 0 0 0 0 0 0 0 0 0 0 0 0 0 0 0.5 0"/>
<feBlend mode="normal" in2="BackgroundImageFix" result="effect1_dropShadow_114_4136"/>
<feBlend mode="normal" in="SourceGraphic" in2="effect1_dropShadow_114_4136" result="shape"/>
</filter>
<linearGradient id="paint0_linear_114_4136" x1="4" y1="20" x2="58" y2="20" gradientUnits="userSpaceOnUse">
<stop offset="0.45" stop-color="#DF6D2D"/>
<stop offset="0.55" stop-color="#C84C05"/>
</linearGradient>
</defs>
</svg>
