<svg width="300" height="300" viewBox="0 0 300 300" fill="none" xmlns="http://www.w3.org/2000/svg">
<path d="M150 150L152.487 149.952L154.971 149.809L157.447 149.571L159.913 149.238L164.798 148.29L169.597 146.97L174.284 145.286L178.831 143.247L183.211 140.864L187.4 138.152L191.372 135.125L195.106 131.801L198.579 128.198L201.772 124.337L204.665 120.24L207.242 115.929L209.487 111.429L211.388 106.766L212.932 101.965L213.568 99.5222L214.112 97.0549L214.562 94.567L214.918 92.0621L215.18 89.5436L215.347 87.0152L215.419 84.4803L215.396 81.9427L215.277 79.4058L215.062 76.8733L214.753 74.3487L214.349 71.8356L213.85 69.3376L213.258 66.8582L211.797 61.969L209.971 57.1959L207.792 52.5656L205.271 48.1045L202.421 43.8377L199.258 39.7894L195.8 35.9824L192.064 32.4382L188.073 29.177L183.847 26.2171L179.41 23.5753L174.787 21.2666L170.002 19.3039L167.558 18.456L165.083 17.6985L162.581 17.0327L160.057 16.4595L157.512 15.9796L154.95 15.5938L152.376 15.3025L149.793 15.1063L147.204 15.0054L144.613 15L142.023 15.09L139.439 15.2754L136.863 15.5558L134.299 15.9309L131.751 16.4002L129.222 16.963L126.716 17.6186L124.236 18.3659L119.369 20.1316L114.647 22.2502L110.097 24.7099L105.743 27.4967L101.61 30.595L97.7211 33.9873L94.0965 37.6545L90.7568 41.576L87.7199 45.7296L85.0027 50.092L82.6198 54.6385L80.5841 59.3436L78.9064 64.1806L78.2048 66.6402L77.5958 69.1225L77.0803 71.624L76.659 74.1412L76.3323 76.6706L76.1007 79.2086L75.9644 81.7515L75.9236 84.296L75.9781 86.8382L76.1279 89.3747L76.3727 91.9019L76.712 94.4163L77.1453 96.9142L77.672 99.3921L79.0019 104.274L80.6936 109.035L82.737 113.648L85.1199 118.087L87.8283 122.327L90.8464 126.344L94.1564 130.115L97.7392 133.62L101.574 136.838L105.638 139.752L109.909 142.345L114.361 144.602L118.969 146.51L123.705 148.06L128.544 149.243L130.993 149.694L133.456 150.051L135.932 150.313L138.415 150.48L140.902 150.552L143.39 150.528L145.875 150.409L148.353 150.195L150.821 149.887L153.276 149.483L158.131 148.396L162.888 146.939L167.522 145.122L172.005 142.955L176.311 140.449L180.415 137.62L184.294 134.483L187.925 131.056L191.287 127.358L194.361 123.411L197.128 119.237L199.572 114.859L201.68 110.303L203.437 105.594L204.835 100.758L205.396 98.3016L205.864 95.8239L206.239 93.3284L206.519 90.8188L206.704 88.2985L206.794 85.7712L206.788 83.2404L206.687 80.7098L206.491 78.1828L206.2 75.6631L205.814 73.1542L205.333 70.6598L204.759 68.1833L204.092 65.7282L202.482 60.8963L200.512 56.1915L198.193 51.6404L195.538 47.2688L192.559 43.1015L189.275 39.1622L185.703 35.4732L181.862 32.0554L177.773 28.9282L173.46 26.1094L168.946 23.615L164.255 21.4593L159.414 19.6544L156.945 18.8869L154.449 18.2107L151.929 17.627L149.389 17.1365L146.831 16.74L144.26 16.4379L141.679 16.2308L139.091 16.119L136.501 16.1026L133.912 16.1817L131.327 16.3561L128.75 16.6257L126.184 16.9901L123.634 17.4487L121.102 18.001L118.593 18.6461L116.109 19.3832L113.654 20.2113L108.844 22.1355L104.191 24.408L99.7202 27.0162L95.4559 29.9453L91.4216 33.1789L87.6398 36.699L84.1311 40.4857L80.9148 44.5178L78.0085 48.7727L75.428 53.2264L73.1874 57.8539L71.2986 62.6292L69.7719 67.5255L69.1469 70.0104L68.6152 72.5152L68.1776 75.0364L67.8345 77.5704L67.5865 80.1136L67.4337 82.6625L67.3764 85.2134L67.4145 87.7629L67.5479 90.3073L67.7763 92.8431L68.0994 95.3666L68.5166 97.8743L69.0273 100.363L69.6306 102.828L71.1115 107.677L72.9503 112.394L75.1361 116.952L77.6559 121.326L80.495 125.491L83.6368 129.423L87.0629 133.102L90.7534 136.505L94.687 139.614L98.8408 142.411L103.191 144.882L107.712 147.011L112.378 148.788L117.162 150.201L122.037 151.245L124.499 151.626L126.974 151.912L129.457 152.103L131.945 152.199L134.434 152.199L136.921 152.104L139.403 151.914L141.874 151.629L146.775 150.776L151.596 149.55L156.309 147.959L160.887 146.01L165.304 143.716L169.533 141.089L173.551 138.145L177.334 134.901L180.86 131.374L184.11 127.585L187.063 123.556L189.703 119.308L192.014 114.868L193.983 110.259L195.598 105.508L196.849 100.641L197.336 98.1738L197.729 95.6878L198.028 93.187L198.232 90.6749L198.341 88.1551L198.354 85.6311L198.272 83.1066L198.095 80.5852L197.823 78.0704L197.456 75.5657L196.994 73.0748L196.438 70.6012L195.049 65.7199L193.294 60.9496L191.183 56.3172L188.728 51.8492L185.942 47.571L182.84 43.5069L179.439 39.68L175.758 36.1122L171.817 32.8236L167.637 29.8332L163.242 27.1579L158.655 24.813L153.903 22.8119L149.012 21.1662L146.522 20.4797L144.008 19.8854L141.473 19.3841L138.919 18.9767L136.352 18.6637L133.774 18.4455L131.189 18.3226L128.601 18.2951L126.013 18.3631L123.429 18.5264L120.852 18.785L118.286 19.1384L115.734 19.5862L113.2 20.1277L110.688 20.7623L108.201 21.489L103.315 23.2147L98.5696 25.2953L93.9913 27.7193L89.6052 30.4731L85.4356 33.5414L81.5053 36.907L77.8361 40.5512L74.4481 44.4535L71.3599 48.5921L68.5884 52.9439L66.1487 57.4844L64.0541 62.1882L62.3157 67.0289L61.583 69.4922L60.9428 71.9795L60.3958 74.4873L59.9428 77.0121L59.5842 79.5503L59.3205 82.0985L59.1521 84.653L59.0792 87.2102L59.1016 89.7666L59.2194 92.3185L59.4323 94.8625L59.7399 97.3949L60.1418 99.9121L60.6373 102.411L61.2256 104.887L61.9059 107.338L63.5379 112.149L65.5236 116.817L67.8513 121.316L70.5073 125.62L73.476 129.705L76.7401 133.549L80.2806 137.13L84.077 140.428L88.1074 143.424L92.3483 146.103L96.7753 148.448L101.363 150.448L106.085 152.09L110.913 153.366L113.359 153.864L115.821 154.269L118.296 154.579L120.779 154.794L123.269 154.913L125.76 154.938L128.25 154.867L130.735 154.7L133.211 154.439L135.674 154.083L140.55 153.09L145.335 151.726L150 150ZM150 150L154.519 147.922L158.867 145.503L163.017 142.757L166.946 139.701L170.632 136.351L174.052 132.728L177.187 128.85L180.019 124.742L182.531 120.425L184.708 115.925L186.538 111.267L188.01 106.478L189.115 101.586L189.528 99.109L189.846 96.6169L190.07 94.1128L190.198 91.6004L190.232 89.0832L190.17 86.5648L190.013 84.0487L189.76 81.5386L189.412 79.0381L188.97 76.5506L188.434 74.0798L187.805 71.6292L186.27 66.8023L184.373 62.0974L182.125 57.5415L179.538 53.1603L176.626 48.9791L173.405 45.0215L169.892 41.3101L166.106 37.8663L162.07 34.7096L157.804 31.8582L153.333 29.3284L148.681 27.1347L143.873 25.2898L141.42 24.5015L138.938 23.8043L136.43 23.1991L133.901 22.6869L131.353 22.2684L128.791 21.9441L126.217 21.7147L123.636 21.5804L121.05 21.5416L118.464 21.5981L115.881 21.7501L113.305 21.9974L110.739 22.3395L108.187 22.7762L105.653 23.3067L103.139 23.9304L100.649 24.6464L98.1873 25.4537L93.3607 27.3378L88.6856 29.5724L84.1879 32.145L79.8924 35.0413L75.8229 38.2454L72.0018 41.7393L68.4502 45.5036L65.1877 49.5174L62.2321 53.758L59.5995 58.202L57.3044 62.8245L55.3592 67.5996L53.7743 72.5007L53.1197 74.9899L52.5582 77.5003L52.0905 80.0283L51.7172 82.5704L51.4388 85.1231L51.2555 87.6828L51.1677 90.2458L51.1753 92.8087L51.2783 95.3678L51.4765 97.9196L51.7694 100.46L52.1568 102.987L52.6378 105.495L53.2119 107.982L54.6353 112.877L56.4184 117.645L58.5508 122.259L61.0197 126.693L63.8109 130.923L66.9079 134.925L70.2927 138.676L73.9459 142.156L77.8461 145.345L81.9709 148.226L86.2964 150.782L90.7978 152.999L95.449 154.866L100.223 156.372L105.093 157.508L107.555 157.936L110.031 158.27L112.516 158.508L115.008 158.651L117.502 158.699L119.995 158.651L122.484 158.508L124.965 158.271L127.434 157.938L129.887 157.511L134.735 156.378L139.48 154.877L144.095 153.018L148.553 150.811L152.829 148.269L156.898 145.406L160.736 142.24L164.322 138.788L167.634 135.07L170.653 131.107L173.362 126.923L175.745 122.54L177.789 117.984L179.48 113.282L180.809 108.459L181.335 106.011L181.768 103.544L182.107 101.06L182.351 98.5637L182.5 96.0584L182.554 93.5477L182.513 91.0351L182.376 88.5243L182.144 86.0187L181.817 83.522L181.395 81.0378L180.88 78.5695L179.569 73.695L177.891 68.9264L175.856 64.2909L173.474 59.8149L170.759 55.5241L167.725 51.443L164.389 47.595L160.768 44.002L156.884 40.6848L152.758 37.6623L148.412 34.9519L143.87 32.5693L139.158 30.5281L134.301 28.8404L131.827 28.1321L129.327 27.5158L126.805 26.9922L124.263 26.5622L121.707 26.2264L119.138 25.9854L116.561 25.8394L113.979 25.7888L111.397 25.8336L108.816 25.9739L106.242 26.2094L103.677 26.5399L101.125 26.965L98.5905 27.4841L96.0757 28.0965L93.5847 28.8014L88.6876 30.4847L83.9263 32.5247L79.3272 34.9103L74.9157 37.6284L70.7163 40.6639L66.7523 44L63.0455 47.6182L59.6163 51.4984L56.4837 55.619L53.6648 59.957L51.1752 64.4884L49.0283 69.1877L47.2358 74.0289L46.4755 76.4943L45.8073 78.9849L45.2321 81.4974L44.7505 84.0281L44.3633 86.5736L44.0708 89.1303L43.8735 91.6946L43.7716 94.263L43.7651 96.8319L43.8541 99.3976L44.0382 101.957L44.3173 104.505L44.6908 107.04L45.1581 109.558L45.7186 112.055L46.3714 114.527L47.9498 119.385L49.8838 124.105L52.1622 128.66L54.7715 133.024L57.6966 137.175L60.9204 141.088L64.4243 144.743L68.188 148.117L72.1897 151.194L76.4065 153.955L80.814 156.386L85.3869 158.473L90.0989 160.205L94.9228 161.572L97.3681 162.116L99.831 162.567L102.308 162.923L104.795 163.184L107.29 163.351L109.787 163.422L112.284 163.397L114.778 163.277L117.264 163.062L119.739 162.753L124.642 161.851L129.458 160.578L134.161 158.941L138.722 156.949L143.116 154.615L147.318 151.951L151.303 148.974L155.048 145.699L158.532 142.147L161.734 138.338L164.636 134.293L167.222 130.035L169.475 125.59L171.383 120.982L172.936 116.238L174.122 111.385L174.576 108.926L174.936 106.451L175.201 103.962L175.372 101.464L175.447 98.9592L175.427 96.4521L175.311 93.9461L175.101 91.4447L174.795 88.9516L174.394 86.4702L173.9 84.0042L173.311 81.557L171.858 76.7333L170.041 72.0266L167.87 67.4638L165.358 63.0712L162.519 58.8739L159.367 54.896L155.92 51.1603L152.198 47.6882L148.22 44.4998L144.008 41.6135L139.587 39.0458L134.981 36.8117L130.214 34.9242L125.314 33.3943L122.823 32.7664L120.308 32.231L117.774 31.7891L115.224 31.4413L112.661 31.1882L110.089 31.03L107.512 30.9672L104.933 30.9998L102.356 31.1279L99.7845 31.3513L97.2217 31.6697L94.6714 32.0828L92.1371 32.59L89.6224 33.1906L87.1308 33.8839L84.6657 34.6688L79.8288 36.5095L75.1386 38.7027L70.6211 41.2362L66.3014 44.0964L62.2034 47.2672L58.3499 50.7313L54.7621 54.4695L51.4599 58.461L48.4615 62.6836L45.7835 67.114L43.4404 71.7275L41.445 76.4984L39.8083 81.4002L39.1272 83.8917L38.5389 86.4056L38.0442 88.9385L37.6438 91.4867L37.338 94.0468L37.1273 96.6152L37.012 99.1883L36.9922 101.763L37.0677 104.334L37.2386 106.9L37.5044 109.456L37.8647 111.999L38.3191 114.525L38.8667 117.031L39.5067 119.514L40.2383 121.969L41.9715 126.784L44.0559 131.449L46.4795 135.94L49.228 140.231L52.2856 144.298L55.6345 148.118L59.2554 151.671L63.1275 154.936L67.2284 157.896L71.5345 160.534L76.0211 162.837L80.6625 164.79L85.432 166.384L90.3023 167.61L92.7665 168.083L95.2454 168.462L97.7354 168.746L100.233 168.935L102.735 169.028L105.236 169.026L107.735 168.929L110.227 168.737L112.709 168.449L115.177 168.068L120.056 167.024L124.838 165.611L129.495 163.838L134 161.715L138.327 159.254L142.452 156.471L146.35 153.38L150 150ZM150 150L153.38 146.35L156.471 142.452L159.254 138.327L161.715 134L163.838 129.495L165.611 124.838L167.024 120.056L168.068 115.177L168.449 112.709L168.737 110.227L168.929 107.735L169.026 105.236L169.028 102.735L168.935 100.233L168.746 97.7354L168.462 95.2454L168.083 92.7665L167.61 90.3023L166.384 85.432L164.79 80.6625L162.837 76.0211L160.534 71.5345L157.896 67.2284L154.936 63.1275L151.671 59.2554L148.118 55.6345L144.298 52.2856L140.231 49.228L135.94 46.4795L131.449 44.0559L126.784 41.9715L121.969 40.2383L119.514 39.5067L117.031 38.8667L114.525 38.3191L111.999 37.8647L109.456 37.5044L106.9 37.2386L104.334 37.0677L101.763 36.9922L99.1883 37.012L96.6152 37.1273L94.0468 37.338L91.4867 37.6438L88.9385 38.0443L86.4056 38.539L83.8917 39.1272L81.4002 39.8083L76.4984 41.445L71.7275 43.4404L67.114 45.7835L62.6836 48.4615L58.461 51.4599L54.4695 54.7621L50.7313 58.3499L47.2672 62.2034L44.0963 66.3014L41.2362 70.6211L38.7027 75.1386L36.5095 79.8288L34.6688 84.6657L33.8839 87.1308L33.1906 89.6224L32.59 92.1371L32.0828 94.6714L31.6697 97.2217L31.3513 99.7845L31.1279 102.356L30.9998 104.933L30.9672 107.512L31.03 110.089L31.1882 112.661L31.4413 115.224L31.7891 117.774L32.231 120.308L32.7664 122.823L33.3943 125.314L34.9242 130.214L36.8117 134.981L39.0458 139.587L41.6135 144.008L44.4998 148.22L47.6882 152.198L51.1603 155.92L54.896 159.367L58.8739 162.519L63.0712 165.358L67.4638 167.87L72.0265 170.041L76.7333 171.858L81.557 173.311L84.0042 173.9L86.4702 174.394L88.9516 174.795L91.4447 175.101L93.9461 175.311L96.4521 175.427L98.9592 175.447L101.464 175.372L103.962 175.201L106.451 174.936L108.926 174.576L111.385 174.122L116.238 172.936L120.982 171.383L125.59 169.475L130.035 167.222L134.293 164.636L138.338 161.734L142.147 158.532L145.699 155.048L148.974 151.303L151.951 147.318L154.615 143.116L156.949 138.722L158.941 134.161L160.578 129.458L161.851 124.642L162.753 119.739L163.062 117.264L163.277 114.778L163.397 112.284L163.422 109.787L163.351 107.29L163.184 104.795L162.923 102.308L162.567 99.831L162.116 97.3681L161.572 94.9228L160.205 90.0989L158.473 85.3869L156.386 80.814L153.955 76.4065L151.194 72.1897L148.117 68.188L144.743 64.4243L141.088 60.9204L137.175 57.6966L133.024 54.7715L128.66 52.1622L124.105 49.8838L119.385 47.9498L114.527 46.3714L112.055 45.7186L109.558 45.1581L107.04 44.6908L104.505 44.3173L101.957 44.0382L99.3976 43.8541L96.8319 43.7651L94.263 43.7716L91.6946 43.8735L89.1303 44.0708L86.5736 44.3633L84.0281 44.7505L81.4974 45.2321L78.9849 45.8073L76.4943 46.4755L74.0289 47.2358L69.1877 49.0283L64.4884 51.1752L59.957 53.6648L55.619 56.4837L51.4984 59.6163L47.6182 63.0455L44 66.7523L40.6639 70.7163L37.6284 74.9157L34.9103 79.3272L32.5247 83.9263L30.4847 88.6876L28.8014 93.5847L28.0965 96.0757L27.4841 98.5905L26.965 101.125L26.5399 103.677L26.2094 106.242L25.9739 108.816L25.8336 111.397L25.7888 113.979L25.8394 116.561L25.9854 119.138L26.2264 121.707L26.5622 124.263L26.9922 126.805L27.5158 129.327L28.1321 131.827L28.8404 134.301L30.5281 139.158L32.5693 143.87L34.9519 148.412L37.6623 152.758L40.6848 156.884L44.002 160.768L47.595 164.389L51.443 167.725L55.5241 170.759L59.8149 173.474L64.2909 175.856L68.9264 177.891L73.695 179.569L78.5695 180.88L81.0378 181.395L83.522 181.817L86.0187 182.144L88.5243 182.376L91.0351 182.513L93.5477 182.554L96.0584 182.5L98.5637 182.351L101.06 182.107L103.544 181.768L106.011 181.335L108.459 180.809L113.282 179.48L117.984 177.789L122.54 175.745L126.923 173.362L131.107 170.653L135.07 167.634L138.788 164.322L142.24 160.736L145.406 156.898L148.269 152.829L150.811 148.553L153.018 144.095L154.877 139.48L156.378 134.735L157.511 129.887L157.938 127.434L158.271 124.965L158.508 122.484L158.651 119.995L158.699 117.502L158.651 115.008L158.508 112.516L158.27 110.031L157.936 107.555L157.508 105.093L156.372 100.223L154.866 95.449L152.999 90.7978L150.782 86.2964L148.226 81.9709L145.345 77.8461L142.156 73.9458L138.676 70.2927L134.925 66.9079L130.923 63.8109L126.693 61.0197L122.259 58.5508L117.645 56.4184L112.877 54.6353L107.982 53.2119L105.495 52.6378L102.987 52.1568L100.46 51.7694L97.9196 51.4765L95.3678 51.2783L92.8087 51.1753L90.2458 51.1677L87.6828 51.2555L85.1231 51.4388L82.5704 51.7172L80.0283 52.0905L77.5003 52.5582L74.9899 53.1197L72.5007 53.7743L67.5996 55.3592L62.8245 57.3044L58.202 59.5995L53.758 62.2321L49.5173 65.1877L45.5036 68.4502L41.7393 72.0018L38.2454 75.8229L35.0413 79.8924L32.145 84.1879L29.5724 88.6856L27.3378 93.3607L25.4537 98.1873L24.6464 100.649L23.9304 103.139L23.3067 105.653L22.7762 108.187L22.3395 110.739L21.9974 113.305L21.7501 115.881L21.5981 118.464L21.5415 121.05L21.5804 123.636L21.7147 126.217L21.9441 128.791L22.2684 131.353L22.6869 133.901L23.1991 136.43L23.8043 138.938L24.5015 141.42L25.2898 143.873L27.1347 148.681L29.3284 153.333L31.8582 157.804L34.7096 162.07L37.8663 166.106L41.3101 169.892L45.0215 173.405L48.9791 176.626L53.1604 179.538L57.5415 182.125L62.0974 184.373L66.8023 186.27L71.6292 187.805L74.0798 188.434L76.5506 188.97L79.0381 189.412L81.5386 189.76L84.0487 190.013L86.5648 190.17L89.0832 190.232L91.6004 190.198L94.1128 190.07L96.6169 189.846L99.109 189.528L101.586 189.115L106.478 188.01L111.267 186.538L115.925 184.708L120.425 182.531L124.742 180.019L128.85 177.187L132.728 174.052L136.351 170.632L139.701 166.946L142.757 163.017L145.503 158.867L147.922 154.519L150 150ZM150 150L151.726 145.335L153.09 140.55L154.083 135.674L154.439 133.211L154.7 130.735L154.867 128.25L154.938 125.76L154.913 123.269L154.794 120.779L154.579 118.296L154.269 115.821L153.864 113.359L153.366 110.913L152.09 106.085L150.448 101.363L148.448 96.7753L146.103 92.3483L143.424 88.1074L140.428 84.077L137.13 80.2806L133.549 76.7401L129.705 73.476L125.62 70.5073L121.316 67.8513L116.817 65.5236L112.149 63.5379L107.338 61.9059L104.887 61.2256L102.411 60.6373L99.9121 60.1418L97.3949 59.74L94.8625 59.4323L92.3185 59.2194L89.7666 59.1016L87.2102 59.0792L84.6529 59.1521L82.0985 59.3205L79.5503 59.5842L77.0121 59.9428L74.4873 60.3958L71.9795 60.9428L69.4922 61.583L67.0289 62.3157L62.1882 64.0541L57.4844 66.1487L52.9439 68.5884L48.5921 71.3599L44.4535 74.4481L40.5512 77.8361L36.907 81.5053L33.5414 85.4356L30.4731 89.6052L27.7193 93.9913L25.2953 98.5696L23.2147 103.315L21.489 108.201L20.7623 110.688L20.1277 113.2L19.5862 115.734L19.1384 118.286L18.785 120.852L18.5264 123.429L18.3631 126.013L18.2951 128.601L18.3226 131.189L18.4455 133.774L18.6637 136.352L18.9767 138.919L19.3841 141.473L19.8854 144.008L20.4797 146.522L21.1662 149.012L22.8119 153.903L24.813 158.655L27.1579 163.242L29.8332 167.637L32.8236 171.817L36.1122 175.758L39.68 179.439L43.5069 182.84L47.571 185.942L51.8492 188.728L56.3172 191.183L60.9496 193.294L65.7199 195.049L70.6012 196.438L73.0748 196.994L75.5657 197.456L78.0703 197.823L80.5852 198.095L83.1066 198.272L85.6311 198.354L88.1551 198.341L90.6749 198.232L93.187 198.028L95.6878 197.729L98.1738 197.336L100.641 196.849L105.508 195.598L110.259 193.983L114.868 192.014L119.308 189.703L123.556 187.063L127.585 184.11L131.374 180.86L134.901 177.334L138.146 173.551L141.089 169.533L143.716 165.304L146.01 160.887L147.959 156.309L149.55 151.596L150.776 146.775L151.629 141.874L151.914 139.403L152.104 136.921L152.199 134.434L152.199 131.945L152.103 129.457L151.912 126.974L151.626 124.499L151.245 122.037L150.201 117.162L148.788 112.378L147.011 107.712L144.882 103.191L142.411 98.8408L139.614 94.687L136.505 90.7534L133.102 87.0629L129.423 83.6368L125.491 80.495L121.326 77.6559L116.952 75.1361L112.394 72.9503L107.677 71.1115L102.828 69.6306L100.363 69.0273L97.8743 68.5166L95.3666 68.0994L92.8431 67.7763L90.3073 67.5479L87.7629 67.4145L85.2134 67.3764L82.6625 67.4337L80.1136 67.5865L77.5704 67.8345L75.0364 68.1776L72.5152 68.6152L70.0104 69.1469L67.5255 69.7719L62.6292 71.2986L57.8539 73.1874L53.2264 75.428L48.7727 78.0085L44.5178 80.9148L40.4857 84.1311L36.699 87.6398L33.1789 91.4216L29.9453 95.4559L27.0162 99.7202L24.408 104.191L22.1355 108.844L20.2113 113.654L19.3832 116.109L18.6461 118.593L18.001 121.102L17.4487 123.634L16.9901 126.184L16.6257 128.75L16.3561 131.327L16.1817 133.912L16.1026 136.501L16.119 139.091L16.2308 141.679L16.4379 144.26L16.74 146.831L17.1365 149.389L17.627 151.929L18.2107 154.449L18.8869 156.945L19.6544 159.414L21.4593 164.255L23.615 168.946L26.1094 173.46L28.9282 177.773L32.0554 181.862L35.4732 185.703L39.1622 189.275L43.1015 192.559L47.2688 195.538L51.6404 198.193L56.1915 200.512L60.8963 202.482L65.7282 204.092L68.1833 204.759L70.6598 205.333L73.1542 205.814L75.6631 206.2L78.1828 206.491L80.7098 206.687L83.2404 206.788L85.7712 206.794L88.2985 206.704L90.8188 206.518L93.3284 206.239L95.8239 205.864L98.3016 205.396L100.758 204.835L105.594 203.437L110.303 201.68L114.859 199.572L119.237 197.128L123.411 194.361L127.358 191.287L131.056 187.925L134.483 184.294L137.62 180.415L140.449 176.311L142.955 172.005L145.122 167.522L146.939 162.888L148.396 158.131L149.483 153.276L149.887 150.821L150.195 148.353L150.41 145.875L150.528 143.39L150.552 140.902L150.48 138.415L150.313 135.932L150.051 133.456L149.694 130.993L149.243 128.544L148.06 123.705L146.51 118.969L144.602 114.361L142.345 109.909L139.752 105.638L136.838 101.574L133.62 97.7392L130.115 94.1564L126.344 90.8464L122.327 87.8283L118.087 85.1199L113.648 82.737L109.035 80.6936L104.274 79.0019L99.3921 77.672L96.9142 77.1453L94.4163 76.712L91.9019 76.3727L89.3747 76.1279L86.8382 75.9781L84.296 75.9236L81.7515 75.9644L79.2086 76.1007L76.6706 76.3324L74.1412 76.659L71.624 77.0803L69.1225 77.5958L66.6402 78.2048L64.1806 78.9064L59.3436 80.5841L54.6385 82.6198L50.092 85.0027L45.7296 87.7199L41.576 90.7567L37.6545 94.0965L33.9873 97.7211L30.595 101.61L27.4967 105.743L24.7099 110.097L22.2502 114.647L20.1316 119.369L18.3659 124.236L17.6186 126.716L16.963 129.222L16.4002 131.751L15.9309 134.299L15.5558 136.863L15.2754 139.439L15.09 142.023L15 144.613L15.0054 147.204L15.1063 149.793L15.3025 152.376L15.5938 154.95L15.9796 157.512L16.4595 160.057L17.0327 162.581L17.6985 165.083L18.456 167.558L19.3039 170.002L21.2666 174.787L23.5753 179.41L26.2171 183.847L29.177 188.073L32.4382 192.064L35.9824 195.8L39.7894 199.258L43.8377 202.421L48.1045 205.271L52.5656 207.792L57.1959 209.971L61.969 211.797L66.8582 213.258L69.3376 213.85L71.8356 214.349L74.3487 214.753L76.8733 215.062L79.4058 215.277L81.9427 215.396L84.4803 215.419L87.0152 215.347L89.5436 215.18L92.0621 214.918L94.567 214.562L97.0549 214.112L99.5222 213.568L101.965 212.932L106.766 211.388L111.429 209.487L115.929 207.242L120.24 204.665L124.337 201.772L128.198 198.579L131.801 195.106L135.125 191.372L138.152 187.4L140.864 183.211L143.247 178.831L145.286 174.284L146.97 169.597L148.29 164.798L149.238 159.913L149.571 157.447L149.809 154.971L149.952 152.487L150 150ZM150 150L149.952 147.513L149.809 145.029L149.571 142.553L149.238 140.087L148.29 135.202L146.97 130.402L145.286 125.716L143.247 121.169L140.864 116.789L138.152 112.6L135.125 108.628L131.801 104.894L128.198 101.421L124.337 98.2281L120.24 95.335L115.929 92.7582L111.429 90.5129L106.766 88.6122L101.965 87.0676L99.5222 86.4318L97.0549 85.8883L94.567 85.438L92.0621 85.0816L89.5436 84.8197L87.0152 84.6526L84.4803 84.5808L81.9427 84.6043L79.4058 84.7233L76.8733 84.9377L74.3487 85.2471L71.8356 85.6513L69.3376 86.1497L66.8582 86.7417L61.969 88.2034L57.1959 90.0287L52.5656 92.2079L48.1045 94.7292L43.8377 97.5791L39.7894 100.742L35.9824 104.2L32.4382 107.936L29.177 111.927L26.2171 116.153L23.5753 120.59L21.2666 125.213L19.3039 129.998L18.456 132.442L17.6985 134.917L17.0327 137.419L16.4595 139.943L15.9796 142.488L15.5938 145.05L15.3025 147.624L15.1063 150.207L15.0054 152.796L15 155.387L15.09 157.977L15.2754 160.561L15.5558 163.137L15.9309 165.701L16.4002 168.249L16.963 170.778L17.6186 173.284L18.3659 175.764L20.1316 180.631L22.2502 185.353L24.7099 189.903L27.4967 194.257L30.595 198.39L33.9873 202.279L37.6545 205.903L41.576 209.243L45.7296 212.28L50.092 214.997L54.6385 217.38L59.3436 219.416L64.1806 221.094L66.6402 221.795L69.1225 222.404L71.624 222.92L74.1412 223.341L76.6706 223.668L79.2086 223.899L81.7515 224.036L84.296 224.076L86.8382 224.022L89.3747 223.872L91.9019 223.627L94.4163 223.288L96.9142 222.855L99.3921 222.328L104.274 220.998L109.035 219.306L113.648 217.263L118.087 214.88L122.327 212.172L126.344 209.154L130.115 205.844L133.62 202.261L136.838 198.426L139.752 194.362L142.345 190.091L144.602 185.639L146.51 181.031L148.06 176.295L149.243 171.456L149.694 169.007L150.051 166.543L150.313 164.068L150.48 161.585L150.552 159.098L150.528 156.61L150.41 154.125L150.195 151.647L149.887 149.179L149.483 146.724L148.396 141.869L146.939 137.112L145.122 132.478L142.955 127.995L140.449 123.689L137.62 119.585L134.483 115.706L131.056 112.075L127.358 108.713L123.411 105.639L119.237 102.872L114.859 100.428L110.303 98.3204L105.594 96.5627L100.758 95.165L98.3016 94.6039L95.8239 94.1358L93.3284 93.7615L90.8188 93.4815L88.2985 93.2964L85.7712 93.2064L83.2404 93.2118L80.7098 93.3126L78.1828 93.5088L75.6631 93.8001L73.1542 94.1863L70.6598 94.6668L68.1833 95.241L65.7282 95.9082L60.8963 97.518L56.1915 99.4877L51.6404 101.807L47.2688 104.462L43.1015 107.441L39.1622 110.725L35.4732 114.297L32.0554 118.138L28.9282 122.227L26.1094 126.54L23.615 131.054L21.4593 135.745L19.6544 140.586L18.8869 143.055L18.2107 145.551L17.627 148.071L17.1365 150.611L16.74 153.169L16.4379 155.74L16.2308 158.321L16.119 160.909L16.1026 163.499L16.1817 166.088L16.3561 168.673L16.6257 171.25L16.9901 173.816L17.4487 176.366L18.001 178.898L18.6461 181.407L19.3832 183.891L20.2113 186.346L22.1355 191.156L24.408 195.809L27.0162 200.28L29.9453 204.544L33.1789 208.578L36.699 212.36L40.4857 215.869L44.5178 219.085L48.7727 221.991L53.2264 224.572L57.8539 226.813L62.6292 228.701L67.5255 230.228L70.0104 230.853L72.5152 231.385L75.0364 231.822L77.5704 232.165L80.1136 232.413L82.6625 232.566L85.2134 232.624L87.7629 232.586L90.3073 232.452L92.8431 232.224L95.3666 231.901L97.8743 231.483L100.363 230.973L102.828 230.369L107.677 228.889L112.394 227.05L116.952 224.864L121.326 222.344L125.491 219.505L129.423 216.363L133.102 212.937L136.505 209.247L139.614 205.313L142.411 201.159L144.882 196.809L147.011 192.288L148.788 187.622L150.201 182.838L151.245 177.963L151.626 175.501L151.912 173.026L152.103 170.543L152.199 168.055L152.199 165.566L152.104 163.079L151.914 160.597L151.629 158.126L150.776 153.225L149.55 148.404L147.959 143.691L146.01 139.113L143.716 134.696L141.089 130.467L138.146 126.449L134.901 122.666L131.374 119.14L127.585 115.89L123.556 112.937L119.308 110.297L114.868 107.986L110.259 106.017L105.508 104.402L100.641 103.151L98.1738 102.664L95.6878 102.271L93.187 101.972L90.6749 101.768L88.1551 101.659L85.6311 101.646L83.1066 101.728L80.5852 101.905L78.0703 102.177L75.5657 102.544L73.0748 103.006L70.6012 103.562L65.7199 104.951L60.9496 106.706L56.3172 108.817L51.8492 111.272L47.571 114.058L43.5069 117.16L39.68 120.561L36.1122 124.242L32.8236 128.183L29.8332 132.363L27.1579 136.758L24.813 141.345L22.8119 146.097L21.1662 150.988L20.4797 153.478L19.8854 155.992L19.3841 158.527L18.9767 161.081L18.6637 163.648L18.4455 166.226L18.3226 168.811L18.2951 171.399L18.3631 173.987L18.5264 176.571L18.785 179.148L19.1384 181.714L19.5862 184.266L20.1277 186.8L20.7623 189.312L21.489 191.799L23.2147 196.685L25.2953 201.43L27.7193 206.009L30.4731 210.395L33.5414 214.564L36.907 218.495L40.5512 222.164L44.4535 225.552L48.5921 228.64L52.9439 231.412L57.4844 233.851L62.1882 235.946L67.0289 237.684L69.4922 238.417L71.9795 239.057L74.4873 239.604L77.0121 240.057L79.5503 240.416L82.0985 240.679L84.6529 240.848L87.2102 240.921L89.7666 240.898L92.3185 240.781L94.8625 240.568L97.3949 240.26L99.9121 239.858L102.411 239.363L104.887 238.774L107.338 238.094L112.149 236.462L116.817 234.476L121.316 232.149L125.62 229.493L129.705 226.524L133.549 223.26L137.13 219.719L140.428 215.923L143.424 211.893L146.103 207.652L148.448 203.225L150.448 198.637L152.09 193.915L153.366 189.087L153.864 186.641L154.269 184.179L154.579 181.704L154.794 179.221L154.913 176.731L154.938 174.24L154.867 171.75L154.7 169.265L154.439 166.789L154.083 164.326L153.09 159.45L151.726 154.665L150 150ZM150 150L147.922 145.481L145.503 141.133L142.757 136.983L139.701 133.054L136.351 129.368L132.728 125.948L128.85 122.813L124.742 119.981L120.425 117.469L115.925 115.292L111.267 113.462L106.478 111.99L101.586 110.885L99.109 110.472L96.6169 110.154L94.1128 109.93L91.6004 109.801L89.0832 109.768L86.5648 109.83L84.0487 109.987L81.5386 110.24L79.0381 110.588L76.5506 111.03L74.0798 111.566L71.6292 112.195L66.8023 113.73L62.0974 115.627L57.5415 117.875L53.1604 120.462L48.9791 123.374L45.0215 126.595L41.3101 130.108L37.8663 133.894L34.7096 137.93L31.8582 142.196L29.3284 146.667L27.1347 151.319L25.2898 156.127L24.5015 158.58L23.8043 161.062L23.1991 163.57L22.6869 166.099L22.2684 168.647L21.9441 171.209L21.7147 173.783L21.5804 176.364L21.5415 178.95L21.5981 181.536L21.7501 184.119L21.9974 186.695L22.3395 189.261L22.7762 191.813L23.3067 194.347L23.9304 196.861L24.6464 199.351L25.4537 201.813L27.3378 206.639L29.5724 211.314L32.145 215.812L35.0413 220.108L38.2454 224.177L41.7393 227.998L45.5036 231.55L49.5173 234.812L53.758 237.768L58.202 240.4L62.8245 242.696L67.5996 244.641L72.5007 246.226L74.9899 246.88L77.5003 247.442L80.0283 247.91L82.5704 248.283L85.1231 248.561L87.6828 248.744L90.2458 248.832L92.8087 248.825L95.3678 248.722L97.9196 248.524L100.46 248.231L102.987 247.843L105.495 247.362L107.982 246.788L112.877 245.365L117.645 243.582L122.259 241.449L126.693 238.98L130.923 236.189L134.925 233.092L138.676 229.707L142.156 226.054L145.345 222.154L148.226 218.029L150.782 213.704L152.999 209.202L154.866 204.551L156.372 199.777L157.508 194.907L157.936 192.445L158.27 189.969L158.508 187.484L158.651 184.992L158.699 182.498L158.651 180.005L158.508 177.516L158.271 175.035L157.938 172.566L157.511 170.113L156.378 165.265L154.877 160.52L153.018 155.905L150.811 151.447L148.269 147.171L145.406 143.102L142.24 139.264L138.788 135.678L135.07 132.366L131.107 129.347L126.923 126.638L122.54 124.255L117.984 122.211L113.282 120.52L108.459 119.191L106.011 118.665L103.544 118.232L101.06 117.893L98.5637 117.649L96.0584 117.5L93.5477 117.446L91.0351 117.487L88.5243 117.624L86.0187 117.856L83.522 118.183L81.0378 118.605L78.5695 119.12L73.695 120.431L68.9264 122.109L64.2909 124.144L59.8149 126.526L55.5241 129.241L51.443 132.275L47.595 135.611L44.002 139.232L40.6848 143.116L37.6623 147.242L34.9519 151.588L32.5693 156.13L30.5281 160.842L28.8404 165.699L28.1321 168.173L27.5158 170.673L26.9922 173.195L26.5622 175.737L26.2264 178.293L25.9854 180.862L25.8394 183.439L25.7888 186.021L25.8336 188.603L25.9739 191.184L26.2094 193.758L26.5399 196.323L26.965 198.875L27.4841 201.41L28.0965 203.924L28.8014 206.415L30.4847 211.312L32.5247 216.074L34.9103 220.673L37.6284 225.084L40.6639 229.284L44 233.248L47.6182 236.955L51.4984 240.384L55.619 243.516L59.957 246.335L64.4884 248.825L69.1877 250.972L74.0289 252.764L76.4943 253.524L78.9849 254.193L81.4974 254.768L84.0281 255.25L86.5736 255.637L89.1303 255.929L91.6946 256.126L94.263 256.228L96.8319 256.235L99.3976 256.146L101.957 255.962L104.505 255.683L107.04 255.309L109.558 254.842L112.055 254.281L114.527 253.629L119.385 252.05L124.105 250.116L128.66 247.838L133.024 245.228L137.175 242.303L141.088 239.08L144.743 235.576L148.117 231.812L151.194 227.81L153.955 223.593L156.386 219.186L158.473 214.613L160.205 209.901L161.572 205.077L162.116 202.632L162.567 200.169L162.923 197.692L163.184 195.205L163.351 192.71L163.422 190.213L163.397 187.716L163.277 185.222L163.062 182.736L162.753 180.261L161.851 175.358L160.578 170.542L158.941 165.839L156.949 161.278L154.615 156.884L151.951 152.682L148.974 148.697L145.699 144.952L142.147 141.468L138.338 138.266L134.293 135.364L130.035 132.778L125.59 130.525L120.982 128.617L116.238 127.064L111.385 125.878L108.926 125.424L106.451 125.064L103.962 124.799L101.464 124.628L98.9592 124.553L96.4521 124.573L93.9461 124.689L91.4447 124.899L88.9516 125.205L86.4702 125.606L84.0042 126.1L81.557 126.689L76.7333 128.142L72.0265 129.959L67.4638 132.13L63.0712 134.642L58.8739 137.481L54.896 140.633L51.1603 144.08L47.6882 147.802L44.4998 151.78L41.6135 155.992L39.0458 160.413L36.8117 165.019L34.9242 169.786L33.3943 174.686L32.7664 177.177L32.231 179.692L31.7891 182.226L31.4413 184.776L31.1882 187.339L31.03 189.911L30.9672 192.488L30.9998 195.067L31.1279 197.644L31.3513 200.215L31.6697 202.778L32.0828 205.329L32.59 207.863L33.1906 210.378L33.8839 212.869L34.6688 215.334L36.5095 220.171L38.7027 224.861L41.2362 229.379L44.0963 233.699L47.2672 237.797L50.7313 241.65L54.4695 245.238L58.461 248.54L62.6836 251.538L67.114 254.217L71.7275 256.56L76.4984 258.555L81.4002 260.192L83.8917 260.873L86.4056 261.461L88.9385 261.956L91.4867 262.356L94.0468 262.662L96.6152 262.873L99.1883 262.988L101.763 263.008L104.334 262.932L106.9 262.761L109.456 262.496L111.999 262.135L114.525 261.681L117.031 261.133L119.514 260.493L121.969 259.762L126.784 258.029L131.449 255.944L135.94 253.521L140.231 250.772L144.298 247.714L148.118 244.365L151.671 240.745L154.936 236.873L157.896 232.772L160.534 228.466L162.837 223.979L164.79 219.337L166.384 214.568L167.61 209.698L168.083 207.233L168.462 204.755L168.746 202.265L168.935 199.767L169.028 197.265L169.026 194.763L168.929 192.265L168.737 189.773L168.449 187.291L168.068 184.823L167.024 179.944L165.611 175.162L163.838 170.505L161.715 166L159.254 161.673L156.471 157.548L153.38 153.65L150 150ZM150 150L146.35 146.62L142.452 143.529L138.327 140.745L134 138.285L129.495 136.162L124.838 134.389L120.056 132.976L115.177 131.932L112.709 131.551L110.227 131.263L107.735 131.071L105.236 130.974L102.735 130.972L100.233 131.065L97.7354 131.254L95.2454 131.538L92.7665 131.917L90.3023 132.39L85.432 133.616L80.6625 135.21L76.0211 137.163L71.5345 139.466L67.2284 142.104L63.1275 145.064L59.2554 148.329L55.6345 151.882L52.2856 155.702L49.228 159.769L46.4795 164.06L44.0559 168.55L41.9715 173.216L40.2383 178.031L39.5067 180.486L38.8667 182.969L38.3191 185.475L37.8647 188.001L37.5044 190.544L37.2386 193.1L37.0677 195.666L36.9922 198.237L37.012 200.812L37.1273 203.385L37.338 205.953L37.6438 208.513L38.0442 211.062L38.5389 213.594L39.1272 216.108L39.8083 218.6L41.445 223.502L43.4404 228.272L45.7835 232.886L48.4615 237.316L51.4599 241.539L54.7621 245.531L58.3499 249.269L62.2034 252.733L66.3014 255.904L70.6211 258.764L75.1386 261.297L79.8288 263.49L84.6657 265.331L87.1308 266.116L89.6224 266.809L92.1371 267.41L94.6714 267.917L97.2217 268.33L99.7845 268.649L102.356 268.872L104.933 269L107.512 269.033L110.089 268.97L112.661 268.812L115.224 268.559L117.774 268.211L120.308 267.769L122.823 267.234L125.314 266.606L130.214 265.076L134.981 263.188L139.587 260.954L144.008 258.387L148.22 255.5L152.198 252.312L155.92 248.84L159.367 245.104L162.519 241.126L165.358 236.929L167.87 232.536L170.041 227.973L171.858 223.267L173.311 218.443L173.9 215.996L174.394 213.53L174.795 211.048L175.101 208.555L175.311 206.054L175.427 203.548L175.447 201.041L175.372 198.536L175.201 196.038L174.936 193.549L174.576 191.074L174.122 188.615L172.936 183.762L171.383 179.018L169.475 174.41L167.222 169.965L164.636 165.707L161.734 161.662L158.532 157.853L155.048 154.301L151.303 151.026L147.318 148.049L143.116 145.385L138.722 143.051L134.161 141.059L129.458 139.422L124.642 138.149L119.739 137.247L117.264 136.938L114.778 136.723L112.284 136.603L109.787 136.578L107.29 136.649L104.795 136.816L102.308 137.077L99.831 137.433L97.3681 137.884L94.9228 138.428L90.0989 139.795L85.3869 141.527L80.814 143.614L76.4065 146.045L72.1897 148.806L68.188 151.883L64.4243 155.257L60.9204 158.912L57.6966 162.825L54.7715 166.976L52.1622 171.34L49.8838 175.895L47.9498 180.615L46.3714 185.473L45.7186 187.945L45.1581 190.442L44.6908 192.96L44.3173 195.495L44.0382 198.043L43.8541 200.602L43.7651 203.168L43.7716 205.737L43.8735 208.305L44.0708 210.87L44.3633 213.426L44.7505 215.972L45.2321 218.503L45.8073 221.015L46.4755 223.506L47.2358 225.971L49.0283 230.812L51.1752 235.512L53.6648 240.043L56.4837 244.381L59.6163 248.502L63.0455 252.382L66.7523 256L70.7163 259.336L74.9157 262.372L79.3272 265.09L83.9263 267.475L88.6876 269.515L93.5847 271.199L96.0757 271.903L98.5905 272.516L101.125 273.035L103.677 273.46L106.242 273.791L108.816 274.026L111.397 274.166L113.979 274.211L116.561 274.161L119.138 274.015L121.707 273.774L124.263 273.438L126.805 273.008L129.327 272.484L131.827 271.868L134.301 271.16L139.158 269.472L143.87 267.431L148.412 265.048L152.758 262.338L156.884 259.315L160.768 255.998L164.389 252.405L167.725 248.557L170.759 244.476L173.474 240.185L175.856 235.709L177.891 231.074L179.569 226.305L180.88 221.43L181.395 218.962L181.817 216.478L182.144 213.981L182.376 211.476L182.513 208.965L182.554 206.452L182.5 203.942L182.351 201.436L182.107 198.94L181.768 196.456L181.335 193.989L180.809 191.541L179.48 186.718L177.789 182.016L175.745 177.46L173.362 173.077L170.653 168.893L167.634 164.93L164.322 161.212L160.736 157.76L156.898 154.594L152.829 151.731L148.553 149.189L144.095 146.982L139.48 145.123L134.735 143.622L129.887 142.489L127.434 142.062L124.965 141.729L122.484 141.492L119.995 141.349L117.502 141.301L115.008 141.349L112.516 141.492L110.031 141.73L107.555 142.064L105.093 142.491L100.223 143.628L95.449 145.134L90.7978 147.001L86.2964 149.218L81.9709 151.774L77.8461 154.655L73.9459 157.844L70.2927 161.324L66.9079 165.075L63.8109 169.077L61.0197 173.307L58.5508 177.741L56.4184 182.355L54.6353 187.123L53.2119 192.018L52.6378 194.505L52.1568 197.013L51.7694 199.54L51.4765 202.08L51.2783 204.632L51.1753 207.191L51.1677 209.754L51.2555 212.317L51.4388 214.877L51.7172 217.43L52.0905 219.972L52.5582 222.5L53.1197 225.01L53.7743 227.499L55.3592 232.4L57.3044 237.175L59.5995 241.798L62.2321 246.242L65.1877 250.483L68.4502 254.496L72.0018 258.261L75.8229 261.755L79.8924 264.959L84.1879 267.855L88.6856 270.428L93.3607 272.662L98.1873 274.546L100.649 275.354L103.139 276.07L105.653 276.693L108.187 277.224L110.739 277.66L113.305 278.003L115.881 278.25L118.464 278.402L121.05 278.458L123.636 278.42L126.217 278.285L128.791 278.056L131.353 277.732L133.901 277.313L136.43 276.801L138.938 276.196L141.42 275.498L143.873 274.71L148.681 272.865L153.333 270.672L157.804 268.142L162.07 265.29L166.106 262.134L169.892 258.69L173.405 254.979L176.626 251.021L179.538 246.84L182.125 242.459L184.373 237.903L186.27 233.198L187.805 228.371L188.434 225.92L188.97 223.449L189.412 220.962L189.76 218.461L190.013 215.951L190.17 213.435L190.232 210.917L190.198 208.4L190.07 205.887L189.846 203.383L189.528 200.891L189.115 198.414L188.01 193.522L186.538 188.733L184.708 184.075L182.531 179.575L180.019 175.258L177.187 171.15L174.052 167.272L170.632 163.649L166.946 160.299L163.017 157.243L158.867 154.497L154.519 152.078L150 150ZM150 150L145.335 148.274L140.55 146.91L135.674 145.917L133.211 145.561L130.735 145.3L128.25 145.133L125.76 145.062L123.269 145.087L120.779 145.206L118.296 145.421L115.821 145.731L113.359 146.136L110.913 146.634L106.085 147.91L101.363 149.552L96.7753 151.552L92.3483 153.897L88.1074 156.576L84.077 159.572L80.2806 162.87L76.7401 166.451L73.476 170.295L70.5073 174.38L67.8513 178.684L65.5236 183.183L63.5379 187.851L61.9059 192.662L61.2256 195.113L60.6373 197.589L60.1418 200.088L59.7399 202.605L59.4323 205.138L59.2194 207.681L59.1016 210.233L59.0792 212.79L59.1521 215.347L59.3205 217.902L59.5842 220.45L59.9428 222.988L60.3958 225.513L60.9428 228.021L61.583 230.508L62.3157 232.971L64.0541 237.812L66.1487 242.516L68.5884 247.056L71.3599 251.408L74.4481 255.546L77.8361 259.449L81.5053 263.093L85.4356 266.459L89.6052 269.527L93.9913 272.281L98.5696 274.705L103.315 276.785L108.201 278.511L110.688 279.238L113.2 279.872L115.734 280.414L118.286 280.862L120.852 281.215L123.429 281.474L126.013 281.637L128.601 281.705L131.189 281.677L133.774 281.554L136.352 281.336L138.919 281.023L141.473 280.616L144.008 280.115L146.522 279.52L149.012 278.834L153.903 277.188L158.655 275.187L163.242 272.842L167.637 270.167L171.817 267.176L175.758 263.888L179.439 260.32L182.84 256.493L185.942 252.429L188.728 248.151L191.183 243.683L193.294 239.05L195.049 234.28L196.438 229.399L196.994 226.925L197.456 224.434L197.823 221.93L198.095 219.415L198.272 216.893L198.354 214.369L198.341 211.845L198.232 209.325L198.028 206.813L197.729 204.312L197.336 201.826L196.849 199.359L195.598 194.492L193.983 189.741L192.014 185.132L189.703 180.692L187.063 176.444L184.11 172.415L180.86 168.626L177.334 165.099L173.551 161.854L169.533 158.911L165.304 156.284L160.887 153.99L156.309 152.041L151.596 150.45L146.775 149.224L141.874 148.371L139.403 148.086L136.921 147.896L134.434 147.801L131.945 147.801L129.457 147.897L126.974 148.088L124.499 148.374L122.037 148.755L117.162 149.798L112.378 151.212L107.712 152.989L103.191 155.118L98.8408 157.589L94.687 160.386L90.7534 163.495L87.0629 166.898L83.6368 170.577L80.495 174.509L77.6559 178.674L75.1361 183.048L72.9503 187.606L71.1115 192.323L69.6306 197.172L69.0273 199.637L68.5166 202.126L68.0994 204.633L67.7763 207.157L67.5479 209.693L67.4145 212.237L67.3764 214.787L67.4337 217.338L67.5865 219.886L67.8345 222.43L68.1776 224.964L68.6152 227.485L69.1469 229.99L69.7719 232.475L71.2986 237.371L73.1874 242.146L75.428 246.774L78.0085 251.227L80.9148 255.482L84.1311 259.514L87.6398 263.301L91.4216 266.821L95.4559 270.055L99.7202 272.984L104.191 275.592L108.844 277.864L113.654 279.789L116.109 280.617L118.593 281.354L121.102 281.999L123.634 282.551L126.184 283.01L128.75 283.374L131.327 283.644L133.912 283.818L136.501 283.897L139.091 283.881L141.679 283.769L144.26 283.562L146.831 283.26L149.389 282.863L151.929 282.373L154.449 281.789L156.945 281.113L159.414 280.346L164.255 278.541L168.946 276.385L173.46 273.891L177.773 271.072L181.862 267.945L185.703 264.527L189.275 260.838L192.559 256.898L195.538 252.731L198.193 248.36L200.512 243.808L202.482 239.104L204.092 234.272L204.759 231.817L205.333 229.34L205.814 226.846L206.2 224.337L206.491 221.817L206.687 219.29L206.788 216.76L206.794 214.229L206.704 211.701L206.519 209.181L206.239 206.672L205.864 204.176L205.396 201.698L204.835 199.242L203.437 194.406L201.68 189.697L199.572 185.141L197.128 180.763L194.361 176.589L191.287 172.642L187.925 168.944L184.294 165.517L180.415 162.38L176.311 159.551L172.005 157.045L167.522 154.878L162.888 153.061L158.131 151.604L153.276 150.517L150.821 150.113L148.353 149.805L145.875 149.59L143.39 149.472L140.902 149.448L138.415 149.52L135.932 149.687L133.456 149.949L130.993 150.306L128.544 150.757L123.705 151.94L118.969 153.49L114.361 155.398L109.909 157.655L105.638 160.248L101.574 163.162L97.7392 166.38L94.1564 169.885L90.8464 173.656L87.8283 177.673L85.1199 181.913L82.737 186.352L80.6936 190.965L79.0019 195.726L77.672 200.608L77.1453 203.086L76.712 205.584L76.3727 208.098L76.1279 210.625L75.9781 213.162L75.9236 215.704L75.9644 218.248L76.1007 220.791L76.3323 223.329L76.659 225.859L77.0803 228.376L77.5958 230.878L78.2048 233.36L78.9064 235.819L80.5841 240.656L82.6198 245.361L85.0027 249.908L87.7199 254.27L90.7568 258.424L94.0965 262.345L97.7211 266.013L101.61 269.405L105.743 272.503L110.097 275.29L114.647 277.75L119.369 279.868L124.236 281.634L126.716 282.381L129.222 283.037L131.751 283.6L134.299 284.069L136.863 284.444L139.439 284.725L142.023 284.91L144.613 285L147.204 284.995L149.793 284.894L152.376 284.697L154.95 284.406L157.512 284.02L160.057 283.541L162.581 282.967L165.083 282.301L167.558 281.544L170.002 280.696L174.787 278.733L179.41 276.425L183.847 273.783L188.073 270.823L192.064 267.562L195.8 264.018L199.258 260.211L202.421 256.162L205.271 251.895L207.792 247.434L209.971 242.804L211.797 238.031L213.258 233.142L213.85 230.662L214.349 228.164L214.753 225.651L215.062 223.127L215.277 220.594L215.396 218.057L215.419 215.52L215.347 212.985L215.18 210.456L214.918 207.938L214.562 205.433L214.112 202.945L213.568 200.478L212.932 198.035L211.388 193.234L209.487 188.571L207.242 184.071L204.665 179.76L201.772 175.663L198.579 171.802L195.106 168.199L191.372 164.875L187.4 161.848L183.211 159.136L178.831 156.753L174.284 154.714L169.597 153.03L164.798 151.71L159.913 150.762L157.447 150.429L154.971 150.191L152.487 150.048L150 150ZM150 150L147.513 150.048L145.029 150.191L142.553 150.429L140.087 150.762L135.202 151.71L130.402 153.03L125.716 154.714L121.169 156.753L116.789 159.136L112.6 161.848L108.628 164.875L104.894 168.199L101.421 171.802L98.2281 175.663L95.335 179.76L92.7582 184.071L90.5129 188.571L88.6122 193.234L87.0676 198.035L86.4318 200.478L85.8883 202.945L85.438 205.433L85.0816 207.938L84.8197 210.456L84.6526 212.985L84.5808 215.52L84.6043 218.057L84.7233 220.594L84.9377 223.127L85.2471 225.651L85.6513 228.164L86.1497 230.662L86.7417 233.142L88.2034 238.031L90.0287 242.804L92.2079 247.434L94.7292 251.895L97.5791 256.162L100.742 260.211L104.2 264.018L107.936 267.562L111.927 270.823L116.153 273.783L120.59 276.425L125.213 278.733L129.998 280.696L132.442 281.544L134.917 282.301L137.419 282.967L139.943 283.541L142.488 284.02L145.05 284.406L147.624 284.697L150.207 284.894L152.796 284.995L155.387 285L157.977 284.91L160.561 284.725L163.137 284.444L165.701 284.069L168.249 283.6L170.778 283.037L173.284 282.381L175.764 281.634L180.631 279.868L185.353 277.75L189.903 275.29L194.257 272.503L198.39 269.405L202.279 266.013L205.903 262.345L209.243 258.424L212.28 254.27L214.997 249.908L217.38 245.361L219.416 240.656L221.094 235.819L221.795 233.36L222.404 230.878L222.92 228.376L223.341 225.859L223.668 223.329L223.899 220.791L224.036 218.248L224.076 215.704L224.022 213.162L223.872 210.625L223.627 208.098L223.288 205.584L222.855 203.086L222.328 200.608L220.998 195.726L219.306 190.965L217.263 186.352L214.88 181.913L212.172 177.673L209.154 173.656L205.844 169.885L202.261 166.38L198.426 163.162L194.362 160.248L190.091 157.655L185.639 155.398L181.031 153.49L176.295 151.94L171.456 150.757L169.007 150.306L166.544 149.949L164.068 149.687L161.585 149.52L159.098 149.448L156.61 149.472L154.125 149.59L151.647 149.805L149.179 150.113L146.724 150.517L141.869 151.604L137.112 153.061L132.478 154.878L127.995 157.045L123.689 159.551L119.585 162.38L115.706 165.517L112.075 168.944L108.713 172.642L105.639 176.589L102.872 180.763L100.428 185.141L98.3204 189.697L96.5627 194.406L95.165 199.242L94.6039 201.698L94.1358 204.176L93.7614 206.672L93.4815 209.181L93.2964 211.701L93.2064 214.229L93.2118 216.76L93.3126 219.29L93.5088 221.817L93.8001 224.337L94.1863 226.846L94.6668 229.34L95.241 231.817L95.9082 234.272L97.518 239.104L99.4877 243.808L101.807 248.36L104.462 252.731L107.441 256.898L110.725 260.838L114.297 264.527L118.138 267.945L122.227 271.072L126.54 273.891L131.054 276.385L135.745 278.541L140.586 280.346L143.055 281.113L145.551 281.789L148.071 282.373L150.611 282.863L153.169 283.26L155.74 283.562L158.321 283.769L160.909 283.881L163.499 283.897L166.088 283.818L168.673 283.644L171.25 283.374L173.816 283.01L176.366 282.551L178.898 281.999L181.407 281.354L183.891 280.617L186.346 279.789L191.156 277.864L195.809 275.592L200.28 272.984L204.544 270.055L208.578 266.821L212.36 263.301L215.869 259.514L219.085 255.482L221.992 251.227L224.572 246.774L226.813 242.146L228.701 237.371L230.228 232.475L230.853 229.99L231.385 227.485L231.822 224.964L232.165 222.43L232.413 219.886L232.566 217.338L232.624 214.787L232.586 212.237L232.452 209.693L232.224 207.157L231.901 204.633L231.483 202.126L230.973 199.637L230.369 197.172L228.889 192.323L227.05 187.606L224.864 183.048L222.344 178.674L219.505 174.509L216.363 170.577L212.937 166.898L209.247 163.495L205.313 160.386L201.159 157.589L196.809 155.118L192.288 152.989L187.622 151.212L182.838 149.798L177.963 148.755L175.501 148.374L173.026 148.088L170.543 147.897L168.055 147.801L165.566 147.801L163.079 147.896L160.597 148.086L158.126 148.371L153.225 149.224L148.404 150.45L143.691 152.041L139.113 153.99L134.696 156.284L130.467 158.911L126.449 161.854L122.666 165.099L119.14 168.626L115.89 172.415L112.937 176.444L110.297 180.692L107.986 185.132L106.017 189.741L104.402 194.492L103.151 199.359L102.664 201.826L102.271 204.312L101.972 206.813L101.768 209.325L101.659 211.845L101.646 214.369L101.728 216.893L101.905 219.415L102.177 221.93L102.544 224.434L103.006 226.925L103.562 229.399L104.951 234.28L106.706 239.05L108.817 243.683L111.272 248.151L114.058 252.429L117.16 256.493L120.561 260.32L124.242 263.888L128.183 267.176L132.363 270.167L136.758 272.842L141.345 275.187L146.097 277.188L150.988 278.834L153.478 279.52L155.992 280.115L158.527 280.616L161.081 281.023L163.648 281.336L166.226 281.554L168.811 281.677L171.399 281.705L173.987 281.637L176.571 281.474L179.148 281.215L181.714 280.862L184.266 280.414L186.8 279.872L189.312 279.238L191.799 278.511L196.685 276.785L201.43 274.705L206.009 272.281L210.395 269.527L214.564 266.459L218.495 263.093L222.164 259.449L225.552 255.546L228.64 251.408L231.412 247.056L233.851 242.516L235.946 237.812L237.684 232.971L238.417 230.508L239.057 228.021L239.604 225.513L240.057 222.988L240.416 220.45L240.679 217.902L240.848 215.347L240.921 212.79L240.898 210.233L240.781 207.681L240.568 205.138L240.26 202.605L239.858 200.088L239.363 197.589L238.774 195.113L238.094 192.662L236.462 187.851L234.476 183.183L232.149 178.684L229.493 174.38L226.524 170.295L223.26 166.451L219.719 162.87L215.923 159.572L211.893 156.576L207.652 153.897L203.225 151.552L198.637 149.552L193.915 147.91L189.087 146.634L186.641 146.136L184.179 145.731L181.704 145.421L179.221 145.206L176.731 145.087L174.24 145.062L171.75 145.133L169.265 145.3L166.789 145.561L164.326 145.917L159.45 146.91L154.665 148.274L150 150ZM150 150L145.481 152.078L141.133 154.497L136.983 157.243L133.054 160.299L129.368 163.649L125.948 167.272L122.813 171.15L119.981 175.258L117.469 179.575L115.292 184.075L113.462 188.733L111.99 193.522L110.885 198.414L110.472 200.891L110.154 203.383L109.93 205.887L109.801 208.4L109.768 210.917L109.83 213.435L109.987 215.951L110.24 218.461L110.588 220.962L111.03 223.449L111.566 225.92L112.195 228.371L113.73 233.198L115.627 237.903L117.875 242.459L120.462 246.84L123.374 251.021L126.595 254.979L130.108 258.69L133.894 262.134L137.93 265.29L142.196 268.142L146.667 270.672L151.319 272.865L156.127 274.71L158.58 275.498L161.062 276.196L163.57 276.801L166.099 277.313L168.647 277.732L171.209 278.056L173.783 278.285L176.364 278.42L178.95 278.458L181.536 278.402L184.119 278.25L186.695 278.003L189.261 277.66L191.813 277.224L194.347 276.693L196.861 276.07L199.351 275.354L201.813 274.546L206.639 272.662L211.314 270.428L215.812 267.855L220.108 264.959L224.177 261.755L227.998 258.261L231.55 254.496L234.812 250.483L237.768 246.242L240.4 241.798L242.696 237.175L244.641 232.4L246.226 227.499L246.88 225.01L247.442 222.5L247.91 219.972L248.283 217.43L248.561 214.877L248.744 212.317L248.832 209.754L248.825 207.191L248.722 204.632L248.524 202.08L248.231 199.54L247.843 197.013L247.362 194.505L246.788 192.018L245.365 187.123L243.582 182.355L241.449 177.741L238.98 173.307L236.189 169.077L233.092 165.075L229.707 161.324L226.054 157.844L222.154 154.655L218.029 151.774L213.704 149.218L209.202 147.001L204.551 145.134L199.777 143.628L194.907 142.491L192.445 142.064L189.969 141.73L187.484 141.492L184.992 141.349L182.498 141.301L180.005 141.349L177.516 141.492L175.035 141.729L172.566 142.062L170.113 142.489L165.265 143.622L160.52 145.123L155.905 146.982L151.447 149.189L147.171 151.731L143.102 154.594L139.264 157.76L135.678 161.212L132.366 164.93L129.347 168.893L126.638 173.077L124.255 177.46L122.211 182.016L120.52 186.718L119.191 191.541L118.665 193.989L118.232 196.456L117.893 198.94L117.649 201.436L117.5 203.942L117.446 206.452L117.487 208.965L117.624 211.476L117.856 213.981L118.183 216.478L118.605 218.962L119.12 221.43L120.431 226.305L122.109 231.074L124.144 235.709L126.526 240.185L129.241 244.476L132.275 248.557L135.611 252.405L139.232 255.998L143.116 259.315L147.242 262.338L151.588 265.048L156.13 267.431L160.842 269.472L165.699 271.16L168.173 271.868L170.673 272.484L173.195 273.008L175.737 273.438L178.293 273.774L180.862 274.015L183.439 274.161L186.021 274.211L188.603 274.166L191.184 274.026L193.758 273.791L196.323 273.46L198.875 273.035L201.41 272.516L203.924 271.903L206.415 271.199L211.312 269.515L216.074 267.475L220.673 265.09L225.084 262.372L229.284 259.336L233.248 256L236.955 252.382L240.384 248.502L243.516 244.381L246.335 240.043L248.825 235.512L250.972 230.812L252.764 225.971L253.524 223.506L254.193 221.015L254.768 218.503L255.25 215.972L255.637 213.426L255.929 210.87L256.126 208.305L256.228 205.737L256.235 203.168L256.146 200.602L255.962 198.043L255.683 195.495L255.309 192.96L254.842 190.442L254.281 187.945L253.629 185.473L252.05 180.615L250.116 175.895L247.838 171.34L245.228 166.976L242.303 162.825L239.08 158.912L235.576 155.257L231.812 151.883L227.81 148.806L223.593 146.045L219.186 143.614L214.613 141.527L209.901 139.795L205.077 138.428L202.632 137.884L200.169 137.433L197.692 137.077L195.205 136.816L192.71 136.649L190.213 136.578L187.716 136.603L185.222 136.723L182.736 136.938L180.261 137.247L175.358 138.149L170.542 139.422L165.839 141.059L161.278 143.051L156.884 145.385L152.682 148.049L148.697 151.026L144.952 154.301L141.468 157.853L138.266 161.662L135.364 165.707L132.778 169.965L130.525 174.41L128.617 179.018L127.064 183.762L125.878 188.615L125.424 191.074L125.064 193.549L124.799 196.038L124.628 198.536L124.553 201.041L124.573 203.548L124.689 206.054L124.899 208.555L125.205 211.048L125.606 213.53L126.1 215.996L126.689 218.443L128.142 223.267L129.959 227.973L132.13 232.536L134.642 236.929L137.481 241.126L140.633 245.104L144.08 248.84L147.802 252.312L151.78 255.5L155.992 258.387L160.413 260.954L165.019 263.188L169.786 265.076L174.686 266.606L177.177 267.234L179.692 267.769L182.226 268.211L184.776 268.559L187.339 268.812L189.911 268.97L192.488 269.033L195.067 269L197.644 268.872L200.215 268.649L202.778 268.33L205.329 267.917L207.863 267.41L210.378 266.809L212.869 266.116L215.334 265.331L220.171 263.49L224.861 261.297L229.379 258.764L233.699 255.904L237.797 252.733L241.65 249.269L245.238 245.531L248.54 241.539L251.538 237.316L254.217 232.886L256.56 228.272L258.555 223.502L260.192 218.6L260.873 216.108L261.461 213.594L261.956 211.062L262.356 208.513L262.662 205.953L262.873 203.385L262.988 200.812L263.008 198.237L262.932 195.666L262.761 193.1L262.496 190.544L262.135 188.001L261.681 185.475L261.133 182.969L260.493 180.486L259.762 178.031L258.029 173.216L255.944 168.55L253.521 164.06L250.772 159.769L247.714 155.702L244.365 151.882L240.745 148.329L236.873 145.064L232.772 142.104L228.466 139.466L223.979 137.163L219.337 135.21L214.568 133.616L209.698 132.39L207.233 131.917L204.755 131.538L202.265 131.254L199.767 131.065L197.265 130.972L194.764 130.974L192.265 131.071L189.773 131.263L187.291 131.551L184.823 131.932L179.944 132.976L175.162 134.389L170.505 136.162L166 138.285L161.673 140.745L157.548 143.529L153.65 146.62L150 150ZM150 150L146.62 153.65L143.529 157.548L140.746 161.673L138.285 166L136.162 170.505L134.389 175.162L132.976 179.944L131.932 184.823L131.551 187.291L131.263 189.773L131.071 192.265L130.974 194.763L130.972 197.265L131.065 199.767L131.254 202.265L131.538 204.755L131.917 207.233L132.39 209.698L133.616 214.568L135.21 219.337L137.163 223.979L139.466 228.466L142.104 232.772L145.064 236.873L148.329 240.745L151.882 244.365L155.702 247.714L159.769 250.772L164.06 253.521L168.55 255.944L173.216 258.029L178.031 259.762L180.486 260.493L182.969 261.133L185.475 261.681L188.001 262.135L190.544 262.496L193.1 262.761L195.666 262.932L198.237 263.008L200.812 262.988L203.385 262.873L205.953 262.662L208.513 262.356L211.062 261.956L213.594 261.461L216.108 260.873L218.6 260.192L223.502 258.555L228.272 256.56L232.886 254.217L237.316 251.538L241.539 248.54L245.531 245.238L249.269 241.65L252.733 237.797L255.904 233.699L258.764 229.379L261.297 224.861L263.49 220.171L265.331 215.334L266.116 212.869L266.809 210.378L267.41 207.863L267.917 205.329L268.33 202.778L268.649 200.215L268.872 197.644L269 195.067L269.033 192.488L268.97 189.911L268.812 187.339L268.559 184.776L268.211 182.226L267.769 179.692L267.234 177.177L266.606 174.686L265.076 169.786L263.188 165.019L260.954 160.413L258.387 155.992L255.5 151.78L252.312 147.802L248.84 144.08L245.104 140.633L241.126 137.481L236.929 134.642L232.536 132.13L227.973 129.959L223.267 128.142L218.443 126.689L215.996 126.1L213.53 125.606L211.048 125.205L208.555 124.899L206.054 124.689L203.548 124.573L201.041 124.553L198.536 124.628L196.038 124.799L193.549 125.064L191.074 125.424L188.615 125.878L183.762 127.064L179.018 128.617L174.41 130.525L169.965 132.778L165.707 135.364L161.662 138.266L157.853 141.468L154.301 144.952L151.026 148.697L148.049 152.682L145.385 156.884L143.051 161.278L141.059 165.839L139.422 170.542L138.149 175.358L137.247 180.261L136.938 182.736L136.723 185.222L136.603 187.716L136.578 190.213L136.649 192.71L136.816 195.205L137.077 197.692L137.433 200.169L137.884 202.632L138.428 205.077L139.795 209.901L141.527 214.613L143.614 219.186L146.045 223.593L148.806 227.81L151.883 231.812L155.257 235.576L158.912 239.08L162.825 242.303L166.976 245.228L171.34 247.838L175.895 250.116L180.615 252.05L185.473 253.629L187.945 254.281L190.442 254.842L192.96 255.309L195.495 255.683L198.043 255.962L200.602 256.146L203.168 256.235L205.737 256.228L208.305 256.126L210.87 255.929L213.426 255.637L215.972 255.25L218.503 254.768L221.015 254.193L223.506 253.524L225.971 252.764L230.812 250.972L235.512 248.825L240.043 246.335L244.381 243.516L248.502 240.384L252.382 236.955L256 233.248L259.336 229.284L262.372 225.084L265.09 220.673L267.475 216.074L269.515 211.312L271.199 206.415L271.903 203.924L272.516 201.41L273.035 198.875L273.46 196.323L273.791 193.758L274.026 191.184L274.166 188.603L274.211 186.021L274.161 183.439L274.015 180.862L273.774 178.293L273.438 175.737L273.008 173.195L272.484 170.673L271.868 168.173L271.16 165.699L269.472 160.842L267.431 156.13L265.048 151.588L262.338 147.242L259.315 143.116L255.998 139.232L252.405 135.611L248.557 132.275L244.476 129.241L240.185 126.526L235.709 124.144L231.074 122.109L226.305 120.431L221.43 119.12L218.962 118.605L216.478 118.183L213.981 117.856L211.476 117.624L208.965 117.487L206.452 117.446L203.942 117.5L201.436 117.649L198.94 117.893L196.456 118.232L193.989 118.665L191.541 119.191L186.718 120.52L182.016 122.211L177.46 124.255L173.077 126.638L168.893 129.347L164.93 132.366L161.212 135.678L157.76 139.264L154.594 143.102L151.731 147.171L149.189 151.447L146.982 155.905L145.123 160.52L143.622 165.265L142.489 170.113L142.062 172.566L141.729 175.035L141.492 177.516L141.349 180.005L141.301 182.498L141.349 184.992L141.492 187.484L141.73 189.969L142.064 192.445L142.491 194.907L143.628 199.777L145.134 204.551L147.001 209.202L149.218 213.704L151.774 218.029L154.655 222.154L157.844 226.054L161.324 229.707L165.075 233.092L169.077 236.189L173.307 238.98L177.741 241.449L182.355 243.582L187.123 245.365L192.018 246.788L194.505 247.362L197.013 247.843L199.54 248.231L202.08 248.524L204.632 248.722L207.191 248.825L209.754 248.832L212.317 248.744L214.877 248.561L217.43 248.283L219.972 247.91L222.5 247.442L225.01 246.88L227.499 246.226L232.4 244.641L237.175 242.696L241.798 240.4L246.242 237.768L250.483 234.812L254.496 231.55L258.261 227.998L261.755 224.177L264.959 220.108L267.855 215.812L270.428 211.314L272.662 206.639L274.546 201.813L275.354 199.351L276.07 196.861L276.693 194.347L277.224 191.813L277.66 189.261L278.003 186.695L278.25 184.119L278.402 181.536L278.458 178.95L278.42 176.364L278.285 173.783L278.056 171.209L277.732 168.647L277.313 166.099L276.801 163.57L276.196 161.062L275.498 158.58L274.71 156.127L272.865 151.319L270.672 146.667L268.142 142.196L265.29 137.93L262.134 133.894L258.69 130.108L254.979 126.595L251.021 123.374L246.84 120.462L242.459 117.875L237.903 115.627L233.198 113.73L228.371 112.195L225.92 111.566L223.449 111.03L220.962 110.588L218.461 110.24L215.951 109.987L213.435 109.83L210.917 109.768L208.4 109.801L205.887 109.93L203.383 110.154L200.891 110.472L198.414 110.885L193.522 111.99L188.733 113.462L184.075 115.292L179.575 117.469L175.258 119.981L171.15 122.813L167.272 125.948L163.649 129.368L160.299 133.054L157.243 136.983L154.497 141.133L152.078 145.481L150 150ZM150 150L148.274 154.665L146.91 159.45L145.917 164.326L145.561 166.789L145.3 169.265L145.133 171.75L145.062 174.24L145.087 176.731L145.206 179.221L145.421 181.704L145.731 184.179L146.136 186.641L146.634 189.087L147.91 193.915L149.552 198.637L151.552 203.225L153.897 207.652L156.576 211.893L159.572 215.923L162.87 219.719L166.451 223.26L170.295 226.524L174.38 229.493L178.684 232.149L183.183 234.476L187.851 236.462L192.662 238.094L195.113 238.774L197.589 239.363L200.088 239.858L202.605 240.26L205.138 240.568L207.681 240.781L210.233 240.898L212.79 240.921L215.347 240.848L217.902 240.679L220.45 240.416L222.988 240.057L225.513 239.604L228.021 239.057L230.508 238.417L232.971 237.684L237.812 235.946L242.516 233.851L247.056 231.412L251.408 228.64L255.546 225.552L259.449 222.164L263.093 218.495L266.459 214.564L269.527 210.395L272.281 206.009L274.705 201.43L276.785 196.685L278.511 191.799L279.238 189.312L279.872 186.8L280.414 184.266L280.862 181.714L281.215 179.148L281.474 176.571L281.637 173.987L281.705 171.399L281.677 168.811L281.554 166.226L281.336 163.648L281.023 161.081L280.616 158.527L280.115 155.992L279.52 153.478L278.834 150.988L277.188 146.097L275.187 141.345L272.842 136.758L270.167 132.363L267.176 128.183L263.888 124.242L260.32 120.561L256.493 117.16L252.429 114.058L248.151 111.272L243.683 108.817L239.05 106.706L234.28 104.951L229.399 103.562L226.925 103.006L224.434 102.544L221.93 102.177L219.415 101.905L216.893 101.728L214.369 101.646L211.845 101.659L209.325 101.768L206.813 101.972L204.312 102.271L201.826 102.664L199.359 103.151L194.492 104.402L189.741 106.017L185.132 107.986L180.692 110.297L176.444 112.937L172.415 115.89L168.626 119.14L165.099 122.666L161.854 126.449L158.911 130.467L156.284 134.696L153.99 139.113L152.041 143.691L150.45 148.404L149.224 153.225L148.371 158.126L148.086 160.597L147.896 163.079L147.801 165.566L147.801 168.055L147.897 170.543L148.088 173.026L148.374 175.501L148.755 177.963L149.799 182.838L151.212 187.622L152.989 192.288L155.118 196.809L157.589 201.159L160.386 205.313L163.495 209.247L166.898 212.937L170.577 216.363L174.509 219.505L178.674 222.344L183.048 224.864L187.606 227.05L192.323 228.889L197.172 230.369L199.637 230.973L202.126 231.483L204.633 231.901L207.157 232.224L209.693 232.452L212.237 232.586L214.787 232.624L217.338 232.566L219.886 232.413L222.43 232.165L224.964 231.822L227.485 231.385L229.99 230.853L232.474 230.228L237.371 228.701L242.146 226.813L246.774 224.572L251.227 221.991L255.482 219.085L259.514 215.869L263.301 212.36L266.821 208.578L270.055 204.544L272.984 200.28L275.592 195.809L277.864 191.156L279.789 186.346L280.617 183.891L281.354 181.407L281.999 178.898L282.551 176.366L283.01 173.816L283.374 171.25L283.644 168.673L283.818 166.088L283.897 163.499L283.881 160.909L283.769 158.321L283.562 155.74L283.26 153.169L282.863 150.611L282.373 148.071L281.789 145.551L281.113 143.055L280.346 140.586L278.541 135.745L276.385 131.054L273.891 126.54L271.072 122.227L267.945 118.138L264.527 114.297L260.838 110.725L256.898 107.441L252.731 104.462L248.36 101.807L243.808 99.4877L239.104 97.518L234.272 95.9082L231.817 95.241L229.34 94.6668L226.846 94.1863L224.337 93.8001L221.817 93.5088L219.29 93.3126L216.76 93.2118L214.229 93.2064L211.701 93.2964L209.181 93.4815L206.672 93.7615L204.176 94.1358L201.698 94.6039L199.242 95.165L194.406 96.5627L189.697 98.3204L185.141 100.428L180.763 102.872L176.589 105.639L172.642 108.713L168.944 112.075L165.517 115.706L162.38 119.585L159.551 123.689L157.045 127.995L154.878 132.478L153.061 137.112L151.604 141.869L150.517 146.724L150.113 149.179L149.805 151.647L149.59 154.125L149.472 156.61L149.448 159.098L149.52 161.585L149.687 164.068L149.949 166.543L150.306 169.007L150.757 171.456L151.94 176.295L153.49 181.031L155.398 185.639L157.655 190.091L160.248 194.362L163.162 198.426L166.38 202.261L169.885 205.844L173.656 209.154L177.673 212.172L181.913 214.88L186.352 217.263L190.965 219.306L195.726 220.998L200.608 222.328L203.086 222.855L205.584 223.288L208.098 223.627L210.625 223.872L213.162 224.022L215.704 224.076L218.248 224.036L220.791 223.899L223.329 223.668L225.859 223.341L228.376 222.92L230.878 222.404L233.36 221.795L235.819 221.094L240.656 219.416L245.361 217.38L249.908 214.997L254.27 212.28L258.424 209.243L262.345 205.903L266.013 202.279L269.405 198.39L272.503 194.257L275.29 189.903L277.75 185.353L279.868 180.631L281.634 175.764L282.381 173.284L283.037 170.778L283.6 168.249L284.069 165.701L284.444 163.137L284.725 160.561L284.91 157.977L285 155.387L284.995 152.796L284.894 150.207L284.697 147.624L284.406 145.05L284.02 142.488L283.541 139.943L282.967 137.419L282.301 134.917L281.544 132.442L280.696 129.998L278.733 125.213L276.425 120.59L273.783 116.153L270.823 111.927L267.562 107.936L264.018 104.2L260.211 100.742L256.162 97.5791L251.895 94.7292L247.434 92.2079L242.804 90.0287L238.031 88.2034L233.142 86.7417L230.662 86.1497L228.164 85.6513L225.651 85.2471L223.127 84.9377L220.594 84.7233L218.057 84.6043L215.52 84.5808L212.985 84.6526L210.456 84.8197L207.938 85.0816L205.433 85.438L202.945 85.8883L200.478 86.4318L198.035 87.0676L193.234 88.6122L188.571 90.5129L184.071 92.7582L179.76 95.335L175.663 98.2281L171.802 101.421L168.199 104.894L164.875 108.628L161.848 112.6L159.136 116.789L156.753 121.169L154.714 125.716L153.03 130.402L151.71 135.202L150.762 140.087L150.429 142.553L150.191 145.029L150.048 147.513L150 150ZM150 150L150.048 152.487L150.191 154.971L150.429 157.447L150.762 159.913L151.71 164.798L153.03 169.597L154.714 174.284L156.753 178.831L159.136 183.211L161.848 187.4L164.875 191.372L168.199 195.106L171.802 198.579L175.663 201.772L179.76 204.665L184.071 207.242L188.571 209.487L193.234 211.388L198.035 212.932L200.478 213.568L202.945 214.112L205.433 214.562L207.938 214.918L210.456 215.18L212.985 215.347L215.52 215.419L218.057 215.396L220.594 215.277L223.127 215.062L225.651 214.753L228.164 214.349L230.662 213.85L233.142 213.258L238.031 211.797L242.804 209.971L247.434 207.792L251.895 205.271L256.162 202.421L260.211 199.258L264.018 195.8L267.562 192.064L270.823 188.073L273.783 183.847L276.425 179.41L278.733 174.787L280.696 170.002L281.544 167.558L282.301 165.083L282.967 162.581L283.541 160.057L284.02 157.512L284.406 154.95L284.697 152.376L284.894 149.793L284.995 147.204L285 144.613L284.91 142.023L284.725 139.439L284.444 136.863L284.069 134.299L283.6 131.751L283.037 129.222L282.381 126.716L281.634 124.236L279.868 119.369L277.75 114.647L275.29 110.097L272.503 105.743L269.405 101.61L266.013 97.7211L262.345 94.0965L258.424 90.7567L254.27 87.7199L249.908 85.0027L245.361 82.6198L240.656 80.5841L235.819 78.9064L233.36 78.2048L230.878 77.5958L228.376 77.0803L225.859 76.659L223.329 76.3324L220.791 76.1007L218.248 75.9644L215.704 75.9236L213.162 75.9781L210.625 76.1279L208.098 76.3727L205.584 76.712L203.086 77.1453L200.608 77.672L195.726 79.0019L190.965 80.6936L186.352 82.737L181.913 85.1199L177.673 87.8283L173.656 90.8464L169.885 94.1564L166.38 97.7392L163.162 101.574L160.248 105.638L157.655 109.909L155.398 114.361L153.49 118.969L151.94 123.705L150.757 128.544L150.306 130.993L149.949 133.456L149.687 135.932L149.52 138.415L149.448 140.902L149.472 143.39L149.59 145.875L149.805 148.353L150.113 150.821L150.517 153.276L151.604 158.131L153.061 162.888L154.878 167.522L157.045 172.005L159.551 176.311L162.38 180.415L165.517 184.294L168.944 187.925L172.642 191.287L176.589 194.361L180.763 197.128L185.141 199.572L189.697 201.68L194.406 203.437L199.242 204.835L201.698 205.396L204.176 205.864L206.672 206.239L209.181 206.518L211.701 206.704L214.229 206.794L216.76 206.788L219.29 206.687L221.817 206.491L224.337 206.2L226.846 205.814L229.34 205.333L231.817 204.759L234.272 204.092L239.104 202.482L243.808 200.512L248.36 198.193L252.731 195.538L256.898 192.559L260.838 189.275L264.527 185.703L267.945 181.862L271.072 177.773L273.891 173.46L276.385 168.946L278.541 164.255L280.346 159.414L281.113 156.945L281.789 154.449L282.373 151.929L282.863 149.389L283.26 146.831L283.562 144.26L283.769 141.679L283.881 139.091L283.897 136.501L283.818 133.912L283.644 131.327L283.374 128.75L283.01 126.184L282.551 123.634L281.999 121.102L281.354 118.593L280.617 116.109L279.789 113.654L277.864 108.844L275.592 104.191L272.984 99.7202L270.055 95.4559L266.821 91.4216L263.301 87.6398L259.514 84.1311L255.482 80.9148L251.227 78.0085L246.774 75.428L242.146 73.1874L237.371 71.2986L232.474 69.7719L229.99 69.1469L227.485 68.6152L224.964 68.1776L222.43 67.8345L219.886 67.5865L217.338 67.4337L214.787 67.3764L212.237 67.4145L209.693 67.5479L207.157 67.7763L204.633 68.0994L202.126 68.5166L199.637 69.0273L197.172 69.6306L192.323 71.1115L187.606 72.9503L183.048 75.1361L178.674 77.6559L174.509 80.495L170.577 83.6368L166.898 87.0629L163.495 90.7534L160.386 94.687L157.589 98.8408L155.118 103.191L152.989 107.712L151.212 112.378L149.799 117.162L148.755 122.037L148.374 124.499L148.088 126.974L147.897 129.457L147.801 131.945L147.801 134.434L147.896 136.921L148.086 139.403L148.371 141.874L149.224 146.775L150.45 151.596L152.041 156.309L153.99 160.887L156.284 165.304L158.911 169.533L161.854 173.551L165.099 177.334L168.626 180.86L172.415 184.11L176.444 187.063L180.692 189.703L185.132 192.014L189.741 193.983L194.492 195.598L199.359 196.849L201.826 197.336L204.312 197.729L206.813 198.028L209.325 198.232L211.845 198.341L214.369 198.354L216.893 198.272L219.415 198.095L221.93 197.823L224.434 197.456L226.925 196.994L229.399 196.438L234.28 195.049L239.05 193.294L243.683 191.183L248.151 188.728L252.429 185.942L256.493 182.84L260.32 179.439L263.888 175.758L267.176 171.817L270.167 167.637L272.842 163.242L275.187 158.655L277.188 153.903L278.834 149.012L279.52 146.522L280.115 144.008L280.616 141.473L281.023 138.919L281.336 136.352L281.554 133.774L281.677 131.189L281.705 128.601L281.637 126.013L281.474 123.429L281.215 120.852L280.862 118.286L280.414 115.734L279.872 113.2L279.238 110.688L278.511 108.201L276.785 103.315L274.705 98.5696L272.281 93.9913L269.527 89.6052L266.459 85.4356L263.093 81.5053L259.449 77.8361L255.546 74.4481L251.408 71.3599L247.056 68.5884L242.516 66.1487L237.812 64.0541L232.971 62.3157L230.508 61.583L228.021 60.9428L225.513 60.3958L222.988 59.9428L220.45 59.5842L217.902 59.3205L215.347 59.1521L212.79 59.0792L210.233 59.1016L207.681 59.2194L205.138 59.4323L202.605 59.74L200.088 60.1418L197.589 60.6373L195.113 61.2256L192.662 61.9059L187.851 63.5379L183.183 65.5236L178.684 67.8513L174.38 70.5073L170.295 73.476L166.451 76.7401L162.87 80.2806L159.572 84.077L156.576 88.1074L153.897 92.3483L151.552 96.7753L149.552 101.363L147.91 106.085L146.634 110.913L146.136 113.359L145.731 115.821L145.421 118.296L145.206 120.779L145.087 123.269L145.062 125.76L145.133 128.25L145.3 130.735L145.561 133.211L145.917 135.674L146.91 140.55L148.274 145.335L150 150ZM150 150L152.078 154.519L154.497 158.867L157.243 163.017L160.299 166.946L163.649 170.632L167.272 174.052L171.15 177.187L175.258 180.019L179.575 182.531L184.075 184.708L188.733 186.538L193.522 188.01L198.414 189.115L200.891 189.528L203.383 189.846L205.887 190.07L208.4 190.198L210.917 190.232L213.435 190.17L215.951 190.013L218.461 189.76L220.962 189.412L223.449 188.97L225.92 188.434L228.371 187.805L233.198 186.27L237.903 184.373L242.459 182.125L246.84 179.538L251.021 176.626L254.979 173.405L258.69 169.892L262.134 166.106L265.29 162.07L268.142 157.804L270.672 153.333L272.865 148.681L274.71 143.873L275.498 141.42L276.196 138.938L276.801 136.43L277.313 133.901L277.732 131.353L278.056 128.791L278.285 126.217L278.42 123.636L278.458 121.05L278.402 118.464L278.25 115.881L278.003 113.305L277.66 110.739L277.224 108.187L276.693 105.653L276.07 103.139L275.354 100.649L274.546 98.1873L272.662 93.3607L270.428 88.6856L267.855 84.1879L264.959 79.8924L261.755 75.8229L258.261 72.0018L254.496 68.4502L250.483 65.1877L246.242 62.2321L241.798 59.5995L237.175 57.3044L232.4 55.3592L227.499 53.7743L225.01 53.1197L222.5 52.5582L219.972 52.0905L217.43 51.7172L214.877 51.4388L212.317 51.2555L209.754 51.1677L207.191 51.1753L204.632 51.2783L202.08 51.4765L199.54 51.7694L197.013 52.1568L194.505 52.6378L192.018 53.2119L187.123 54.6353L182.355 56.4184L177.741 58.5508L173.307 61.0197L169.077 63.8109L165.075 66.9079L161.324 70.2927L157.844 73.9458L154.655 77.8461L151.774 81.9709L149.218 86.2964L147.001 90.7978L145.134 95.449L143.628 100.223L142.491 105.093L142.064 107.555L141.73 110.031L141.492 112.516L141.349 115.008L141.301 117.502L141.349 119.995L141.492 122.484L141.729 124.965L142.062 127.434L142.489 129.887L143.622 134.735L145.123 139.48L146.982 144.095L149.189 148.553L151.731 152.829L154.594 156.898L157.76 160.736L161.212 164.322L164.93 167.634L168.893 170.653L173.077 173.362L177.46 175.745L182.016 177.789L186.718 179.48L191.541 180.809L193.989 181.335L196.456 181.768L198.94 182.107L201.436 182.351L203.942 182.5L206.452 182.554L208.965 182.513L211.476 182.376L213.981 182.144L216.478 181.817L218.962 181.395L221.43 180.88L226.305 179.569L231.074 177.891L235.709 175.856L240.185 173.474L244.476 170.759L248.557 167.725L252.405 164.389L255.998 160.768L259.315 156.884L262.338 152.758L265.048 148.412L267.431 143.87L269.472 139.158L271.16 134.301L271.868 131.827L272.484 129.327L273.008 126.805L273.438 124.263L273.774 121.707L274.015 119.138L274.161 116.561L274.211 113.979L274.166 111.397L274.026 108.816L273.791 106.242L273.46 103.677L273.035 101.125L272.516 98.5905L271.903 96.0757L271.199 93.5847L269.515 88.6876L267.475 83.9263L265.09 79.3272L262.372 74.9157L259.336 70.7163L256 66.7523L252.382 63.0455L248.502 59.6163L244.381 56.4837L240.043 53.6648L235.512 51.1752L230.812 49.0283L225.971 47.2358L223.506 46.4755L221.015 45.8073L218.503 45.2321L215.972 44.7505L213.426 44.3633L210.87 44.0708L208.305 43.8735L205.737 43.7716L203.168 43.7651L200.602 43.8541L198.043 44.0382L195.495 44.3173L192.96 44.6908L190.442 45.1581L187.945 45.7186L185.473 46.3714L180.615 47.9498L175.895 49.8838L171.34 52.1622L166.976 54.7715L162.825 57.6966L158.912 60.9204L155.257 64.4243L151.883 68.188L148.806 72.1897L146.045 76.4065L143.614 80.814L141.527 85.3869L139.795 90.0989L138.428 94.9228L137.884 97.3681L137.433 99.831L137.077 102.308L136.816 104.795L136.649 107.29L136.578 109.787L136.603 112.284L136.723 114.778L136.938 117.264L137.247 119.739L138.149 124.642L139.422 129.458L141.059 134.161L143.051 138.722L145.385 143.116L148.049 147.318L151.026 151.303L154.301 155.048L157.853 158.532L161.662 161.734L165.707 164.636L169.965 167.222L174.41 169.475L179.018 171.383L183.762 172.936L188.615 174.122L191.074 174.576L193.549 174.936L196.038 175.201L198.536 175.372L201.041 175.447L203.548 175.427L206.054 175.311L208.555 175.101L211.048 174.795L213.53 174.394L215.996 173.9L218.443 173.311L223.267 171.858L227.973 170.041L232.536 167.87L236.929 165.358L241.126 162.519L245.104 159.367L248.84 155.92L252.312 152.198L255.5 148.22L258.387 144.008L260.954 139.587L263.188 134.981L265.076 130.214L266.606 125.314L267.234 122.823L267.769 120.308L268.211 117.774L268.559 115.224L268.812 112.661L268.97 110.089L269.033 107.512L269 104.933L268.872 102.356L268.649 99.7845L268.33 97.2217L267.917 94.6714L267.41 92.1371L266.809 89.6224L266.116 87.1308L265.331 84.6657L263.49 79.8288L261.297 75.1386L258.764 70.6211L255.904 66.3014L252.733 62.2034L249.269 58.3499L245.531 54.7621L241.539 51.4599L237.316 48.4615L232.886 45.7835L228.272 43.4404L223.502 41.445L218.6 39.8083L216.108 39.1272L213.594 38.539L211.062 38.0443L208.513 37.6438L205.953 37.338L203.385 37.1273L200.812 37.012L198.237 36.9922L195.666 37.0677L193.1 37.2386L190.544 37.5044L188.001 37.8647L185.475 38.3191L182.969 38.8667L180.486 39.5067L178.031 40.2383L173.216 41.9715L168.55 44.0559L164.06 46.4795L159.769 49.228L155.702 52.2856L151.882 55.6345L148.329 59.2554L145.064 63.1275L142.104 67.2284L139.466 71.5345L137.163 76.0211L135.21 80.6625L133.616 85.432L132.39 90.3023L131.917 92.7665L131.538 95.2454L131.254 97.7354L131.065 100.233L130.972 102.735L130.974 105.236L131.071 107.735L131.263 110.227L131.551 112.709L131.932 115.177L132.976 120.056L134.389 124.838L136.162 129.495L138.285 134L140.746 138.327L143.529 142.452L146.62 146.35L150 150ZM150 150L153.65 153.38L157.548 156.471L161.673 159.254L166 161.715L170.505 163.838L175.162 165.611L179.944 167.024L184.823 168.068L187.291 168.449L189.773 168.737L192.265 168.929L194.764 169.026L197.265 169.028L199.767 168.935L202.265 168.746L204.755 168.462L207.233 168.083L209.698 167.61L214.568 166.384L219.337 164.79L223.979 162.837L228.466 160.534L232.772 157.896L236.873 154.936L240.745 151.671L244.365 148.118L247.714 144.298L250.772 140.231L253.521 135.94L255.944 131.449L258.029 126.784L259.762 121.969L260.493 119.514L261.133 117.031L261.681 114.525L262.135 111.999L262.496 109.456L262.761 106.9L262.932 104.334L263.008 101.763L262.988 99.1883L262.873 96.6152L262.662 94.0468L262.356 91.4867L261.956 88.9385L261.461 86.4056L260.873 83.8917L260.192 81.4002L258.555 76.4984L256.56 71.7275L254.217 67.114L251.538 62.6836L248.54 58.461L245.238 54.4695L241.65 50.7313L237.797 47.2672L233.699 44.0964L229.379 41.2362L224.861 38.7027L220.171 36.5095L215.334 34.6688L212.869 33.8839L210.378 33.1906L207.863 32.59L205.329 32.0828L202.778 31.6697L200.215 31.3513L197.644 31.1279L195.067 30.9998L192.488 30.9672L189.911 31.03L187.339 31.1882L184.776 31.4413L182.226 31.7891L179.692 32.231L177.177 32.7664L174.686 33.3943L169.786 34.9242L165.019 36.8117L160.413 39.0458L155.992 41.6135L151.78 44.4998L147.802 47.6882L144.08 51.1603L140.633 54.896L137.481 58.8739L134.642 63.0712L132.13 67.4638L129.959 72.0266L128.142 76.7333L126.689 81.557L126.1 84.0042L125.606 86.4702L125.205 88.9516L124.899 91.4447L124.689 93.9461L124.573 96.4521L124.553 98.9592L124.628 101.464L124.799 103.962L125.064 106.451L125.424 108.926L125.878 111.385L127.064 116.238L128.617 120.982L130.525 125.59L132.778 130.035L135.364 134.293L138.266 138.338L141.468 142.147L144.952 145.699L148.697 148.974L152.682 151.951L156.884 154.615L161.278 156.949L165.839 158.941L170.542 160.578L175.358 161.851L180.261 162.753L182.736 163.062L185.222 163.277L187.716 163.397L190.213 163.422L192.71 163.351L195.205 163.184L197.692 162.923L200.169 162.567L202.632 162.116L205.077 161.572L209.901 160.205L214.613 158.473L219.186 156.386L223.593 153.955L227.81 151.194L231.812 148.117L235.576 144.743L239.08 141.088L242.303 137.175L245.228 133.024L247.838 128.66L250.116 124.105L252.05 119.385L253.629 114.527L254.281 112.055L254.842 109.558L255.309 107.04L255.683 104.505L255.962 101.957L256.146 99.3976L256.235 96.8319L256.228 94.263L256.126 91.6946L255.929 89.1303L255.637 86.5736L255.25 84.0281L254.768 81.4974L254.193 78.9849L253.524 76.4943L252.764 74.0289L250.972 69.1877L248.825 64.4884L246.335 59.957L243.516 55.619L240.384 51.4984L236.955 47.6182L233.248 44L229.284 40.6639L225.084 37.6284L220.673 34.9103L216.074 32.5247L211.312 30.4847L206.415 28.8014L203.924 28.0965L201.41 27.4841L198.875 26.965L196.323 26.5399L193.758 26.2094L191.184 25.9739L188.603 25.8336L186.021 25.7888L183.439 25.8394L180.862 25.9854L178.293 26.2264L175.737 26.5622L173.195 26.9922L170.673 27.5158L168.173 28.1321L165.699 28.8404L160.842 30.5281L156.13 32.5693L151.588 34.9519L147.242 37.6623L143.116 40.6848L139.232 44.002L135.611 47.595L132.275 51.443L129.241 55.5241L126.526 59.8149L124.144 64.2909L122.109 68.9264L120.431 73.695L119.12 78.5695L118.605 81.0378L118.183 83.522L117.856 86.0187L117.624 88.5243L117.487 91.0351L117.446 93.5477L117.5 96.0584L117.649 98.5637L117.893 101.06L118.232 103.544L118.665 106.011L119.191 108.459L120.52 113.282L122.211 117.984L124.255 122.54L126.638 126.923L129.347 131.107L132.366 135.07L135.678 138.788L139.264 142.24L143.102 145.406L147.171 148.269L151.447 150.811L155.905 153.018L160.52 154.877L165.265 156.378L170.113 157.511L172.566 157.938L175.035 158.271L177.516 158.508L180.005 158.651L182.498 158.699L184.992 158.651L187.484 158.508L189.969 158.27L192.445 157.936L194.907 157.508L199.777 156.372L204.551 154.866L209.202 152.999L213.704 150.782L218.029 148.226L222.154 145.345L226.054 142.156L229.707 138.676L233.092 134.925L236.189 130.923L238.98 126.693L241.449 122.259L243.582 117.645L245.365 112.877L246.788 107.982L247.362 105.495L247.843 102.987L248.231 100.46L248.524 97.9196L248.722 95.3678L248.825 92.8087L248.832 90.2458L248.744 87.6828L248.561 85.1231L248.283 82.5704L247.91 80.0283L247.442 77.5003L246.88 74.9899L246.226 72.5007L244.641 67.5996L242.696 62.8245L240.4 58.202L237.768 53.758L234.812 49.5174L231.55 45.5036L227.998 41.7393L224.177 38.2454L220.108 35.0413L215.812 32.145L211.314 29.5724L206.639 27.3378L201.813 25.4537L199.351 24.6464L196.861 23.9304L194.347 23.3067L191.813 22.7762L189.261 22.3395L186.695 21.9974L184.119 21.7501L181.536 21.5981L178.95 21.5416L176.364 21.5804L173.783 21.7147L171.209 21.9441L168.647 22.2684L166.099 22.6869L163.57 23.1991L161.062 23.8043L158.58 24.5015L156.127 25.2898L151.319 27.1347L146.667 29.3284L142.196 31.8582L137.93 34.7096L133.894 37.8663L130.108 41.3101L126.595 45.0215L123.374 48.9791L120.462 53.1603L117.875 57.5415L115.627 62.0974L113.73 66.8023L112.195 71.6292L111.566 74.0798L111.03 76.5506L110.588 79.0381L110.24 81.5386L109.987 84.0487L109.83 86.5648L109.768 89.0832L109.801 91.6004L109.93 94.1128L110.154 96.6169L110.472 99.109L110.885 101.586L111.99 106.478L113.462 111.267L115.292 115.925L117.469 120.425L119.981 124.742L122.813 128.85L125.948 132.728L129.368 136.351L133.054 139.701L136.983 142.757L141.133 145.503L145.481 147.922L150 150ZM150 150L154.665 151.726L159.45 153.09L164.326 154.083L166.789 154.439L169.265 154.7L171.75 154.867L174.24 154.938L176.731 154.913L179.221 154.794L181.704 154.579L184.179 154.269L186.641 153.864L189.087 153.366L193.915 152.09L198.637 150.448L203.225 148.448L207.652 146.103L211.893 143.424L215.923 140.428L219.719 137.13L223.26 133.549L226.524 129.705L229.493 125.62L232.149 121.316L234.476 116.817L236.462 112.149L238.094 107.338L238.774 104.887L239.363 102.411L239.858 99.9121L240.26 97.3949L240.568 94.8625L240.781 92.3185L240.898 89.7666L240.921 87.2102L240.848 84.653L240.679 82.0985L240.416 79.5503L240.057 77.0121L239.604 74.4873L239.057 71.9795L238.417 69.4922L237.684 67.0289L235.946 62.1882L233.851 57.4844L231.412 52.9439L228.64 48.5921L225.552 44.4535L222.164 40.5512L218.495 36.907L214.564 33.5414L210.395 30.4731L206.009 27.7193L201.43 25.2953L196.685 23.2147L191.799 21.489L189.312 20.7623L186.8 20.1277L184.266 19.5862L181.714 19.1384L179.148 18.785L176.571 18.5264L173.987 18.3631L171.399 18.2951L168.811 18.3226L166.226 18.4455L163.648 18.6637L161.081 18.9767L158.527 19.3841L155.992 19.8854L153.478 20.4797L150.988 21.1662L146.097 22.8119L141.345 24.813L136.758 27.1579L132.363 29.8332L128.183 32.8236L124.242 36.1122L120.561 39.68L117.16 43.5069L114.058 47.571L111.272 51.8492L108.817 56.3172L106.706 60.9496L104.951 65.7199L103.562 70.6012L103.006 73.0748L102.544 75.5657L102.177 78.0704L101.905 80.5852L101.728 83.1066L101.646 85.6311L101.659 88.1551L101.768 90.6749L101.972 93.187L102.271 95.6878L102.664 98.1738L103.151 100.641L104.402 105.508L106.017 110.259L107.986 114.868L110.297 119.308L112.937 123.556L115.89 127.585L119.14 131.374L122.666 134.901L126.449 138.145L130.467 141.089L134.696 143.716L139.113 146.01L143.691 147.959L148.404 149.55L153.225 150.776L158.126 151.629L160.597 151.914L163.079 152.104L165.566 152.199L168.055 152.199L170.543 152.103L173.026 151.912L175.501 151.626L177.963 151.245L182.838 150.201L187.622 148.788L192.288 147.011L196.809 144.882L201.159 142.411L205.313 139.614L209.247 136.505L212.937 133.102L216.363 129.423L219.505 125.491L222.344 121.326L224.864 116.952L227.05 112.394L228.889 107.677L230.369 102.828L230.973 100.363L231.483 97.8743L231.901 95.3666L232.224 92.8431L232.452 90.3073L232.586 87.7629L232.624 85.2134L232.566 82.6625L232.413 80.1136L232.165 77.5704L231.822 75.0364L231.385 72.5152L230.853 70.0104L230.228 67.5255L228.701 62.6292L226.813 57.8539L224.572 53.2264L221.992 48.7727L219.085 44.5178L215.869 40.4857L212.36 36.699L208.578 33.1789L204.544 29.9453L200.28 27.0162L195.809 24.408L191.156 22.1355L186.346 20.2113L183.891 19.3832L181.407 18.6461L178.898 18.001L176.366 17.4487L173.816 16.9901L171.25 16.6257L168.673 16.3561L166.088 16.1817L163.499 16.1026L160.909 16.119L158.321 16.2308L155.74 16.4379L153.169 16.74L150.611 17.1365L148.071 17.627L145.551 18.2107L143.055 18.8869L140.586 19.6544L135.745 21.4593L131.054 23.615L126.54 26.1094L122.227 28.9282L118.138 32.0554L114.297 35.4732L110.725 39.1622L107.441 43.1015L104.462 47.2688L101.807 51.6404L99.4877 56.1915L97.518 60.8963L95.9082 65.7282L95.241 68.1833L94.6668 70.6598L94.1863 73.1542L93.8001 75.6631L93.5088 78.1828L93.3126 80.7098L93.2118 83.2404L93.2064 85.7712L93.2964 88.2985L93.4815 90.8188L93.7614 93.3284L94.1358 95.8239L94.6039 98.3016L95.165 100.758L96.5627 105.594L98.3204 110.303L100.428 114.859L102.872 119.237L105.639 123.411L108.713 127.358L112.075 131.056L115.706 134.483L119.585 137.62L123.689 140.449L127.995 142.955L132.478 145.122L137.112 146.939L141.869 148.396L146.724 149.483L149.179 149.887L151.647 150.195L154.125 150.409L156.61 150.528L159.098 150.552L161.585 150.48L164.068 150.313L166.544 150.051L169.007 149.694L171.456 149.243L176.295 148.06L181.031 146.51L185.639 144.602L190.091 142.345L194.362 139.752L198.426 136.838L202.261 133.62L205.844 130.115L209.154 126.344L212.172 122.327L214.88 118.087L217.263 113.648L219.306 109.035L220.998 104.274L222.328 99.3921L222.855 96.9142L223.288 94.4163L223.627 91.9019L223.872 89.3747L224.022 86.8382L224.076 84.296L224.036 81.7515L223.899 79.2086L223.668 76.6706L223.341 74.1412L222.92 71.624L222.404 69.1225L221.795 66.6402L221.094 64.1806L219.416 59.3436L217.38 54.6385L214.997 50.092L212.28 45.7296L209.243 41.576L205.903 37.6545L202.279 33.9873L198.39 30.595L194.257 27.4967L189.903 24.7099L185.353 22.2502L180.631 20.1316L175.764 18.3659L173.284 17.6186L170.778 16.963L168.249 16.4002L165.701 15.9309L163.137 15.5558L160.561 15.2754L157.977 15.09L155.387 15L152.796 15.0054L150.207 15.1063L147.624 15.3025L145.05 15.5938L142.488 15.9796L139.943 16.4595L137.419 17.0327L134.917 17.6985L132.442 18.456L129.998 19.3039L125.213 21.2666L120.59 23.5753L116.153 26.2171L111.927 29.177L107.936 32.4382L104.2 35.9824L100.742 39.7894L97.5791 43.8377L94.7292 48.1045L92.2079 52.5656L90.0287 57.1959L88.2034 61.969L86.7417 66.8582L86.1497 69.3376L85.6513 71.8356L85.2471 74.3487L84.9377 76.8733L84.7233 79.4058L84.6043 81.9427L84.5808 84.4803L84.6526 87.0152L84.8197 89.5436L85.0816 92.0621L85.438 94.567L85.8883 97.0549L86.4318 99.5222L87.0676 101.965L88.6122 106.766L90.5129 111.429L92.7582 115.929L95.335 120.24L98.2281 124.337L101.421 128.198L104.894 131.801L108.628 135.125L112.6 138.152L116.789 140.864L121.169 143.247L125.716 145.286L130.402 146.97L135.202 148.29L140.087 149.238L142.553 149.571L145.029 149.809L147.513 149.952L150 150Z" stroke="black" stroke-width="2" stroke-miterlimit="10" stroke-linecap="round" stroke-linejoin="round"/>
</svg>
