<svg width="300" height="300" viewBox="0 0 300 300" fill="none" xmlns="http://www.w3.org/2000/svg">
<ellipse cx="183.726" cy="248.01" rx="39.1529" ry="1" transform="rotate(30 183.726 248.01)" fill="black"/>
<ellipse cx="39.1529" cy="1" rx="39.1529" ry="1" transform="matrix(-0.866025 0.5 0.5 0.866025 285.048 227.567)" fill="black"/>
<ellipse cx="39.1529" cy="1" rx="39.1529" ry="1" transform="matrix(0.866025 -0.5 -0.5 -0.866025 150.318 72.4349)" fill="black"/>
<ellipse cx="251.64" cy="51.9924" rx="39.1529" ry="1" transform="rotate(-150 251.64 51.9924)" fill="black"/>
<ellipse cx="39.1529" cy="1" rx="39.1529" ry="1" transform="matrix(0.866025 -0.5 -0.5 -0.866025 150.318 150.741)" fill="black"/>
<ellipse cx="251.64" cy="130.298" rx="39.1529" ry="1" transform="rotate(-150 251.64 130.298)" fill="black"/>
<ellipse cx="183.726" cy="169.704" rx="39.1529" ry="1" transform="rotate(30 183.726 169.704)" fill="black"/>
<ellipse cx="39.1529" cy="1" rx="39.1529" ry="1" transform="matrix(-0.866025 0.5 0.5 0.866025 285.048 149.262)" fill="black"/>
<ellipse cx="285.63" cy="110.848" rx="39.1529" ry="1" transform="rotate(-90 285.63 110.848)" fill="black"/>
<ellipse cx="285.63" cy="189.154" rx="39.1529" ry="1" transform="rotate(-90 285.63 189.154)" fill="black"/>
<ellipse cx="48.0825" cy="248.01" rx="39.1529" ry="1" transform="rotate(30 48.0825 248.01)" fill="black"/>
<ellipse cx="39.1529" cy="1" rx="39.1529" ry="1" transform="matrix(-0.866025 0.5 0.5 0.866025 149.404 227.567)" fill="black"/>
<ellipse cx="39.1529" cy="1" rx="39.1529" ry="1" transform="matrix(0.866025 -0.5 -0.5 -0.866025 14.6751 72.4349)" fill="black"/>
<ellipse cx="115.997" cy="51.9924" rx="39.1529" ry="1" transform="rotate(-150 115.997 51.9924)" fill="black"/>
<ellipse cx="39.1529" cy="1" rx="39.1529" ry="1" transform="matrix(0.866025 -0.5 -0.5 -0.866025 14.6751 150.741)" fill="black"/>
<ellipse cx="115.997" cy="130.298" rx="39.1529" ry="1" transform="rotate(-150 115.997 130.298)" fill="black"/>
<ellipse cx="48.0825" cy="169.704" rx="39.1529" ry="1" transform="rotate(30 48.0825 169.704)" fill="black"/>
<ellipse cx="39.1529" cy="1" rx="39.1529" ry="1" transform="matrix(-0.866025 0.5 0.5 0.866025 149.404 149.262)" fill="black"/>
<ellipse cx="14.37" cy="110.848" rx="39.1529" ry="1" transform="rotate(-90 14.37 110.848)" fill="black"/>
<ellipse cx="14.37" cy="189.154" rx="39.1529" ry="1" transform="rotate(-90 14.37 189.154)" fill="black"/>
<ellipse cx="149.991" cy="110.848" rx="39.1529" ry="1" transform="rotate(-90 149.991 110.848)" fill="black"/>
<ellipse cx="149.991" cy="189.154" rx="39.1529" ry="1" transform="rotate(-90 149.991 189.154)" fill="black"/>
<path d="M170 150C170 151.004 169.186 151.818 168.182 151.818C167.177 151.818 166.363 151.004 166.363 150C166.363 148.996 167.177 148.182 168.182 148.182C169.186 148.182 170 148.996 170 150Z" stroke="black" stroke-width="0.5" stroke-miterlimit="10" stroke-linecap="round" stroke-linejoin="round"/>
<path d="M169.776 147.156C169.776 148.16 168.962 148.974 167.958 148.974C166.954 148.974 166.14 148.16 166.14 147.156C166.14 146.152 166.954 145.338 167.958 145.338C168.962 145.338 169.776 146.152 169.776 147.156Z" stroke="black" stroke-width="0.5" stroke-miterlimit="10" stroke-linecap="round" stroke-linejoin="round"/>
<path d="M169.11 144.381C169.11 145.386 168.296 146.2 167.292 146.2C166.288 146.2 165.474 145.386 165.474 144.381C165.474 143.377 166.288 142.563 167.292 142.563C168.296 142.563 169.11 143.377 169.11 144.381Z" stroke="black" stroke-width="0.5" stroke-miterlimit="10" stroke-linecap="round" stroke-linejoin="round"/>
<path d="M168.018 141.746C168.018 142.75 167.204 143.564 166.2 143.564C165.196 143.564 164.382 142.75 164.382 141.746C164.382 140.741 165.196 139.927 166.2 139.927C167.204 139.927 168.018 140.741 168.018 141.746Z" stroke="black" stroke-width="0.5" stroke-miterlimit="10" stroke-linecap="round" stroke-linejoin="round"/>
<path d="M166.528 139.313C166.528 140.317 165.714 141.131 164.709 141.131C163.705 141.131 162.891 140.317 162.891 139.313C162.891 138.309 163.705 137.495 164.709 137.495C165.714 137.495 166.528 138.309 166.528 139.313Z" stroke="black" stroke-width="0.5" stroke-miterlimit="10" stroke-linecap="round" stroke-linejoin="round"/>
<path d="M164.675 137.143C164.675 138.148 163.861 138.962 162.856 138.962C161.852 138.962 161.038 138.148 161.038 137.143C161.038 136.139 161.852 135.325 162.856 135.325C163.861 135.325 164.675 136.139 164.675 137.143Z" stroke="black" stroke-width="0.5" stroke-miterlimit="10" stroke-linecap="round" stroke-linejoin="round"/>
<path d="M162.505 135.291C162.505 136.295 161.691 137.109 160.687 137.109C159.683 137.109 158.869 136.295 158.869 135.291C158.869 134.286 159.683 133.472 160.687 133.472C161.691 133.472 162.505 134.286 162.505 135.291Z" stroke="black" stroke-width="0.5" stroke-miterlimit="10" stroke-linecap="round" stroke-linejoin="round"/>
<path d="M160.072 133.8C160.072 134.804 159.258 135.618 158.254 135.618C157.25 135.618 156.436 134.804 156.436 133.8C156.436 132.796 157.25 131.982 158.254 131.982C159.258 131.982 160.072 132.796 160.072 133.8Z" stroke="black" stroke-width="0.5" stroke-miterlimit="10" stroke-linecap="round" stroke-linejoin="round"/>
<path d="M157.436 132.708C157.436 133.712 156.622 134.526 155.618 134.526C154.614 134.526 153.8 133.712 153.8 132.708C153.8 131.704 154.614 130.89 155.618 130.89C156.622 130.89 157.436 131.704 157.436 132.708Z" stroke="black" stroke-width="0.5" stroke-miterlimit="10" stroke-linecap="round" stroke-linejoin="round"/>
<path d="M154.662 132.042C154.662 133.046 153.848 133.86 152.844 133.86C151.84 133.86 151.026 133.046 151.026 132.042C151.026 131.038 151.84 130.224 152.844 130.224C153.848 130.224 154.662 131.038 154.662 132.042Z" stroke="black" stroke-width="0.5" stroke-miterlimit="10" stroke-linecap="round" stroke-linejoin="round"/>
<path d="M151.818 131.818C151.818 132.822 151.004 133.636 150 133.636C148.996 133.636 148.182 132.822 148.182 131.818C148.182 130.814 148.996 130 150 130C151.004 130 151.818 130.814 151.818 131.818Z" stroke="black" stroke-width="0.5" stroke-miterlimit="10" stroke-linecap="round" stroke-linejoin="round"/>
<path d="M148.974 132.042C148.974 133.046 148.16 133.86 147.156 133.86C146.151 133.86 145.337 133.046 145.337 132.042C145.337 131.038 146.151 130.224 147.156 130.224C148.16 130.224 148.974 131.038 148.974 132.042Z" stroke="black" stroke-width="0.5" stroke-miterlimit="10" stroke-linecap="round" stroke-linejoin="round"/>
<path d="M146.2 132.708C146.2 133.712 145.386 134.526 144.381 134.526C143.377 134.526 142.563 133.712 142.563 132.708C142.563 131.704 143.377 130.89 144.381 130.89C145.386 130.89 146.2 131.704 146.2 132.708Z" stroke="black" stroke-width="0.5" stroke-miterlimit="10" stroke-linecap="round" stroke-linejoin="round"/>
<path d="M143.564 133.8C143.564 134.804 142.75 135.618 141.745 135.618C140.741 135.618 139.927 134.804 139.927 133.8C139.927 132.796 140.741 131.982 141.745 131.982C142.75 131.982 143.564 132.796 143.564 133.8Z" stroke="black" stroke-width="0.5" stroke-miterlimit="10" stroke-linecap="round" stroke-linejoin="round"/>
<path d="M141.131 135.291C141.131 136.295 140.317 137.109 139.313 137.109C138.309 137.109 137.495 136.295 137.495 135.291C137.495 134.286 138.309 133.472 139.313 133.472C140.317 133.472 141.131 134.286 141.131 135.291Z" stroke="black" stroke-width="0.5" stroke-miterlimit="10" stroke-linecap="round" stroke-linejoin="round"/>
<path d="M138.961 137.143C138.961 138.148 138.147 138.962 137.143 138.962C136.139 138.962 135.325 138.148 135.325 137.143C135.325 136.139 136.139 135.325 137.143 135.325C138.147 135.325 138.961 136.139 138.961 137.143Z" stroke="black" stroke-width="0.5" stroke-miterlimit="10" stroke-linecap="round" stroke-linejoin="round"/>
<path d="M137.109 139.313C137.109 140.317 136.295 141.131 135.291 141.131C134.286 141.131 133.472 140.317 133.472 139.313C133.472 138.309 134.286 137.495 135.291 137.495C136.295 137.495 137.109 138.309 137.109 139.313Z" stroke="black" stroke-width="0.5" stroke-miterlimit="10" stroke-linecap="round" stroke-linejoin="round"/>
<path d="M135.618 141.746C135.618 142.75 134.804 143.564 133.8 143.564C132.796 143.564 131.982 142.75 131.982 141.746C131.982 140.741 132.796 139.927 133.8 139.927C134.804 139.927 135.618 140.741 135.618 141.746Z" stroke="black" stroke-width="0.5" stroke-miterlimit="10" stroke-linecap="round" stroke-linejoin="round"/>
<path d="M134.526 144.381C134.526 145.386 133.712 146.2 132.708 146.2C131.704 146.2 130.89 145.386 130.89 144.381C130.89 143.377 131.704 142.563 132.708 142.563C133.712 142.563 134.526 143.377 134.526 144.381Z" stroke="black" stroke-width="0.5" stroke-miterlimit="10" stroke-linecap="round" stroke-linejoin="round"/>
<path d="M133.86 147.156C133.86 148.16 133.046 148.974 132.042 148.974C131.038 148.974 130.224 148.16 130.224 147.156C130.224 146.152 131.038 145.338 132.042 145.338C133.046 145.338 133.86 146.152 133.86 147.156Z" stroke="black" stroke-width="0.5" stroke-miterlimit="10" stroke-linecap="round" stroke-linejoin="round"/>
<path d="M133.636 150C133.636 151.004 132.822 151.818 131.818 151.818C130.814 151.818 130 151.004 130 150C130 148.996 130.814 148.182 131.818 148.182C132.822 148.182 133.636 148.996 133.636 150Z" stroke="black" stroke-width="0.5" stroke-miterlimit="10" stroke-linecap="round" stroke-linejoin="round"/>
<path d="M133.86 152.844C133.86 153.848 133.046 154.662 132.042 154.662C131.038 154.662 130.224 153.848 130.224 152.844C130.224 151.84 131.038 151.026 132.042 151.026C133.046 151.026 133.86 151.84 133.86 152.844Z" stroke="black" stroke-width="0.5" stroke-miterlimit="10" stroke-linecap="round" stroke-linejoin="round"/>
<path d="M134.526 155.618C134.526 156.623 133.712 157.437 132.708 157.437C131.704 157.437 130.89 156.623 130.89 155.618C130.89 154.614 131.704 153.8 132.708 153.8C133.712 153.8 134.526 154.614 134.526 155.618Z" stroke="black" stroke-width="0.5" stroke-miterlimit="10" stroke-linecap="round" stroke-linejoin="round"/>
<path d="M135.618 158.254C135.618 159.259 134.804 160.073 133.8 160.073C132.796 160.073 131.982 159.259 131.982 158.254C131.982 157.25 132.796 156.436 133.8 156.436C134.804 156.436 135.618 157.25 135.618 158.254Z" stroke="black" stroke-width="0.5" stroke-miterlimit="10" stroke-linecap="round" stroke-linejoin="round"/>
<path d="M137.109 160.687C137.109 161.691 136.295 162.505 135.291 162.505C134.286 162.505 133.472 161.691 133.472 160.687C133.472 159.683 134.286 158.869 135.291 158.869C136.295 158.869 137.109 159.683 137.109 160.687Z" stroke="black" stroke-width="0.5" stroke-miterlimit="10" stroke-linecap="round" stroke-linejoin="round"/>
<path d="M138.961 162.857C138.961 163.861 138.147 164.675 137.143 164.675C136.139 164.675 135.325 163.861 135.325 162.857C135.325 161.852 136.139 161.038 137.143 161.038C138.147 161.038 138.961 161.852 138.961 162.857Z" stroke="black" stroke-width="0.5" stroke-miterlimit="10" stroke-linecap="round" stroke-linejoin="round"/>
<path d="M141.131 164.709C141.131 165.713 140.317 166.528 139.313 166.528C138.309 166.528 137.495 165.713 137.495 164.709C137.495 163.705 138.309 162.891 139.313 162.891C140.317 162.891 141.131 163.705 141.131 164.709Z" stroke="black" stroke-width="0.5" stroke-miterlimit="10" stroke-linecap="round" stroke-linejoin="round"/>
<path d="M143.564 166.2C143.564 167.204 142.75 168.018 141.745 168.018C140.741 168.018 139.927 167.204 139.927 166.2C139.927 165.196 140.741 164.382 141.745 164.382C142.75 164.382 143.564 165.196 143.564 166.2Z" stroke="black" stroke-width="0.5" stroke-miterlimit="10" stroke-linecap="round" stroke-linejoin="round"/>
<path d="M146.2 167.292C146.2 168.296 145.386 169.11 144.381 169.11C143.377 169.11 142.563 168.296 142.563 167.292C142.563 166.288 143.377 165.474 144.381 165.474C145.386 165.474 146.2 166.288 146.2 167.292Z" stroke="black" stroke-width="0.5" stroke-miterlimit="10" stroke-linecap="round" stroke-linejoin="round"/>
<path d="M148.974 167.958C148.974 168.962 148.16 169.776 147.156 169.776C146.151 169.776 145.337 168.962 145.337 167.958C145.337 166.954 146.151 166.14 147.156 166.14C148.16 166.14 148.974 166.954 148.974 167.958Z" stroke="black" stroke-width="0.5" stroke-miterlimit="10" stroke-linecap="round" stroke-linejoin="round"/>
<path d="M151.818 168.182C151.818 169.186 151.004 170 150 170C148.996 170 148.182 169.186 148.182 168.182C148.182 167.178 148.996 166.364 150 166.364C151.004 166.364 151.818 167.178 151.818 168.182Z" stroke="black" stroke-width="0.5" stroke-miterlimit="10" stroke-linecap="round" stroke-linejoin="round"/>
<path d="M154.662 167.958C154.662 168.962 153.848 169.776 152.844 169.776C151.84 169.776 151.026 168.962 151.026 167.958C151.026 166.954 151.84 166.14 152.844 166.14C153.848 166.14 154.662 166.954 154.662 167.958Z" stroke="black" stroke-width="0.5" stroke-miterlimit="10" stroke-linecap="round" stroke-linejoin="round"/>
<path d="M157.436 167.292C157.436 168.296 156.622 169.11 155.618 169.11C154.614 169.11 153.8 168.296 153.8 167.292C153.8 166.288 154.614 165.474 155.618 165.474C156.622 165.474 157.436 166.288 157.436 167.292Z" stroke="black" stroke-width="0.5" stroke-miterlimit="10" stroke-linecap="round" stroke-linejoin="round"/>
<path d="M160.072 166.2C160.072 167.204 159.258 168.018 158.254 168.018C157.25 168.018 156.436 167.204 156.436 166.2C156.436 165.196 157.25 164.382 158.254 164.382C159.258 164.382 160.072 165.196 160.072 166.2Z" stroke="black" stroke-width="0.5" stroke-miterlimit="10" stroke-linecap="round" stroke-linejoin="round"/>
<path d="M162.505 164.709C162.505 165.713 161.691 166.528 160.687 166.528C159.683 166.528 158.869 165.713 158.869 164.709C158.869 163.705 159.683 162.891 160.687 162.891C161.691 162.891 162.505 163.705 162.505 164.709Z" stroke="black" stroke-width="0.5" stroke-miterlimit="10" stroke-linecap="round" stroke-linejoin="round"/>
<path d="M164.675 162.857C164.675 163.861 163.861 164.675 162.856 164.675C161.852 164.675 161.038 163.861 161.038 162.857C161.038 161.852 161.852 161.038 162.856 161.038C163.861 161.038 164.675 161.852 164.675 162.857Z" stroke="black" stroke-width="0.5" stroke-miterlimit="10" stroke-linecap="round" stroke-linejoin="round"/>
<path d="M166.528 160.687C166.528 161.691 165.714 162.505 164.709 162.505C163.705 162.505 162.891 161.691 162.891 160.687C162.891 159.683 163.705 158.869 164.709 158.869C165.714 158.869 166.528 159.683 166.528 160.687Z" stroke="black" stroke-width="0.5" stroke-miterlimit="10" stroke-linecap="round" stroke-linejoin="round"/>
<path d="M168.018 158.254C168.018 159.259 167.204 160.073 166.2 160.073C165.196 160.073 164.382 159.259 164.382 158.254C164.382 157.25 165.196 156.436 166.2 156.436C167.204 156.436 168.018 157.25 168.018 158.254Z" stroke="black" stroke-width="0.5" stroke-miterlimit="10" stroke-linecap="round" stroke-linejoin="round"/>
<path d="M169.11 155.618C169.11 156.623 168.296 157.437 167.292 157.437C166.288 157.437 165.474 156.623 165.474 155.618C165.474 154.614 166.288 153.8 167.292 153.8C168.296 153.8 169.11 154.614 169.11 155.618Z" stroke="black" stroke-width="0.5" stroke-miterlimit="10" stroke-linecap="round" stroke-linejoin="round"/>
<path d="M169.776 152.844C169.776 153.848 168.962 154.662 167.958 154.662C166.954 154.662 166.14 153.848 166.14 152.844C166.14 151.84 166.954 151.026 167.958 151.026C168.962 151.026 169.776 151.84 169.776 152.844Z" stroke="black" stroke-width="0.5" stroke-miterlimit="10" stroke-linecap="round" stroke-linejoin="round"/>
<path d="M170 150C170 151.004 169.186 151.818 168.182 151.818C167.177 151.818 166.363 151.004 166.363 150C166.363 148.996 167.177 148.182 168.182 148.182C169.186 148.182 170 148.996 170 150Z" stroke="black" stroke-width="0.5" stroke-miterlimit="10" stroke-linecap="round" stroke-linejoin="round"/>
<path d="M190 150C190 152.008 188.372 153.636 186.363 153.636C184.355 153.636 182.727 152.008 182.727 150C182.727 147.992 184.355 146.364 186.363 146.364C188.372 146.364 190 147.992 190 150Z" stroke="black" stroke-width="0.75" stroke-miterlimit="10" stroke-linecap="round" stroke-linejoin="round"/>
<path d="M189.552 144.311C189.552 146.32 187.924 147.948 185.916 147.948C183.908 147.948 182.28 146.32 182.28 144.311C182.28 142.303 183.908 140.675 185.916 140.675C187.924 140.675 189.552 142.303 189.552 144.311Z" stroke="black" stroke-width="0.75" stroke-miterlimit="10" stroke-linecap="round" stroke-linejoin="round"/>
<path d="M188.22 138.763C188.22 140.771 186.592 142.399 184.584 142.399C182.576 142.399 180.948 140.771 180.948 138.763C180.948 136.755 182.576 135.127 184.584 135.127C186.592 135.127 188.22 136.755 188.22 138.763Z" stroke="black" stroke-width="0.75" stroke-miterlimit="10" stroke-linecap="round" stroke-linejoin="round"/>
<path d="M186.036 133.491C186.036 135.499 184.408 137.127 182.4 137.127C180.392 137.127 178.764 135.499 178.764 133.491C178.764 131.483 180.392 129.855 182.4 129.855C184.408 129.855 186.036 131.483 186.036 133.491Z" stroke="black" stroke-width="0.75" stroke-miterlimit="10" stroke-linecap="round" stroke-linejoin="round"/>
<path d="M183.055 128.626C183.055 130.634 181.427 132.262 179.419 132.262C177.41 132.262 175.782 130.634 175.782 128.626C175.782 126.618 177.41 124.99 179.419 124.99C181.427 124.99 183.055 126.618 183.055 128.626Z" stroke="black" stroke-width="0.75" stroke-miterlimit="10" stroke-linecap="round" stroke-linejoin="round"/>
<path d="M179.349 124.287C179.349 126.295 177.721 127.923 175.713 127.923C173.705 127.923 172.076 126.295 172.076 124.287C172.076 122.279 173.705 120.651 175.713 120.651C177.721 120.651 179.349 122.279 179.349 124.287Z" stroke="black" stroke-width="0.75" stroke-miterlimit="10" stroke-linecap="round" stroke-linejoin="round"/>
<path d="M175.01 120.581C175.01 122.589 173.382 124.218 171.374 124.218C169.366 124.218 167.738 122.589 167.738 120.581C167.738 118.573 169.366 116.945 171.374 116.945C173.382 116.945 175.01 118.573 175.01 120.581Z" stroke="black" stroke-width="0.75" stroke-miterlimit="10" stroke-linecap="round" stroke-linejoin="round"/>
<path d="M170.145 117.6C170.145 119.608 168.517 121.236 166.509 121.236C164.501 121.236 162.873 119.608 162.873 117.6C162.873 115.591 164.501 113.963 166.509 113.963C168.517 113.963 170.145 115.591 170.145 117.6Z" stroke="black" stroke-width="0.75" stroke-miterlimit="10" stroke-linecap="round" stroke-linejoin="round"/>
<path d="M164.873 115.416C164.873 117.425 163.245 119.053 161.237 119.053C159.229 119.053 157.601 117.425 157.601 115.416C157.601 113.408 159.229 111.78 161.237 111.78C163.245 111.78 164.873 113.408 164.873 115.416Z" stroke="black" stroke-width="0.75" stroke-miterlimit="10" stroke-linecap="round" stroke-linejoin="round"/>
<path d="M159.325 114.084C159.325 116.092 157.697 117.72 155.689 117.72C153.68 117.72 152.052 116.092 152.052 114.084C152.052 112.076 153.68 110.448 155.689 110.448C157.697 110.448 159.325 112.076 159.325 114.084Z" stroke="black" stroke-width="0.75" stroke-miterlimit="10" stroke-linecap="round" stroke-linejoin="round"/>
<path d="M153.636 113.636C153.636 115.645 152.008 117.273 150 117.273C147.992 117.273 146.364 115.645 146.364 113.636C146.364 111.628 147.992 110 150 110C152.008 110 153.636 111.628 153.636 113.636Z" stroke="black" stroke-width="0.75" stroke-miterlimit="10" stroke-linecap="round" stroke-linejoin="round"/>
<path d="M147.948 114.084C147.948 116.092 146.32 117.72 144.312 117.72C142.303 117.72 140.675 116.092 140.675 114.084C140.675 112.076 142.303 110.448 144.312 110.448C146.32 110.448 147.948 112.076 147.948 114.084Z" stroke="black" stroke-width="0.75" stroke-miterlimit="10" stroke-linecap="round" stroke-linejoin="round"/>
<path d="M142.399 115.416C142.399 117.425 140.771 119.053 138.763 119.053C136.755 119.053 135.127 117.425 135.127 115.416C135.127 113.408 136.755 111.78 138.763 111.78C140.771 111.78 142.399 113.408 142.399 115.416Z" stroke="black" stroke-width="0.75" stroke-miterlimit="10" stroke-linecap="round" stroke-linejoin="round"/>
<path d="M137.128 117.6C137.128 119.608 135.5 121.236 133.491 121.236C131.483 121.236 129.855 119.608 129.855 117.6C129.855 115.591 131.483 113.963 133.491 113.963C135.5 113.963 137.128 115.591 137.128 117.6Z" stroke="black" stroke-width="0.75" stroke-miterlimit="10" stroke-linecap="round" stroke-linejoin="round"/>
<path d="M132.262 120.581C132.262 122.589 130.634 124.218 128.626 124.218C126.618 124.218 124.99 122.589 124.99 120.581C124.99 118.573 126.618 116.945 128.626 116.945C130.634 116.945 132.262 118.573 132.262 120.581Z" stroke="black" stroke-width="0.75" stroke-miterlimit="10" stroke-linecap="round" stroke-linejoin="round"/>
<path d="M127.923 124.287C127.923 126.295 126.295 127.923 124.287 127.923C122.279 127.923 120.651 126.295 120.651 124.287C120.651 122.279 122.279 120.651 124.287 120.651C126.295 120.651 127.923 122.279 127.923 124.287Z" stroke="black" stroke-width="0.75" stroke-miterlimit="10" stroke-linecap="round" stroke-linejoin="round"/>
<path d="M124.218 128.626C124.218 130.634 122.589 132.262 120.581 132.262C118.573 132.262 116.945 130.634 116.945 128.626C116.945 126.618 118.573 124.99 120.581 124.99C122.589 124.99 124.218 126.618 124.218 128.626Z" stroke="black" stroke-width="0.75" stroke-miterlimit="10" stroke-linecap="round" stroke-linejoin="round"/>
<path d="M121.236 133.491C121.236 135.499 119.608 137.127 117.6 137.127C115.591 137.127 113.963 135.499 113.963 133.491C113.963 131.483 115.591 129.855 117.6 129.855C119.608 129.855 121.236 131.483 121.236 133.491Z" stroke="black" stroke-width="0.75" stroke-miterlimit="10" stroke-linecap="round" stroke-linejoin="round"/>
<path d="M119.053 138.763C119.053 140.771 117.425 142.399 115.416 142.399C113.408 142.399 111.78 140.771 111.78 138.763C111.78 136.755 113.408 135.127 115.416 135.127C117.425 135.127 119.053 136.755 119.053 138.763Z" stroke="black" stroke-width="0.75" stroke-miterlimit="10" stroke-linecap="round" stroke-linejoin="round"/>
<path d="M117.72 144.311C117.72 146.32 116.092 147.948 114.084 147.948C112.076 147.948 110.448 146.32 110.448 144.311C110.448 142.303 112.076 140.675 114.084 140.675C116.092 140.675 117.72 142.303 117.72 144.311Z" stroke="black" stroke-width="0.75" stroke-miterlimit="10" stroke-linecap="round" stroke-linejoin="round"/>
<path d="M117.273 150C117.273 152.008 115.645 153.636 113.636 153.636C111.628 153.636 110 152.008 110 150C110 147.992 111.628 146.364 113.636 146.364C115.645 146.364 117.273 147.992 117.273 150Z" stroke="black" stroke-width="0.75" stroke-miterlimit="10" stroke-linecap="round" stroke-linejoin="round"/>
<path d="M117.72 155.689C117.72 157.697 116.092 159.325 114.084 159.325C112.076 159.325 110.448 157.697 110.448 155.689C110.448 153.68 112.076 152.052 114.084 152.052C116.092 152.052 117.72 153.68 117.72 155.689Z" stroke="black" stroke-width="0.75" stroke-miterlimit="10" stroke-linecap="round" stroke-linejoin="round"/>
<path d="M119.053 161.237C119.053 163.245 117.425 164.873 115.416 164.873C113.408 164.873 111.78 163.245 111.78 161.237C111.78 159.229 113.408 157.601 115.416 157.601C117.425 157.601 119.053 159.229 119.053 161.237Z" stroke="black" stroke-width="0.75" stroke-miterlimit="10" stroke-linecap="round" stroke-linejoin="round"/>
<path d="M121.236 166.509C121.236 168.517 119.608 170.145 117.6 170.145C115.591 170.145 113.963 168.517 113.963 166.509C113.963 164.5 115.591 162.872 117.6 162.872C119.608 162.872 121.236 164.5 121.236 166.509Z" stroke="black" stroke-width="0.75" stroke-miterlimit="10" stroke-linecap="round" stroke-linejoin="round"/>
<path d="M124.218 171.374C124.218 173.382 122.589 175.01 120.581 175.01C118.573 175.01 116.945 173.382 116.945 171.374C116.945 169.366 118.573 167.738 120.581 167.738C122.589 167.738 124.218 169.366 124.218 171.374Z" stroke="black" stroke-width="0.75" stroke-miterlimit="10" stroke-linecap="round" stroke-linejoin="round"/>
<path d="M127.923 175.713C127.923 177.721 126.295 179.349 124.287 179.349C122.279 179.349 120.651 177.721 120.651 175.713C120.651 173.705 122.279 172.077 124.287 172.077C126.295 172.077 127.923 173.705 127.923 175.713Z" stroke="black" stroke-width="0.75" stroke-miterlimit="10" stroke-linecap="round" stroke-linejoin="round"/>
<path d="M132.262 179.419C132.262 181.427 130.634 183.055 128.626 183.055C126.618 183.055 124.99 181.427 124.99 179.419C124.99 177.41 126.618 175.782 128.626 175.782C130.634 175.782 132.262 177.41 132.262 179.419Z" stroke="black" stroke-width="0.75" stroke-miterlimit="10" stroke-linecap="round" stroke-linejoin="round"/>
<path d="M137.128 182.4C137.128 184.409 135.5 186.037 133.491 186.037C131.483 186.037 129.855 184.409 129.855 182.4C129.855 180.392 131.483 178.764 133.491 178.764C135.5 178.764 137.128 180.392 137.128 182.4Z" stroke="black" stroke-width="0.75" stroke-miterlimit="10" stroke-linecap="round" stroke-linejoin="round"/>
<path d="M142.399 184.584C142.399 186.592 140.771 188.22 138.763 188.22C136.755 188.22 135.127 186.592 135.127 184.584C135.127 182.576 136.755 180.948 138.763 180.948C140.771 180.948 142.399 182.576 142.399 184.584Z" stroke="black" stroke-width="0.75" stroke-miterlimit="10" stroke-linecap="round" stroke-linejoin="round"/>
<path d="M147.948 185.916C147.948 187.924 146.32 189.552 144.312 189.552C142.303 189.552 140.675 187.924 140.675 185.916C140.675 183.908 142.303 182.28 144.312 182.28C146.32 182.28 147.948 183.908 147.948 185.916Z" stroke="black" stroke-width="0.75" stroke-miterlimit="10" stroke-linecap="round" stroke-linejoin="round"/>
<path d="M153.636 186.364C153.636 188.372 152.008 190 150 190C147.992 190 146.364 188.372 146.364 186.364C146.364 184.355 147.992 182.727 150 182.727C152.008 182.727 153.636 184.355 153.636 186.364Z" stroke="black" stroke-width="0.75" stroke-miterlimit="10" stroke-linecap="round" stroke-linejoin="round"/>
<path d="M159.325 185.916C159.325 187.924 157.697 189.552 155.689 189.552C153.68 189.552 152.052 187.924 152.052 185.916C152.052 183.908 153.68 182.28 155.689 182.28C157.697 182.28 159.325 183.908 159.325 185.916Z" stroke="black" stroke-width="0.75" stroke-miterlimit="10" stroke-linecap="round" stroke-linejoin="round"/>
<path d="M164.873 184.584C164.873 186.592 163.245 188.22 161.237 188.22C159.229 188.22 157.601 186.592 157.601 184.584C157.601 182.576 159.229 180.948 161.237 180.948C163.245 180.948 164.873 182.576 164.873 184.584Z" stroke="black" stroke-width="0.75" stroke-miterlimit="10" stroke-linecap="round" stroke-linejoin="round"/>
<path d="M170.145 182.4C170.145 184.409 168.517 186.037 166.509 186.037C164.501 186.037 162.873 184.409 162.873 182.4C162.873 180.392 164.501 178.764 166.509 178.764C168.517 178.764 170.145 180.392 170.145 182.4Z" stroke="black" stroke-width="0.75" stroke-miterlimit="10" stroke-linecap="round" stroke-linejoin="round"/>
<path d="M175.01 179.419C175.01 181.427 173.382 183.055 171.374 183.055C169.366 183.055 167.738 181.427 167.738 179.419C167.738 177.41 169.366 175.782 171.374 175.782C173.382 175.782 175.01 177.41 175.01 179.419Z" stroke="black" stroke-width="0.75" stroke-miterlimit="10" stroke-linecap="round" stroke-linejoin="round"/>
<path d="M179.349 175.713C179.349 177.721 177.721 179.349 175.713 179.349C173.705 179.349 172.076 177.721 172.076 175.713C172.076 173.705 173.705 172.077 175.713 172.077C177.721 172.077 179.349 173.705 179.349 175.713Z" stroke="black" stroke-width="0.75" stroke-miterlimit="10" stroke-linecap="round" stroke-linejoin="round"/>
<path d="M183.055 171.374C183.055 173.382 181.427 175.01 179.419 175.01C177.41 175.01 175.782 173.382 175.782 171.374C175.782 169.366 177.41 167.738 179.419 167.738C181.427 167.738 183.055 169.366 183.055 171.374Z" stroke="black" stroke-width="0.75" stroke-miterlimit="10" stroke-linecap="round" stroke-linejoin="round"/>
<path d="M186.036 166.509C186.036 168.517 184.408 170.145 182.4 170.145C180.392 170.145 178.764 168.517 178.764 166.509C178.764 164.5 180.392 162.872 182.4 162.872C184.408 162.872 186.036 164.5 186.036 166.509Z" stroke="black" stroke-width="0.75" stroke-miterlimit="10" stroke-linecap="round" stroke-linejoin="round"/>
<path d="M188.22 161.237C188.22 163.245 186.592 164.873 184.584 164.873C182.576 164.873 180.948 163.245 180.948 161.237C180.948 159.229 182.576 157.601 184.584 157.601C186.592 157.601 188.22 159.229 188.22 161.237Z" stroke="black" stroke-width="0.75" stroke-miterlimit="10" stroke-linecap="round" stroke-linejoin="round"/>
<path d="M189.552 155.689C189.552 157.697 187.924 159.325 185.916 159.325C183.908 159.325 182.28 157.697 182.28 155.689C182.28 153.68 183.908 152.052 185.916 152.052C187.924 152.052 189.552 153.68 189.552 155.689Z" stroke="black" stroke-width="0.75" stroke-miterlimit="10" stroke-linecap="round" stroke-linejoin="round"/>
<path d="M190 150C190 152.008 188.372 153.636 186.363 153.636C184.355 153.636 182.727 152.008 182.727 150C182.727 147.992 184.355 146.364 186.363 146.364C188.372 146.364 190 147.992 190 150Z" stroke="black" stroke-width="0.75" stroke-miterlimit="10" stroke-linecap="round" stroke-linejoin="round"/>
<path d="M210 150C210 153.013 207.558 155.455 204.545 155.455C201.533 155.455 199.091 153.013 199.091 150C199.091 146.988 201.533 144.546 204.545 144.546C207.558 144.546 210 146.988 210 150Z" stroke="black" stroke-miterlimit="10" stroke-linecap="round" stroke-linejoin="round"/>
<path d="M209.328 141.467C209.328 144.48 206.886 146.922 203.874 146.922C200.861 146.922 198.419 144.48 198.419 141.467C198.419 138.455 200.861 136.013 203.874 136.013C206.886 136.013 209.328 138.455 209.328 141.467Z" stroke="black" stroke-miterlimit="10" stroke-linecap="round" stroke-linejoin="round"/>
<path d="M207.33 133.145C207.33 136.157 204.888 138.599 201.876 138.599C198.863 138.599 196.421 136.157 196.421 133.145C196.421 130.132 198.863 127.69 201.876 127.69C204.888 127.69 207.33 130.132 207.33 133.145Z" stroke="black" stroke-miterlimit="10" stroke-linecap="round" stroke-linejoin="round"/>
<path d="M204.055 125.237C204.055 128.249 201.613 130.691 198.6 130.691C195.588 130.691 193.146 128.249 193.146 125.237C193.146 122.224 195.588 119.782 198.6 119.782C201.613 119.782 204.055 122.224 204.055 125.237Z" stroke="black" stroke-miterlimit="10" stroke-linecap="round" stroke-linejoin="round"/>
<path d="M199.583 117.939C199.583 120.951 197.141 123.394 194.128 123.394C191.116 123.394 188.674 120.951 188.674 117.939C188.674 114.927 191.116 112.484 194.128 112.484C197.141 112.484 199.583 114.927 199.583 117.939Z" stroke="black" stroke-miterlimit="10" stroke-linecap="round" stroke-linejoin="round"/>
<path d="M194.024 111.431C194.024 114.443 191.582 116.885 188.569 116.885C185.557 116.885 183.115 114.443 183.115 111.431C183.115 108.418 185.557 105.976 188.569 105.976C191.582 105.976 194.024 108.418 194.024 111.431Z" stroke="black" stroke-miterlimit="10" stroke-linecap="round" stroke-linejoin="round"/>
<path d="M187.516 105.872C187.516 108.884 185.074 111.326 182.061 111.326C179.049 111.326 176.607 108.884 176.607 105.872C176.607 102.859 179.049 100.417 182.061 100.417C185.074 100.417 187.516 102.859 187.516 105.872Z" stroke="black" stroke-miterlimit="10" stroke-linecap="round" stroke-linejoin="round"/>
<path d="M180.217 101.4C180.217 104.412 177.775 106.854 174.763 106.854C171.75 106.854 169.308 104.412 169.308 101.4C169.308 98.3872 171.75 95.9451 174.763 95.9451C177.775 95.9451 180.217 98.3872 180.217 101.4Z" stroke="black" stroke-miterlimit="10" stroke-linecap="round" stroke-linejoin="round"/>
<path d="M172.31 98.1242C172.31 101.137 169.868 103.579 166.855 103.579C163.843 103.579 161.401 101.137 161.401 98.1242C161.401 95.1117 163.843 92.6696 166.855 92.6696C169.868 92.6696 172.31 95.1117 172.31 98.1242Z" stroke="black" stroke-miterlimit="10" stroke-linecap="round" stroke-linejoin="round"/>
<path d="M163.987 96.1262C163.987 99.1387 161.545 101.581 158.533 101.581C155.52 101.581 153.078 99.1387 153.078 96.1262C153.078 93.1137 155.52 90.6717 158.533 90.6717C161.545 90.6717 163.987 93.1137 163.987 96.1262Z" stroke="black" stroke-miterlimit="10" stroke-linecap="round" stroke-linejoin="round"/>
<path d="M155.454 95.4545C155.454 98.467 153.012 100.909 150 100.909C146.987 100.909 144.545 98.467 144.545 95.4545C144.545 92.4421 146.987 90 150 90C153.012 90 155.454 92.4421 155.454 95.4545Z" stroke="black" stroke-miterlimit="10" stroke-linecap="round" stroke-linejoin="round"/>
<path d="M146.922 96.1262C146.922 99.1387 144.48 101.581 141.467 101.581C138.455 101.581 136.013 99.1387 136.013 96.1262C136.013 93.1137 138.455 90.6717 141.467 90.6717C144.48 90.6717 146.922 93.1137 146.922 96.1262Z" stroke="black" stroke-miterlimit="10" stroke-linecap="round" stroke-linejoin="round"/>
<path d="M138.599 98.1242C138.599 101.137 136.157 103.579 133.144 103.579C130.132 103.579 127.69 101.137 127.69 98.1242C127.69 95.1117 130.132 92.6696 133.144 92.6696C136.157 92.6696 138.599 95.1117 138.599 98.1242Z" stroke="black" stroke-miterlimit="10" stroke-linecap="round" stroke-linejoin="round"/>
<path d="M130.691 101.4C130.691 104.412 128.249 106.854 125.237 106.854C122.224 106.854 119.782 104.412 119.782 101.4C119.782 98.3872 122.224 95.9451 125.237 95.9451C128.249 95.9451 130.691 98.3872 130.691 101.4Z" stroke="black" stroke-miterlimit="10" stroke-linecap="round" stroke-linejoin="round"/>
<path d="M123.393 105.872C123.393 108.884 120.951 111.326 117.939 111.326C114.926 111.326 112.484 108.884 112.484 105.872C112.484 102.859 114.926 100.417 117.939 100.417C120.951 100.417 123.393 102.859 123.393 105.872Z" stroke="black" stroke-miterlimit="10" stroke-linecap="round" stroke-linejoin="round"/>
<path d="M116.885 111.431C116.885 114.443 114.443 116.885 111.43 116.885C108.418 116.885 105.976 114.443 105.976 111.431C105.976 108.418 108.418 105.976 111.43 105.976C114.443 105.976 116.885 108.418 116.885 111.431Z" stroke="black" stroke-miterlimit="10" stroke-linecap="round" stroke-linejoin="round"/>
<path d="M111.326 117.939C111.326 120.951 108.884 123.394 105.872 123.394C102.859 123.394 100.417 120.951 100.417 117.939C100.417 114.927 102.859 112.484 105.872 112.484C108.884 112.484 111.326 114.927 111.326 117.939Z" stroke="black" stroke-miterlimit="10" stroke-linecap="round" stroke-linejoin="round"/>
<path d="M106.854 125.237C106.854 128.249 104.412 130.691 101.4 130.691C98.3871 130.691 95.945 128.249 95.945 125.237C95.945 122.224 98.3871 119.782 101.4 119.782C104.412 119.782 106.854 122.224 106.854 125.237Z" stroke="black" stroke-miterlimit="10" stroke-linecap="round" stroke-linejoin="round"/>
<path d="M103.579 133.145C103.579 136.157 101.137 138.599 98.124 138.599C95.1116 138.599 92.6695 136.157 92.6695 133.145C92.6695 130.132 95.1116 127.69 98.124 127.69C101.137 127.69 103.579 130.132 103.579 133.145Z" stroke="black" stroke-miterlimit="10" stroke-linecap="round" stroke-linejoin="round"/>
<path d="M101.581 141.467C101.581 144.48 99.1385 146.922 96.1261 146.922C93.1136 146.922 90.6715 144.48 90.6715 141.467C90.6715 138.455 93.1136 136.013 96.1261 136.013C99.1385 136.013 101.581 138.455 101.581 141.467Z" stroke="black" stroke-miterlimit="10" stroke-linecap="round" stroke-linejoin="round"/>
<path d="M100.909 150C100.909 153.013 98.4669 155.455 95.4544 155.455C92.442 155.455 89.9999 153.013 89.9999 150C89.9999 146.988 92.442 144.546 95.4544 144.546C98.4669 144.546 100.909 146.988 100.909 150Z" stroke="black" stroke-miterlimit="10" stroke-linecap="round" stroke-linejoin="round"/>
<path d="M101.581 158.533C101.581 161.545 99.1385 163.987 96.1261 163.987C93.1136 163.987 90.6715 161.545 90.6715 158.533C90.6715 155.52 93.1136 153.078 96.1261 153.078C99.1385 153.078 101.581 155.52 101.581 158.533Z" stroke="black" stroke-miterlimit="10" stroke-linecap="round" stroke-linejoin="round"/>
<path d="M103.579 166.856C103.579 169.868 101.137 172.31 98.124 172.31C95.1116 172.31 92.6695 169.868 92.6695 166.856C92.6695 163.843 95.1116 161.401 98.124 161.401C101.137 161.401 103.579 163.843 103.579 166.856Z" stroke="black" stroke-miterlimit="10" stroke-linecap="round" stroke-linejoin="round"/>
<path d="M106.854 174.763C106.854 177.776 104.412 180.218 101.4 180.218C98.3871 180.218 95.945 177.776 95.945 174.763C95.945 171.751 98.3871 169.309 101.4 169.309C104.412 169.309 106.854 171.751 106.854 174.763Z" stroke="black" stroke-miterlimit="10" stroke-linecap="round" stroke-linejoin="round"/>
<path d="M111.326 182.061C111.326 185.073 108.884 187.516 105.872 187.516C102.859 187.516 100.417 185.073 100.417 182.061C100.417 179.049 102.859 176.606 105.872 176.606C108.884 176.606 111.326 179.049 111.326 182.061Z" stroke="black" stroke-miterlimit="10" stroke-linecap="round" stroke-linejoin="round"/>
<path d="M116.885 188.569C116.885 191.582 114.443 194.024 111.43 194.024C108.418 194.024 105.976 191.582 105.976 188.569C105.976 185.557 108.418 183.115 111.43 183.115C114.443 183.115 116.885 185.557 116.885 188.569Z" stroke="black" stroke-miterlimit="10" stroke-linecap="round" stroke-linejoin="round"/>
<path d="M123.393 194.128C123.393 197.141 120.951 199.583 117.939 199.583C114.926 199.583 112.484 197.141 112.484 194.128C112.484 191.116 114.926 188.674 117.939 188.674C120.951 188.674 123.393 191.116 123.393 194.128Z" stroke="black" stroke-miterlimit="10" stroke-linecap="round" stroke-linejoin="round"/>
<path d="M130.691 198.6C130.691 201.613 128.249 204.055 125.237 204.055C122.224 204.055 119.782 201.613 119.782 198.6C119.782 195.588 122.224 193.146 125.237 193.146C128.249 193.146 130.691 195.588 130.691 198.6Z" stroke="black" stroke-miterlimit="10" stroke-linecap="round" stroke-linejoin="round"/>
<path d="M138.599 201.876C138.599 204.888 136.157 207.33 133.144 207.33C130.132 207.33 127.69 204.888 127.69 201.876C127.69 198.863 130.132 196.421 133.144 196.421C136.157 196.421 138.599 198.863 138.599 201.876Z" stroke="black" stroke-miterlimit="10" stroke-linecap="round" stroke-linejoin="round"/>
<path d="M146.922 203.874C146.922 206.886 144.48 209.328 141.467 209.328C138.455 209.328 136.013 206.886 136.013 203.874C136.013 200.861 138.455 198.419 141.467 198.419C144.48 198.419 146.922 200.861 146.922 203.874Z" stroke="black" stroke-miterlimit="10" stroke-linecap="round" stroke-linejoin="round"/>
<path d="M155.454 204.545C155.454 207.558 153.012 210 150 210C146.987 210 144.545 207.558 144.545 204.545C144.545 201.533 146.987 199.091 150 199.091C153.012 199.091 155.454 201.533 155.454 204.545Z" stroke="black" stroke-miterlimit="10" stroke-linecap="round" stroke-linejoin="round"/>
<path d="M163.987 203.874C163.987 206.886 161.545 209.328 158.533 209.328C155.52 209.328 153.078 206.886 153.078 203.874C153.078 200.861 155.52 198.419 158.533 198.419C161.545 198.419 163.987 200.861 163.987 203.874Z" stroke="black" stroke-miterlimit="10" stroke-linecap="round" stroke-linejoin="round"/>
<path d="M172.31 201.876C172.31 204.888 169.868 207.33 166.855 207.33C163.843 207.33 161.401 204.888 161.401 201.876C161.401 198.863 163.843 196.421 166.855 196.421C169.868 196.421 172.31 198.863 172.31 201.876Z" stroke="black" stroke-miterlimit="10" stroke-linecap="round" stroke-linejoin="round"/>
<path d="M180.217 198.6C180.217 201.613 177.775 204.055 174.763 204.055C171.75 204.055 169.308 201.613 169.308 198.6C169.308 195.588 171.75 193.146 174.763 193.146C177.775 193.146 180.217 195.588 180.217 198.6Z" stroke="black" stroke-miterlimit="10" stroke-linecap="round" stroke-linejoin="round"/>
<path d="M187.516 194.128C187.516 197.141 185.074 199.583 182.061 199.583C179.049 199.583 176.607 197.141 176.607 194.128C176.607 191.116 179.049 188.674 182.061 188.674C185.074 188.674 187.516 191.116 187.516 194.128Z" stroke="black" stroke-miterlimit="10" stroke-linecap="round" stroke-linejoin="round"/>
<path d="M194.024 188.569C194.024 191.582 191.582 194.024 188.569 194.024C185.557 194.024 183.115 191.582 183.115 188.569C183.115 185.557 185.557 183.115 188.569 183.115C191.582 183.115 194.024 185.557 194.024 188.569Z" stroke="black" stroke-miterlimit="10" stroke-linecap="round" stroke-linejoin="round"/>
<path d="M199.583 182.061C199.583 185.073 197.141 187.516 194.128 187.516C191.116 187.516 188.674 185.073 188.674 182.061C188.674 179.049 191.116 176.606 194.128 176.606C197.141 176.606 199.583 179.049 199.583 182.061Z" stroke="black" stroke-miterlimit="10" stroke-linecap="round" stroke-linejoin="round"/>
<path d="M204.055 174.763C204.055 177.776 201.613 180.218 198.6 180.218C195.588 180.218 193.146 177.776 193.146 174.763C193.146 171.751 195.588 169.309 198.6 169.309C201.613 169.309 204.055 171.751 204.055 174.763Z" stroke="black" stroke-miterlimit="10" stroke-linecap="round" stroke-linejoin="round"/>
<path d="M207.33 166.856C207.33 169.868 204.888 172.31 201.876 172.31C198.863 172.31 196.421 169.868 196.421 166.856C196.421 163.843 198.863 161.401 201.876 161.401C204.888 161.401 207.33 163.843 207.33 166.856Z" stroke="black" stroke-miterlimit="10" stroke-linecap="round" stroke-linejoin="round"/>
<path d="M209.328 158.533C209.328 161.545 206.886 163.987 203.874 163.987C200.861 163.987 198.419 161.545 198.419 158.533C198.419 155.52 200.861 153.078 203.874 153.078C206.886 153.078 209.328 155.52 209.328 158.533Z" stroke="black" stroke-miterlimit="10" stroke-linecap="round" stroke-linejoin="round"/>
<path d="M210 150C210 153.013 207.558 155.455 204.545 155.455C201.533 155.455 199.091 153.013 199.091 150C199.091 146.988 201.533 144.546 204.545 144.546C207.558 144.546 210 146.988 210 150Z" stroke="black" stroke-miterlimit="10" stroke-linecap="round" stroke-linejoin="round"/>
<path d="M230 150C230 154.017 226.744 157.273 222.727 157.273C218.711 157.273 215.455 154.017 215.455 150C215.455 145.983 218.711 142.727 222.727 142.727C226.744 142.727 230 145.983 230 150Z" stroke="black" stroke-width="1.25" stroke-miterlimit="10" stroke-linecap="round" stroke-linejoin="round"/>
<path d="M229.105 138.623C229.105 142.64 225.848 145.896 221.832 145.896C217.815 145.896 214.559 142.64 214.559 138.623C214.559 134.606 217.815 131.35 221.832 131.35C225.848 131.35 229.105 134.606 229.105 138.623Z" stroke="black" stroke-width="1.25" stroke-miterlimit="10" stroke-linecap="round" stroke-linejoin="round"/>
<path d="M226.44 127.526C226.44 131.543 223.184 134.799 219.168 134.799C215.151 134.799 211.895 131.543 211.895 127.526C211.895 123.509 215.151 120.253 219.168 120.253C223.184 120.253 226.44 123.509 226.44 127.526Z" stroke="black" stroke-width="1.25" stroke-miterlimit="10" stroke-linecap="round" stroke-linejoin="round"/>
<path d="M222.073 116.982C222.073 120.999 218.817 124.255 214.801 124.255C210.784 124.255 207.528 120.999 207.528 116.982C207.528 112.966 210.784 109.71 214.801 109.71C218.817 109.71 222.073 112.966 222.073 116.982Z" stroke="black" stroke-width="1.25" stroke-miterlimit="10" stroke-linecap="round" stroke-linejoin="round"/>
<path d="M216.11 107.252C216.11 111.269 212.854 114.525 208.838 114.525C204.821 114.525 201.565 111.269 201.565 107.252C201.565 103.235 204.821 99.9792 208.838 99.9792C212.854 99.9792 216.11 103.235 216.11 107.252Z" stroke="black" stroke-width="1.25" stroke-miterlimit="10" stroke-linecap="round" stroke-linejoin="round"/>
<path d="M208.699 98.5741C208.699 102.591 205.443 105.847 201.426 105.847C197.409 105.847 194.153 102.591 194.153 98.5741C194.153 94.5575 197.409 91.3014 201.426 91.3014C205.443 91.3014 208.699 94.5575 208.699 98.5741Z" stroke="black" stroke-width="1.25" stroke-miterlimit="10" stroke-linecap="round" stroke-linejoin="round"/>
<path d="M200.021 91.1623C200.021 95.179 196.765 98.4351 192.748 98.4351C188.731 98.4351 185.475 95.179 185.475 91.1623C185.475 87.1457 188.731 83.8896 192.748 83.8896C196.765 83.8896 200.021 87.1457 200.021 91.1623Z" stroke="black" stroke-width="1.25" stroke-miterlimit="10" stroke-linecap="round" stroke-linejoin="round"/>
<path d="M190.29 85.1995C190.29 89.2161 187.034 92.4722 183.017 92.4722C179.001 92.4722 175.745 89.2161 175.745 85.1995C175.745 81.1829 179.001 77.9268 183.017 77.9268C187.034 77.9268 190.29 81.1829 190.29 85.1995Z" stroke="black" stroke-width="1.25" stroke-miterlimit="10" stroke-linecap="round" stroke-linejoin="round"/>
<path d="M179.747 80.8323C179.747 84.8489 176.49 88.105 172.474 88.105C168.457 88.105 165.201 84.8489 165.201 80.8323C165.201 76.8157 168.457 73.5596 172.474 73.5596C176.49 73.5596 179.747 76.8157 179.747 80.8323Z" stroke="black" stroke-width="1.25" stroke-miterlimit="10" stroke-linecap="round" stroke-linejoin="round"/>
<path d="M168.65 78.1681C168.65 82.1847 165.394 85.4408 161.377 85.4408C157.361 85.4408 154.104 82.1847 154.104 78.1681C154.104 74.1515 157.361 70.8954 161.377 70.8954C165.394 70.8954 168.65 74.1515 168.65 78.1681Z" stroke="black" stroke-width="1.25" stroke-miterlimit="10" stroke-linecap="round" stroke-linejoin="round"/>
<path d="M157.273 77.2727C157.273 81.2893 154.016 84.5455 150 84.5455C145.983 84.5455 142.727 81.2893 142.727 77.2727C142.727 73.2561 145.983 70 150 70C154.016 70 157.273 73.2561 157.273 77.2727Z" stroke="black" stroke-width="1.25" stroke-miterlimit="10" stroke-linecap="round" stroke-linejoin="round"/>
<path d="M145.896 78.1681C145.896 82.1847 142.64 85.4408 138.623 85.4408C134.606 85.4408 131.35 82.1847 131.35 78.1681C131.35 74.1515 134.606 70.8954 138.623 70.8954C142.64 70.8954 145.896 74.1515 145.896 78.1681Z" stroke="black" stroke-width="1.25" stroke-miterlimit="10" stroke-linecap="round" stroke-linejoin="round"/>
<path d="M134.799 80.8323C134.799 84.8489 131.543 88.105 127.526 88.105C123.509 88.105 120.253 84.8489 120.253 80.8323C120.253 76.8157 123.509 73.5596 127.526 73.5596C131.543 73.5596 134.799 76.8157 134.799 80.8323Z" stroke="black" stroke-width="1.25" stroke-miterlimit="10" stroke-linecap="round" stroke-linejoin="round"/>
<path d="M124.255 85.1995C124.255 89.2161 120.999 92.4722 116.983 92.4722C112.966 92.4722 109.71 89.2161 109.71 85.1995C109.71 81.1829 112.966 77.9268 116.983 77.9268C120.999 77.9268 124.255 81.1829 124.255 85.1995Z" stroke="black" stroke-width="1.25" stroke-miterlimit="10" stroke-linecap="round" stroke-linejoin="round"/>
<path d="M114.525 91.1623C114.525 95.179 111.269 98.4351 107.252 98.4351C103.235 98.4351 99.9794 95.179 99.9794 91.1623C99.9794 87.1457 103.235 83.8896 107.252 83.8896C111.269 83.8896 114.525 87.1457 114.525 91.1623Z" stroke="black" stroke-width="1.25" stroke-miterlimit="10" stroke-linecap="round" stroke-linejoin="round"/>
<path d="M105.847 98.5741C105.847 102.591 102.591 105.847 98.5741 105.847C94.5575 105.847 91.3014 102.591 91.3014 98.5741C91.3014 94.5575 94.5575 91.3014 98.5741 91.3014C102.591 91.3014 105.847 94.5575 105.847 98.5741Z" stroke="black" stroke-width="1.25" stroke-miterlimit="10" stroke-linecap="round" stroke-linejoin="round"/>
<path d="M98.4351 107.252C98.4351 111.269 95.179 114.525 91.1623 114.525C87.1457 114.525 83.8896 111.269 83.8896 107.252C83.8896 103.235 87.1457 99.9792 91.1623 99.9792C95.179 99.9792 98.4351 103.235 98.4351 107.252Z" stroke="black" stroke-width="1.25" stroke-miterlimit="10" stroke-linecap="round" stroke-linejoin="round"/>
<path d="M92.4722 116.982C92.4722 120.999 89.2161 124.255 85.1995 124.255C81.1829 124.255 77.9268 120.999 77.9268 116.982C77.9268 112.966 81.1829 109.71 85.1995 109.71C89.2161 109.71 92.4722 112.966 92.4722 116.982Z" stroke="black" stroke-width="1.25" stroke-miterlimit="10" stroke-linecap="round" stroke-linejoin="round"/>
<path d="M88.1048 127.526C88.1048 131.543 84.8487 134.799 80.8321 134.799C76.8155 134.799 73.5594 131.543 73.5594 127.526C73.5594 123.509 76.8155 120.253 80.8321 120.253C84.8487 120.253 88.1048 123.509 88.1048 127.526Z" stroke="black" stroke-width="1.25" stroke-miterlimit="10" stroke-linecap="round" stroke-linejoin="round"/>
<path d="M85.441 138.623C85.441 142.64 82.1849 145.896 78.1683 145.896C74.1517 145.896 70.8955 142.64 70.8955 138.623C70.8955 134.606 74.1517 131.35 78.1683 131.35C82.1849 131.35 85.441 134.606 85.441 138.623Z" stroke="black" stroke-width="1.25" stroke-miterlimit="10" stroke-linecap="round" stroke-linejoin="round"/>
<path d="M84.5455 150C84.5455 154.017 81.2893 157.273 77.2727 157.273C73.2561 157.273 70 154.017 70 150C70 145.983 73.2561 142.727 77.2727 142.727C81.2893 142.727 84.5455 145.983 84.5455 150Z" stroke="black" stroke-width="1.25" stroke-miterlimit="10" stroke-linecap="round" stroke-linejoin="round"/>
<path d="M85.441 161.377C85.441 165.394 82.1849 168.65 78.1683 168.65C74.1517 168.65 70.8955 165.394 70.8955 161.377C70.8955 157.36 74.1517 154.104 78.1683 154.104C82.1849 154.104 85.441 157.36 85.441 161.377Z" stroke="black" stroke-width="1.25" stroke-miterlimit="10" stroke-linecap="round" stroke-linejoin="round"/>
<path d="M88.1048 172.474C88.1048 176.491 84.8487 179.747 80.8321 179.747C76.8155 179.747 73.5594 176.491 73.5594 172.474C73.5594 168.457 76.8155 165.201 80.8321 165.201C84.8487 165.201 88.1048 168.457 88.1048 172.474Z" stroke="black" stroke-width="1.25" stroke-miterlimit="10" stroke-linecap="round" stroke-linejoin="round"/>
<path d="M92.4722 183.017C92.4722 187.034 89.2161 190.29 85.1995 190.29C81.1829 190.29 77.9268 187.034 77.9268 183.017C77.9268 179.001 81.1829 175.745 85.1995 175.745C89.2161 175.745 92.4722 179.001 92.4722 183.017Z" stroke="black" stroke-width="1.25" stroke-miterlimit="10" stroke-linecap="round" stroke-linejoin="round"/>
<path d="M98.4351 192.748C98.4351 196.765 95.179 200.021 91.1623 200.021C87.1457 200.021 83.8896 196.765 83.8896 192.748C83.8896 188.731 87.1457 185.475 91.1623 185.475C95.179 185.475 98.4351 188.731 98.4351 192.748Z" stroke="black" stroke-width="1.25" stroke-miterlimit="10" stroke-linecap="round" stroke-linejoin="round"/>
<path d="M105.847 201.426C105.847 205.443 102.591 208.699 98.5741 208.699C94.5575 208.699 91.3014 205.443 91.3014 201.426C91.3014 197.409 94.5575 194.153 98.5741 194.153C102.591 194.153 105.847 197.409 105.847 201.426Z" stroke="black" stroke-width="1.25" stroke-miterlimit="10" stroke-linecap="round" stroke-linejoin="round"/>
<path d="M114.525 208.838C114.525 212.854 111.269 216.11 107.252 216.11C103.235 216.11 99.9794 212.854 99.9794 208.838C99.9794 204.821 103.235 201.565 107.252 201.565C111.269 201.565 114.525 204.821 114.525 208.838Z" stroke="black" stroke-width="1.25" stroke-miterlimit="10" stroke-linecap="round" stroke-linejoin="round"/>
<path d="M124.255 214.801C124.255 218.817 120.999 222.073 116.983 222.073C112.966 222.073 109.71 218.817 109.71 214.801C109.71 210.784 112.966 207.528 116.983 207.528C120.999 207.528 124.255 210.784 124.255 214.801Z" stroke="black" stroke-width="1.25" stroke-miterlimit="10" stroke-linecap="round" stroke-linejoin="round"/>
<path d="M134.799 219.168C134.799 223.184 131.543 226.441 127.526 226.441C123.509 226.441 120.253 223.184 120.253 219.168C120.253 215.151 123.509 211.895 127.526 211.895C131.543 211.895 134.799 215.151 134.799 219.168Z" stroke="black" stroke-width="1.25" stroke-miterlimit="10" stroke-linecap="round" stroke-linejoin="round"/>
<path d="M145.896 221.832C145.896 225.849 142.64 229.105 138.623 229.105C134.606 229.105 131.35 225.849 131.35 221.832C131.35 217.815 134.606 214.559 138.623 214.559C142.64 214.559 145.896 217.815 145.896 221.832Z" stroke="black" stroke-width="1.25" stroke-miterlimit="10" stroke-linecap="round" stroke-linejoin="round"/>
<path d="M157.273 222.727C157.273 226.744 154.016 230 150 230C145.983 230 142.727 226.744 142.727 222.727C142.727 218.711 145.983 215.454 150 215.454C154.016 215.454 157.273 218.711 157.273 222.727Z" stroke="black" stroke-width="1.25" stroke-miterlimit="10" stroke-linecap="round" stroke-linejoin="round"/>
<path d="M168.65 221.832C168.65 225.849 165.394 229.105 161.377 229.105C157.361 229.105 154.104 225.849 154.104 221.832C154.104 217.815 157.361 214.559 161.377 214.559C165.394 214.559 168.65 217.815 168.65 221.832Z" stroke="black" stroke-width="1.25" stroke-miterlimit="10" stroke-linecap="round" stroke-linejoin="round"/>
<path d="M179.747 219.168C179.747 223.184 176.49 226.441 172.474 226.441C168.457 226.441 165.201 223.184 165.201 219.168C165.201 215.151 168.457 211.895 172.474 211.895C176.49 211.895 179.747 215.151 179.747 219.168Z" stroke="black" stroke-width="1.25" stroke-miterlimit="10" stroke-linecap="round" stroke-linejoin="round"/>
<path d="M190.29 214.801C190.29 218.817 187.034 222.073 183.017 222.073C179.001 222.073 175.745 218.817 175.745 214.801C175.745 210.784 179.001 207.528 183.017 207.528C187.034 207.528 190.29 210.784 190.29 214.801Z" stroke="black" stroke-width="1.25" stroke-miterlimit="10" stroke-linecap="round" stroke-linejoin="round"/>
<path d="M200.021 208.838C200.021 212.854 196.765 216.11 192.748 216.11C188.731 216.11 185.475 212.854 185.475 208.838C185.475 204.821 188.731 201.565 192.748 201.565C196.765 201.565 200.021 204.821 200.021 208.838Z" stroke="black" stroke-width="1.25" stroke-miterlimit="10" stroke-linecap="round" stroke-linejoin="round"/>
<path d="M208.699 201.426C208.699 205.443 205.443 208.699 201.426 208.699C197.409 208.699 194.153 205.443 194.153 201.426C194.153 197.409 197.409 194.153 201.426 194.153C205.443 194.153 208.699 197.409 208.699 201.426Z" stroke="black" stroke-width="1.25" stroke-miterlimit="10" stroke-linecap="round" stroke-linejoin="round"/>
<path d="M216.11 192.748C216.11 196.765 212.854 200.021 208.838 200.021C204.821 200.021 201.565 196.765 201.565 192.748C201.565 188.731 204.821 185.475 208.838 185.475C212.854 185.475 216.11 188.731 216.11 192.748Z" stroke="black" stroke-width="1.25" stroke-miterlimit="10" stroke-linecap="round" stroke-linejoin="round"/>
<path d="M222.073 183.017C222.073 187.034 218.817 190.29 214.801 190.29C210.784 190.29 207.528 187.034 207.528 183.017C207.528 179.001 210.784 175.745 214.801 175.745C218.817 175.745 222.073 179.001 222.073 183.017Z" stroke="black" stroke-width="1.25" stroke-miterlimit="10" stroke-linecap="round" stroke-linejoin="round"/>
<path d="M226.44 172.474C226.44 176.491 223.184 179.747 219.168 179.747C215.151 179.747 211.895 176.491 211.895 172.474C211.895 168.457 215.151 165.201 219.168 165.201C223.184 165.201 226.44 168.457 226.44 172.474Z" stroke="black" stroke-width="1.25" stroke-miterlimit="10" stroke-linecap="round" stroke-linejoin="round"/>
<path d="M229.105 161.377C229.105 165.394 225.848 168.65 221.832 168.65C217.815 168.65 214.559 165.394 214.559 161.377C214.559 157.36 217.815 154.104 221.832 154.104C225.848 154.104 229.105 157.36 229.105 161.377Z" stroke="black" stroke-width="1.25" stroke-miterlimit="10" stroke-linecap="round" stroke-linejoin="round"/>
<path d="M230 150C230 154.017 226.744 157.273 222.727 157.273C218.711 157.273 215.455 154.017 215.455 150C215.455 145.983 218.711 142.727 222.727 142.727C226.744 142.727 230 145.983 230 150Z" stroke="black" stroke-width="1.25" stroke-miterlimit="10" stroke-linecap="round" stroke-linejoin="round"/>
<path d="M250 150C250 155.021 245.93 159.091 240.909 159.091C235.888 159.091 231.818 155.021 231.818 150C231.818 144.979 235.888 140.909 240.909 140.909C245.93 140.909 250 144.979 250 150Z" stroke="black" stroke-width="1.5" stroke-miterlimit="10" stroke-linecap="round" stroke-linejoin="round"/>
<path d="M248.881 135.779C248.881 140.799 244.81 144.87 239.79 144.87C234.769 144.87 230.699 140.799 230.699 135.779C230.699 130.758 234.769 126.688 239.79 126.688C244.81 126.688 248.881 130.758 248.881 135.779Z" stroke="black" stroke-width="1.5" stroke-miterlimit="10" stroke-linecap="round" stroke-linejoin="round"/>
<path d="M245.55 121.908C245.55 126.928 241.48 130.998 236.46 130.998C231.439 130.998 227.369 126.928 227.369 121.908C227.369 116.887 231.439 112.817 236.46 112.817C241.48 112.817 245.55 116.887 245.55 121.908Z" stroke="black" stroke-width="1.5" stroke-miterlimit="10" stroke-linecap="round" stroke-linejoin="round"/>
<path d="M240.091 108.728C240.091 113.749 236.021 117.819 231.001 117.819C225.98 117.819 221.91 113.749 221.91 108.728C221.91 103.707 225.98 99.6372 231.001 99.6372C236.021 99.6372 240.091 103.707 240.091 108.728Z" stroke="black" stroke-width="1.5" stroke-miterlimit="10" stroke-linecap="round" stroke-linejoin="round"/>
<path d="M232.638 96.565C232.638 101.586 228.568 105.656 223.547 105.656C218.526 105.656 214.456 101.586 214.456 96.565C214.456 91.5443 218.526 87.4741 223.547 87.4741C228.568 87.4741 232.638 91.5443 232.638 96.565Z" stroke="black" stroke-width="1.5" stroke-miterlimit="10" stroke-linecap="round" stroke-linejoin="round"/>
<path d="M223.373 85.7176C223.373 90.7384 219.303 94.8085 214.283 94.8085C209.262 94.8085 205.192 90.7384 205.192 85.7176C205.192 80.6968 209.262 76.6267 214.283 76.6267C219.303 76.6267 223.373 80.6968 223.373 85.7176Z" stroke="black" stroke-width="1.5" stroke-miterlimit="10" stroke-linecap="round" stroke-linejoin="round"/>
<path d="M212.526 76.4531C212.526 81.4739 208.456 85.544 203.435 85.544C198.414 85.544 194.344 81.4739 194.344 76.4531C194.344 71.4323 198.414 67.3622 203.435 67.3622C208.456 67.3622 212.526 71.4323 212.526 76.4531Z" stroke="black" stroke-width="1.5" stroke-miterlimit="10" stroke-linecap="round" stroke-linejoin="round"/>
<path d="M200.363 68.9994C200.363 74.0202 196.293 78.0903 191.272 78.0903C186.251 78.0903 182.181 74.0202 182.181 68.9994C182.181 63.9786 186.251 59.9085 191.272 59.9085C196.293 59.9085 200.363 63.9786 200.363 68.9994Z" stroke="black" stroke-width="1.5" stroke-miterlimit="10" stroke-linecap="round" stroke-linejoin="round"/>
<path d="M187.184 63.5403C187.184 68.561 183.113 72.6312 178.093 72.6312C173.072 72.6312 169.002 68.561 169.002 63.5403C169.002 58.5195 173.072 54.4493 178.093 54.4493C183.113 54.4493 187.184 58.5195 187.184 63.5403Z" stroke="black" stroke-width="1.5" stroke-miterlimit="10" stroke-linecap="round" stroke-linejoin="round"/>
<path d="M173.312 60.2102C173.312 65.2309 169.242 69.3011 164.221 69.3011C159.201 69.3011 155.131 65.2309 155.131 60.2102C155.131 55.1894 159.201 51.1193 164.221 51.1193C169.242 51.1193 173.312 55.1894 173.312 60.2102Z" stroke="black" stroke-width="1.5" stroke-miterlimit="10" stroke-linecap="round" stroke-linejoin="round"/>
<path d="M159.091 59.0909C159.091 64.1117 155.021 68.1818 150 68.1818C144.979 68.1818 140.909 64.1117 140.909 59.0909C140.909 54.0701 144.979 50 150 50C155.021 50 159.091 54.0701 159.091 59.0909Z" stroke="black" stroke-width="1.5" stroke-miterlimit="10" stroke-linecap="round" stroke-linejoin="round"/>
<path d="M144.869 60.2102C144.869 65.2309 140.799 69.3011 135.779 69.3011C130.758 69.3011 126.688 65.2309 126.688 60.2102C126.688 55.1894 130.758 51.1193 135.779 51.1193C140.799 51.1193 144.869 55.1894 144.869 60.2102Z" stroke="black" stroke-width="1.5" stroke-miterlimit="10" stroke-linecap="round" stroke-linejoin="round"/>
<path d="M130.998 63.5403C130.998 68.561 126.928 72.6312 121.907 72.6312C116.887 72.6312 112.816 68.561 112.816 63.5403C112.816 58.5195 116.887 54.4493 121.907 54.4493C126.928 54.4493 130.998 58.5195 130.998 63.5403Z" stroke="black" stroke-width="1.5" stroke-miterlimit="10" stroke-linecap="round" stroke-linejoin="round"/>
<path d="M117.819 68.9994C117.819 74.0202 113.749 78.0903 108.728 78.0903C103.707 78.0903 99.6372 74.0202 99.6372 68.9994C99.6372 63.9786 103.707 59.9085 108.728 59.9085C113.749 59.9085 117.819 63.9786 117.819 68.9994Z" stroke="black" stroke-width="1.5" stroke-miterlimit="10" stroke-linecap="round" stroke-linejoin="round"/>
<path d="M105.656 76.4531C105.656 81.4739 101.586 85.544 96.5648 85.544C91.5441 85.544 87.4739 81.4739 87.4739 76.4531C87.4739 71.4323 91.5441 67.3622 96.5648 67.3622C101.586 67.3622 105.656 71.4323 105.656 76.4531Z" stroke="black" stroke-width="1.5" stroke-miterlimit="10" stroke-linecap="round" stroke-linejoin="round"/>
<path d="M94.8083 85.7176C94.8083 90.7384 90.7382 94.8085 85.7174 94.8085C80.6967 94.8085 76.6265 90.7384 76.6265 85.7176C76.6265 80.6968 80.6967 76.6267 85.7174 76.6267C90.7382 76.6267 94.8083 80.6968 94.8083 85.7176Z" stroke="black" stroke-width="1.5" stroke-miterlimit="10" stroke-linecap="round" stroke-linejoin="round"/>
<path d="M85.544 96.565C85.544 101.586 81.4739 105.656 76.4531 105.656C71.4323 105.656 67.3622 101.586 67.3622 96.565C67.3622 91.5443 71.4323 87.4741 76.4531 87.4741C81.4739 87.4741 85.544 91.5443 85.544 96.565Z" stroke="black" stroke-width="1.5" stroke-miterlimit="10" stroke-linecap="round" stroke-linejoin="round"/>
<path d="M78.0903 108.728C78.0903 113.749 74.0202 117.819 68.9994 117.819C63.9786 117.819 59.9085 113.749 59.9085 108.728C59.9085 103.707 63.9786 99.6372 68.9994 99.6372C74.0202 99.6372 78.0903 103.707 78.0903 108.728Z" stroke="black" stroke-width="1.5" stroke-miterlimit="10" stroke-linecap="round" stroke-linejoin="round"/>
<path d="M72.6313 121.908C72.6313 126.928 68.5612 130.998 63.5404 130.998C58.5196 130.998 54.4495 126.928 54.4495 121.908C54.4495 116.887 58.5196 112.817 63.5404 112.817C68.5612 112.817 72.6313 116.887 72.6313 121.908Z" stroke="black" stroke-width="1.5" stroke-miterlimit="10" stroke-linecap="round" stroke-linejoin="round"/>
<path d="M69.3009 135.779C69.3009 140.799 65.2308 144.87 60.21 144.87C55.1892 144.87 51.1191 140.799 51.1191 135.779C51.1191 130.758 55.1892 126.688 60.21 126.688C65.2308 126.688 69.3009 130.758 69.3009 135.779Z" stroke="black" stroke-width="1.5" stroke-miterlimit="10" stroke-linecap="round" stroke-linejoin="round"/>
<path d="M68.1818 150C68.1818 155.021 64.1117 159.091 59.0909 159.091C54.0701 159.091 50 155.021 50 150C50 144.979 54.0701 140.909 59.0909 140.909C64.1117 140.909 68.1818 144.979 68.1818 150Z" stroke="black" stroke-width="1.5" stroke-miterlimit="10" stroke-linecap="round" stroke-linejoin="round"/>
<path d="M69.3009 164.221C69.3009 169.242 65.2308 173.312 60.21 173.312C55.1892 173.312 51.1191 169.242 51.1191 164.221C51.1191 159.201 55.1892 155.13 60.21 155.13C65.2308 155.13 69.3009 159.201 69.3009 164.221Z" stroke="black" stroke-width="1.5" stroke-miterlimit="10" stroke-linecap="round" stroke-linejoin="round"/>
<path d="M72.6313 178.092C72.6313 183.113 68.5612 187.183 63.5404 187.183C58.5196 187.183 54.4495 183.113 54.4495 178.092C54.4495 173.072 58.5196 169.002 63.5404 169.002C68.5612 169.002 72.6313 173.072 72.6313 178.092Z" stroke="black" stroke-width="1.5" stroke-miterlimit="10" stroke-linecap="round" stroke-linejoin="round"/>
<path d="M78.0903 191.272C78.0903 196.293 74.0202 200.363 68.9994 200.363C63.9786 200.363 59.9085 196.293 59.9085 191.272C59.9085 186.251 63.9786 182.181 68.9994 182.181C74.0202 182.181 78.0903 186.251 78.0903 191.272Z" stroke="black" stroke-width="1.5" stroke-miterlimit="10" stroke-linecap="round" stroke-linejoin="round"/>
<path d="M85.544 203.435C85.544 208.456 81.4739 212.526 76.4531 212.526C71.4323 212.526 67.3622 208.456 67.3622 203.435C67.3622 198.414 71.4323 194.344 76.4531 194.344C81.4739 194.344 85.544 198.414 85.544 203.435Z" stroke="black" stroke-width="1.5" stroke-miterlimit="10" stroke-linecap="round" stroke-linejoin="round"/>
<path d="M94.8083 214.282C94.8083 219.303 90.7382 223.373 85.7174 223.373C80.6967 223.373 76.6265 219.303 76.6265 214.282C76.6265 209.262 80.6967 205.191 85.7174 205.191C90.7382 205.191 94.8083 209.262 94.8083 214.282Z" stroke="black" stroke-width="1.5" stroke-miterlimit="10" stroke-linecap="round" stroke-linejoin="round"/>
<path d="M105.656 223.547C105.656 228.568 101.586 232.638 96.5648 232.638C91.5441 232.638 87.4739 228.568 87.4739 223.547C87.4739 218.526 91.5441 214.456 96.5648 214.456C101.586 214.456 105.656 218.526 105.656 223.547Z" stroke="black" stroke-width="1.5" stroke-miterlimit="10" stroke-linecap="round" stroke-linejoin="round"/>
<path d="M117.819 231.001C117.819 236.021 113.749 240.091 108.728 240.091C103.707 240.091 99.6372 236.021 99.6372 231.001C99.6372 225.98 103.707 221.91 108.728 221.91C113.749 221.91 117.819 225.98 117.819 231.001Z" stroke="black" stroke-width="1.5" stroke-miterlimit="10" stroke-linecap="round" stroke-linejoin="round"/>
<path d="M130.998 236.46C130.998 241.481 126.928 245.551 121.907 245.551C116.887 245.551 112.816 241.481 112.816 236.46C112.816 231.439 116.887 227.369 121.907 227.369C126.928 227.369 130.998 231.439 130.998 236.46Z" stroke="black" stroke-width="1.5" stroke-miterlimit="10" stroke-linecap="round" stroke-linejoin="round"/>
<path d="M144.869 239.79C144.869 244.811 140.799 248.881 135.779 248.881C130.758 248.881 126.688 244.811 126.688 239.79C126.688 234.769 130.758 230.699 135.779 230.699C140.799 230.699 144.869 234.769 144.869 239.79Z" stroke="black" stroke-width="1.5" stroke-miterlimit="10" stroke-linecap="round" stroke-linejoin="round"/>
<path d="M159.091 240.909C159.091 245.93 155.021 250 150 250C144.979 250 140.909 245.93 140.909 240.909C140.909 235.888 144.979 231.818 150 231.818C155.021 231.818 159.091 235.888 159.091 240.909Z" stroke="black" stroke-width="1.5" stroke-miterlimit="10" stroke-linecap="round" stroke-linejoin="round"/>
<path d="M173.312 239.79C173.312 244.811 169.242 248.881 164.221 248.881C159.201 248.881 155.131 244.811 155.131 239.79C155.131 234.769 159.201 230.699 164.221 230.699C169.242 230.699 173.312 234.769 173.312 239.79Z" stroke="black" stroke-width="1.5" stroke-miterlimit="10" stroke-linecap="round" stroke-linejoin="round"/>
<path d="M187.184 236.46C187.184 241.481 183.113 245.551 178.093 245.551C173.072 245.551 169.002 241.481 169.002 236.46C169.002 231.439 173.072 227.369 178.093 227.369C183.113 227.369 187.184 231.439 187.184 236.46Z" stroke="black" stroke-width="1.5" stroke-miterlimit="10" stroke-linecap="round" stroke-linejoin="round"/>
<path d="M200.363 231.001C200.363 236.021 196.293 240.091 191.272 240.091C186.251 240.091 182.181 236.021 182.181 231.001C182.181 225.98 186.251 221.91 191.272 221.91C196.293 221.91 200.363 225.98 200.363 231.001Z" stroke="black" stroke-width="1.5" stroke-miterlimit="10" stroke-linecap="round" stroke-linejoin="round"/>
<path d="M212.526 223.547C212.526 228.568 208.456 232.638 203.435 232.638C198.414 232.638 194.344 228.568 194.344 223.547C194.344 218.526 198.414 214.456 203.435 214.456C208.456 214.456 212.526 218.526 212.526 223.547Z" stroke="black" stroke-width="1.5" stroke-miterlimit="10" stroke-linecap="round" stroke-linejoin="round"/>
<path d="M223.373 214.282C223.373 219.303 219.303 223.373 214.283 223.373C209.262 223.373 205.192 219.303 205.192 214.282C205.192 209.262 209.262 205.191 214.283 205.191C219.303 205.191 223.373 209.262 223.373 214.282Z" stroke="black" stroke-width="1.5" stroke-miterlimit="10" stroke-linecap="round" stroke-linejoin="round"/>
<path d="M232.638 203.435C232.638 208.456 228.568 212.526 223.547 212.526C218.526 212.526 214.456 208.456 214.456 203.435C214.456 198.414 218.526 194.344 223.547 194.344C228.568 194.344 232.638 198.414 232.638 203.435Z" stroke="black" stroke-width="1.5" stroke-miterlimit="10" stroke-linecap="round" stroke-linejoin="round"/>
<path d="M240.091 191.272C240.091 196.293 236.021 200.363 231.001 200.363C225.98 200.363 221.91 196.293 221.91 191.272C221.91 186.251 225.98 182.181 231.001 182.181C236.021 182.181 240.091 186.251 240.091 191.272Z" stroke="black" stroke-width="1.5" stroke-miterlimit="10" stroke-linecap="round" stroke-linejoin="round"/>
<path d="M245.55 178.092C245.55 183.113 241.48 187.183 236.46 187.183C231.439 187.183 227.369 183.113 227.369 178.092C227.369 173.072 231.439 169.002 236.46 169.002C241.48 169.002 245.55 173.072 245.55 178.092Z" stroke="black" stroke-width="1.5" stroke-miterlimit="10" stroke-linecap="round" stroke-linejoin="round"/>
<path d="M248.881 164.221C248.881 169.242 244.81 173.312 239.79 173.312C234.769 173.312 230.699 169.242 230.699 164.221C230.699 159.201 234.769 155.13 239.79 155.13C244.81 155.13 248.881 159.201 248.881 164.221Z" stroke="black" stroke-width="1.5" stroke-miterlimit="10" stroke-linecap="round" stroke-linejoin="round"/>
<path d="M250 150C250 155.021 245.93 159.091 240.909 159.091C235.888 159.091 231.818 155.021 231.818 150C231.818 144.979 235.888 140.909 240.909 140.909C245.93 140.909 250 144.979 250 150Z" stroke="black" stroke-width="1.5" stroke-miterlimit="10" stroke-linecap="round" stroke-linejoin="round"/>
</svg>
