<svg width="300" height="300" viewBox="0 0 300 300" fill="none" xmlns="http://www.w3.org/2000/svg">
<path d="M150 150L153.307 149.797L156.574 149.189L159.763 148.182L162.836 146.785L165.754 145.009L168.481 142.871L170.983 140.389L173.227 137.585L175.182 134.483L176.819 131.112L178.111 127.501L179.037 123.683L179.574 119.691L179.692 117.641L179.706 115.562L179.616 113.458L179.419 111.334L179.115 109.194L178.702 107.044L178.18 104.889L177.547 102.734L176.805 100.584L175.952 98.4431L174.988 96.3176L173.914 94.2121L172.731 92.1317L171.439 90.0815L168.533 86.0917L165.206 82.2825L161.473 78.6925L159.46 76.9914L157.351 75.3592L155.151 73.8001L152.861 72.3186L150.485 70.9188L148.026 69.6048L145.488 68.3806L142.874 67.25L140.188 66.2166L137.434 65.2839L134.615 64.4552L131.737 63.7336L128.804 63.1222L125.82 62.6236L122.789 62.2405L119.718 61.9753L116.609 61.8302L113.469 61.807L110.303 61.9076L107.115 62.1336L103.911 62.4862L100.696 62.9666L97.4757 63.5756L94.2551 64.314L91.0397 65.1821L87.8349 66.1801L84.6463 67.3081L81.4791 68.5657L78.3389 69.9525L75.231 71.4677L72.161 73.1104L69.134 74.8794L66.1556 76.7732L63.2308 78.7904L60.3649 80.9289L57.5631 83.1867L54.8303 85.5615L52.1716 88.0508L49.5916 90.6519L47.0953 93.3618L44.6871 96.1775L42.3716 99.0956L40.1531 102.112L38.0358 105.225L36.0238 108.428L34.121 111.719L32.331 115.092L30.6574 118.545L29.1036 122.072L27.6728 125.668L26.3679 129.328L25.1918 133.049L24.147 136.824L23.2359 140.649L22.4607 144.519L21.8233 148.427L21.3255 152.369L20.9687 156.339L20.7541 160.331L20.683 164.341L20.756 168.362L20.9737 172.388L21.3365 176.414L21.8445 180.435L22.4976 184.444L23.2953 188.435L24.2371 192.404L25.3222 196.344L26.5494 200.25L27.9175 204.115L29.4249 207.936L31.0698 211.705L32.8503 215.418L34.7642 219.07L36.809 222.654L38.9821 226.167L41.2806 229.602L43.7014 232.956L46.2414 236.223L48.897 239.399L51.6647 242.479L54.5406 245.459L57.5207 248.335L60.6008 251.103L63.7767 253.759L67.0438 256.299L70.3975 258.719L73.8331 261.018L77.3457 263.191L80.9303 265.236L84.5818 267.15L88.2948 268.93L92.0642 270.575L95.8845 272.083L99.7503 273.451L103.656 274.678L107.596 275.763L111.565 276.705L115.556 277.502L119.565 278.155L123.586 278.663L127.612 279.026L131.638 279.244L135.659 279.317L139.669 279.246L143.661 279.031L147.631 278.675L151.573 278.177L155.481 277.539L159.351 276.764L163.176 275.853L166.951 274.808L170.672 273.632L174.332 272.327L177.928 270.896L181.455 269.343L184.908 267.669L188.281 265.879L191.572 263.976L194.775 261.964L197.888 259.847L200.904 257.628L203.822 255.313L206.638 252.905L209.348 250.408L211.949 247.828L214.438 245.17L216.813 242.437L219.071 239.635L221.21 236.769L223.227 233.844L225.121 230.866L226.89 227.839L228.532 224.769L230.048 221.661L231.434 218.521L232.692 215.354L233.82 212.165L234.818 208.96L235.686 205.745L236.424 202.524L237.033 199.304L237.514 196.089L237.866 192.885L238.092 189.697L238.193 186.531L238.17 183.391L238.025 180.282L237.759 177.211L237.376 174.18L236.878 171.196L236.266 168.263L235.545 165.385L234.716 162.566L233.783 159.812L232.75 157.126L231.619 154.512L230.395 151.974L229.081 149.515L227.681 147.139L226.2 144.849L224.641 142.649L223.009 140.54L221.308 138.527L217.718 134.794L213.908 131.467L209.919 128.561L207.868 127.269L205.788 126.086L203.682 125.012L201.557 124.048L199.416 123.195L197.266 122.453L195.111 121.82L192.956 121.298L190.806 120.885L188.666 120.581L186.542 120.384L184.438 120.294L182.359 120.308L180.309 120.426L176.317 120.963L172.499 121.889L168.888 123.181L165.517 124.818L162.415 126.773L159.611 129.017L157.129 131.519L154.991 134.246L153.215 137.164L151.818 140.237L150.811 143.426L150.203 146.693L150 150ZM150 150L150.203 153.307L150.811 156.574L151.818 159.763L153.215 162.836L154.991 165.754L157.129 168.481L159.611 170.983L162.415 173.227L165.517 175.182L168.888 176.819L172.499 178.111L176.317 179.037L180.309 179.574L182.359 179.692L184.438 179.706L186.542 179.616L188.666 179.419L190.806 179.115L192.956 178.702L195.111 178.18L197.266 177.547L199.416 176.805L201.557 175.952L203.682 174.988L205.788 173.914L207.868 172.731L209.919 171.439L213.908 168.533L217.718 165.206L221.308 161.473L223.009 159.46L224.641 157.351L226.2 155.151L227.681 152.861L229.081 150.485L230.395 148.026L231.619 145.488L232.75 142.874L233.783 140.188L234.716 137.434L235.545 134.615L236.266 131.737L236.878 128.804L237.376 125.82L237.759 122.789L238.025 119.718L238.17 116.609L238.193 113.469L238.092 110.303L237.866 107.115L237.514 103.911L237.033 100.696L236.424 97.4758L235.686 94.2551L234.818 91.0397L233.82 87.835L232.692 84.6463L231.434 81.4791L230.048 78.3389L228.532 75.231L226.89 72.161L225.121 69.1341L223.227 66.1556L221.21 63.2308L219.071 60.365L216.813 57.5631L214.438 54.8303L211.949 52.1716L209.348 49.5916L206.638 47.0953L203.822 44.6871L200.904 42.3716L197.888 40.1531L194.775 38.0358L191.572 36.0238L188.281 34.1209L184.908 32.331L181.455 30.6574L177.928 29.1036L174.332 27.6728L170.672 26.3679L166.951 25.1918L163.176 24.147L159.351 23.236L155.481 22.4607L151.573 21.8233L147.631 21.3255L143.661 20.9687L139.669 20.7541L135.659 20.683L131.638 20.756L127.612 20.9737L123.586 21.3365L119.565 21.8446L115.556 22.4976L111.565 23.2953L107.596 24.2372L103.656 25.3222L99.7503 26.5494L95.8845 27.9175L92.0642 29.4249L88.2948 31.0698L84.5818 32.8503L80.9303 34.7642L77.3457 36.809L73.8331 38.9821L70.3975 41.2806L67.0438 43.7014L63.7767 46.2414L60.6008 48.897L57.5207 51.6647L54.5406 54.5406L51.6647 57.5207L48.897 60.6008L46.2414 63.7767L43.7014 67.0438L41.2806 70.3975L38.9821 73.8331L36.809 77.3457L34.7642 80.9303L32.8503 84.5818L31.0698 88.2948L29.4249 92.0642L27.9175 95.8845L26.5494 99.7503L25.3222 103.656L24.2371 107.596L23.2953 111.565L22.4976 115.556L21.8445 119.565L21.3365 123.586L20.9737 127.612L20.756 131.638L20.683 135.659L20.7541 139.669L20.9687 143.661L21.3255 147.631L21.8233 151.573L22.4607 155.481L23.2359 159.351L24.147 163.176L25.1918 166.951L26.3679 170.672L27.6728 174.332L29.1036 177.929L30.6574 181.455L32.331 184.908L34.121 188.281L36.0238 191.572L38.0358 194.775L40.1531 197.888L42.3716 200.904L44.6871 203.823L47.0953 206.638L49.5916 209.348L52.1716 211.949L54.8303 214.438L57.5631 216.813L60.3649 219.071L63.2308 221.21L66.1556 223.227L69.134 225.121L72.161 226.89L75.231 228.532L78.3389 230.048L81.4791 231.434L84.6463 232.692L87.8349 233.82L91.0397 234.818L94.2551 235.686L97.4757 236.424L100.696 237.033L103.911 237.514L107.115 237.866L110.303 238.092L113.469 238.193L116.609 238.17L119.718 238.025L122.789 237.759L125.82 237.376L128.804 236.878L131.737 236.266L134.615 235.545L137.434 234.716L140.188 233.783L142.874 232.75L145.488 231.619L148.026 230.395L150.485 229.081L152.861 227.681L155.151 226.2L157.351 224.641L159.46 223.009L161.473 221.308L165.206 217.718L168.533 213.908L171.439 209.919L172.731 207.868L173.914 205.788L174.988 203.682L175.952 201.557L176.805 199.416L177.547 197.266L178.18 195.111L178.702 192.956L179.115 190.806L179.419 188.666L179.616 186.542L179.706 184.438L179.692 182.359L179.574 180.309L179.037 176.317L178.111 172.499L176.819 168.888L175.182 165.517L173.227 162.415L170.983 159.611L168.481 157.129L165.754 154.991L162.836 153.215L159.763 151.818L156.574 150.811L153.307 150.203L150 150ZM150 150L146.693 150.203L143.426 150.811L140.237 151.818L137.164 153.215L134.246 154.991L131.519 157.129L129.017 159.611L126.773 162.415L124.818 165.517L123.181 168.888L121.889 172.499L120.963 176.317L120.426 180.309L120.308 182.359L120.294 184.438L120.384 186.542L120.581 188.666L120.885 190.806L121.298 192.956L121.82 195.111L122.453 197.266L123.195 199.416L124.048 201.557L125.012 203.682L126.086 205.788L127.269 207.868L128.561 209.919L131.467 213.908L134.794 217.718L138.527 221.308L140.54 223.009L142.649 224.641L144.849 226.2L147.139 227.681L149.515 229.081L151.974 230.395L154.512 231.619L157.126 232.75L159.812 233.783L162.566 234.716L165.385 235.545L168.263 236.266L171.196 236.878L174.18 237.376L177.211 237.759L180.282 238.025L183.391 238.17L186.531 238.193L189.697 238.092L192.885 237.866L196.089 237.514L199.304 237.033L202.524 236.424L205.745 235.686L208.96 234.818L212.165 233.82L215.354 232.692L218.521 231.434L221.661 230.048L224.769 228.532L227.839 226.89L230.866 225.121L233.844 223.227L236.769 221.21L239.635 219.071L242.437 216.813L245.17 214.438L247.828 211.949L250.408 209.348L252.905 206.638L255.313 203.823L257.628 200.904L259.847 197.888L261.964 194.775L263.976 191.572L265.879 188.281L267.669 184.908L269.343 181.455L270.896 177.929L272.327 174.332L273.632 170.672L274.808 166.951L275.853 163.176L276.764 159.351L277.539 155.481L278.177 151.573L278.675 147.631L279.031 143.661L279.246 139.669L279.317 135.659L279.244 131.638L279.026 127.612L278.663 123.586L278.155 119.565L277.502 115.556L276.705 111.565L275.763 107.596L274.678 103.656L273.451 99.7503L272.082 95.8845L270.575 92.0642L268.93 88.2948L267.15 84.5818L265.236 80.9303L263.191 77.3457L261.018 73.8331L258.719 70.3975L256.299 67.0438L253.759 63.7767L251.103 60.6008L248.335 57.5207L245.459 54.5406L242.479 51.6647L239.399 48.897L236.223 46.2414L232.956 43.7014L229.602 41.2806L226.167 38.9821L222.654 36.809L219.07 34.7642L215.418 32.8503L211.705 31.0698L207.936 29.4249L204.115 27.9175L200.25 26.5494L196.344 25.3222L192.404 24.2372L188.435 23.2953L184.444 22.4976L180.435 21.8446L176.414 21.3365L172.388 20.9737L168.362 20.756L164.341 20.683L160.331 20.7541L156.339 20.9687L152.369 21.3255L148.427 21.8233L144.519 22.4607L140.649 23.236L136.824 24.147L133.049 25.1918L129.328 26.3679L125.668 27.6728L122.071 29.1036L118.545 30.6574L115.092 32.331L111.719 34.1209L108.428 36.0238L105.225 38.0358L102.112 40.1531L99.0956 42.3716L96.1775 44.6871L93.3618 47.0953L90.6519 49.5916L88.0508 52.1716L85.5615 54.8303L83.1867 57.5631L80.9289 60.365L78.7904 63.2308L76.7732 66.1556L74.8794 69.1341L73.1104 72.161L71.4677 75.231L69.9525 78.3389L68.5657 81.4791L67.3081 84.6463L66.1801 87.835L65.1821 91.0397L64.314 94.2551L63.5756 97.4758L62.9666 100.696L62.4862 103.911L62.1336 107.115L61.9076 110.303L61.807 113.469L61.8301 116.609L61.9753 119.718L62.2405 122.789L62.6236 125.82L63.1222 128.804L63.7336 131.737L64.4552 134.615L65.2839 137.434L66.2166 140.188L67.25 142.874L68.3806 145.488L69.6048 148.026L70.9188 150.485L72.3186 152.861L73.8001 155.151L75.3592 157.351L76.9914 159.46L78.6925 161.473L82.2825 165.206L86.0917 168.533L90.0815 171.439L92.1317 172.731L94.2121 173.914L96.3176 174.988L98.4431 175.952L100.584 176.805L102.734 177.547L104.889 178.18L107.044 178.702L109.194 179.115L111.334 179.419L113.458 179.616L115.562 179.706L117.641 179.692L119.691 179.574L123.683 179.037L127.501 178.111L131.112 176.819L134.483 175.182L137.585 173.227L140.389 170.983L142.871 168.481L145.009 165.754L146.785 162.836L148.182 159.763L149.189 156.574L149.797 153.307L150 150ZM150 150L149.797 146.693L149.189 143.426L148.182 140.237L146.785 137.164L145.009 134.246L142.871 131.519L140.389 129.017L137.585 126.773L134.483 124.818L131.112 123.181L127.501 121.889L123.683 120.963L119.691 120.426L117.641 120.308L115.562 120.294L113.458 120.384L111.334 120.581L109.194 120.885L107.044 121.298L104.889 121.82L102.734 122.453L100.584 123.195L98.4431 124.048L96.3176 125.012L94.2121 126.086L92.1317 127.269L90.0815 128.561L86.0917 131.467L82.2825 134.794L78.6925 138.527L76.9914 140.54L75.3592 142.649L73.8001 144.849L72.3186 147.139L70.9188 149.515L69.6048 151.974L68.3806 154.512L67.25 157.126L66.2166 159.812L65.2839 162.566L64.4552 165.385L63.7336 168.263L63.1222 171.196L62.6236 174.18L62.2405 177.211L61.9753 180.282L61.8301 183.391L61.807 186.531L61.9076 189.697L62.1336 192.885L62.4862 196.089L62.9666 199.304L63.5756 202.524L64.314 205.745L65.1821 208.96L66.1801 212.165L67.3081 215.354L68.5657 218.521L69.9525 221.661L71.4677 224.769L73.1104 227.839L74.8794 230.866L76.7732 233.844L78.7904 236.769L80.9289 239.635L83.1867 242.437L85.5615 245.17L88.0508 247.828L90.6519 250.408L93.3618 252.905L96.1775 255.313L99.0956 257.628L102.112 259.847L105.225 261.964L108.428 263.976L111.719 265.879L115.092 267.669L118.545 269.343L122.071 270.896L125.668 272.327L129.328 273.632L133.049 274.808L136.824 275.853L140.649 276.764L144.519 277.539L148.427 278.177L152.369 278.675L156.339 279.031L160.331 279.246L164.341 279.317L168.362 279.244L172.388 279.026L176.414 278.663L180.435 278.155L184.444 277.502L188.435 276.705L192.404 275.763L196.344 274.678L200.25 273.451L204.115 272.083L207.936 270.575L211.705 268.93L215.418 267.15L219.07 265.236L222.654 263.191L226.167 261.018L229.602 258.719L232.956 256.299L236.223 253.759L239.399 251.103L242.479 248.335L245.459 245.459L248.335 242.479L251.103 239.399L253.759 236.223L256.299 232.956L258.719 229.602L261.018 226.167L263.191 222.654L265.236 219.07L267.15 215.418L268.93 211.705L270.575 207.936L272.082 204.115L273.451 200.25L274.678 196.344L275.763 192.404L276.705 188.435L277.502 184.444L278.155 180.435L278.663 176.414L279.026 172.388L279.244 168.362L279.317 164.341L279.246 160.331L279.031 156.339L278.675 152.369L278.177 148.427L277.539 144.519L276.764 140.649L275.853 136.824L274.808 133.049L273.632 129.328L272.327 125.668L270.896 122.072L269.343 118.545L267.669 115.092L265.879 111.719L263.976 108.428L261.964 105.225L259.847 102.112L257.628 99.0956L255.313 96.1775L252.905 93.3618L250.408 90.6519L247.828 88.0508L245.17 85.5615L242.437 83.1867L239.635 80.9289L236.769 78.7904L233.844 76.7732L230.866 74.8794L227.839 73.1104L224.769 71.4677L221.661 69.9525L218.521 68.5657L215.354 67.3081L212.165 66.1801L208.96 65.1821L205.745 64.314L202.524 63.5756L199.304 62.9666L196.089 62.4862L192.885 62.1336L189.697 61.9076L186.531 61.807L183.391 61.8302L180.282 61.9753L177.211 62.2405L174.18 62.6236L171.196 63.1222L168.263 63.7336L165.385 64.4552L162.566 65.2839L159.812 66.2166L157.126 67.25L154.512 68.3806L151.974 69.6048L149.515 70.9188L147.139 72.3186L144.849 73.8001L142.649 75.3592L140.54 76.9914L138.527 78.6925L134.794 82.2825L131.467 86.0917L128.561 90.0815L127.269 92.1317L126.086 94.2121L125.012 96.3176L124.048 98.4431L123.195 100.584L122.453 102.734L121.82 104.889L121.298 107.044L120.885 109.194L120.581 111.334L120.384 113.458L120.294 115.562L120.308 117.641L120.426 119.691L120.963 123.683L121.889 127.501L123.181 131.112L124.818 134.483L126.773 137.585L129.017 140.389L131.519 142.871L134.246 145.009L137.164 146.785L140.237 148.182L143.426 149.189L146.693 149.797L150 150Z" stroke="black" stroke-width="2" stroke-miterlimit="10" stroke-linecap="round" stroke-linejoin="round"/>
<path d="M150 150L147.518 152.195L144.778 154.075L141.811 155.618L138.65 156.803L135.331 157.611L131.891 158.027L128.366 158.041L124.797 157.645L121.222 156.834L117.681 155.608L114.213 153.969L110.859 151.923L107.656 149.48L104.643 146.654L101.856 143.461L99.3304 139.921L97.0991 136.057L96.1036 134.011L95.1933 131.894L94.3716 129.71L93.642 127.462L93.0076 125.154L92.4714 122.791L92.0364 120.376L91.7052 117.915L91.4803 115.411L91.3639 112.869L91.3582 110.294L91.465 107.691L91.686 105.064L92.0227 102.419L92.4763 99.7608L93.0478 97.0941L93.738 94.4242L94.5476 91.7565L95.4768 89.096L96.5258 86.4481L97.6944 83.8179L98.9825 81.2108L100.389 78.632L101.914 76.0867L103.556 73.5802L105.314 71.1175L107.186 68.7038L109.17 66.3442L111.265 64.0436L113.469 61.807L115.779 59.6391L118.193 57.5448L120.708 55.5286L123.321 53.595L126.029 51.7485L128.828 49.9933L131.716 48.3335L134.688 46.7731L137.74 45.3159L140.869 43.9657L144.07 42.7258L147.339 41.5996L150.671 40.5903L154.063 39.7008L157.508 38.9339L161.002 38.2921L164.541 37.7778L168.119 37.3931L171.73 37.14L175.37 37.0202L179.034 37.0351L182.715 37.1862L186.409 37.4743L190.11 37.9004L193.812 38.4649L197.51 39.1684L201.198 40.0109L204.87 40.9922L208.521 42.1121L212.146 43.3699L215.738 44.7649L219.293 46.296L222.804 47.9619L226.267 49.7611L229.675 51.6919L233.024 53.7524L236.308 55.9402L239.522 58.2531L242.662 60.6884L245.721 63.2433L248.696 65.9148L251.582 68.6997L254.373 71.5944L257.066 74.5955L259.657 77.699L262.14 80.9012L264.513 84.1977L266.772 87.5842L268.912 91.0564L270.931 94.6097L272.825 98.2392L274.591 101.94L276.226 105.707L277.728 109.536L279.095 113.42L280.324 117.356L281.412 121.336L282.36 125.357L283.164 129.411L283.512 131.45L283.823 133.494L284.099 135.545L284.338 137.601L284.54 139.661L284.705 141.724L284.834 143.791L284.926 145.859L284.982 147.929L285 150L284.982 152.071L284.926 154.141L284.834 156.209L284.705 158.276L284.54 160.339L284.338 162.399L284.099 164.455L283.823 166.506L283.512 168.55L283.164 170.589L282.36 174.643L281.412 178.664L280.324 182.644L279.095 186.58L277.728 190.464L276.226 194.293L274.591 198.06L272.825 201.761L270.931 205.39L268.912 208.944L266.772 212.416L264.513 215.802L262.14 219.099L259.657 222.301L257.066 225.405L254.373 228.406L251.582 231.3L248.696 234.085L245.721 236.757L242.662 239.312L239.522 241.747L236.308 244.06L233.024 246.248L229.675 248.308L226.267 250.239L222.804 252.038L219.293 253.704L215.738 255.235L212.146 256.63L208.521 257.888L204.87 259.008L201.198 259.989L197.51 260.832L193.812 261.535L190.11 262.1L186.409 262.526L182.715 262.814L179.034 262.965L175.37 262.98L171.73 262.86L168.119 262.607L164.541 262.222L161.002 261.708L157.508 261.066L154.063 260.299L150.671 259.41L147.339 258.4L144.07 257.274L140.869 256.034L137.74 254.684L134.688 253.227L131.716 251.667L128.828 250.007L126.029 248.251L123.321 246.405L120.708 244.471L118.193 242.455L115.779 240.361L113.469 238.193L111.265 235.956L109.17 233.656L107.186 231.296L105.314 228.882L103.556 226.42L101.914 223.913L100.389 221.368L98.9825 218.789L97.6944 216.182L96.5258 213.552L95.4768 210.904L94.5476 208.244L93.738 205.576L93.0478 202.906L92.4763 200.239L92.0227 197.581L91.686 194.936L91.465 192.309L91.3582 189.706L91.3639 187.131L91.4803 184.589L91.7052 182.085L92.0364 179.624L92.4714 177.209L93.0076 174.846L93.642 172.538L94.3716 170.29L95.1933 168.106L96.1036 165.989L97.0991 163.943L99.3304 160.079L101.856 156.539L104.643 153.346L107.656 150.52L110.859 148.077L114.213 146.031L117.681 144.392L121.222 143.166L124.797 142.355L128.366 141.959L131.891 141.973L135.331 142.389L138.65 143.197L141.811 144.382L144.778 145.925L147.518 147.805L150 150ZM150 150L152.195 147.518L154.075 144.778L155.618 141.811L156.803 138.65L157.611 135.331L158.027 131.891L158.041 128.366L157.645 124.797L156.834 121.222L155.608 117.681L153.969 114.213L151.923 110.859L149.48 107.656L146.654 104.643L143.461 101.856L139.921 99.3304L136.057 97.0991L134.011 96.1036L131.894 95.1933L129.71 94.3716L127.462 93.642L125.154 93.0076L122.791 92.4714L120.376 92.0364L117.915 91.7052L115.411 91.4803L112.869 91.3639L110.294 91.3582L107.691 91.465L105.064 91.686L102.419 92.0227L99.7608 92.4763L97.0941 93.0478L94.4242 93.738L91.7565 94.5476L89.096 95.4768L86.4481 96.5258L83.8179 97.6944L81.2108 98.9825L78.632 100.389L76.0867 101.914L73.5802 103.556L71.1175 105.314L68.7038 107.186L66.3442 109.17L64.0436 111.265L61.807 113.469L59.6391 115.779L57.5448 118.193L55.5286 120.708L53.595 123.321L51.7485 126.029L49.9933 128.828L48.3335 131.716L46.7731 134.688L45.3159 137.74L43.9657 140.869L42.7258 144.07L41.5996 147.339L40.5903 150.671L39.7008 154.063L38.9339 157.508L38.2921 161.002L37.7778 164.541L37.3931 168.119L37.14 171.73L37.0202 175.37L37.0351 179.034L37.1862 182.715L37.4743 186.409L37.9004 190.11L38.4649 193.812L39.1684 197.51L40.0108 201.198L40.9922 204.87L42.1121 208.521L43.3699 212.146L44.7649 215.738L46.296 219.293L47.9619 222.804L49.7611 226.267L51.6919 229.675L53.7524 233.024L55.9402 236.308L58.2531 239.522L60.6884 242.662L63.2434 245.721L65.9148 248.696L68.6997 251.582L71.5944 254.373L74.5955 257.066L77.699 259.657L80.9012 262.14L84.1977 264.513L87.5842 266.772L91.0564 268.912L94.6097 270.931L98.2392 272.825L101.94 274.591L105.707 276.226L109.536 277.728L113.42 279.095L117.356 280.324L121.336 281.412L125.357 282.36L129.411 283.164L131.45 283.512L133.494 283.823L135.545 284.099L137.601 284.337L139.661 284.54L141.724 284.705L143.791 284.834L145.859 284.926L147.929 284.982L150 285L152.071 284.982L154.141 284.926L156.209 284.834L158.276 284.705L160.339 284.54L162.399 284.337L164.455 284.099L166.506 283.823L168.55 283.512L170.589 283.164L174.643 282.36L178.664 281.412L182.644 280.324L186.58 279.095L190.464 277.728L194.293 276.226L198.06 274.591L201.761 272.825L205.39 270.931L208.944 268.912L212.416 266.772L215.802 264.513L219.099 262.14L222.301 259.657L225.405 257.066L228.406 254.373L231.3 251.582L234.085 248.696L236.757 245.721L239.312 242.662L241.747 239.522L244.06 236.308L246.248 233.024L248.308 229.675L250.239 226.267L252.038 222.804L253.704 219.293L255.235 215.738L256.63 212.146L257.888 208.521L259.008 204.87L259.989 201.198L260.832 197.51L261.535 193.812L262.1 190.11L262.526 186.409L262.814 182.715L262.965 179.034L262.98 175.37L262.86 171.73L262.607 168.119L262.222 164.541L261.708 161.002L261.066 157.508L260.299 154.063L259.41 150.671L258.4 147.339L257.274 144.07L256.034 140.869L254.684 137.74L253.227 134.688L251.667 131.716L250.007 128.828L248.251 126.029L246.405 123.321L244.471 120.708L242.455 118.193L240.361 115.779L238.193 113.469L235.956 111.265L233.656 109.17L231.296 107.186L228.882 105.314L226.42 103.556L223.913 101.914L221.368 100.389L218.789 98.9825L216.182 97.6944L213.552 96.5258L210.904 95.4768L208.244 94.5476L205.576 93.738L202.906 93.0478L200.239 92.4763L197.581 92.0227L194.936 91.686L192.309 91.465L189.706 91.3582L187.131 91.3639L184.589 91.4803L182.085 91.7052L179.624 92.0364L177.209 92.4714L174.846 93.0076L172.538 93.642L170.29 94.3716L168.106 95.1933L165.989 96.1036L163.943 97.0991L160.079 99.3304L156.539 101.856L153.346 104.643L150.52 107.656L148.077 110.859L146.031 114.213L144.392 117.681L143.166 121.222L142.355 124.797L141.959 128.366L141.973 131.891L142.389 135.331L143.197 138.65L144.382 141.811L145.925 144.778L147.805 147.518L150 150ZM150 150L152.482 152.195L155.222 154.075L158.189 155.618L161.35 156.803L164.669 157.611L168.109 158.027L171.634 158.041L175.203 157.645L178.778 156.834L182.319 155.608L185.787 153.969L189.141 151.923L192.344 149.48L195.357 146.654L198.144 143.461L200.67 139.921L202.901 136.057L203.896 134.011L204.807 131.894L205.628 129.71L206.358 127.462L206.992 125.154L207.529 122.791L207.964 120.376L208.295 117.915L208.52 115.411L208.636 112.869L208.642 110.294L208.535 107.691L208.314 105.064L207.977 102.419L207.524 99.7608L206.952 97.0941L206.262 94.4242L205.452 91.7565L204.523 89.096L203.474 86.4481L202.306 83.8179L201.018 81.2108L199.611 78.632L198.086 76.0867L196.444 73.5802L194.686 71.1175L192.814 68.7038L190.83 66.3442L188.735 64.0436L186.531 61.807L184.221 59.6391L181.807 57.5448L179.292 55.5286L176.679 53.595L173.971 51.7485L171.172 49.9933L168.284 48.3335L165.312 46.7731L162.26 45.3159L159.131 43.9657L155.93 42.7258L152.661 41.5996L149.329 40.5903L145.937 39.7008L142.492 38.9339L138.998 38.2921L135.459 37.7778L131.881 37.3931L128.27 37.14L124.63 37.0202L120.966 37.0351L117.285 37.1862L113.591 37.4743L109.89 37.9004L106.188 38.4649L102.49 39.1684L98.8025 40.0109L95.1301 40.9922L91.4788 42.1121L87.8541 43.3699L84.2618 44.7649L80.7072 46.296L77.1959 47.9619L73.7334 49.7611L70.3251 51.6919L66.9762 53.7524L63.692 55.9402L60.4777 58.2531L57.3383 60.6884L54.2788 63.2433L51.3039 65.9148L48.4185 68.6997L45.6269 71.5944L42.9338 74.5955L40.3434 77.699L37.8597 80.9012L35.4867 84.1977L33.2283 87.5842L31.088 91.0564L29.0693 94.6097L27.1754 98.2392L25.4092 101.94L23.7738 105.707L22.2715 109.536L20.905 113.42L19.6764 117.356L18.5876 121.336L17.6404 125.357L16.8363 129.411L16.4884 131.45L16.1767 133.494L15.9013 135.545L15.6625 137.601L15.4602 139.661L15.2946 141.724L15.1658 143.791L15.0737 145.859L15.0184 147.929L15 150L15.0184 152.071L15.0737 154.141L15.1658 156.209L15.2946 158.276L15.4602 160.339L15.6625 162.399L15.9013 164.455L16.1767 166.506L16.4884 168.55L16.8363 170.589L17.6404 174.643L18.5876 178.664L19.6764 182.644L20.905 186.58L22.2715 190.464L23.7738 194.293L25.4092 198.06L27.1754 201.761L29.0693 205.39L31.088 208.944L33.2283 212.416L35.4867 215.802L37.8597 219.099L40.3434 222.301L42.9338 225.405L45.6269 228.406L48.4185 231.3L51.3039 234.085L54.2788 236.757L57.3383 239.312L60.4777 241.747L63.692 244.06L66.9762 246.248L70.3251 248.308L73.7334 250.239L77.1959 252.038L80.7072 253.704L84.2618 255.235L87.8541 256.63L91.4788 257.888L95.1301 259.008L98.8025 259.989L102.49 260.832L106.188 261.535L109.89 262.1L113.591 262.526L117.285 262.814L120.966 262.965L124.63 262.98L128.27 262.86L131.881 262.607L135.459 262.222L138.998 261.708L142.492 261.066L145.937 260.299L149.329 259.41L152.661 258.4L155.93 257.274L159.131 256.034L162.26 254.684L165.312 253.227L168.284 251.667L171.172 250.007L173.971 248.251L176.679 246.405L179.292 244.471L181.807 242.455L184.221 240.361L186.531 238.193L188.735 235.956L190.83 233.656L192.814 231.296L194.686 228.882L196.444 226.42L198.086 223.913L199.611 221.368L201.018 218.789L202.306 216.182L203.474 213.552L204.523 210.904L205.452 208.244L206.262 205.576L206.952 202.906L207.524 200.239L207.977 197.581L208.314 194.936L208.535 192.309L208.642 189.706L208.636 187.131L208.52 184.589L208.295 182.085L207.964 179.624L207.529 177.209L206.992 174.846L206.358 172.538L205.628 170.29L204.807 168.106L203.896 165.989L202.901 163.943L200.67 160.079L198.144 156.539L195.357 153.346L192.344 150.52L189.141 148.077L185.787 146.031L182.319 144.392L178.778 143.166L175.203 142.355L171.634 141.959L168.109 141.973L164.669 142.389L161.35 143.197L158.189 144.382L155.222 145.925L152.482 147.805L150 150ZM150 150L147.805 152.482L145.925 155.222L144.382 158.189L143.197 161.35L142.389 164.669L141.973 168.109L141.959 171.634L142.355 175.203L143.166 178.778L144.392 182.319L146.031 185.787L148.077 189.141L150.52 192.344L153.346 195.357L156.539 198.144L160.079 200.67L163.943 202.901L165.989 203.896L168.106 204.807L170.29 205.628L172.538 206.358L174.846 206.992L177.209 207.529L179.624 207.964L182.085 208.295L184.589 208.52L187.131 208.636L189.706 208.642L192.309 208.535L194.936 208.314L197.581 207.977L200.239 207.524L202.906 206.952L205.576 206.262L208.244 205.452L210.904 204.523L213.552 203.474L216.182 202.306L218.789 201.018L221.368 199.611L223.913 198.086L226.42 196.444L228.882 194.686L231.296 192.814L233.656 190.83L235.956 188.735L238.193 186.531L240.361 184.221L242.455 181.807L244.471 179.292L246.405 176.679L248.251 173.971L250.007 171.172L251.667 168.284L253.227 165.312L254.684 162.26L256.034 159.131L257.274 155.93L258.4 152.661L259.41 149.329L260.299 145.937L261.066 142.492L261.708 138.998L262.222 135.459L262.607 131.881L262.86 128.27L262.98 124.63L262.965 120.966L262.814 117.285L262.526 113.591L262.1 109.89L261.535 106.188L260.832 102.49L259.989 98.8025L259.008 95.1301L257.888 91.4788L256.63 87.8541L255.235 84.2618L253.704 80.7072L252.038 77.1959L250.239 73.7334L248.308 70.3251L246.248 66.9762L244.06 63.692L241.747 60.4777L239.312 57.3383L236.757 54.2788L234.085 51.3039L231.3 48.4185L228.406 45.6269L225.405 42.9338L222.301 40.3434L219.099 37.8597L215.802 35.4867L212.416 33.2283L208.944 31.088L205.39 29.0693L201.761 27.1754L198.06 25.4092L194.293 23.7738L190.464 22.2715L186.58 20.905L182.644 19.6764L178.664 18.5876L174.643 17.6404L170.589 16.8363L168.55 16.4884L166.506 16.1767L164.455 15.9013L162.399 15.6625L160.339 15.4602L158.276 15.2946L156.209 15.1658L154.141 15.0737L152.071 15.0184L150 15L147.929 15.0184L145.859 15.0737L143.791 15.1658L141.724 15.2946L139.661 15.4602L137.601 15.6625L135.545 15.9013L133.494 16.1767L131.45 16.4884L129.411 16.8363L125.357 17.6404L121.336 18.5876L117.356 19.6764L113.42 20.905L109.536 22.2715L105.707 23.7738L101.94 25.4092L98.2392 27.1754L94.6097 29.0693L91.0564 31.088L87.5842 33.2283L84.1977 35.4867L80.9012 37.8597L77.699 40.3434L74.5955 42.9338L71.5944 45.6269L68.6997 48.4185L65.9148 51.3039L63.2434 54.2788L60.6884 57.3383L58.2531 60.4777L55.9402 63.692L53.7524 66.9762L51.6919 70.3251L49.7611 73.7334L47.9619 77.1959L46.296 80.7072L44.7649 84.2618L43.3699 87.8541L42.1121 91.4788L40.9922 95.1301L40.0108 98.8025L39.1684 102.49L38.4649 106.188L37.9004 109.89L37.4743 113.591L37.1862 117.285L37.0351 120.966L37.0202 124.63L37.14 128.27L37.3931 131.881L37.7778 135.459L38.2921 138.998L38.9339 142.492L39.7008 145.937L40.5903 149.329L41.5996 152.661L42.7258 155.93L43.9657 159.131L45.3159 162.26L46.7731 165.312L48.3335 168.284L49.9933 171.172L51.7485 173.971L53.595 176.679L55.5286 179.292L57.5448 181.807L59.6391 184.221L61.807 186.531L64.0436 188.735L66.3442 190.83L68.7038 192.814L71.1175 194.686L73.5802 196.444L76.0867 198.086L78.632 199.611L81.2108 201.018L83.8179 202.306L86.4481 203.474L89.096 204.523L91.7565 205.452L94.4242 206.262L97.0941 206.952L99.7608 207.524L102.419 207.977L105.064 208.314L107.691 208.535L110.294 208.642L112.869 208.636L115.411 208.52L117.915 208.295L120.376 207.964L122.791 207.529L125.154 206.992L127.462 206.358L129.71 205.628L131.894 204.807L134.011 203.896L136.057 202.901L139.921 200.67L143.461 198.144L146.654 195.357L149.48 192.344L151.923 189.141L153.969 185.787L155.608 182.319L156.834 178.778L157.645 175.203L158.041 171.634L158.027 168.109L157.611 164.669L156.803 161.35L155.618 158.189L154.075 155.222L152.195 152.482L150 150Z" stroke="black" stroke-width="2" stroke-miterlimit="10" stroke-linecap="round" stroke-linejoin="round"/>
</svg>
