<svg width="300" height="300" viewBox="0 0 300 300" fill="none" xmlns="http://www.w3.org/2000/svg">
<path d="M283.594 130.472L280.259 130.472L277.084 130.473L274.055 130.473L271.165 130.473L268.403 130.474L265.761 130.474L260.805 130.475L256.246 130.475L252.035 130.476L248.134 130.477L244.51 130.477L241.134 130.478L237.981 130.479L235.03 130.48L232.26 130.481L227.204 130.482L222.7 130.484L218.662 130.486L215.02 130.489L211.716 130.491L208.704 130.493L205.946 130.496L203.41 130.498L198.902 130.504L195.01 130.51L191.61 130.516L188.61 130.523L185.939 130.531L181.373 130.547L177.596 130.565L173.501 130.592L170.105 130.622L167.21 130.656L164.689 130.694L160.424 130.783L156.838 130.89L153.655 131.017L150.694 131.17L147.816 131.353L144.901 131.573L141.818 131.842L138.405 132.177L134.428 132.606L129.5 133.176L126.477 133.541L122.901 133.983L118.548 134.53L115.978 134.856L113.065 135.229L109.725 135.659L105.845 136.161L101.267 136.755L98.6496 137.096L95.7665 137.471L92.5722 137.888L89.0108 138.354L85.0117 138.877L80.4855 139.47L77.9897 139.798L75.3162 140.148L72.4447 140.525L69.3516 140.931L66.0098 141.37L62.3871 141.846L58.4459 142.363L54.1414 142.929L50.5252 143.404L46.63 143.916L42.4216 144.47L37.8601 145.07L32.8986 145.722L30.2508 146.07L27.4814 146.435L24.5816 146.816L21.5419 147.216L18.3519 147.636L15 148.077M279.902 113.202L276.778 113.613L273.795 114.006L270.943 114.382L268.214 114.742L263.094 115.416L258.379 116.037L254.024 116.612L249.987 117.144L246.236 117.638L242.74 118.099L239.473 118.53L236.415 118.933L233.544 119.312L230.845 119.668L225.9 120.321L221.48 120.905L217.349 121.45L213.625 121.943L210.251 122.389L207.177 122.796L204.364 123.169L201.78 123.512L197.19 124.121L193.232 124.648L189.778 125.109L186.733 125.517L184.025 125.88L179.403 126.505L175.585 127.025L172.359 127.469L169.58 127.856L164.987 128.51L161.277 129.057L158.147 129.536L155.41 129.974L150.648 130.792L146.342 131.608L143.504 132.191L140.551 132.833L137.339 133.569L133.666 134.449L129.22 135.555L126.547 136.234L123.436 137.035L119.725 138L115.161 139.198L112.441 139.915L109.335 140.737L105.743 141.69L101.529 142.81L97.2604 143.947L92.2144 145.293L89.3263 146.064L86.1429 146.914L82.6145 147.856L78.6793 148.908L74.26 150.09L69.2586 151.428L66.5013 152.166L63.5483 152.956L60.3774 153.805L56.963 154.719L53.2755 155.706L49.2802 156.776L44.9361 157.939L40.1949 159.208L37.6576 159.888L34.9986 160.6L32.2086 161.347L29.2776 162.132L26.1947 162.958L22.9474 163.828L19.5222 164.745L15.9039 165.714M273.988 96.5609L270.722 97.4361L267.614 98.2692L264.653 99.0629L261.828 99.8202L259.13 100.543L256.55 101.235L251.717 102.531L247.273 103.722L243.173 104.822L239.379 105.839L235.856 106.784L231.663 107.908L227.823 108.938L224.294 109.885L221.039 110.759L218.026 111.567L215.229 112.318L210.194 113.67L205.785 114.854L201.89 115.901L198.421 116.834L195.311 117.671L192.503 118.427L189.955 119.114L185.498 120.316L181.721 121.338L178.471 122.219L175.637 122.989L173.137 123.671L168.907 124.832L165.434 125.792L162.501 126.612L157.73 127.971L153.892 129.097L150.611 130.093L147.66 131.024L144.882 131.937L142.153 132.869L139.359 133.861L136.369 134.961L133.015 136.235L129.041 137.785L124.01 139.791L120.86 141.063L117.068 142.605L113.57 144.034L109.346 145.766L106.876 146.781L104.101 147.923L100.958 149.218L97.3598 150.702L93.1925 152.422L88.2998 154.443L85.5163 155.593L82.463 156.856L79.0968 158.248L75.3655 159.791L71.2042 161.513L66.5318 163.446L63.9729 164.505L61.2455 165.634L58.3322 166.84L55.2129 168.131L51.8646 169.517L48.2606 171.009L44.3701 172.62L40.157 174.364L35.5789 176.26L30.5856 178.327L27.915 179.433L25.1173 180.592L22.1832 181.807L19.1022 183.083M265.952 80.8344L262.871 82.1108L259.937 83.3264L257.14 84.4854L254.469 85.5918L249.476 87.6606L244.899 89.5574L240.686 91.303L236.796 92.9151L233.193 94.4084L229.845 95.7959L226.726 97.0886L223.814 98.2959L221.087 99.4263L218.529 100.487L213.858 102.424L209.698 104.149L205.968 105.696L202.604 107.092L199.552 108.358L196.77 109.513L191.882 111.544L187.718 113.274L184.125 114.769L180.986 116.076L178.217 117.23L175.752 118.26L171.541 120.022L168.057 121.484L164.285 123.076L161.159 124.404L156.183 126.543L152.276 128.257L149.004 129.728L146.112 131.064L143.435 132.338L140.846 133.608L138.237 134.927L135.492 136.356L132.467 137.971L128.957 139.889L124.623 142.302L121.969 143.796L118.834 145.572L115.022 147.743L110.224 150.488L107.302 152.163L103.91 154.112L99.9077 156.412L95.1003 159.179L92.3088 160.787L89.1966 162.58L85.7022 164.594L81.7474 166.874L77.2311 169.478L74.7223 170.925L72.0201 172.484L69.1005 174.168L65.9357 175.994L62.4926 177.981L58.7322 180.151L55.5732 181.974L52.1705 183.937L48.4942 186.059L44.5095 188.359L40.1754 190.861L35.4432 193.592L32.9101 195.054L30.2548 196.587L27.4682 198.195L24.5403 199.885M255.932 66.2914L253.203 67.8672L250.597 69.372L245.722 72.1871L241.25 74.7697L237.133 77.1478L233.328 79.3448L229.803 81.3811L226.526 83.2737L223.472 85.0375L220.619 86.6855L217.948 88.2287L213.083 91.0392L208.765 93.5343L204.904 95.7652L201.297 97.8504L198.045 99.7301L195.098 101.434L192.414 102.986L187.702 105.712L183.694 108.032L180.239 110.034L177.225 111.781L172.205 114.695L168.173 117.041L164.845 118.983L162.035 120.628L159.616 122.049L155.623 124.411L152.404 126.335L147.334 129.428L143.249 132.006L139.582 134.408L134.701 137.755L132.014 139.665L128.958 141.883L125.273 144.607L120.497 148.187L117.438 150.5L113.679 153.352L108.885 157.004L105.932 159.259L102.467 161.906L98.9585 164.59L94.8116 167.765L89.8227 171.586L86.9236 173.807L83.6905 176.285L80.0599 179.068L75.9512 182.218L71.2603 185.815L68.6555 187.812L65.8508 189.963L62.8218 192.286L59.5399 194.804L55.9716 197.541L52.0771 200.528L47.809 203.802L43.1098 207.407L40.5775 209.35L37.9103 211.396L35.0969 213.554L32.1249 215.834M244.099 53.1806L241.417 55.2389L238.865 57.1978L234.113 60.8452L229.778 64.1719L225.809 67.2188L222.159 70.0201L218.792 72.6046L215.675 74.9969L212.782 77.2178L209.339 79.8616L206.186 82.2823L203.288 84.5075L200.614 86.5603L195.843 90.2244L191.709 93.4003L188.089 96.1815L184.891 98.6392L182.043 100.828L179.49 102.792L175.094 106.175L171.437 108.991L168.338 111.38L165.673 113.438L161.301 116.821L157.836 119.512L154.995 121.729L152.599 123.608L148.711 126.689L145.596 129.198L140.576 133.365L136.195 137.176L131.652 141.322L129.041 143.782L125.962 146.735L122.082 150.514L119.658 152.894L116.744 155.77L114.06 158.429L110.821 161.645L106.8 165.646L104.392 168.045L101.635 170.793L98.4435 173.977L94.6967 177.716L90.2275 182.179L87.6503 184.753L84.7936 187.607L81.6079 190.79L78.031 194.364L73.9844 198.409L69.3666 203.024L66.8035 205.586L64.0449 208.344L61.0669 211.321L57.8421 214.545L54.3379 218.048L50.5159 221.869L46.3305 226.054L41.7265 230.657M230.657 41.7265L226.054 46.3305L221.869 50.5159L218.048 54.3379L214.545 57.8421L211.321 61.0669L208.344 64.0449L205.586 66.8036L203.024 69.3666L198.409 73.9844L194.364 78.031L190.79 81.6079L187.607 84.7936L184.753 87.6503L182.179 90.2275L177.716 94.6967L173.977 98.4435L170.793 101.635L168.045 104.392L165.646 106.8L161.645 110.821L158.429 114.06L155.77 116.744L152.894 119.658L150.514 122.082L146.735 125.962L143.782 129.041L141.322 131.652L137.176 136.195L133.365 140.576L129.198 145.596L126.689 148.711L123.608 152.599L121.729 154.995L119.512 157.836L116.821 161.301L113.438 165.673L111.38 168.338L108.991 171.437L106.175 175.094L102.792 179.49L100.828 182.043L98.6392 184.891L96.1815 188.089L93.4003 191.709L90.2244 195.843L86.5603 200.614L84.5075 203.288L82.2823 206.186L79.8616 209.339L77.2178 212.782L74.9969 215.675L72.6046 218.792L70.0201 222.159L67.2188 225.809L64.1719 229.778L60.8452 234.113L57.1978 238.865L55.2389 241.417L53.1806 244.099M215.834 32.1249L212.085 37.0127L208.658 41.4789L205.515 45.5763L202.621 49.3491L199.947 52.8348L197.469 56.0652L195.166 59.0677L193.02 61.8658L189.137 66.9282L185.718 71.3864L182.683 75.3442L179.97 78.8825L177.435 82.1897L175.15 85.1707L173.08 87.8725L171.194 90.3337L167.884 94.6557L165.069 98.3327L162.643 101.504L160.527 104.272L157.004 108.885L154.177 112.595L151.845 115.663L148.187 120.497L145.402 124.207L143.165 127.217L139.665 132.014L136.876 135.959L134.408 139.582L131.18 144.542L129.428 147.334L127.454 150.553L125.092 154.48L122.049 159.616L120.107 162.923L117.727 166.996L116.311 169.428L114.695 172.205L112.83 175.418L110.642 179.19L108.427 183.012L105.811 187.532L104.314 190.119L102.664 192.971L100.836 196.133L98.7967 199.659L96.5075 203.62L93.917 208.103L90.9597 213.221L89.3176 216.063L87.5495 219.124L85.6401 222.429L83.5714 226.011L81.3221 229.905L78.8673 234.155L76.177 238.813L73.2151 243.942L71.619 246.706L69.9378 249.617L68.1646 252.688L66.2914 255.932M199.885 24.5403L198.195 27.4682L196.587 30.2548L195.054 32.9101L193.592 35.4432L190.861 40.1754L188.359 44.5095L186.059 48.4942L183.937 52.1705L181.974 55.5732L180.151 58.7322L177.981 62.4926L175.994 65.9357L174.168 69.1005L172.484 72.0201L170.925 74.7223L169.478 77.2311L166.874 81.7475L164.594 85.7022L162.58 89.1966L160.787 92.3088L159.179 95.1003L156.412 99.9077L154.112 103.91L152.163 107.302L150.488 110.224L147.743 115.022L145.572 118.834L143.796 121.969L142.302 124.623L139.889 128.957L137.971 132.467L136.356 135.492L134.927 138.237L133.608 140.846L132.338 143.435L131.064 146.112L129.728 149.004L128.257 152.276L126.543 156.183L124.404 161.159L123.076 164.285L121.484 168.058L120.022 171.541L118.26 175.752L117.23 178.217L116.076 180.986L114.769 184.125L113.274 187.718L111.544 191.882L109.513 196.77L108.358 199.552L107.092 202.604L105.696 205.968L104.149 209.698L102.424 213.858L100.487 218.529L99.4263 221.087L98.2959 223.814L97.0886 226.726L95.7959 229.845L94.4084 233.193L92.9151 236.796L91.303 240.686L89.5574 244.899L87.6606 249.476L85.5918 254.469L84.4854 257.14L83.3264 259.937L82.1108 262.871L80.8344 265.952M183.083 19.1022L181.807 22.1832L180.592 25.1173L179.433 27.915L178.327 30.5856L176.26 35.5789L174.364 40.157L172.62 44.3701L171.009 48.2606L169.517 51.8646L168.131 55.2129L166.84 58.3322L165.634 61.2455L164.505 63.9729L163.446 66.5318L161.513 71.2042L159.791 75.3655L158.248 79.0968L156.856 82.463L155.593 85.5163L154.443 88.2998L152.422 93.1924L150.702 97.3598L149.218 100.958L147.923 104.101L146.781 106.876L145.766 109.346L144.034 113.57L142.605 117.068L141.063 120.86L139.791 124.01L137.785 129.041L136.235 133.015L134.961 136.369L133.861 139.359L132.869 142.153L131.937 144.882L131.024 147.66L130.093 150.611L129.097 153.892L127.971 157.73L126.612 162.501L125.792 165.434L124.832 168.907L123.671 173.137L122.989 175.637L122.219 178.471L121.338 181.721L120.316 185.498L119.114 189.955L118.427 192.503L117.671 195.311L116.834 198.421L115.901 201.89L114.854 205.785L113.67 210.194L112.318 215.229L111.567 218.026L110.759 221.039L109.885 224.294L108.938 227.823L107.908 231.663L106.784 235.856L105.839 239.379L104.822 243.173L103.722 247.273L102.531 251.717L101.235 256.55L100.543 259.13L99.8202 261.828L99.063 264.653L98.2692 267.614L97.4361 270.722L96.5609 273.988M165.714 15.9039L164.899 18.9479L164.12 21.8546L163.376 24.6332L162.664 27.292L161.328 32.2804L160.098 36.8736L158.961 41.1172L157.908 45.05L156.929 48.7053L156.017 52.1118L155.165 55.2943L154.368 58.2746L153.619 61.0715L152.915 63.7019L151.626 68.5197L150.474 72.8268L149.397 76.8525L148.427 80.4809L147.548 83.7694L146.748 86.7648L146.016 89.5059L145.343 92.0246L144.15 96.4989L143.122 100.357L142.226 103.725L141.438 106.693L140.737 109.335L139.545 113.844L138.565 117.57L137.74 120.721L137.035 123.436L135.882 127.93L134.967 131.567L134.212 134.642L133.569 137.339L132.502 142.05L131.608 146.342L131.06 149.186L130.524 152.16L129.974 155.41L129.382 159.139L128.702 163.671L128.307 166.4L127.856 169.58L127.328 173.378L126.688 178.053L126.31 180.841L125.88 184.025L125.386 187.708L124.808 192.03L124.225 196.409L123.896 198.884L123.537 201.586L123.144 204.549L122.712 207.815L122.232 211.436L121.698 215.474L121.099 220.009L120.421 225.142L120.047 227.971L119.647 231.002L119.218 234.256L118.756 237.761L118.257 241.545L117.716 245.646L117.128 250.104L116.487 254.971L116.144 257.575L115.784 260.304L115.407 263.167L115.01 266.176L114.593 269.34L114.154 272.673L113.691 276.188L113.202 279.902M148.077 15L147.636 18.3519L147.216 21.5419L146.816 24.5816L146.435 27.4814L146.07 30.2508L145.722 32.8986L145.07 37.8601L144.47 42.4216L143.916 46.63L143.404 50.5252L142.929 54.1413L142.363 58.4459L141.846 62.3871L141.37 66.0098L140.931 69.3516L140.525 72.4447L140.148 75.3162L139.798 77.9897L139.47 80.4855L138.877 85.0117L138.354 89.0108L137.888 92.5722L137.471 95.7665L137.096 98.6496L136.755 101.267L136.161 105.845L135.659 109.725L135.229 113.065L134.856 115.978L134.53 118.548L133.983 122.901L133.541 126.477L133.176 129.5L132.606 134.428L132.177 138.405L131.842 141.818L131.573 144.901L131.353 147.816L131.17 150.694L131.017 153.655L130.89 156.838L130.783 160.424L130.694 164.689L130.656 167.21L130.622 170.105L130.592 173.501L130.565 177.596L130.547 181.373L130.531 185.939L130.523 188.61L130.516 191.61L130.51 195.01L130.504 198.902L130.498 203.41L130.496 205.946L130.493 208.704L130.491 211.716L130.489 215.02L130.486 218.662L130.484 222.7L130.482 227.204L130.481 232.26L130.48 235.03L130.479 237.981L130.478 241.134L130.477 244.51L130.477 248.134L130.476 252.035L130.475 256.246L130.475 260.805L130.474 265.761L130.474 268.403L130.473 271.165L130.473 274.055L130.473 277.084L130.472 280.259L130.472 283.594M130.472 16.406L130.472 19.7407L130.473 22.9164L130.473 25.9445L130.473 28.835L130.474 31.5972L130.474 34.2394L130.475 39.1945L130.475 43.7544L130.476 47.9652L130.477 51.8658L130.477 55.4897L130.478 58.8657L130.479 62.0187L130.48 64.9704L130.481 67.7398L130.482 72.7965L130.484 77.2998L130.486 81.3377L130.489 84.9803L130.491 88.2843L130.493 91.2961L130.496 94.054L130.498 96.5898L130.504 101.098L130.51 104.99L130.516 108.39L130.523 111.39L130.531 114.061L130.547 118.627L130.565 122.404L130.592 126.499L130.622 129.895L130.656 132.79L130.694 135.311L130.783 139.576L130.89 143.162L131.017 146.345L131.17 149.306L131.353 152.184L131.573 155.099L131.842 158.182L132.177 161.595L132.606 165.572L133.176 170.5L133.541 173.523L133.983 177.099L134.53 181.452L134.856 184.022L135.229 186.935L135.659 190.275L136.161 194.155L136.755 198.733L137.096 201.35L137.471 204.233L137.888 207.428L138.354 210.989L138.877 214.988L139.47 219.515L139.798 222.01L140.148 224.684L140.525 227.555L140.931 230.648L141.37 233.99L141.846 237.613L142.363 241.554L142.929 245.859L143.404 249.475L143.916 253.37L144.47 257.578L145.07 262.14L145.722 267.101L146.07 269.749L146.435 272.519L146.816 275.418L147.216 278.458L147.636 281.648L148.077 285M113.202 20.0978L113.613 23.2221L114.006 26.2055L114.382 29.0574L114.742 31.7864L115.416 36.9063L116.037 41.6206L116.612 45.9761L117.144 50.0125L117.638 53.7641L118.099 57.2603L118.53 60.5266L118.933 63.5853L119.312 66.4559L119.668 69.1554L120.321 74.0998L120.905 78.5201L121.45 82.6513L121.943 86.3747L122.389 89.7493L122.796 92.823L123.169 95.6355L123.512 98.2198L124.121 102.81L124.648 106.768L125.109 110.222L125.517 113.267L125.88 115.975L126.505 120.597L127.025 124.415L127.469 127.641L127.856 130.42L128.51 135.013L129.057 138.723L129.536 141.853L129.974 144.59L130.792 149.352L131.608 153.658L132.191 156.496L132.833 159.449L133.569 162.661L134.449 166.334L135.555 170.78L136.234 173.453L137.035 176.564L138 180.275L139.198 184.839L139.915 187.559L140.737 190.665L141.69 194.257L142.81 198.471L143.947 202.74L145.293 207.786L146.064 210.674L146.914 213.857L147.856 217.386L148.908 221.321L150.09 225.74L151.428 230.741L152.166 233.499L152.956 236.452L153.805 239.623L154.719 243.037L155.706 246.724L156.776 250.72L157.939 255.064L159.208 259.805L159.888 262.342L160.6 265.001L161.347 267.791L162.132 270.722L162.958 273.805L163.828 277.053L164.745 280.478L165.714 284.096M96.5609 26.0123L97.4361 29.2778L98.2692 32.3855L99.063 35.3469L99.8202 38.1719L100.543 40.87L101.235 43.4495L102.531 48.283L103.722 52.7268L104.822 56.8266L105.839 60.6213L106.784 64.1441L107.908 68.3375L108.938 72.1768L109.885 75.7058L110.759 78.9612L111.567 81.9741L112.318 84.7713L113.67 89.8064L114.854 94.2151L115.901 98.11L116.834 101.579L117.671 104.689L118.427 107.497L119.114 110.045L120.316 114.502L121.338 118.279L122.219 121.529L122.989 124.363L123.671 126.863L124.832 131.093L125.792 134.566L126.612 137.499L127.971 142.27L129.097 146.108L130.093 149.389L131.024 152.34L131.937 155.118L132.869 157.847L133.861 160.641L134.961 163.631L136.235 166.985L137.785 170.958L139.791 175.99L141.063 179.14L142.605 182.932L144.034 186.429L145.766 190.654L146.781 193.124L147.923 195.899L149.218 199.042L150.702 202.64L152.422 206.808L154.443 211.7L155.593 214.484L156.856 217.537L158.248 220.903L159.791 224.634L161.513 228.796L163.446 233.468L164.505 236.027L165.634 238.754L166.84 241.668L168.131 244.787L169.517 248.135L171.009 251.739L172.62 255.63L174.364 259.843L176.26 264.421L178.327 269.414L179.433 272.085L180.592 274.883L181.807 277.817L183.083 280.898M80.8344 34.0482L82.1108 37.1289L83.3264 40.0629L84.4854 42.8603L85.5918 45.5307L87.6606 50.5235L89.5574 55.1011L91.303 59.3137L92.9151 63.2037L94.4084 66.8071L95.7959 70.1549L97.0886 73.2736L98.2959 76.1863L99.4263 78.913L100.487 81.4713L102.424 86.1423L104.149 90.3021L105.696 94.0319L107.092 97.3964L108.358 100.448L109.513 103.23L111.544 108.118L113.274 112.282L114.769 115.875L116.076 119.014L117.23 121.783L118.26 124.248L120.022 128.459L121.484 131.942L123.076 135.715L124.404 138.841L126.543 143.817L128.257 147.724L129.728 150.996L131.064 153.888L132.338 156.565L133.608 159.153L134.927 161.763L136.356 164.508L137.971 167.533L139.889 171.043L142.302 175.377L143.796 178.031L145.572 181.166L147.743 184.978L150.488 189.776L152.163 192.698L154.112 196.09L156.412 200.092L159.179 204.9L160.787 207.691L162.58 210.803L164.594 214.298L166.874 218.253L169.478 222.769L170.925 225.278L172.484 227.98L174.168 230.899L175.994 234.064L177.981 237.507L180.151 241.268L181.974 244.427L183.937 247.829L186.059 251.506L188.359 255.49L190.861 259.825L193.592 264.557L195.054 267.09L196.587 269.745L198.195 272.532L199.885 275.46M66.2914 44.0681L67.8672 46.797L69.372 49.4029L72.1871 54.2776L74.7697 58.7497L77.1477 62.8674L79.3449 66.6716L81.3811 70.1972L83.2737 73.474L85.0375 76.5276L86.6854 79.3805L88.2287 82.052L91.0392 86.9168L93.5343 91.2351L95.7652 95.0955L97.8504 98.7034L99.7301 101.955L101.434 104.902L102.986 107.586L105.712 112.298L108.032 116.306L110.034 119.761L111.781 122.775L114.695 127.795L117.041 131.827L118.983 135.155L120.628 137.965L122.049 140.384L124.411 144.377L126.335 147.596L129.428 152.665L132.006 156.751L134.408 160.418L137.755 165.299L139.665 167.986L141.883 171.042L144.607 174.726L148.187 179.503L150.5 182.562L153.352 186.321L157.004 191.115L159.259 194.068L161.906 197.533L164.59 201.041L167.765 205.188L171.586 210.177L173.807 213.076L176.285 216.309L179.068 219.94L182.218 224.049L185.815 228.74L187.812 231.344L189.963 234.149L192.286 237.178L194.804 240.46L197.541 244.028L200.528 247.923L203.802 252.191L207.407 256.89L209.35 259.422L211.396 262.09L213.554 264.903L215.834 267.875M53.1806 55.9005L55.2389 58.5825L57.1978 61.1349L60.8452 65.8873L64.1719 70.2217L67.2188 74.1914L70.0201 77.841L72.6046 81.2081L74.9969 84.3245L77.2178 87.2176L79.8616 90.6614L82.2823 93.8144L84.5075 96.7124L86.5603 99.3857L90.2244 104.157L93.4003 108.291L96.1815 111.911L98.6392 115.109L100.828 117.957L102.792 120.51L106.175 124.906L108.991 128.563L111.38 131.662L113.438 134.327L116.821 138.699L119.512 142.164L121.729 145.005L123.608 147.401L126.689 151.289L129.198 154.404L133.365 159.424L137.176 163.805L141.322 168.348L143.782 170.959L146.735 174.038L150.514 177.918L152.894 180.342L155.77 183.256L158.429 185.94L161.645 189.179L165.646 193.2L168.045 195.608L170.793 198.365L173.977 201.556L177.716 205.303L182.179 209.772L184.753 212.35L187.607 215.206L190.79 218.392L194.364 221.969L198.409 226.016L203.024 230.633L205.586 233.196L208.344 235.955L211.321 238.933L214.545 242.158L218.048 245.662L221.869 249.484L226.054 253.669L230.657 258.273M41.7265 69.343L46.3305 73.9462L50.5159 78.1309L54.3379 81.952L57.8421 85.4552L61.0669 88.6792L64.0449 91.6561L66.8035 94.4138L69.3666 96.9757L73.9844 101.591L78.031 105.636L81.6079 109.21L84.7936 112.393L87.6503 115.247L90.2275 117.821L94.6967 122.283L98.4435 126.023L101.635 129.207L104.392 131.955L106.8 134.354L110.821 138.355L114.06 141.571L116.744 144.23L119.658 147.106L122.082 149.486L125.962 153.265L129.041 156.218L131.652 158.678L136.195 162.824L140.576 166.635L145.596 170.802L148.711 173.311L152.599 176.391L154.995 178.271L157.836 180.488L161.301 183.179L165.673 186.562L168.338 188.62L171.437 191.009L175.094 193.825L179.49 197.208L182.043 199.172L184.891 201.361L188.089 203.818L191.709 206.6L195.843 209.776L200.614 213.44L203.288 215.492L206.186 217.718L209.339 220.138L212.782 222.782L215.675 225.003L218.792 227.395L222.159 229.98L225.809 232.781L229.778 235.828L234.113 239.155L238.865 242.802L241.417 244.761L244.099 246.819M32.1249 84.1656L37.0127 87.9154L41.4789 91.3418L45.5763 94.4851L49.3491 97.3793L52.8348 100.053L56.0652 102.531L59.0677 104.834L61.8658 106.98L66.9282 110.863L71.3864 114.282L75.3441 117.317L78.8825 120.03L82.1897 122.565L85.1707 124.85L87.8725 126.92L90.3337 128.806L94.6557 132.116L98.3326 134.931L101.504 137.357L104.272 139.473L108.885 142.996L112.595 145.823L115.663 148.155L120.497 151.813L124.207 154.598L127.217 156.835L132.014 160.335L135.959 163.124L139.582 165.592L144.542 168.82L147.334 170.572L150.553 172.546L154.48 174.908L159.616 177.951L162.923 179.893L166.996 182.273L169.428 183.689L172.205 185.304L175.418 187.17L179.19 189.358L183.012 191.573L187.532 194.189L190.119 195.686L192.971 197.336L196.133 199.164L199.659 201.203L203.62 203.492L208.103 206.083L213.221 209.04L216.063 210.682L219.124 212.45L222.429 214.36L226.011 216.429L229.905 218.678L234.155 221.133L238.814 223.823L243.942 226.785L246.706 228.381L249.617 230.062L252.688 231.835L255.932 233.709M24.5403 100.115L27.4682 101.805L30.2548 103.413L32.9101 104.946L35.4432 106.408L40.1754 109.139L44.5095 111.641L48.4942 113.941L52.1705 116.062L55.5732 118.026L58.7322 119.849L62.4926 122.019L65.9357 124.006L69.1005 125.832L72.0201 127.516L74.7223 129.075L77.2311 130.522L81.7474 133.126L85.7022 135.406L89.1966 137.42L92.3088 139.213L95.1003 140.821L99.9077 143.588L103.91 145.888L107.302 147.837L110.224 149.512L115.022 152.257L118.834 154.428L121.969 156.204L124.623 157.698L128.957 160.111L132.467 162.029L135.492 163.644L138.237 165.073L140.846 166.392L143.435 167.662L146.112 168.936L149.004 170.272L152.276 171.743L156.183 173.457L161.159 175.596L164.285 176.924L168.057 178.516L171.541 179.978L175.752 181.74L178.217 182.77L180.986 183.924L184.125 185.231L187.718 186.726L191.882 188.456L196.77 190.487L199.552 191.642L202.604 192.908L205.968 194.304L209.698 195.851L213.858 197.576L218.529 199.513L221.087 200.574L223.814 201.704L226.726 202.911L229.845 204.204L233.193 205.592L236.796 207.085L240.686 208.697L244.899 210.443L249.476 212.339L254.469 214.408L257.14 215.515L259.937 216.674L262.871 217.889L265.952 219.166M19.1022 116.917L22.1832 118.193L25.1173 119.408L27.915 120.567L30.5856 121.672L35.5789 123.74L40.157 125.636L44.3701 127.38L48.2606 128.991L51.8646 130.483L55.2129 131.869L58.3322 133.16L61.2455 134.366L63.9729 135.495L66.5318 136.554L71.2042 138.487L75.3655 140.209L79.0968 141.752L82.463 143.144L85.5163 144.407L88.2998 145.557L93.1925 147.578L97.3598 149.298L100.958 150.782L104.101 152.077L106.876 153.219L109.346 154.234L113.57 155.966L117.068 157.395L120.86 158.937L124.01 160.209L129.041 162.215L133.015 163.765L136.369 165.039L139.359 166.139L142.153 167.131L144.882 168.063L147.66 168.975L150.611 169.907L153.892 170.903L157.73 172.029L162.501 173.388L165.434 174.208L168.907 175.168L173.137 176.329L175.637 177.01L178.471 177.781L181.721 178.662L185.498 179.683L189.955 180.886L192.503 181.573L195.311 182.329L198.421 183.166L201.89 184.099L205.785 185.146L210.194 186.33L215.229 187.682L218.026 188.433L221.039 189.241L224.294 190.115L227.823 191.062L231.663 192.092L235.856 193.216L239.379 194.161L243.173 195.178L247.273 196.278L251.717 197.469L256.55 198.765L259.13 199.456L261.828 200.18L264.653 200.937L267.614 201.731L270.722 202.564L273.988 203.439M15.9039 134.286L18.9479 135.101L21.8546 135.88L24.6332 136.624L27.292 137.336L32.2805 138.672L36.8737 139.902L41.1172 141.039L45.05 142.092L48.7053 143.071L52.1118 143.983L55.2943 144.835L58.2746 145.632L61.0715 146.381L63.7019 147.085L68.5197 148.374L72.8268 149.526L76.8525 150.603L80.4809 151.573L83.7694 152.452L86.7648 153.252L89.5059 153.984L92.0246 154.657L96.4989 155.85L100.357 156.878L103.725 157.774L106.693 158.562L109.335 159.263L113.844 160.455L117.57 161.435L120.721 162.259L123.436 162.965L127.93 164.118L131.567 165.033L134.642 165.788L137.339 166.431L142.05 167.498L146.342 168.392L149.186 168.94L152.16 169.476L155.41 170.026L159.139 170.618L163.671 171.298L166.4 171.693L169.58 172.144L173.378 172.672L178.053 173.312L180.841 173.69L184.025 174.12L187.708 174.614L192.03 175.192L196.409 175.775L198.884 176.104L201.586 176.463L204.549 176.856L207.815 177.288L211.436 177.768L215.474 178.302L220.009 178.901L225.142 179.579L227.972 179.953L231.002 180.353L234.256 180.782L237.761 181.244L241.545 181.743L245.646 182.284L250.104 182.872L254.971 183.513L257.575 183.856L260.304 184.216L263.167 184.593L266.176 184.99L269.34 185.407L272.673 185.846L276.188 186.309L279.902 186.798M15 151.923L18.3519 152.364L21.5419 152.784L24.5816 153.184L27.4814 153.565L30.2508 153.93L32.8986 154.278L37.8601 154.93L42.4216 155.53L46.63 156.084L50.5252 156.596L54.1414 157.071L58.4459 157.637L62.3871 158.154L66.0098 158.63L69.3516 159.069L72.4447 159.475L75.3162 159.852L77.9897 160.202L80.4855 160.53L85.0117 161.123L89.0108 161.646L92.5722 162.112L95.7665 162.529L98.6496 162.904L101.267 163.245L105.845 163.839L109.725 164.341L113.065 164.771L115.978 165.143L118.548 165.47L122.901 166.017L126.477 166.459L129.5 166.824L134.428 167.394L138.405 167.823L141.818 168.158L144.901 168.427L147.816 168.647L150.694 168.83L153.655 168.983L156.838 169.11L160.424 169.217L164.689 169.306L167.21 169.344L170.105 169.378L173.501 169.408L177.596 169.435L181.373 169.453L185.939 169.469L188.61 169.477L191.61 169.484L195.01 169.49L198.902 169.496L203.41 169.502L205.946 169.504L208.704 169.507L211.716 169.509L215.02 169.511L218.662 169.514L222.7 169.516L227.204 169.518L232.26 169.519L235.03 169.52L237.981 169.521L241.134 169.522L244.51 169.523L248.134 169.523L252.035 169.524L256.246 169.525L260.805 169.525L265.761 169.526L268.403 169.526L271.165 169.527L274.055 169.527L277.084 169.527L280.259 169.528L283.594 169.528M16.406 169.528L19.7407 169.528L22.9164 169.527L25.9445 169.527L28.835 169.527L31.5972 169.526L34.2394 169.526L39.1945 169.525L43.7545 169.525L47.9652 169.524L51.8658 169.523L55.4897 169.523L58.8657 169.522L62.0187 169.521L64.9704 169.52L67.7399 169.519L72.7965 169.518L77.2998 169.516L81.3377 169.514L84.9803 169.511L88.2843 169.509L91.2961 169.507L94.054 169.504L96.5898 169.502L101.098 169.496L104.99 169.49L108.39 169.484L111.39 169.477L114.061 169.469L118.627 169.453L122.404 169.435L126.499 169.408L129.895 169.378L132.79 169.344L135.311 169.306L139.576 169.217L143.162 169.11L146.345 168.983L149.306 168.83L152.184 168.647L155.099 168.427L158.182 168.158L161.595 167.823L165.572 167.394L170.5 166.824L173.523 166.459L177.099 166.017L181.452 165.47L184.022 165.143L186.935 164.771L190.275 164.341L194.155 163.839L198.733 163.245L201.35 162.904L204.233 162.529L207.428 162.112L210.989 161.646L214.988 161.123L219.515 160.53L222.01 160.202L224.684 159.852L227.555 159.475L230.648 159.069L233.99 158.63L237.613 158.154L241.554 157.637L245.859 157.071L249.475 156.596L253.37 156.084L257.578 155.53L262.14 154.93L267.101 154.278L269.749 153.93L272.519 153.565L275.418 153.184L278.458 152.784L281.648 152.364L285 151.923M20.0978 186.798L23.2221 186.387L26.2055 185.994L29.0574 185.618L31.7864 185.258L36.9063 184.584L41.6207 183.962L45.9761 183.388L50.0125 182.856L53.7641 182.362L57.2603 181.901L60.5266 181.47L63.5854 181.067L66.4559 180.688L69.1554 180.332L74.0998 179.679L78.5201 179.095L82.6513 178.55L86.3748 178.057L89.7493 177.611L92.823 177.204L95.6355 176.831L98.2198 176.488L102.81 175.879L106.768 175.352L110.222 174.891L113.267 174.483L115.975 174.12L120.597 173.495L124.415 172.975L127.641 172.531L130.42 172.144L135.013 171.49L138.723 170.943L141.853 170.464L144.59 170.026L149.352 169.208L153.658 168.392L156.496 167.809L159.449 167.167L162.661 166.431L166.334 165.551L170.78 164.445L173.453 163.766L176.564 162.965L180.275 162L184.839 160.802L187.559 160.085L190.665 159.263L194.257 158.31L198.471 157.19L202.74 156.053L207.786 154.707L210.674 153.936L213.857 153.086L217.386 152.143L221.321 151.092L225.74 149.91L230.741 148.572L233.499 147.834L236.452 147.044L239.623 146.195L243.037 145.281L246.724 144.294L250.72 143.224L255.064 142.061L259.805 140.792L262.342 140.112L265.001 139.4L267.791 138.653L270.722 137.868L273.805 137.042L277.053 136.172L280.478 135.255L284.096 134.286M26.0123 203.439L29.2778 202.564L32.3855 201.731L35.3469 200.937L38.1719 200.18L40.87 199.456L43.4495 198.765L48.283 197.469L52.7268 196.278L56.8266 195.178L60.6213 194.161L64.1441 193.216L68.3375 192.092L72.1768 191.062L75.7058 190.115L78.9612 189.241L81.9741 188.433L84.7713 187.682L89.8064 186.33L94.2151 185.146L98.11 184.099L101.579 183.166L104.689 182.329L107.497 181.573L110.045 180.886L114.502 179.683L118.279 178.662L121.529 177.781L124.363 177.01L126.863 176.329L131.093 175.168L134.566 174.208L137.499 173.388L142.27 172.029L146.108 170.903L149.389 169.907L152.34 168.975L155.118 168.063L157.847 167.131L160.641 166.139L163.631 165.039L166.985 163.765L170.958 162.215L175.99 160.209L179.14 158.937L182.932 157.395L186.429 155.966L190.654 154.234L193.124 153.219L195.899 152.077L199.042 150.782L202.64 149.298L206.808 147.578L211.7 145.557L214.484 144.407L217.537 143.144L220.903 141.752L224.634 140.209L228.796 138.487L233.468 136.554L236.027 135.495L238.754 134.366L241.668 133.16L244.787 131.869L248.135 130.483L251.739 128.991L255.63 127.38L259.843 125.636L264.421 123.74L269.414 121.672L272.085 120.567L274.883 119.408L277.817 118.193L280.898 116.917M34.0482 219.166L37.1289 217.889L40.0629 216.674L42.8603 215.515L45.5307 214.408L50.5235 212.339L55.1011 210.443L59.3137 208.697L63.2037 207.085L66.8071 205.592L70.1549 204.204L73.2736 202.911L76.1863 201.704L78.913 200.574L81.4713 199.513L86.1423 197.576L90.3021 195.851L94.0319 194.304L97.3964 192.908L100.448 191.642L103.23 190.487L108.118 188.456L112.282 186.726L115.875 185.231L119.014 183.924L121.783 182.77L124.248 181.74L128.459 179.978L131.942 178.516L135.715 176.924L138.841 175.596L143.817 173.457L147.724 171.743L150.996 170.272L153.888 168.936L156.565 167.662L159.153 166.392L161.763 165.073L164.508 163.644L167.533 162.029L171.043 160.111L175.377 157.698L178.031 156.204L181.166 154.428L184.978 152.257L189.776 149.512L192.698 147.837L196.09 145.888L200.092 143.588L204.9 140.821L207.691 139.213L210.803 137.42L214.298 135.406L218.253 133.126L222.769 130.522L225.278 129.075L227.98 127.516L230.899 125.832L234.064 124.006L237.507 122.019L241.268 119.849L244.427 118.026L247.83 116.062L251.506 113.941L255.491 111.641L259.825 109.139L264.557 106.408L267.09 104.946L269.745 103.413L272.532 101.805L275.46 100.115M44.0681 233.709L46.797 232.133L49.4029 230.628L54.2776 227.813L58.7497 225.23L62.8674 222.852L66.6717 220.655L70.1972 218.619L73.474 216.726L76.5276 214.962L79.3805 213.315L82.052 211.771L86.9168 208.961L91.2351 206.466L95.0955 204.235L98.7034 202.15L101.955 200.27L104.902 198.566L107.586 197.014L112.298 194.288L116.306 191.968L119.761 189.966L122.775 188.219L127.795 185.304L131.827 182.959L135.155 181.017L137.965 179.372L140.384 177.951L144.377 175.589L147.596 173.665L152.665 170.572L156.751 167.994L160.418 165.592L165.299 162.245L167.986 160.335L171.042 158.117L174.726 155.393L179.503 151.813L182.562 149.5L186.321 146.648L191.115 142.996L194.068 140.741L197.533 138.094L201.041 135.41L205.188 132.235L210.177 128.414L213.076 126.193L216.309 123.715L219.94 120.932L224.049 117.782L228.74 114.185L231.344 112.188L234.149 110.037L237.178 107.714L240.46 105.196L244.028 102.459L247.923 99.472L252.191 96.1978L256.89 92.593L259.422 90.6503L262.09 88.604L264.903 86.4457L267.875 84.1656M55.9005 246.819L58.5825 244.761L61.1349 242.802L65.8873 239.155L70.2217 235.828L74.1914 232.781L77.841 229.98L81.2081 227.395L84.3245 225.003L87.2176 222.782L90.6614 220.138L93.8144 217.718L96.7124 215.492L99.3857 213.44L104.157 209.776L108.291 206.6L111.911 203.818L115.109 201.361L117.957 199.172L120.51 197.208L124.906 193.825L128.563 191.009L131.662 188.62L134.327 186.562L138.699 183.179L142.164 180.488L145.005 178.271L147.401 176.391L151.289 173.311L154.404 170.802L159.424 166.635L163.805 162.824L168.348 158.678L170.959 156.218L174.038 153.265L177.918 149.486L180.342 147.106L183.256 144.23L185.94 141.571L189.179 138.355L193.2 134.354L195.608 131.955L198.365 129.207L201.556 126.023L205.303 122.283L209.772 117.821L212.35 115.247L215.206 112.393L218.392 109.21L221.969 105.636L226.016 101.591L230.633 96.9757L233.196 94.4138L235.955 91.6561L238.933 88.6792L242.158 85.4552L245.662 81.952L249.484 78.1309L253.67 73.9462L258.273 69.343M69.343 258.273L73.9462 253.669L78.1309 249.484L81.9519 245.662L85.4552 242.158L88.6792 238.933L91.6561 235.955L94.4138 233.196L96.9757 230.633L101.591 226.016L105.636 221.969L109.21 218.392L112.393 215.206L115.247 212.35L117.821 209.772L122.283 205.303L126.023 201.556L129.207 198.365L131.955 195.608L134.354 193.2L138.355 189.179L141.571 185.94L144.23 183.256L147.106 180.342L149.486 177.918L153.265 174.038L156.218 170.959L158.678 168.348L162.824 163.805L166.635 159.424L170.802 154.404L173.311 151.289L176.391 147.401L178.271 145.005L180.488 142.164L183.179 138.699L186.562 134.327L188.62 131.662L191.009 128.563L193.825 124.906L197.208 120.51L199.172 117.957L201.361 115.109L203.818 111.911L206.6 108.291L209.776 104.157L213.44 99.3857L215.493 96.7124L217.718 93.8144L220.138 90.6614L222.782 87.2176L225.003 84.3245L227.395 81.2081L229.98 77.841L232.781 74.1914L235.828 70.2217L239.155 65.8873L242.802 61.1349L244.761 58.5825L246.819 55.9005M84.1656 267.875L87.9154 262.987L91.3418 258.521L94.4851 254.424L97.3793 250.651L100.053 247.165L102.531 243.935L104.834 240.932L106.98 238.134L110.863 233.072L114.282 228.614L117.317 224.656L120.03 221.117L122.565 217.81L124.85 214.829L126.92 212.127L128.806 209.666L132.116 205.344L134.931 201.667L137.357 198.496L139.473 195.728L142.996 191.115L145.823 187.405L148.155 184.337L151.813 179.503L154.598 175.793L156.835 172.783L160.335 167.986L163.124 164.041L165.592 160.418L168.82 155.458L170.572 152.665L172.546 149.447L174.908 145.52L177.951 140.384L179.893 137.077L182.273 133.003L183.689 130.572L185.304 127.795L187.17 124.582L189.358 120.81L191.573 116.988L194.189 112.468L195.686 109.881L197.336 107.029L199.164 103.867L201.203 100.34L203.492 96.38L206.083 91.8974L209.04 86.7791L210.682 83.9368L212.45 80.8763L214.36 77.5708L216.429 73.9893L218.678 70.0951L221.133 65.8448L223.823 61.1865L226.785 56.0577L228.381 53.2938L230.062 50.3826L231.835 47.3119L233.709 44.0681M100.115 275.46L101.805 272.532L103.413 269.745L104.946 267.09L106.408 264.557L109.139 259.825L111.641 255.49L113.941 251.506L116.062 247.829L118.026 244.427L119.849 241.268L122.019 237.507L124.006 234.064L125.832 230.899L127.516 227.98L129.075 225.278L130.522 222.769L133.126 218.253L135.406 214.298L137.42 210.803L139.213 207.691L140.821 204.9L143.588 200.092L145.888 196.09L147.837 192.698L149.512 189.776L152.257 184.978L154.428 181.166L156.204 178.031L157.698 175.377L160.111 171.043L162.029 167.533L163.644 164.508L165.073 161.763L166.392 159.153L167.662 156.565L168.936 153.888L170.272 150.996L171.743 147.724L173.457 143.817L175.596 138.841L176.924 135.715L178.516 131.942L179.978 128.459L181.74 124.248L182.77 121.783L183.924 119.014L185.231 115.875L186.726 112.282L188.456 108.118L190.487 103.23L191.642 100.448L192.908 97.3964L194.304 94.0319L195.851 90.3021L197.576 86.1423L199.513 81.4713L200.574 78.913L201.704 76.1863L202.911 73.2736L204.204 70.1549L205.592 66.8071L207.085 63.2037L208.697 59.3137L210.443 55.1011L212.339 50.5235L214.408 45.5307L215.515 42.8603L216.674 40.0629L217.889 37.1289L219.166 34.0482M116.917 280.898L118.193 277.817L119.408 274.883L120.567 272.085L121.672 269.414L123.74 264.421L125.636 259.843L127.38 255.63L128.991 251.739L130.483 248.135L131.869 244.787L133.16 241.668L134.366 238.754L135.495 236.027L136.554 233.468L138.487 228.796L140.209 224.634L141.752 220.903L143.144 217.537L144.407 214.484L145.557 211.7L147.578 206.808L149.298 202.64L150.782 199.042L152.077 195.899L153.219 193.124L154.234 190.654L155.966 186.429L157.395 182.932L158.937 179.14L160.209 175.99L162.215 170.958L163.765 166.985L165.039 163.631L166.139 160.641L167.131 157.847L168.063 155.118L168.975 152.34L169.907 149.389L170.903 146.108L172.029 142.27L173.388 137.499L174.208 134.566L175.168 131.093L176.329 126.863L177.01 124.363L177.781 121.529L178.662 118.279L179.683 114.502L180.886 110.045L181.573 107.497L182.329 104.689L183.166 101.579L184.099 98.11L185.146 94.2151L186.33 89.8064L187.682 84.7713L188.433 81.9741L189.241 78.9612L190.115 75.7058L191.062 72.1768L192.092 68.3375L193.216 64.1441L194.161 60.6213L195.178 56.8266L196.278 52.7268L197.469 48.283L198.765 43.4495L199.456 40.87L200.18 38.1719L200.937 35.3469L201.731 32.3855L202.564 29.2778L203.439 26.0123M134.286 284.096L135.101 281.052L135.88 278.145L136.624 275.367L137.336 272.708L138.672 267.719L139.902 263.126L141.039 258.883L142.092 254.95L143.071 251.295L143.983 247.888L144.835 244.706L145.632 241.725L146.381 238.928L147.085 236.298L148.374 231.48L149.526 227.173L150.603 223.147L151.573 219.519L152.452 216.231L153.252 213.235L153.984 210.494L154.657 207.975L155.85 203.501L156.878 199.643L157.774 196.275L158.562 193.307L159.263 190.665L160.455 186.156L161.435 182.429L162.259 179.279L162.965 176.564L164.118 172.07L165.033 168.433L165.788 165.358L166.431 162.661L167.498 157.95L168.392 153.658L168.94 150.814L169.476 147.84L170.026 144.59L170.618 140.861L171.298 136.329L171.693 133.6L172.144 130.42L172.672 126.622L173.312 121.947L173.69 119.159L174.12 115.975L174.614 112.292L175.192 107.97L175.775 103.591L176.104 101.116L176.463 98.4145L176.856 95.4512L177.288 92.1848L177.768 88.5641L178.302 84.5259L178.901 79.9909L179.579 74.8581L179.953 72.0285L180.353 68.9978L180.782 65.7435L181.244 62.2393L181.743 58.4547L182.284 54.3541L182.872 49.8956L183.513 45.0294L183.856 42.4253L184.216 39.6961L184.593 36.8326L184.99 33.8243L185.407 30.66L185.846 27.3271L186.309 23.8115L186.798 20.0978M151.923 285L152.364 281.648L152.784 278.458L153.184 275.418L153.565 272.519L153.93 269.749L154.278 267.101L154.93 262.14L155.53 257.578L156.084 253.37L156.596 249.475L157.071 245.859L157.637 241.554L158.154 237.613L158.63 233.99L159.069 230.648L159.475 227.555L159.852 224.684L160.202 222.01L160.53 219.515L161.123 214.988L161.646 210.989L162.112 207.428L162.529 204.233L162.904 201.35L163.245 198.733L163.839 194.155L164.341 190.275L164.771 186.935L165.143 184.022L165.47 181.452L166.017 177.099L166.459 173.523L166.824 170.5L167.394 165.572L167.823 161.595L168.158 158.182L168.427 155.099L168.647 152.184L168.83 149.306L168.983 146.345L169.11 143.162L169.217 139.576L169.306 135.311L169.344 132.79L169.378 129.895L169.408 126.499L169.435 122.404L169.453 118.627L169.469 114.061L169.477 111.39L169.484 108.39L169.49 104.99L169.496 101.098L169.502 96.5898L169.504 94.054L169.507 91.2961L169.509 88.2843L169.511 84.9803L169.514 81.3377L169.516 77.2998L169.518 72.7965L169.519 67.7398L169.52 64.9704L169.521 62.0187L169.522 58.8657L169.523 55.4897L169.523 51.8658L169.524 47.9652L169.525 43.7544L169.525 39.1945L169.526 34.2394L169.526 31.5972L169.527 28.835L169.527 25.9445L169.527 22.9164L169.528 19.7407L169.528 16.406M169.528 283.594L169.528 280.259L169.527 277.084L169.527 274.055L169.527 271.165L169.526 268.403L169.526 265.761L169.525 260.805L169.525 256.246L169.524 252.035L169.523 248.134L169.523 244.51L169.522 241.134L169.521 237.981L169.52 235.03L169.519 232.26L169.518 227.204L169.516 222.7L169.514 218.662L169.511 215.02L169.509 211.716L169.507 208.704L169.504 205.946L169.502 203.41L169.496 198.902L169.49 195.01L169.484 191.61L169.477 188.61L169.469 185.939L169.453 181.373L169.435 177.596L169.408 173.501L169.378 170.105L169.344 167.21L169.306 164.689L169.217 160.424L169.11 156.838L168.983 153.655L168.83 150.694L168.647 147.816L168.427 144.901L168.158 141.818L167.823 138.405L167.394 134.428L166.824 129.5L166.459 126.477L166.017 122.901L165.47 118.548L165.143 115.978L164.771 113.065L164.341 109.725L163.839 105.845L163.245 101.267L162.904 98.6496L162.529 95.7665L162.112 92.5722L161.646 89.0108L161.123 85.0117L160.53 80.4855L160.202 77.9897L159.852 75.3162L159.475 72.4447L159.069 69.3516L158.63 66.0098L158.154 62.3871L157.637 58.4459L157.071 54.1413L156.596 50.5252L156.084 46.63L155.53 42.4216L154.93 37.8601L154.278 32.8986L153.93 30.2508L153.565 27.4814L153.184 24.5816L152.784 21.5419L152.364 18.3519L151.923 15M186.798 279.902L186.387 276.778L185.994 273.794L185.618 270.943L185.258 268.214L184.584 263.094L183.962 258.379L183.388 254.024L182.856 249.987L182.362 246.236L181.901 242.74L181.47 239.473L181.067 236.415L180.688 233.544L180.332 230.845L179.679 225.9L179.095 221.48L178.55 217.349L178.057 213.625L177.611 210.251L177.204 207.177L176.831 204.364L176.488 201.78L175.879 197.19L175.352 193.232L174.891 189.778L174.483 186.733L174.12 184.025L173.495 179.403L172.975 175.585L172.531 172.359L172.144 169.58L171.49 164.987L170.943 161.277L170.464 158.147L170.026 155.41L169.208 150.648L168.392 146.342L167.809 143.504L167.167 140.551L166.431 137.339L165.551 133.666L164.445 129.22L163.766 126.547L162.965 123.436L162 119.725L160.802 115.161L160.085 112.441L159.263 109.335L158.31 105.743L157.19 101.529L156.053 97.2603L154.707 92.2144L153.936 89.3263L153.086 86.1429L152.143 82.6144L151.092 78.6792L149.91 74.26L148.572 69.2586L147.834 66.5013L147.044 63.5483L146.195 60.3774L145.281 56.963L144.294 53.2755L143.224 49.2802L142.061 44.9361L140.792 40.1949L140.112 37.6576L139.4 34.9986L138.653 32.2086L137.868 29.2776L137.042 26.1946L136.172 22.9474L135.255 19.5222L134.286 15.9039M203.439 273.988L202.564 270.722L201.731 267.614L200.937 264.653L200.18 261.828L199.456 259.13L198.765 256.55L197.469 251.717L196.278 247.273L195.178 243.173L194.161 239.379L193.216 235.856L192.092 231.663L191.062 227.823L190.115 224.294L189.241 221.039L188.433 218.026L187.682 215.229L186.33 210.194L185.146 205.785L184.099 201.89L183.166 198.421L182.329 195.311L181.573 192.503L180.886 189.955L179.683 185.498L178.662 181.721L177.781 178.471L177.01 175.637L176.329 173.137L175.168 168.907L174.208 165.434L173.388 162.501L172.029 157.73L170.903 153.892L169.907 150.611L168.975 147.66L168.063 144.882L167.131 142.153L166.139 139.359L165.039 136.369L163.765 133.015L162.215 129.041L160.209 124.01L158.937 120.86L157.395 117.068L155.966 113.57L154.234 109.346L153.219 106.876L152.077 104.101L150.782 100.958L149.298 97.3598L147.578 93.1924L145.557 88.2998L144.407 85.5163L143.144 82.463L141.752 79.0968L140.209 75.3655L138.487 71.2042L136.554 66.5318L135.495 63.9729L134.366 61.2455L133.16 58.3322L131.869 55.2129L130.483 51.8646L128.991 48.2606L127.38 44.3701L125.636 40.157L123.74 35.5789L121.672 30.5856L120.567 27.915L119.408 25.1173L118.193 22.1832L116.917 19.1022M219.166 265.952L217.889 262.871L216.674 259.937L215.515 257.14L214.408 254.469L212.339 249.476L210.443 244.899L208.697 240.686L207.085 236.796L205.592 233.193L204.204 229.845L202.911 226.726L201.704 223.814L200.574 221.087L199.513 218.529L197.576 213.858L195.851 209.698L194.304 205.968L192.908 202.604L191.642 199.552L190.487 196.77L188.456 191.882L186.726 187.718L185.231 184.125L183.924 180.986L182.77 178.217L181.74 175.752L179.978 171.541L178.516 168.058L176.924 164.285L175.596 161.159L173.457 156.183L171.743 152.276L170.272 149.004L168.936 146.112L167.662 143.435L166.392 140.846L165.073 138.237L163.644 135.492L162.029 132.467L160.111 128.957L157.698 124.623L156.204 121.969L154.428 118.834L152.257 115.022L149.512 110.224L147.837 107.302L145.888 103.91L143.588 99.9077L140.821 95.1003L139.213 92.3088L137.42 89.1966L135.406 85.7022L133.126 81.7475L130.522 77.2311L129.075 74.7223L127.516 72.0201L125.832 69.1005L124.006 65.9357L122.019 62.4926L119.849 58.7322L118.026 55.5732L116.062 52.1705L113.941 48.4942L111.641 44.5095L109.139 40.1754L106.408 35.4432L104.946 32.9101L103.413 30.2548L101.805 27.4682L100.115 24.5403M233.709 255.932L232.133 253.203L230.628 250.597L227.813 245.722L225.23 241.25L222.852 237.133L220.655 233.328L218.619 229.803L216.726 226.526L214.962 223.472L213.315 220.619L211.771 217.948L208.961 213.083L206.466 208.765L204.235 204.904L202.15 201.297L200.27 198.045L198.566 195.098L197.014 192.414L194.288 187.702L191.968 183.694L189.966 180.239L188.219 177.225L185.304 172.205L182.959 168.173L181.017 164.845L179.372 162.035L177.951 159.616L175.589 155.623L173.665 152.404L170.572 147.334L167.994 143.249L165.592 139.582L162.245 134.701L160.335 132.014L158.117 128.958L155.393 125.273L151.813 120.497L149.5 117.438L146.648 113.679L142.996 108.885L140.741 105.932L138.094 102.467L135.41 98.9585L132.235 94.8116L128.414 89.8227L126.193 86.9236L123.715 83.6905L120.932 80.0599L117.782 75.9512L114.185 71.2603L112.188 68.6555L110.037 65.8508L107.714 62.8218L105.196 59.5399L102.459 55.9716L99.472 52.0771L96.1978 47.8089L92.593 43.1098L90.6503 40.5775L88.604 37.9103L86.4457 35.0969L84.1656 32.1249M246.819 244.099L244.761 241.417L242.802 238.865L239.155 234.113L235.828 229.778L232.781 225.809L229.98 222.159L227.395 218.792L225.003 215.675L222.782 212.782L220.138 209.339L217.718 206.186L215.493 203.288L213.44 200.614L209.776 195.843L206.6 191.709L203.818 188.089L201.361 184.891L199.172 182.043L197.208 179.49L193.825 175.094L191.009 171.437L188.62 168.338L186.562 165.673L183.179 161.301L180.488 157.836L178.271 154.995L176.391 152.599L173.311 148.711L170.802 145.596L166.635 140.576L162.824 136.195L158.678 131.652L156.218 129.041L153.265 125.962L149.486 122.082L147.106 119.658L144.23 116.744L141.571 114.06L138.355 110.821L134.354 106.8L131.955 104.392L129.207 101.635L126.023 98.4435L122.283 94.6967L117.821 90.2275L115.247 87.6503L112.393 84.7936L109.21 81.6079L105.636 78.031L101.591 73.9844L96.9757 69.3666L94.4138 66.8036L91.6561 64.0449L88.6792 61.0669L85.4552 57.8421L81.9519 54.3379L78.1309 50.5159L73.9462 46.3305L69.343 41.7265M258.273 230.657L253.67 226.054L249.484 221.869L245.662 218.048L242.158 214.545L238.933 211.321L235.955 208.344L233.196 205.586L230.633 203.024L226.016 198.409L221.969 194.364L218.392 190.79L215.206 187.607L212.35 184.753L209.772 182.179L205.303 177.716L201.556 173.977L198.365 170.793L195.608 168.045L193.2 165.646L189.179 161.645L185.94 158.429L183.256 155.77L180.342 152.894L177.918 150.514L174.038 146.735L170.959 143.782L168.348 141.322L163.805 137.176L159.424 133.365L154.404 129.198L151.289 126.689L147.401 123.608L145.005 121.729L142.164 119.512L138.699 116.821L134.327 113.438L131.662 111.38L128.563 108.991L124.906 106.175L120.51 102.792L117.957 100.828L115.109 98.6392L111.911 96.1815L108.291 93.4003L104.157 90.2244L99.3857 86.5603L96.7124 84.5075L93.8144 82.2823L90.6614 79.8616L87.2176 77.2178L84.3245 74.9969L81.2081 72.6046L77.841 70.0201L74.1914 67.2188L70.2217 64.1719L65.8873 60.8452L61.1349 57.1978L58.5825 55.2389L55.9005 53.1806M267.875 215.834L262.987 212.085L258.521 208.658L254.424 205.515L250.651 202.621L247.165 199.947L243.935 197.469L240.932 195.166L238.134 193.02L233.072 189.137L228.614 185.718L224.656 182.683L221.117 179.97L217.81 177.435L214.829 175.15L212.127 173.08L209.666 171.194L205.344 167.884L201.667 165.069L198.496 162.643L195.728 160.527L191.115 157.004L187.405 154.177L184.337 151.845L179.503 148.187L175.793 145.402L172.783 143.165L167.986 139.665L164.041 136.876L160.418 134.408L155.458 131.18L152.665 129.428L149.447 127.454L145.52 125.092L140.384 122.049L137.077 120.107L133.003 117.727L130.572 116.311L127.795 114.695L124.582 112.83L120.81 110.642L116.988 108.427L112.468 105.811L109.881 104.314L107.029 102.664L103.867 100.836L100.34 98.7967L96.38 96.5075L91.8974 93.917L86.7791 90.9597L83.9369 89.3176L80.8763 87.5495L77.5708 85.6401L73.9893 83.5713L70.0951 81.3221L65.8448 78.8673L61.1865 76.177L56.0577 73.2151L53.2938 71.6189L50.3826 69.9378L47.3119 68.1646L44.0681 66.2914M275.46 199.885L272.532 198.195L269.745 196.587L267.09 195.054L264.557 193.592L259.825 190.861L255.491 188.359L251.506 186.059L247.83 183.937L244.427 181.974L241.268 180.151L237.507 177.981L234.064 175.994L230.899 174.168L227.98 172.484L225.278 170.925L222.769 169.478L218.253 166.874L214.298 164.594L210.803 162.58L207.691 160.787L204.9 159.179L200.092 156.412L196.09 154.112L192.698 152.163L189.776 150.488L184.978 147.743L181.166 145.572L178.031 143.796L175.377 142.302L171.043 139.889L167.533 137.971L164.508 136.356L161.763 134.927L159.153 133.608L156.565 132.338L153.888 131.064L150.996 129.728L147.724 128.257L143.817 126.543L138.841 124.404L135.715 123.076L131.942 121.484L128.459 120.022L124.248 118.26L121.783 117.23L119.014 116.076L115.875 114.769L112.282 113.274L108.118 111.544L103.23 109.513L100.448 108.358L97.3964 107.092L94.0319 105.696L90.3021 104.149L86.1423 102.424L81.4713 100.487L78.913 99.4263L76.1863 98.2959L73.2736 97.0886L70.1549 95.7959L66.8071 94.4084L63.2037 92.9151L59.3137 91.303L55.1011 89.5574L50.5235 87.6606L45.5307 85.5918L42.8603 84.4854L40.0629 83.3264L37.1289 82.1108L34.0482 80.8344M280.898 183.083L277.817 181.807L274.883 180.592L272.085 179.433L269.414 178.327L264.421 176.26L259.843 174.364L255.63 172.62L251.739 171.009L248.135 169.517L244.787 168.131L241.668 166.84L238.754 165.634L236.027 164.505L233.468 163.446L228.796 161.513L224.634 159.791L220.903 158.248L217.537 156.856L214.484 155.593L211.7 154.443L206.808 152.422L202.64 150.702L199.042 149.218L195.899 147.923L193.124 146.781L190.654 145.766L186.429 144.034L182.932 142.605L179.14 141.063L175.99 139.791L170.958 137.785L166.985 136.235L163.631 134.961L160.641 133.861L157.847 132.869L155.118 131.937L152.34 131.024L149.389 130.093L146.108 129.097L142.27 127.971L137.499 126.612L134.566 125.792L131.093 124.832L126.863 123.671L124.363 122.989L121.529 122.219L118.279 121.338L114.502 120.316L110.045 119.114L107.497 118.427L104.689 117.671L101.579 116.834L98.11 115.901L94.2151 114.854L89.8064 113.67L84.7713 112.318L81.9741 111.567L78.9612 110.759L75.7058 109.885L72.1768 108.938L68.3375 107.908L64.1441 106.784L60.6213 105.839L56.8266 104.822L52.7268 103.722L48.283 102.531L43.4495 101.235L40.87 100.543L38.1719 99.8202L35.3469 99.0629L32.3855 98.2692L29.2778 97.4361L26.0123 96.5609M284.096 165.714L281.052 164.899L278.145 164.12L275.367 163.376L272.708 162.664L267.72 161.328L263.126 160.098L258.883 158.961L254.95 157.908L251.295 156.929L247.888 156.017L244.706 155.165L241.725 154.368L238.928 153.619L236.298 152.915L231.48 151.626L227.173 150.474L223.147 149.397L219.519 148.427L216.231 147.548L213.235 146.748L210.494 146.016L207.975 145.343L203.501 144.15L199.643 143.122L196.275 142.226L193.307 141.438L190.665 140.737L186.156 139.545L182.429 138.565L179.279 137.74L176.564 137.035L172.07 135.882L168.433 134.967L165.358 134.212L162.661 133.569L157.95 132.502L153.658 131.608L150.814 131.06L147.84 130.524L144.59 129.974L140.861 129.382L136.329 128.702L133.6 128.307L130.42 127.856L126.622 127.328L121.947 126.688L119.159 126.31L115.975 125.88L112.292 125.386L107.97 124.808L103.591 124.225L101.116 123.896L98.4145 123.537L95.4512 123.144L92.1848 122.712L88.5641 122.232L84.526 121.698L79.9909 121.099L74.8581 120.421L72.0285 120.047L68.9978 119.647L65.7435 119.218L62.2393 118.756L58.4547 118.257L54.3541 117.716L49.8956 117.128L45.0294 116.487L42.4253 116.144L39.6962 115.784L36.8326 115.407L33.8243 115.01L30.66 114.593L27.3271 114.154L23.8115 113.691L20.0978 113.202M285 148.077L281.648 147.636L278.458 147.216L275.418 146.816L272.519 146.435L269.749 146.07L267.101 145.722L262.14 145.07L257.578 144.47L253.37 143.916L249.475 143.404L245.859 142.929L241.554 142.363L237.613 141.846L233.99 141.37L230.648 140.931L227.555 140.525L224.684 140.148L222.01 139.798L219.515 139.47L214.988 138.877L210.989 138.354L207.428 137.888L204.233 137.471L201.35 137.096L198.733 136.755L194.155 136.161L190.275 135.659L186.935 135.229L184.022 134.856L181.452 134.53L177.099 133.983L173.523 133.541L170.5 133.176L165.572 132.606L161.595 132.177L158.182 131.842L155.099 131.573L152.184 131.353L149.306 131.17L146.345 131.017L143.162 130.89L139.576 130.783L135.311 130.694L132.79 130.656L129.895 130.622L126.499 130.592L122.404 130.565L118.627 130.547L114.061 130.531L111.39 130.523L108.39 130.516L104.99 130.51L101.098 130.504L96.5898 130.498L94.054 130.496L91.2961 130.493L88.2843 130.491L84.9803 130.489L81.3377 130.486L77.2998 130.484L72.7965 130.482L67.7399 130.481L64.9704 130.48L62.0187 130.479L58.8657 130.478L55.4897 130.477L51.8658 130.477L47.9652 130.476L43.7545 130.475L39.1945 130.475L34.2394 130.474L31.5972 130.474L28.835 130.473L25.9445 130.473L22.9164 130.473L19.7407 130.472L16.406 130.472" stroke="black" stroke-width="2" stroke-miterlimit="10" stroke-linecap="round" stroke-linejoin="round"/>
</svg>
