<svg width="300" height="300" viewBox="0 0 300 300" fill="none" xmlns="http://www.w3.org/2000/svg">
<path d="M186.385 119.049C186.385 133.148 177.307 145.643 163.898 150C177.307 154.357 186.385 166.852 186.385 180.951M186.385 119.049C186.385 104.95 177.307 92.455 163.898 88.0982C150.489 83.7414 135.8 88.5142 127.513 99.9204M186.385 119.049C199.794 123.406 208.873 135.901 208.873 150C208.873 164.099 199.794 176.594 186.385 180.951M186.385 119.049C172.977 114.692 158.287 119.465 150 130.871C150 116.773 140.922 104.277 127.513 99.9204M127.513 99.9204C119.226 111.327 119.226 126.772 127.513 138.178C114.104 133.821 99.4152 138.594 91.1281 150M127.513 99.9204C114.104 95.5636 99.4152 100.336 91.1281 111.743C82.8411 123.149 82.8411 138.594 91.1281 150M186.385 180.951C172.977 185.308 158.287 180.535 150 169.129C150 183.228 140.922 195.723 127.513 200.08M186.385 180.951C186.385 195.05 177.307 207.545 163.898 211.902C150.489 216.259 135.8 211.486 127.513 200.08M127.513 200.08C119.226 188.674 119.226 173.228 127.513 161.822C114.104 166.179 99.4152 161.406 91.1281 150M127.513 200.08C114.104 204.437 99.4152 199.664 91.1281 188.258C82.8411 176.851 82.8411 161.406 91.1281 150" stroke="black" stroke-width="2" stroke-miterlimit="10" stroke-linecap="round" stroke-linejoin="round"/>
<path d="M208.873 150C225.966 137.581 229.756 113.656 217.336 96.5619C204.917 79.4682 180.992 75.6788 163.898 88.0981" stroke="black" stroke-width="2" stroke-miterlimit="10" stroke-linecap="round" stroke-linejoin="round"/>
<path d="M163.898 88.0981C157.369 68.0032 135.786 57.0061 115.691 63.5353C95.5961 70.0645 84.599 91.6477 91.1282 111.743" stroke="black" stroke-width="2" stroke-miterlimit="10" stroke-linecap="round" stroke-linejoin="round"/>
<path d="M91.1282 111.743C69.9992 111.743 52.8707 128.871 52.8707 150C52.8707 171.129 69.9992 188.257 91.1282 188.257" stroke="black" stroke-width="2" stroke-miterlimit="10" stroke-linecap="round" stroke-linejoin="round"/>
<path d="M91.1282 188.257C84.599 208.352 95.5961 229.935 115.691 236.465C135.786 242.994 157.369 231.997 163.898 211.902" stroke="black" stroke-width="2" stroke-miterlimit="10" stroke-linecap="round" stroke-linejoin="round"/>
<path d="M163.898 211.902C180.992 224.321 204.917 220.532 217.336 203.438C229.756 186.344 225.966 162.419 208.873 150" stroke="black" stroke-width="2" stroke-miterlimit="10" stroke-linecap="round" stroke-linejoin="round"/>
<path d="M217.336 203.438C243.622 199.275 262.977 176.614 262.977 150C262.977 123.387 243.622 100.725 217.336 96.5619" stroke="black" stroke-width="2" stroke-miterlimit="10" stroke-linecap="round" stroke-linejoin="round"/>
<path d="M217.336 96.5619C221.5 70.2761 205.928 44.866 180.617 36.6419C155.306 28.4179 127.773 39.8225 115.691 63.5353" stroke="black" stroke-width="2" stroke-miterlimit="10" stroke-linecap="round" stroke-linejoin="round"/>
<path d="M115.691 63.5353C91.9782 51.4531 62.9999 58.4101 47.3569 79.9409C31.7139 101.472 34.0521 131.181 52.8707 150" stroke="black" stroke-width="2" stroke-miterlimit="10" stroke-linecap="round" stroke-linejoin="round"/>
<path d="M52.8707 150C34.0521 168.819 31.7139 198.528 47.3569 220.059C62.9999 241.59 91.9782 248.547 115.691 236.465" stroke="black" stroke-width="2" stroke-miterlimit="10" stroke-linecap="round" stroke-linejoin="round"/>
<path d="M115.691 236.465C127.773 260.177 155.306 271.582 180.617 263.358C205.928 255.134 221.5 229.724 217.336 203.438" stroke="black" stroke-width="2" stroke-miterlimit="10" stroke-linecap="round" stroke-linejoin="round"/>
</svg>
