<svg width="300" height="300" viewBox="0 0 300 300" fill="none" xmlns="http://www.w3.org/2000/svg">
<path d="M143.785 150C153.575 136.525 151.611 117.832 139.233 106.687C126.854 95.5413 108.059 95.5413 95.6806 106.687C83.3025 117.832 81.3378 136.525 91.1282 150M143.785 150C133.995 136.525 115.61 132.617 101.185 140.945C86.7598 149.273 80.9516 167.149 87.7264 182.366C94.5012 197.582 111.672 205.227 127.513 200.08M143.785 150C127.944 155.147 118.546 171.425 122.009 187.717C125.472 204.01 140.678 215.057 157.243 213.316C173.809 211.575 186.385 197.607 186.385 180.951M143.785 150C143.785 166.657 156.362 180.624 172.927 182.365C189.492 184.107 204.698 173.059 208.161 156.766C211.624 140.474 202.227 124.196 186.385 119.049M143.785 150C159.626 155.147 176.797 147.502 183.572 132.286C190.347 117.069 184.538 99.1938 170.113 90.8655C155.688 82.5373 137.304 86.4451 127.513 99.9205" stroke="black" stroke-width="2" stroke-miterlimit="10" stroke-linecap="round" stroke-linejoin="round"/>
<path d="M208.873 150C219.93 141.966 225.862 128.643 224.433 115.05C223.005 101.457 214.432 89.6586 201.946 84.0993C189.46 78.54 174.956 80.0644 163.898 88.0983" stroke="black" stroke-width="2" stroke-miterlimit="10" stroke-linecap="round" stroke-linejoin="round"/>
<path d="M163.898 88.0983C159.675 75.0992 148.837 65.3408 135.467 62.4991C122.098 59.6573 108.228 64.1639 99.0824 74.3213C89.9367 84.4786 86.9046 98.7436 91.1283 111.743" stroke="black" stroke-width="2" stroke-miterlimit="10" stroke-linecap="round" stroke-linejoin="round"/>
<path d="M91.1283 111.743C77.4602 111.743 64.8304 119.034 57.9964 130.871C51.1623 142.708 51.1623 157.292 57.9964 169.129C64.8304 180.966 77.4602 188.257 91.1283 188.257" stroke="black" stroke-width="2" stroke-miterlimit="10" stroke-linecap="round" stroke-linejoin="round"/>
<path d="M91.1283 188.257C86.9046 201.257 89.9367 215.521 99.0824 225.679C108.228 235.836 122.098 240.343 135.467 237.501C148.837 234.659 159.675 224.901 163.898 211.902" stroke="black" stroke-width="2" stroke-miterlimit="10" stroke-linecap="round" stroke-linejoin="round"/>
<path d="M163.898 211.902C174.956 219.936 189.46 221.46 201.946 215.901C214.432 210.342 223.005 198.543 224.433 184.95C225.862 171.357 219.93 158.034 208.873 150" stroke="black" stroke-width="2" stroke-miterlimit="10" stroke-linecap="round" stroke-linejoin="round"/>
<path d="M217.336 96.562C221.499 70.2762 205.928 44.8661 180.617 36.6421C155.306 28.4181 127.773 39.8227 115.691 63.5355" stroke="black" stroke-width="2" stroke-miterlimit="10" stroke-linecap="round" stroke-linejoin="round"/>
<path d="M115.691 63.5355C91.9783 51.4532 63.0001 58.4103 47.3571 79.941C31.7141 101.472 34.0523 131.181 52.8708 150" stroke="black" stroke-width="2" stroke-miterlimit="10" stroke-linecap="round" stroke-linejoin="round"/>
<path d="M52.8708 150C34.0523 168.819 31.7141 198.528 47.3571 220.059C63.0001 241.59 91.9783 248.547 115.691 236.465" stroke="black" stroke-width="2" stroke-miterlimit="10" stroke-linecap="round" stroke-linejoin="round"/>
<path d="M115.691 236.465C127.773 260.177 155.306 271.582 180.617 263.358C205.928 255.134 221.499 229.724 217.336 203.438" stroke="black" stroke-width="2" stroke-miterlimit="10" stroke-linecap="round" stroke-linejoin="round"/>
<path d="M217.336 203.438C243.622 199.275 262.977 176.614 262.977 150C262.977 123.387 243.622 100.725 217.336 96.562" stroke="black" stroke-width="2" stroke-miterlimit="10" stroke-linecap="round" stroke-linejoin="round"/>
</svg>
