<svg width="300" height="300" viewBox="0 0 300 300" fill="none" xmlns="http://www.w3.org/2000/svg">
<path d="M189.779 150L186.597 145.667L183.197 141.36L179.6 137.104L175.828 132.925L171.901 128.847L167.845 124.895L163.683 121.092L159.439 117.461L155.139 114.023L150.809 110.799L146.474 107.808L142.16 105.068L137.893 102.595L133.697 100.403L129.599 98.5066L125.621 96.9157L121.789 95.6404L118.124 94.688L114.649 94.0643L111.384 93.7731L108.348 93.8159L105.56 94.1926L103.035 94.901L100.79 95.9368L99.7768 96.5756L98.8379 97.2938L97.1893 98.9641L96.4822 99.9136L95.8546 100.938L94.8417 103.203L94.1566 105.746L93.8033 108.552L93.784 111.604L94.0987 114.885L94.7457 118.374L95.7211 122.051L97.019 125.895L98.6317 129.881L100.55 133.987L102.762 138.189L105.254 142.46L108.013 146.776L111.021 151.112L114.261 155.44L117.713 159.737L121.357 163.976L125.171 168.131L129.133 172.179L133.218 176.095L137.404 179.856L141.664 183.439L145.974 186.824L150.308 189.99L154.64 192.918L158.945 195.592L163.196 197.994L167.369 200.111L171.439 201.931L175.381 203.442L179.173 204.635L182.791 205.503L186.215 206.042L189.423 206.248L192.397 206.119L195.119 205.657L197.573 204.864L199.744 203.746L200.72 203.066L201.62 202.307L203.189 200.558L203.855 199.571L204.442 198.509L205.371 196.171L205.972 193.559L206.239 190.688L206.173 187.576L205.773 184.24L205.041 180.7L203.982 176.978L202.603 173.096L200.911 169.077L198.917 164.944L196.631 160.722L194.069 156.437L191.245 152.113L188.176 147.777L184.88 143.454L181.376 139.17L177.687 134.95L173.832 130.82L169.837 126.804L165.723 122.925L161.516 119.208L157.24 115.673L152.922 112.343L148.586 109.236L144.258 106.371L139.965 103.766L135.731 101.435L131.582 99.3934L127.543 97.6521L123.637 96.222L119.888 95.1114L116.317 94.3269L112.947 93.8733L109.797 93.7533L106.886 93.9674L104.232 94.5146L101.849 95.3914L99.7521 96.5928L98.815 97.313L97.9541 98.1116L96.4653 99.9386L95.8397 100.964L95.2947 102.063L94.4492 104.473L93.9338 107.153L93.7516 110.087L93.9037 113.259L94.3891 116.649L95.205 120.237L96.3466 124.002L97.807 127.922L99.5776 131.973L101.648 136.131L104.005 140.371L106.636 144.669L109.525 148.998L112.654 153.333L116.005 157.649L119.558 161.919L123.292 166.118L127.185 170.221L131.213 174.204L135.353 178.044L139.58 181.716L143.869 185.201L148.195 188.476L152.531 191.522L156.852 194.322L161.133 196.858L165.347 199.116L169.47 201.082L173.478 202.744L177.346 204.093L181.051 205.121L184.572 205.821L187.888 206.189L190.978 206.224L193.825 205.924L196.411 205.292L198.722 204.331L200.743 203.048L201.642 202.287L202.463 201.449L203.871 199.545L204.456 198.481L204.959 197.346L205.72 194.866L206.15 192.119L206.247 189.122L206.009 185.892L205.439 182.449L204.539 178.813L203.315 175.007L201.774 171.051L199.926 166.97L197.78 162.789L195.351 158.531L192.653 154.223L189.701 149.89L186.513 145.557L183.108 141.251L179.507 136.997L175.73 132.82L171.8 128.745L167.741 124.797L163.576 120.998L159.331 117.371L155.03 113.939L150.699 110.721L146.365 107.736L142.051 105.002L137.785 102.536L133.592 100.352L129.496 98.4624L125.522 96.8795L121.694 95.6122L118.034 94.6681L114.563 94.0528L111.304 93.77L108.274 93.8214L105.492 94.2065L102.975 94.9232L100.737 95.9672L99.7274 96.6101L98.7923 97.3323L97.1516 99.0104L96.4485 99.9637L95.8249 100.991L94.8203 103.264L94.1435 105.814L93.7987 108.626L93.7878 111.685L94.111 114.971L94.7664 118.465L95.75 122.147L97.056 125.994L98.6766 129.984L100.602 134.093L102.821 138.296L105.321 142.569L108.086 146.886L111.1 151.222L114.346 155.55L117.803 159.845L121.451 164.082L125.27 168.235L129.235 172.28L133.323 176.192L137.511 179.949L141.773 183.528L146.084 186.907L150.418 190.067L154.75 192.989L159.053 195.656L163.303 198.051L167.474 200.161L171.541 201.973L175.479 203.476L179.267 204.661L182.881 205.521L186.299 206.051L189.501 206.249L192.469 206.112L195.185 205.641L197.631 204.84L199.795 203.713L200.767 203.029L201.663 202.267L203.224 200.51L203.887 199.519L204.469 198.453L205.39 196.108L205.982 193.49L206.242 190.612L206.167 187.494L205.758 184.152L205.018 180.608L203.951 176.882L202.564 172.996L200.864 168.973L198.862 164.838L196.57 160.614L194.001 156.328L191.17 152.003L188.095 147.667L184.793 143.345L181.285 139.062L177.591 134.844L173.733 130.717L169.734 126.704L165.617 122.829L161.408 119.116L157.131 115.586L152.812 112.261L148.476 109.16L144.149 106.302L139.857 103.703L135.625 101.38L131.479 99.3455L127.442 97.612L123.54 96.1899L119.795 95.0874L116.23 94.3113L112.865 93.8662L109.721 93.7546L106.816 93.9772L104.168 94.5327L101.792 95.4179L99.7028 96.6274L98.7696 97.3516L97.9125 98.1541L96.4317 99.9888L95.8102 101.018L95.2692 102.121L94.432 104.537L93.9251 107.224L93.7513 110.165L93.9119 113.342L94.4057 116.738L95.23 120.331L96.3797 124.1L97.8481 128.023L99.6264 132.077L101.704 136.237L104.069 140.48L106.706 144.778L109.601 149.108L112.736 153.443L116.093 157.758L119.651 162.026L123.389 166.223L127.286 170.324L131.317 174.304L135.46 178.139L139.688 181.807L143.979 185.286L148.305 188.556L152.641 191.596L156.961 194.389L161.24 196.919L165.453 199.169L169.573 201.128L173.577 202.782L177.442 204.123L181.143 205.143L184.659 205.834L187.969 206.194L191.053 206.22L193.894 205.912L196.473 205.272L198.777 204.303L200.791 203.011L201.685 202.247L202.503 201.404L203.903 199.492L204.483 198.425L204.982 197.286L205.735 194.799L206.157 192.046L206.245 189.043L205.999 185.807L205.42 182.359L204.512 178.719L203.28 174.908L201.731 170.949L199.875 166.866L197.722 162.682L195.286 158.423L192.581 154.114L189.623 149.78L186.429 145.448L183.019 141.143L179.413 136.89L175.632 132.716L171.699 128.644L167.636 124.699L163.469 120.904L159.222 117.282L154.921 113.855L150.589 110.642L146.255 107.663L141.943 104.936L137.678 102.477L133.487 100.3L129.394 98.4185L125.423 96.8435L121.599 95.5843L117.943 94.6485L114.478 94.0416L111.224 93.7672L108.2 93.827L105.425 94.2206L102.915 94.9456L100.684 95.9979L99.6782 96.6448L98.7469 97.371L97.1141 99.0569L96.4149 100.014L95.7955 101.045L94.799 103.325L94.1306 105.882L93.7943 108.701L93.7919 111.765L94.1236 115.057L94.7873 118.556L95.7791 122.242L97.0932 126.094L98.7217 130.087L100.655 134.198L102.881 138.404L105.388 142.678L108.159 146.996L111.18 151.331L114.431 155.659L117.893 159.953L121.546 164.188L125.368 168.339L129.337 172.381L133.428 176.289L137.618 180.042L141.882 183.616L146.194 186.99L150.528 190.144L154.859 193.06L159.162 195.72L163.41 198.108L167.578 200.211L171.642 202.015L175.577 203.51L179.361 204.687L182.97 205.539L186.383 206.06L189.579 206.249L192.541 206.104L195.25 205.625L197.69 204.816L199.846 203.68L200.814 202.993L201.707 202.226L203.26 200.462L203.918 199.466L204.497 198.397L205.409 196.045L205.993 193.42L206.244 190.536L206.161 187.412L205.744 184.065L204.995 180.516L203.92 176.785L202.525 172.895L200.817 168.87L198.808 164.732L196.508 160.506L193.932 156.218L191.095 151.893L188.014 147.557L184.707 143.236L181.194 138.954L177.495 134.739L173.633 130.614L169.631 126.604L165.512 122.733L161.301 119.024L157.022 115.499L152.702 112.18L148.366 109.085L144.04 106.233L139.749 103.641L135.519 101.325L131.375 99.2978L127.342 97.5721L123.443 96.1579L119.702 95.0637L116.142 94.296L112.782 93.8592L109.644 93.7561L106.746 93.9872L104.104 94.5511L101.736 95.4446L99.6537 96.6622L98.7243 97.3904L97.8711 98.1968L96.3983 100.039L95.7808 101.073L95.244 102.179L94.4151 104.602L93.9165 107.295L93.7513 110.242L93.9203 113.426L94.4226 116.826L95.2551 120.424L96.413 124.198L97.8893 128.124L99.6754 132.181L101.76 136.344L104.132 140.588L106.777 144.888L109.678 149.218L112.819 153.553L116.18 157.866L119.743 162.133L123.486 166.328L127.386 170.426L131.421 174.403L135.566 178.234L139.797 181.898L144.088 185.372L148.415 188.636L152.751 191.67L157.07 194.457L161.348 196.979L165.558 199.223L169.676 201.174L173.677 202.82L177.537 204.153L181.234 205.164L184.745 205.848L188.05 206.199L191.128 206.216L193.962 205.9L196.535 205.251L198.832 204.274L200.838 202.974L201.728 202.206L202.542 201.36L203.934 199.44L204.51 198.369L205.005 197.227L205.75 194.733L206.163 191.973L206.243 188.963L205.988 185.722L205.401 182.269L204.485 178.624L203.244 174.809L201.688 170.847L199.824 166.761L197.664 162.575L195.221 158.314L192.509 154.004L189.545 149.67L186.346 145.338L182.93 141.034L179.319 136.783L175.534 132.611L171.597 128.542L167.532 124.6L163.363 120.81L159.114 117.193L154.811 113.771L150.48 110.564L146.145 107.591L141.834 104.871L137.571 102.418L133.382 100.249L129.292 98.3748L125.325 96.8076L121.504 95.5565L117.853 94.629L114.393 94.0305L111.145 93.7646L108.127 93.8328L105.358 94.2349L102.855 94.9683" stroke="black" stroke-width="2" stroke-miterlimit="10" stroke-linecap="round" stroke-linejoin="round"/>
<path d="M189.778 150L192.724 145.667L195.416 141.36L197.838 137.104L199.976 132.925L201.817 128.847L203.35 124.895L204.565 121.092L205.457 117.461L206.019 114.023L206.248 110.799L206.143 107.808L205.705 105.068L204.935 102.595L203.839 100.403L203.171 99.4174L202.423 98.5066L200.696 96.9157L199.718 96.2381L198.667 95.6404L196.349 94.688L193.756 94.0643L190.902 93.7731L187.806 93.8159L184.485 94.1926L180.959 94.901L177.249 95.9368L173.377 97.2938L169.367 98.9641L165.241 100.938L161.025 103.203L156.743 105.746L152.421 108.552L148.085 111.604L143.76 114.885L139.472 118.374L135.247 122.051L131.11 125.895L127.084 129.881L123.195 133.987L119.466 138.189L115.917 142.46L112.572 146.776L109.448 151.112L106.566 155.44L103.942 159.737L101.591 163.976L99.5287 168.131L97.7659 172.179L96.3135 176.095L95.1801 179.856L94.3725 183.439L93.8955 186.824L93.7519 189.99L93.9425 192.918L94.4663 195.592L95.3201 197.994L96.4989 200.111L97.208 201.059L97.9956 201.931L99.8013 203.442L100.817 204.078L101.905 204.635L104.295 205.503L106.957 206.042L109.874 206.248L113.03 206.119L116.405 205.657L119.98 204.864L123.734 203.746L127.644 202.307L131.686 200.558L135.837 198.509L140.073 196.171L144.367 193.559L148.695 190.688L153.031 187.576L157.349 184.24L161.623 180.7L165.828 176.978L169.939 173.096L173.932 169.077L177.782 164.944L181.467 160.722L184.966 156.437L188.256 152.113L191.319 147.777L194.137 143.454L196.692 139.17L198.97 134.95L200.957 130.82L202.642 126.804L204.013 122.925L205.063 119.208L205.787 115.673L206.178 112.343L206.236 109.236L205.96 106.371L205.351 103.766L204.414 101.435L203.153 99.3934L202.403 98.4845L201.576 97.6521L199.693 96.222L198.639 95.6263L197.514 95.1114L195.053 94.3269L192.324 93.8733L189.344 93.7533L186.13 93.9674L182.702 94.5146L179.079 95.3914L175.283 96.5928L171.337 98.1116L167.264 99.9386L163.089 102.063L158.836 104.473L154.531 107.153L150.198 110.087L145.865 113.259L141.556 116.649L137.297 120.237L133.113 124.002L129.03 127.922L125.072 131.973L121.262 136.131L117.623 140.371L114.176 144.669L110.941 148.998L107.94 153.333L105.188 157.649L102.702 161.919L100.497 166.118L98.5868 170.221L96.9819 174.204L95.6921 178.044L94.725 181.716L94.0864 185.201L93.7801 188.476L93.8079 191.522L94.1696 194.322L94.8631 196.858L95.8842 199.116L97.227 201.082L98.0166 201.952L98.8834 202.744L100.844 204.093L101.934 204.648L103.096 205.121L105.627 205.821L108.422 206.189L111.463 206.224L114.734 205.924L118.215 205.292L121.884 204.331L125.72 203.048L129.701 201.449L133.802 199.545L138 197.346L142.269 194.866L146.584 192.119L150.919 189.122L155.249 185.892L159.547 182.449L163.789 178.813L167.949 175.007L172.002 171.051L175.925 166.97L179.693 162.789L183.285 158.531L186.68 154.223L189.856 149.89L192.796 145.557L195.481 141.251L197.896 136.997L200.026 132.82L201.859 128.745L203.384 124.797L204.592 120.998L205.475 117.371L206.029 113.939L206.25 110.721L206.136 107.736L205.689 105.002L204.911 102.536L203.807 100.352L203.135 99.3694L202.383 98.4624L200.648 96.8795L199.667 96.2059L198.612 95.6122L196.287 94.6681L193.687 94.0528L190.827 93.77L187.725 93.8214L184.398 94.2065L180.867 94.9232L177.153 95.9672L173.277 97.3323L169.264 99.0104L165.135 100.991L160.917 103.264L156.634 105.814L152.311 108.626L147.975 111.685L143.651 114.971L139.364 118.465L135.141 122.147L131.006 125.994L126.984 129.984L123.099 134.093L119.373 138.296L115.83 142.569L112.49 146.886L109.372 151.222L106.496 155.55L103.879 159.845L101.536 164.082L99.4803 168.235L97.7252 172.28L96.2808 176.192L95.1556 179.949L94.3563 183.528L93.8877 186.907L93.7526 190.067L93.9517 192.989L94.4839 195.656L95.346 198.051L96.5329 200.161L97.246 201.105L98.0376 201.973L99.851 203.476L100.87 204.108L101.962 204.661L104.359 205.521L107.028 206.051L109.951 206.249L113.113 206.112L116.494 205.641L120.073 204.84L123.831 203.713L127.744 202.267L131.79 200.51L135.944 198.453L140.181 196.108L144.477 193.49L148.805 190.612L153.141 187.494L157.458 184.152L161.731 180.608L165.934 176.882L170.042 172.996L174.031 168.973L177.878 164.838L181.558 160.614L185.052 156.328L188.337 152.003L191.394 147.667L194.205 143.345L196.754 139.062L199.024 134.844L201.004 130.717L202.68 126.704L204.044 122.829L205.086 119.116L205.801 115.586L206.184 112.261L206.233 109.16L205.949 106.302L205.332 103.703L204.386 101.38L203.117 99.3455L202.363 98.4405L201.532 97.612L199.641 96.1899L198.584 95.5982L197.455 95.0874L194.987 94.3113L192.252 93.8662L189.266 93.7546L186.046 93.9772L182.612 94.5327L178.985 95.4179L175.185 96.6274L171.235 98.1541L167.16 99.9888L162.982 102.121L158.728 104.537L154.421 107.224L150.088 110.165L145.755 113.342L141.447 116.738L137.19 120.331L133.009 124.1L128.928 128.023L124.974 132.077L121.167 136.237L117.533 140.48L114.091 144.778L110.862 149.108L107.867 153.443L105.121 157.758L102.642 162.026L100.445 166.223L98.5423 170.324L96.9453 174.304L95.6636 178.139L94.7047 181.807L94.0745 185.286L93.7767 188.556L93.8129 191.596L94.1831 194.389L94.8849 196.919L95.9143 199.169L96.55 200.186L97.2651 201.128L98.9293 202.782L99.8759 203.493L100.897 204.123L103.157 205.143L105.694 205.834L108.496 206.194L111.543 206.22L114.82 205.912L118.305 205.272L121.979 204.303L125.819 203.011L129.803 201.404L133.908 199.492L138.107 197.286L142.378 194.799L146.693 192.046L151.029 189.043L155.358 185.807L159.655 182.359L163.896 178.719L168.053 174.908L172.103 170.949L176.022 166.866L179.787 162.682L183.374 158.423L186.763 154.114L189.934 149.78L192.867 145.448L195.545 141.143L197.953 136.89L200.076 132.716L201.902 128.644L203.419 124.699L204.618 120.904L205.494 117.282L206.039 113.855L206.251 110.642L206.129 107.663L205.674 104.936L204.887 102.477L203.775 100.3L203.098 99.3216L202.343 98.4185L200.6 96.8435L199.615 96.1739L198.556 95.5843L196.224 94.6485L193.617 94.0416L190.751 93.7672L187.643 93.827L184.311 94.2206L180.775 94.9456L177.057 95.9979L173.177 97.371L169.16 99.0569L165.029 101.045L160.809 103.325L156.525 105.882L152.201 108.701L147.865 111.765L143.542 115.057L139.256 118.556L135.035 122.242L130.903 126.094L126.884 130.087L123.002 134.198L119.281 138.404L115.743 142.678L112.408 146.996L109.296 151.331L106.427 155.659L103.816 159.953L101.48 164.188L99.4321 168.339L97.6847 172.381L96.2483 176.289L95.1313 180.042L94.3403 183.616L93.8801 186.99L93.7535 190.144L93.9611 193.06L94.5017 195.72L95.3721 198.108L96.5671 200.211L97.2843 201.151L98.0797 202.015L99.9009 203.51L100.924 204.138L102.02 204.687L104.424 205.539L107.099 206.06L110.028 206.249L113.196 206.104L116.582 205.625L120.167 204.816L123.929 203.68L127.845 202.226L131.894 200.462L136.05 198.397L140.289 196.045L144.586 193.42L148.915 190.536L153.251 187.412L157.567 184.065L161.838 180.516L166.039 176.785L170.145 172.895L174.13 168.87L177.973 164.732L181.649 160.506L185.138 156.218L188.417 151.893L191.468 147.557L194.273 143.236L196.815 138.954L199.078 134.739L201.05 130.614L202.719 126.604L204.074 122.733L205.108 119.024L205.815 115.499L206.189 112.18L206.23 109.085L205.937 106.233L205.312 103.641L204.358 101.325L203.08 99.2978L202.323 98.3966L201.488 97.5721L199.589 96.1579L198.529 95.5704L197.396 95.0637L194.921 94.296L192.179 93.8592L189.187 93.7561L185.962 93.9872L182.523 94.5511L178.89 95.4446L175.087 96.6622L171.134 98.1968L167.055 100.039L162.875 102.179L158.619 104.602L154.311 107.295L149.978 110.242L145.645 113.426L141.338 116.826L137.083 120.424L132.904 124.198L128.827 128.124L124.875 132.181L121.073 136.344L117.443 140.588L114.006 144.888L110.784 149.218L107.794 153.553L105.055 157.866L102.583 162.133L100.393 166.328L98.498 170.426L96.9089 174.403L95.6353 178.234L94.6847 181.898L94.0629 185.372L93.7734 188.636L93.8182 191.67L94.1968 194.457L94.907 196.979L95.9446 199.223L96.5844 200.236L97.3035 201.174L98.9755 202.82L99.9259 203.527L100.951 204.153L103.217 205.164L105.762 205.848L108.57 206.199L111.624 206.216L114.906 205.9L118.396 205.251L122.074 204.274L125.919 202.974L129.906 201.36L134.013 199.44L138.215 197.227L142.487 194.733L146.803 191.973L151.139 188.963L155.467 185.722L159.764 182.269L164.002 178.624L168.157 174.809L172.204 170.847L176.12 166.761L179.88 162.575L183.462 158.314L186.846 154.004L190.011 149.67L192.938 145.338L195.61 141.034L198.011 136.783L200.126 132.611L201.944 128.542L203.453 124.6L204.645 120.81L205.511 117.193L206.048 113.771L206.252 110.564L206.122 107.591L205.658 104.871L204.863 102.418L203.743 100.249L203.062 99.2741L202.303 98.3748L200.552 96.8076L199.563 96.1421L198.501 95.5565L196.161 94.629L193.548 94.0305L190.675 93.7646L187.561 93.8328L184.224 94.2349L180.683 94.9683" stroke="black" stroke-width="2" stroke-miterlimit="10" stroke-linecap="round" stroke-linejoin="round"/>
<path d="M229.554 150L232.562 145.664L235.446 141.334L238.203 137.017L240.83 132.72L243.321 128.448L245.674 124.208L247.884 120.007L249.949 115.85L251.866 111.743L253.631 107.694L255.242 103.708L256.697 99.7901L257.993 95.9471L259.128 92.1844L260.102 88.5076L260.912 84.9222L261.557 81.4336L262.036 78.0468L262.349 74.767L262.494 71.599L262.473 68.5475L262.284 65.617L261.929 62.812L261.407 60.1365L259.868 55.19L257.676 50.8069L256.339 48.8349L254.844 47.0132L251.389 43.8316L249.434 42.4763L247.331 41.2808L242.696 39.3761L240.169 38.6697L237.509 38.1287L234.719 37.7541L231.802 37.5462L228.764 37.5055L225.61 37.6319L222.342 37.9253L218.968 38.3853L215.49 39.0112L211.916 39.802L208.249 40.7567L204.496 41.8736L200.662 43.1512L196.752 44.5877L192.774 46.1808L188.731 47.9282L184.631 49.8273L180.48 51.8752L176.283 54.069L172.047 56.4054L167.778 58.8808L163.483 61.4917L159.168 64.2341L154.84 67.104L150.504 70.097L146.167 73.2088L141.836 76.4348L137.517 79.7701L133.217 83.2097L128.942 86.7486L124.698 90.3815L120.492 94.103L116.329 97.9076L112.217 101.79L108.16 105.743L104.166 109.763L100.24 113.842L96.3882 117.975L92.6158 122.155L88.9287 126.377L85.3324 130.634L81.8322 134.92L78.4333 139.228L75.1408 143.553L71.9595 147.886L68.8943 152.223L65.9495 156.557L63.1297 160.881L60.439 165.189L57.8814 169.474L55.4607 173.73L53.1805 177.951L51.0441 182.13L49.0549 186.262L47.2157 190.34L45.5292 194.358L43.998 198.31L42.6244 202.19L41.4103 205.992L40.3576 209.712L39.4679 213.342L38.7424 216.879L38.1823 220.316L37.7884 223.648L37.5613 226.871L37.5012 229.98L37.6083 232.97L37.8825 235.837L38.3233 238.576L38.9301 241.184L40.6377 245.988L42.9953 250.223L44.4135 252.118L45.9887 253.861L49.6002 256.883L51.6311 258.157L53.8083 259.27L58.5881 261.007L61.1836 261.628L63.9111 262.084L66.7665 262.373L69.7457 262.496L72.8441 262.451L76.0572 262.238L79.3802 261.86L82.8081 261.314L86.3359 260.604L89.9583 259.729L93.67 258.691L97.4654 257.491L101.339 256.132L105.285 254.615L109.297 252.942L113.37 251.117L117.497 249.141L121.672 247.018L125.89 244.751L130.143 242.343L134.426 239.797L138.732 237.119L143.055 234.31L147.388 231.377L151.725 228.322L156.06 225.151L160.385 221.869L164.695 218.479L168.984 214.988L173.244 211.4L177.469 207.721L181.654 203.956L185.791 200.111L189.876 196.192L193.901 192.204L197.861 188.153L201.75 184.046L205.562 179.887L209.291 175.685L212.932 171.444L216.48 167.172L219.929 162.874L223.274 158.556L226.51 154.226L229.632 149.89L232.636 145.554L235.517 141.225L238.272 136.908L240.895 132.611L243.382 128.34L245.732 124.101L247.938 119.901L250 115.745L251.912 111.64L253.674 107.592L255.281 103.608L256.731 99.6918L258.024 95.8507L259.155 92.0901L260.124 88.4156L260.93 84.8326L261.571 81.3465L262.046 77.9624L262.354 74.6853L262.496 71.5202L262.47 68.4717L262.277 65.5444L261.918 62.7426L261.392 60.0704L260.7 57.5319L258.825 52.8708L256.303 48.7869L254.804 46.969L253.149 45.3044L249.383 42.444L247.276 41.2526L245.025 40.2228L240.103 38.6539L237.44 38.1172L234.646 37.7467L231.727 37.5431L228.686 37.5066L225.528 37.6373L222.258 37.9349L218.881 38.3992L215.401 39.0292L211.824 39.8242L208.155 40.783L204.4 41.904L200.564 43.1857L196.652 44.6261L192.672 46.2232L188.628 47.9744L184.526 49.8773L180.374 51.929L176.176 54.1265L171.939 56.4664L167.67 58.9453L163.374 61.5596L159.059 64.3053L154.73 67.1783L150.394 70.1744L146.057 73.2892L141.727 76.518L137.408 79.8559L133.109 83.2982L128.834 86.8395L124.591 90.4747L120.386 94.1984L116.224 98.005L112.113 101.889L108.058 105.844L104.066 109.865L100.142 113.946L96.2916 118.08L92.5213 122.262L88.8365 126.485L85.2425 130.743L81.7448 135.029L78.3486 139.338L75.0588 143.662L71.8804 147.996L68.8181 152.333L65.8765 156.667L63.0599 160.99L60.3725 165.298L57.8183 169.582L55.4011 173.838L53.1245 178.057L50.9919 182.236L49.0064 186.366L47.1711 190.442L45.4885 194.459L43.9613 198.409L42.5917 202.287L41.3817 206.088L40.3331 209.805L39.4475 213.433L38.7262 216.967L38.1703 220.401L37.7806 223.731L37.5577 226.952L37.5018 230.058L37.6132 233.044L37.8916 235.908L38.3367 238.644L38.9476 241.248L39.7237 243.716L41.766 248.232L44.4515 252.164L46.0306 253.904L47.7642 255.489L51.6845 258.187L53.8654 259.296L56.1891 260.242L58.6522 261.024L61.2511 261.642L63.9819 262.093L66.8405 262.378L69.8227 262.496L72.9241 262.447L76.14 262.231L79.4658 261.848L82.8963 261.298L86.4266 260.584L90.0513 259.705L93.7652 258.662L97.5626 257.459L101.438 256.096L105.385 254.575L109.399 252.898L113.474 251.069L117.602 249.089L121.779 246.962L125.997 244.691L130.251 242.28L134.535 239.731L138.842 237.049L143.165 234.237L147.498 231.301L151.835 228.243L156.17 225.069L160.495 221.784L164.804 218.392L169.092 214.898L173.351 211.308L177.576 207.627L181.759 203.86L185.896 200.013L189.979 196.092L194.002 192.102L197.96 188.05L201.847 183.941L205.657 179.781L209.384 175.578L213.023 171.336L216.568 167.063L220.015 162.764L223.357 158.447L226.59 154.116L229.71 149.78L232.711 145.444L235.589 141.115L238.34 136.799L240.959 132.503L243.444 128.232L245.789 123.994L247.992 119.795L250.05 115.64L251.959 111.537L253.716 107.491L255.319 103.507L256.766 99.5935L258.054 95.7544L259.182 91.9959L260.147 88.3237L260.948 84.7431L261.585 81.2594L262.056 77.878L262.36 74.6037L262.497 71.4415L262.467 68.396L262.27 65.4718L261.906 62.6732L261.376 60.0044L259.82 55.0718L257.612 50.7034L256.267 48.7389L254.764 46.925L251.293 43.7591L249.331 42.4118L247.221 41.2245L242.571 39.3363L240.038 38.6383L237.371 38.1058L234.574 37.7395L231.651 37.5401L228.607 37.5079L225.447 37.6428L222.174 37.9447L218.794 38.4131L215.311 39.0473L211.732 39.8465L208.061 40.8094L204.304 41.9345L200.465 43.2202L196.552 44.6647L192.57 46.2656L188.525 48.0208L184.422 49.9275L180.268 51.9829L176.069 54.184L171.831 56.5275L167.561 59.0099L163.265 61.6275L158.949 64.3765L154.62 67.2527L150.284 70.2519L145.947 73.3696L141.617 76.6012L137.299 79.9419L133 83.3867L128.726 86.9305L124.484 90.568L120.28 94.2939L116.119 98.1025L112.01 101.988L107.956 105.945L103.966 109.968L100.043 114.05L96.195 118.186L92.4269 122.368L88.7443 126.592L85.1527 130.851L81.6575 135.138L78.2639 139.447L74.9769 143.772L71.8014 148.106L68.7421 152.443L65.8036 156.776L62.9902 161.1L60.3061 165.406L57.7554 169.69L55.3417 173.945L53.0687 178.164L50.9398 182.341L48.9581 186.47L47.1265 190.545L45.4479 194.56L43.9246 198.508L42.559 202.384L41.3531 206.183L40.3086 209.898L39.4272 213.524L38.7101 217.055L38.1584 220.487L37.7729 223.814L37.5542 227.032L37.5026 230.135L37.6182 233.119L37.9009 235.979L38.3501 238.711L38.9653 241.312L40.6895 246.103L43.0633 250.322L44.4896 252.21L46.0726 253.946L49.6995 256.951L51.738 258.217L53.9225 259.322L58.7164 261.042L61.3187 261.655L64.0527 262.103L66.9146 262.384L69.8998 262.497L73.0042 262.444L76.223 262.223L79.5514 261.836L82.9845 261.282L86.5173 260.563L90.1443 259.68L93.8604 258.634L97.6598 257.426L101.537 256.059L105.486 254.534L109.502 252.854L113.577 251.02L117.707 249.037L121.885 246.907L126.105 244.632L130.36 242.217L134.644 239.665L138.951 236.979L143.275 234.165L147.608 231.225L151.945 228.164L156.279 224.988L160.604 221.699L164.913 218.305L169.2 214.809L173.459 211.216L177.682 207.533L181.865 203.764L186 199.915L190.081 195.992L194.103 192L198.06 187.946L201.945 183.836L205.753 179.676L209.478 175.471L213.114 171.228L216.657 166.954L220.101 162.655L223.44 158.337L226.671 154.007L229.787 149.67L232.785 145.334L235.66 141.005L238.408 136.69L241.024 132.394L243.505 128.124L245.847 123.887L248.046 119.689L250.1 115.536L252.005 111.434L253.759 107.389L255.358 103.407L256.801 99.4953L258.085 95.6582L259.208 91.9018L260.169 88.2318L260.967 84.6536L261.599 81.1725L262.066 77.7937L262.366 74.5222L262.499 71.3628L262.464 68.3204L262.263 65.3993L261.895 62.604L261.361 59.9385L260.661 57.4069L258.769 52.7601L256.231 48.6911L254.724 46.881L253.061 45.2241L249.279 42.3798L247.166 41.1965L244.907 40.1749L239.972 38.6227L237.301 38.0944L234.501 37.7324L231.576 37.5372L228.529 37.5092L225.365 37.6484L222.089 37.9545L218.707 38.4271L215.222 39.0656L211.64 39.8689L207.967 40.8359L204.207 41.9651L200.367 43.2549L196.452 44.7033L192.468 46.3082L188.421 48.0672L184.317 49.9777L180.162 52.0369L175.962 54.2416L171.724 56.5887L167.453 59.0746L163.156 61.6956L158.84 64.4478L154.51 67.3272L150.174 70.3295L145.838 73.4501L141.507 76.6845L137.19 80.0279L132.891 83.4753L128.618 87.0215L124.377 90.6614L120.174 94.3894L116.015 98.2L111.906 102.088L107.854 106.047L103.865 110.071L99.9447 114.154L96.0986 118.291L92.3325 122.475L88.6521 126.7L85.0629 130.959L81.5702 135.247L78.1793 139.557L74.895 143.882L71.7224 148.216L68.6661 152.553L65.7307 156.886L62.9206 161.209L60.2398 165.515L57.6925 169.798L55.2824 174.052L53.013 178.27L50.8877 182.446L48.9098 186.574L47.0821 190.648L45.4074 194.661L43.8881 198.607L42.5265 202.482L41.3246 206.278L40.2843 209.991L39.407 213.614L38.6941 217.143L38.1466 220.573L37.7653 223.897L37.5508 227.112L37.5035 230.212L37.6233 233.193L37.9102 236.05L38.3636 238.779L38.983 241.376L39.7674 243.838L41.8261 248.339L43.0975 250.372L44.5278 252.256L47.8562 255.565L49.7494 256.985L51.7915 258.247L56.3106 260.286L58.7807 261.06L61.3863 261.669L64.1237 262.112L66.9887 262.388L69.9771 262.498L73.0844 262.44L76.306 262.215L79.6371 261.824L83.0728 261.266L86.608 260.543L90.2374 259.656L93.9556 258.605L97.7571 257.394L101.636 256.022L105.587 254.493L109.604 252.809L113.681 250.972L117.813 248.985L121.991 246.851L126.212 244.573L130.468 242.154L134.753 239.598L139.06 236.91L143.384 234.092L147.718 231.149L152.055 228.085L156.389 224.906L160.714 221.615L165.022 218.217L169.309 214.719L173.566 211.124L177.789 207.438L181.97 203.667L186.104 199.816L190.184 195.891L194.204 191.898L198.159 187.843L202.042 183.731L205.848 179.569L209.571 175.364L213.205 171.12L216.746 166.846L220.187 162.546L223.524 158.227L226.751 153.897L229.865 149.56L232.86 145.225L235.731 140.896L238.476 136.581L241.088 132.286L243.566 128.017L245.904 123.78L248.1 119.583L250.15 115.431L252.052 111.33L253.801 107.287L255.397 103.307L256.835 99.3971L258.115 95.562L259.234 91.8077L260.191 88.14L260.985 84.5641L261.613 81.0856L262.075 77.7094L262.371 74.4407L262.5 71.2843L262.461 68.2449L262.256 65.3269L261.884 62.5348L261.345 59.8727L259.772 54.9541L257.548 50.6002L256.194 48.6434L254.684 46.8371L251.198 43.687L249.228 42.3478L247.11 41.1686L242.446 39.297L239.906 38.6073L237.232 38.0832L234.429 37.7254L231.5 37.5345L228.45 37.5107L225.283 37.654L222.005 37.9644L218.62 38.4412L215.132 39.0839L211.548 39.8914L207.873 40.8625L204.111 41.9958L200.269 43.2896L196.352 44.7421L192.367 46.3509L188.318 48.1138L184.212 50.0281L180.056 52.091L175.855 54.2994L171.616 56.65L167.344 59.1393L163.047 61.7637L158.73 64.5192L154.4 67.4018L150.064 70.4071L145.728 73.5307L141.398 76.7679L137.081 80.114L132.783 83.5639L128.51 87.1126L124.27 90.7547L120.068 94.4849L115.91 98.2976L111.803 102.187L107.753 106.148L103.765 110.173L99.8463 114.258L96.0021 118.396L92.2381 122.582L88.56 126.807L84.9732 131.068L81.483 135.356L78.0947 139.666L74.8132 143.992L71.6435 148.326L68.5902 152.663L65.658 156.996L62.851 161.318L60.1736 165.624L57.6297 169.907L55.2231 174.16L52.9573 178.377L50.8358 182.552L48.8616 186.678L47.0378 190.75L45.3669 194.761L43.8516 198.706L42.494 202.579L41.2963 206.373L40.26 210.084L39.3869 213.705L38.6781 217.232L38.1348 220.658L37.7578 223.98L37.5476 227.192L37.5044 230.289L37.6285 233.266L37.9196 236.12L38.3773 238.846L39.0008 241.44L40.7417 246.217L43.1318 250.422L44.566 252.302L46.157 254.03L49.7993 257.019L51.8452 258.277L54.037 259.373L58.845 261.077L61.4541 261.682L64.1947 262.121L67.0629 262.393L70.0544 262.499L73.1646 262.437L76.3891 262.208L79.7229 261.812L83.1612 261.25L86.6988 260.523L90.3306 259.631L94.0509 258.577L97.8545 257.361L101.736 255.985L105.688 254.452L109.707 252.764L113.786 250.923L117.918 248.933L122.098 246.795L126.319 244.513L130.576 242.091L134.862 239.532L139.17 236.84L143.494 234.019L147.828 231.073L152.165 228.006L156.499 224.824L160.823 221.53L165.131 218.13L169.417 214.629L173.674 211.031L177.895 207.344L182.075 203.57L186.208 199.718L190.287 195.791L194.305 191.796L198.258 187.739L202.14 183.626L205.943 179.463L209.664 175.257L213.296 171.012L216.834 166.737L220.273 162.437L223.607 158.118L226.832 153.787L229.942 149.45L232.934 145.115L235.802 140.786L238.543 136.472L241.153 132.177L243.627 127.909L245.962 123.674L248.154 119.477L250.2 115.326L252.098 111.227L253.844 107.186L255.435 103.207L256.87 99.299L258.146 95.4658L259.261 91.7137L260.214 88.0482L261.003 84.4748L261.627 80.9988L262.085 77.6253L262.376 74.3593L262.501 71.2058L262.458 68.1694L262.249 65.2546L261.872 62.4658L261.329 59.807L260.621 57.2823L258.713 52.6497L256.158 48.5957L254.643 46.7933L252.973 45.1443L249.176 42.3159L247.055 41.1408L244.789 40.1275L239.84 38.592L237.163 38.0721L234.356 37.7185L231.424 37.5318L228.371 37.5122L225.202 37.6599L221.921 37.9744L218.533 38.4555L215.043 39.1023L211.456 39.914L207.778 40.8892L204.015 42.0266L200.171 43.3245L196.252 44.7809L192.265 46.3937L188.215 48.1604L184.108 50.0785L179.95 52.1452L175.748 54.3572L171.508 56.7114L167.235 59.2042L162.938 61.8319L158.62 64.5907L154.291 67.4764L149.954 70.4848L145.618 73.6113L141.288 76.8514L136.971 80.2002L132.674 83.6527L128.402 87.2038L124.163 90.8482L119.962 94.5805L115.805 98.3952L111.7 102.287L107.651 106.249L103.665 110.276L99.748 114.363L95.9057 118.502L92.1439 122.688L88.468 126.915L84.8835 131.176L81.3959 135.465L78.0102 139.775L74.7315 144.101L71.5647 148.436L68.5144 152.773L65.5853 157.106L62.7816 161.428L60.1075 165.733L57.567 170.015L55.1639 174.267L52.9018 178.483L50.7839 182.657L48.8135 186.782L46.9935 190.852L45.3266 194.862L43.8153 198.805L42.4617 202.676L41.268 206.468L40.2359 210.177L39.3669 213.796L38.6623 217.32L38.1232 220.744L37.7504 224.063L37.5444 227.272L37.5055 230.366L37.6338 233.34L37.9292 236.191L38.391 238.914L39.0188 241.504L39.8115 243.959L41.8867 248.446L43.1662 250.471L44.6044 252.347L47.9485 255.641L49.8493 257.053L51.899 258.307L56.4324 260.329L58.9095 261.095L61.5219 261.695L64.2658 262.13L67.1372 262.398L70.1317 262.499L73.2449 262.433L76.4722 262.2L79.8088 261.8L83.2496 261.234L86.7897 260.502L90.4238 259.606L94.1463 258.548L97.9519 257.328L101.835 255.948L105.789 254.412L109.81 252.72L113.89 250.875L118.023 248.88L122.204 246.739L126.427 244.453L130.684 242.028L134.971 239.465L139.279 236.77L143.604 233.945L147.938 230.996L152.275 227.927L156.608 224.741L160.932 221.445L165.24 218.042L169.525 214.539L173.781 210.939L178.002 207.249L182.181 203.474L186.312 199.619L190.389 195.69L194.406 191.694L198.358 187.636L202.237 183.521L206.039 179.357L209.757 175.15L213.387 170.905L216.922 166.628L220.358 162.327L223.69 158.008L226.912 153.677L230.019 149.341L233.008 145.005L235.874 140.677L238.611 136.363L241.217 132.068L243.688 127.801L246.019 123.567L248.208 119.372L250.25 115.222L252.144 111.124L253.886 107.084L255.473 103.108L256.904 99.2009L258.176 95.3697L259.287 91.6197L260.236 87.9565L261.02 84.3855L261.64 80.912L262.094 77.5412L262.382 74.278L262.502 71.1274L262.455 68.094L262.241 65.1824L261.86 62.3968L261.313 59.7413L259.724 54.8367L257.483 50.4975L256.122 48.5482L254.603 46.7496L251.101 43.6153L249.124 42.2842L246.999 41.1131L242.32 39.2581L239.773 38.5768L237.093 38.0611L234.283 37.7117L231.348 37.5292L228.292 37.5139L225.12 37.6658L221.836 37.9846L218.445 38.4698L214.953 39.1209L211.364 39.9367" stroke="black" stroke-width="2" stroke-miterlimit="10" stroke-linecap="round" stroke-linejoin="round"/>
<path d="M229.554 150L226.429 145.664L223.19 141.334L219.843 137.017L216.391 132.72L212.841 128.448L209.197 124.208L205.466 120.007L201.652 115.85L197.761 111.743L193.8 107.694L189.773 103.708L185.687 99.7901L181.548 95.9471L177.362 92.1844L173.136 88.5076L168.875 84.9222L164.586 81.4336L160.276 78.0468L155.95 74.767L151.615 71.599L147.278 68.5475L142.945 65.617L138.623 62.812L134.317 60.1365L130.035 57.5946L125.782 55.19L121.566 52.9263L117.392 50.8069L113.266 48.8349L109.194 47.0132L105.184 45.3446L101.24 43.8316L97.3682 42.4763L93.5748 41.2808L89.8654 40.2469L86.2453 39.3761L82.7199 38.6697L79.2946 38.1287L75.9743 37.7541L72.7641 37.5462L69.6686 37.5055L66.6926 37.6319L63.8403 37.9253L61.1161 38.3853L58.524 39.0112L56.0679 39.802L51.5778 41.8736L49.5506 43.1512L47.6726 44.5877L44.3756 47.9282L42.9613 49.8273L41.7062 51.8752L39.6803 56.4054L38.9126 58.8808L38.31 61.4917L37.8735 64.2341L37.6035 67.104L37.5006 70.097L37.5649 73.2088L37.7963 76.4348L38.1944 79.7701L38.7587 83.2097L39.4884 86.7486L40.3823 90.3815L41.439 94.103L42.6572 97.9076L44.0349 101.79L45.57 105.743L47.2604 109.763L49.1034 113.842L51.0964 117.975L53.2364 122.155L55.5202 126.377L57.9444 130.634L60.5055 134.92L63.1995 139.228L66.0226 143.553L68.9704 147.886L72.0387 152.223L75.2228 156.557L78.5181 160.881L81.9196 165.189L85.4223 169.474L89.021 173.73L92.7103 177.951L96.4848 182.13L100.339 186.262L104.267 190.34L108.262 194.358L112.32 198.31L116.434 202.19L120.598 205.992L124.805 209.712L129.05 213.342L133.326 216.879L137.627 220.316L141.946 223.648L146.277 226.871L150.614 229.98L154.949 232.97L159.278 235.837L163.592 238.576L167.887 241.184L172.155 243.656L176.39 245.988L180.585 248.178L184.736 250.223L188.834 252.118L192.875 253.861L196.852 255.451L200.76 256.883L204.592 258.157L208.343 259.27L212.007 260.22L215.58 261.007L219.054 261.628L222.426 262.084L225.691 262.373L228.843 262.496L231.878 262.451L234.791 262.238L237.578 261.86L240.235 261.314L245.143 259.729L249.485 257.491L251.436 256.132L253.237 254.615L256.375 251.117L257.708 249.141L258.88 247.018L260.739 242.343L261.422 239.797L261.94 237.119L262.291 234.31L262.476 231.377L262.493 228.322L262.343 225.151L262.026 221.869L261.542 218.479L260.893 214.988L260.079 211.4L259.102 207.721L257.962 203.956L256.662 200.111L255.203 196.192L253.588 192.204L251.819 188.153L249.899 184.046L247.83 179.887L245.616 175.685L243.26 171.444L240.765 167.172L238.135 162.874L235.374 158.556L232.487 154.226L229.477 149.89L226.348 145.554L223.107 141.225L219.756 136.908L216.302 132.611L212.75 128.34L209.104 124.101L205.37 119.901L201.554 115.745L197.662 111.64L193.698 107.592L189.67 103.608L185.583 99.6918L181.443 95.8507L177.256 92.0901L173.028 88.4156L168.767 84.8326L164.477 81.3465L160.166 77.9624L155.84 74.6853L151.506 71.5202L147.169 68.4717L142.836 65.5444L138.514 62.7426L134.208 60.0704L129.927 57.5319L125.675 55.1309L121.46 52.8708L117.286 50.7551L113.162 48.7869L109.092 46.969L105.083 45.3044L101.141 43.7953L97.2711 42.444L93.4798 41.2526L89.7725 40.2228L86.1548 39.3562L82.6319 38.6539L79.2091 38.1172L75.8916 37.7467L72.6842 37.5431L69.5917 37.5066L66.6187 37.6373L63.7697 37.9349L61.0488 38.3992L58.4601 39.0292L53.6945 40.783L49.5011 43.1857L47.627 44.6261L45.905 46.2232L42.9275 49.8773L41.6764 51.929L40.5863 54.1265L38.8953 58.9453L38.2969 61.5596L37.8646 64.3053L37.5988 67.1783L37.5002 70.1744L37.5687 73.2892L37.8043 76.518L38.2067 79.8559L38.7752 83.2982L39.509 86.8395L40.407 90.4747L41.4679 94.1984L42.6901 98.005L44.0718 101.889L45.6109 105.844L47.3052 109.865L49.1521 113.946L51.1488 118.08L53.2925 122.262L55.5799 126.485L58.0077 130.743L60.5721 135.029L63.2695 139.338L66.0957 143.662L69.0467 147.996L72.1179 152.333L75.305 156.667L78.603 160.99L82.0071 165.298L85.5123 169.582L89.1134 173.838L92.8049 178.057L96.5815 182.236L100.437 186.366L104.367 190.442L108.364 194.459L112.424 198.409L116.539 202.287L120.704 206.088L124.912 209.805L129.158 213.433L133.435 216.967L137.736 220.401L142.055 223.731L146.387 226.952L150.723 230.058L155.059 233.044L159.387 235.908L163.701 238.644L167.995 241.248L172.262 243.716L176.496 246.046L180.691 248.232L184.84 250.273L188.937 252.164L192.977 253.904L196.952 255.489L200.858 256.917L204.688 258.187L208.437 259.296L212.099 260.242L215.669 261.024L219.141 261.642L222.51 262.093L225.772 262.378L228.921 262.496L231.953 262.447L234.863 262.231L237.647 261.848L240.3 261.298L242.82 260.584L247.441 258.662L251.484 256.096L253.28 254.575L254.923 252.898L257.739 249.089L258.908 246.962L259.915 244.691L261.438 239.731L261.951 237.049L262.298 234.237L262.478 231.301L262.491 228.243L262.337 225.069L262.016 221.784L261.528 218.392L260.875 214.898L260.056 211.308L259.075 207.627L257.931 203.86L256.627 200.013L255.164 196.092L253.545 192.102L251.772 188.05L249.848 183.941L247.776 179.781L245.558 175.578L243.198 171.336L240.7 167.063L238.067 162.764L235.303 158.447L232.412 154.116L229.399 149.78L226.268 145.444L223.023 141.115L219.67 136.799L216.213 132.503L212.659 128.232L209.01 123.994L205.275 119.795L201.457 115.64L197.562 111.537L193.597 107.491L189.567 103.507L185.479 99.5935L181.337 95.7544L177.149 91.9959L172.921 88.3237L168.658 84.7431L164.368 81.2594L160.057 77.878L155.731 74.6037L151.396 71.4415L147.059 68.396L142.726 65.4718L138.404 62.6732L134.1 60.0044L129.819 57.4694L125.568 55.0718L121.353 52.8154L117.181 50.7034L113.058 48.7389L108.99 46.925L104.982 45.2642L101.042 43.7591L97.174 42.4118L93.3848 41.2245L89.6797 40.1988L86.0643 39.3363L82.5439 38.6383L79.1238 38.1058L75.809 37.7395L72.6044 37.5401L69.5149 37.5079L66.545 37.6428L63.6991 37.9447L60.9815 38.4131L58.3962 39.0473L55.9471 39.8465L51.4715 41.9345L49.4518 43.2202L47.5815 44.6647L44.3001 48.0208L42.8939 49.9275L41.6468 51.9829L39.6374 56.5275L38.8781 59.0099L38.2839 61.6275L37.8558 64.3765L37.5943 67.2527L37.4998 70.2519L37.5726 73.3696L37.8124 76.6012L38.219 79.9419L38.7917 83.3867L39.5297 86.9305L40.4319 90.568L41.4969 94.2939L42.7232 98.1025L44.1089 101.988L45.652 105.945L47.3501 109.968L49.2008 114.05L51.2014 118.186L53.3487 122.368L55.6397 126.592L58.071 130.851L60.6388 135.138L63.3395 139.447L66.169 143.772L69.123 148.106L72.1973 152.443L75.3872 156.776L78.688 161.1L82.0947 165.406L85.6024 169.69L89.2058 173.945L92.8996 178.164L96.6782 182.341L100.536 186.47L104.467 190.545L108.467 194.56L112.527 198.508L116.644 202.384L120.81 206.183L125.019 209.898L129.266 213.524L133.543 217.055L137.845 220.487L142.165 223.814L146.497 227.032L150.833 230.135L155.169 233.119L159.497 235.979L163.81 238.711L168.104 241.312L172.37 243.777L176.603 246.103L180.797 248.286L184.945 250.322L189.04 252.21L193.078 253.946L197.052 255.527L200.956 256.951L204.784 258.217L208.531 259.322L212.191 260.264L215.758 261.042L219.228 261.655L222.594 262.103L225.853 262.384L228.999 262.497L232.028 262.444L234.935 262.223L237.716 261.836L240.366 261.282L245.26 259.68L249.588 257.426L251.531 256.059L253.324 254.534L256.446 251.02L257.771 249.037L258.936 246.907L260.778 242.217L261.453 239.665L261.962 236.979L262.305 234.165L262.48 231.225L262.489 228.164L262.331 224.988L262.005 221.699L261.513 218.305L260.856 214.809L260.034 211.216L259.048 207.533L257.9 203.764L256.592 199.915L255.125 195.992L253.502 192L251.725 187.946L249.797 183.836L247.721 179.676L245.5 175.471L243.137 171.228L240.635 166.954L237.998 162.655L235.231 158.337L232.337 154.007L229.321 149.67L226.187 145.334L222.94 141.005L219.584 136.69L216.125 132.394L212.567 128.124L208.917 123.887L205.179 119.689L201.359 115.536L197.463 111.434L193.496 107.389L189.464 103.407L185.374 99.4953L181.232 95.6582L177.043 91.9018L172.813 88.2318L168.55 84.6536L164.259 81.1725L159.947 77.7937L155.621 74.5222L151.286 71.3628L146.949 68.3204L142.616 65.3993L138.295 62.604L133.991 59.9385L129.711 57.4069L125.461 55.0129L121.247 52.7601L117.076 50.6518L112.954 48.6911L108.887 46.881L104.882 45.2241L100.943 43.723L97.077 42.3798L93.2898 41.1965L89.587 40.1749L85.9739 39.3166L82.456 38.6227L79.0384 38.0944L75.7264 37.7324L72.5247 37.5372L69.4381 37.5092L66.4714 37.6484L63.6287 37.9545L60.9144 38.4271L58.3325 39.0656L53.581 40.8359L49.4026 43.2549L47.5361 44.7033L45.8219 46.3082L42.8603 49.9777L41.6173 52.0369L40.5354 54.2416L38.861 59.0746L38.271 61.6956L37.8471 64.4478L37.5898 67.3272L37.4996 70.3295L37.5766 73.4501L37.8207 76.6845L38.2315 80.0279L38.8084 83.4753L39.5506 87.0215L40.4569 90.6614L41.526 94.3894L42.7563 98.2L44.146 102.088L45.6931 106.047L47.3951 110.071L49.2497 114.154L51.254 118.291L53.405 122.475L55.6996 126.7L58.1344 130.959L60.7056 135.247L63.4096 139.557L66.2423 143.882L69.1995 148.216L72.2767 152.553L75.4695 156.886L78.773 161.209L82.1824 165.515L85.6926 169.798L89.2983 174.052L92.9943 178.27L96.775 182.446L100.635 186.574L104.568 190.648L108.569 194.661L112.631 198.607L116.749 202.482L120.916 206.278L125.126 209.991L129.374 213.614L133.652 217.143L137.954 220.573L142.275 223.897L146.606 227.112L150.943 230.212L155.279 233.193L159.606 236.05L163.92 238.779L168.212 241.376L172.478 243.838L176.71 246.16L180.902 248.339L185.049 250.372L189.143 252.256L193.18 253.988L197.152 255.565L201.054 256.985L204.88 258.247L208.625 259.347L212.282 260.286L215.847 261.06L219.314 261.669L222.678 262.112L225.934 262.388L229.078 262.498L232.103 262.44L235.007 262.215L237.785 261.824L240.431 261.266L242.944 260.543L247.551 258.605L251.579 256.022L253.367 254.493L255.002 252.809L257.802 248.985L258.963 246.851L259.962 244.573L260.797 242.154L261.468 239.598L261.972 236.91L262.311 234.092L262.483 231.149L262.487 228.085L262.324 224.906L261.995 221.615L261.499 218.217L260.837 214.719L260.011 211.124L259.021 207.438L257.869 203.667L256.556 199.816L255.086 195.891L253.459 191.898L251.678 187.843L249.747 183.731L247.667 179.569L245.442 175.364L243.075 171.12L240.57 166.846L237.93 162.546L235.159 158.227L232.262 153.897L229.243 149.56L226.106 145.225L222.856 140.896L219.497 136.581L216.036 132.286L212.476 128.017L208.823 123.78L205.083 119.583L201.261 115.431L197.363 111.33L193.394 107.287L189.361 103.307L185.27 99.3971L181.126 95.562L176.936 91.8077L172.706 88.14L168.442 84.5641L164.15 81.0856L159.838 77.7094L155.511 74.4407L151.176 71.2843L146.839 68.2449L142.507 65.3269L138.186 62.5348L133.882 59.8727L129.603 57.3445L125.353 54.9541L121.141 52.7049L116.971 50.6002L112.85 48.6434L108.785 46.8371L104.781 45.1841L100.844 43.687L96.98 42.3478L93.195 41.1686L89.4943 40.1512L85.8836 39.297L82.3681 38.6073L78.9532 38.0832L75.6439 37.7254L72.445 37.5345L69.3615 37.5107L66.3978 37.654L63.5583 37.9644L60.8473 38.4412L58.2688 39.0839L55.8266 39.8914L51.3656 41.9958L49.3534 43.2896L47.4907 44.7421L44.225 48.1138L42.8268 50.0281L41.5879 52.091L39.595 56.65L38.844 59.1393L38.2582 61.7637L37.8385 64.5192L37.5855 67.4018L37.4995 70.4071L37.5807 73.5307L37.829 76.7679L38.2441 80.114L38.8252 83.5639L39.5715 87.1126L40.482 90.7547L41.5552 94.4849L42.7896 98.2976L44.1833 102.187L45.7343 106.148L47.4403 110.173L49.2986 114.258L51.3067 118.396L53.4614 122.582L55.7596 126.807L58.1978 131.068L60.7725 135.356L63.4798 139.666L66.3157 143.992L69.276 148.326L72.3562 152.663L75.5518 156.996L78.8581 161.318L82.2701 165.624L85.7828 169.907L89.3909 174.16L93.0891 178.377L96.8718 182.552L100.734 186.678L104.669 190.75L108.671 194.761L112.735 198.706L116.854 202.579L121.022 206.373L125.234 210.084L129.482 213.705L133.761 217.232L138.064 220.658L142.384 223.98L146.716 227.192L151.053 230.289L155.388 233.266L159.716 236.12L164.029 238.846L168.321 241.44L172.585 243.898L176.817 246.217L181.008 248.392L185.153 250.422L189.246 252.302L193.281 254.03L197.252 255.603L201.152 257.019L204.976 258.277L208.719 259.373L212.374 260.307L215.936 261.077L219.401 261.682L222.762 262.121L226.016 262.393L229.156 262.499L232.179 262.437L235.079 262.208L237.853 261.812L240.497 261.25L245.377 259.631L249.69 257.361L251.626 255.985L253.411 254.452L256.517 250.923L257.834 248.933L258.99 246.795L260.816 242.091L261.482 239.532L261.983 236.84L262.317 234.019L262.485 231.073L262.485 228.006L262.318 224.824L261.984 221.53L261.484 218.13L260.818 214.629L259.988 211.031L258.993 207.344L257.837 203.57L256.521 199.718L255.046 195.791L253.416 191.796L251.631 187.739L249.696 183.626L247.612 179.463L245.383 175.257L243.013 171.012L240.504 166.737L237.861 162.437L235.087 158.118L232.187 153.787L229.165 149.45L226.025 145.115L222.772 140.786L219.411 136.472L215.947 132.177L212.384 127.909L208.729 123.674L204.987 119.477L201.163 115.326L197.263 111.227L193.293 107.186L189.258 103.207L185.166 99.299L181.02 95.4658L176.829 91.7137L172.598 88.0482L168.333 84.4748L164.041 80.9988L159.728 77.6253L155.401 74.3593L151.066 71.2058L146.729 68.1694L142.397 65.2546L138.076 62.4658L133.773 59.807L129.494 57.2823L125.246 54.8953L121.035 52.6497L116.866 50.5488L112.747 48.5957L108.683 46.7933L104.68 45.1443L100.745 43.6511L96.8831 42.3159L93.1001 41.1408L89.4017 40.1275L85.7933 39.2775L82.2803 38.592L78.868 38.0721L75.5614 37.7185L72.3655 37.5318L69.2849 37.5122L66.3243 37.6599L63.488 37.9744L60.7803 38.4555L58.2052 39.1023L53.468 40.8892L49.3043 43.3245L47.4455 44.7809L45.7391 46.3937L42.7935 50.0785L41.5586 52.1452L40.4849 54.3572L38.8271 59.2042L38.2455 61.8319L37.83 64.5907L37.5812 67.4764L37.4995 70.4848L37.585 73.6113L37.8375 76.8514L38.2567 80.2002L38.842 83.6527L39.5926 87.2038L40.5072 90.8482L41.5845 94.5805L42.8229 98.3952L44.2207 102.287L45.7756 106.249L47.4855 110.276L49.3477 114.363L51.3595 118.502L53.5179 122.688L55.8196 126.915L58.2614 131.176L60.8395 135.465L63.5501 139.775L66.3892 144.101L69.3526 148.436L72.4358 152.773L75.6343 157.106L78.9433 161.428L82.3579 165.733L85.8731 170.015L89.4835 174.267L93.1839 178.483L96.9687 182.657L100.832 186.782L104.769 190.852L108.773 194.862L112.838 198.805L116.959 202.676L121.128 206.468L125.341 210.177L129.59 213.796L133.869 217.32L138.173 220.744L142.494 224.063L146.826 227.272L151.163 230.366L155.498 233.34L159.825 236.191L164.138 238.914L168.429 241.504L172.693 243.959L176.923 246.274L181.114 248.446L185.258 250.471L189.349 252.347L193.383 254.071L197.351 255.641L201.25 257.053L205.072 258.307L208.812 259.399L212.465 260.329L216.025 261.095L219.487 261.695L222.846 262.13L226.097 262.398L229.234 262.499L232.254 262.433L235.151 262.2L237.922 261.8L240.562 261.234L243.068 260.502L247.66 258.548L251.673 255.948L253.454 254.412L255.081 252.72L257.865 248.88L259.017 246.739L260.008 244.453L260.835 242.028L261.497 239.465L261.994 236.77L262.324 233.945L262.487 230.996L262.483 227.927L262.312 224.741L261.974 221.445L261.469 218.042L260.799 214.539L259.964 210.939L258.966 207.249L257.806 203.474L256.486 199.619L255.007 195.69L253.372 191.694L251.584 187.636L249.645 183.521L247.557 179.357L245.325 175.15L242.951 170.905L240.439 166.628L237.793 162.327L235.016 158.008L232.112 153.677L229.087 149.341L225.944 145.005L222.688 140.677L219.324 136.363L215.858 132.068L212.293 127.801L208.636 123.567L204.891 119.372L201.065 115.222L197.163 111.124L193.192 107.084L189.155 103.108L185.061 99.2009L180.915 95.3697L176.722 91.6197L172.49 87.9565L168.225 84.3855L163.932 80.912L159.619 77.5412L155.291 74.278L150.956 71.1274L146.619 68.094L142.287 65.1824L137.967 62.3968L133.665 59.7413L129.386 57.2201L125.139 54.8367L120.928 52.5947L116.761 50.4975L112.643 48.5482L108.581 46.7496L104.58 45.1045L100.646 43.6153L96.7863 42.2842L93.0053 41.1131L89.3091 40.1039L85.7031 39.2581L82.1926 38.5768L78.7829 38.0611L75.4791 37.7117L72.286 37.5292L69.2084 37.5139L66.2509 37.6658L63.4178 37.9846L60.7134 38.4698L58.1417 39.1209L55.7066 39.9367" stroke="black" stroke-width="2" stroke-miterlimit="10" stroke-linecap="round" stroke-linejoin="round"/>
<path d="M150.003 127.5L152.605 127.504L155.206 127.517L157.806 127.538L160.402 127.567L162.995 127.604L165.582 127.65L168.164 127.704L170.74 127.767L173.307 127.838L175.866 127.917L178.415 128.004L180.954 128.099L183.481 128.203L185.996 128.314L188.497 128.434L190.984 128.562L195.912 128.841L200.771 129.151L205.555 129.493L210.256 129.865L214.868 130.267L219.383 130.699L223.796 131.159L228.098 131.647L232.285 132.162L236.349 132.704L240.285 133.271L244.087 133.864L247.749 134.48L251.265 135.119L254.631 135.781L257.842 136.464L260.892 137.166L263.778 137.888L266.494 138.628L269.038 139.385L273.59 140.945L277.408 142.558L280.469 144.216L282.755 145.908L283.603 146.764L284.252 147.624L284.702 148.489L284.851 148.922L284.951 149.355L285 150.222L284.949 150.656L284.848 151.089L284.496 151.955L284.245 152.386L283.944 152.817L282.244 154.528L281.098 155.375L279.758 156.213L276.501 157.86L272.492 159.461L267.756 161.005L265.123 161.753L262.319 162.484L259.349 163.196L256.216 163.889L252.925 164.561L249.481 165.211L245.889 165.839L242.155 166.443L238.283 167.023L234.281 167.577L230.153 168.106L225.907 168.607L221.547 169.081L217.081 169.526L212.515 169.943L207.857 170.329L203.112 170.686L198.289 171.012L193.394 171.306L188.434 171.569L185.932 171.688L183.417 171.8L180.89 171.903L178.351 171.998L175.801 172.085L173.242 172.164L170.674 172.235L168.099 172.297L165.517 172.351L162.929 172.397L160.336 172.434L157.74 172.463L155.14 172.484L152.539 172.496L149.937 172.5L147.335 172.496L144.733 172.483L142.134 172.462L139.538 172.432L136.945 172.394L134.358 172.348L131.776 172.294L129.201 172.231L126.633 172.16L124.075 172.081L121.526 171.994L118.987 171.898L116.46 171.794L113.946 171.683L111.445 171.563L106.487 171.299L101.593 171.004L96.7719 170.677L92.0295 170.32L87.3732 169.932L82.8101 169.515L78.3467 169.069L73.9899 168.595L69.746 168.092L65.6215 167.563L61.6223 167.008L57.7544 166.428L54.0237 165.823L50.4356 165.195L46.9955 164.544L43.7084 163.872L40.5794 163.178L37.6129 162.466L34.8135 161.734L32.1852 160.986L29.7321 160.221L25.3654 158.646L21.7394 157.021L18.8756 155.353L16.791 153.654L16.0449 152.795L15.498 151.933L15.2994 151.5L15.1509 151.067L15.0043 150.2L15.0062 149.767L15.0582 149.333L15.3128 148.467L15.5151 148.034L15.7675 147.603L16.4216 146.742L17.2744 145.886L18.3243 145.037L21.0095 143.361L24.4612 141.725L28.6589 140.138L33.5777 138.609L36.2986 137.87L39.1884 137.148L42.2429 136.446L45.4575 135.764L48.8276 135.103L52.348 134.464L56.0135 133.848L59.8187 133.257L63.7579 132.69L67.8253 132.149L72.0149 131.634L76.3203 131.147L80.7352 130.687L85.2531 130.257L89.8672 129.855L94.5707 129.484L99.3566 129.143L104.218 128.833L109.147 128.555L111.635 128.428L114.137 128.308L116.652 128.197L119.18 128.094L121.719 127.999L124.269 127.912L126.828 127.834L129.396 127.764L131.972 127.702L134.554 127.648L137.142 127.602L139.735 127.565L142.332 127.536L144.931 127.516L147.532 127.504L150.135 127.5L152.737 127.505L155.338 127.518L157.937 127.539L160.534 127.568L163.126 127.606L165.713 127.653L168.295 127.707L170.87 127.77L173.437 127.842L175.995 127.921L178.544 128.009L181.082 128.104L183.609 128.208L186.123 128.32L188.624 128.44L191.11 128.568L196.036 128.848L200.893 129.16L205.675 129.502L210.374 129.875L214.984 130.278L219.497 130.71L223.906 131.171L228.206 131.659L232.389 132.175L236.45 132.718L240.383 133.286L244.181 133.879L247.839 134.496L251.352 135.136L254.715 135.798L257.921 136.481L260.968 137.184L263.849 137.907L266.561 138.647L271.462 140.177L275.641 141.766L279.074 143.403L281.739 145.08L282.779 145.93L283.622 146.786L284.266 147.646L284.71 148.51L284.858 148.943L284.955 149.377L284.999 150.244L284.945 150.678L284.842 151.111L284.485 151.977L284.231 152.408L283.928 152.839L283.171 153.697L281.067 155.396L278.184 157.062L274.538 158.687L270.153 160.26L267.691 161.024L265.054 161.772L262.246 162.502L259.271 163.214L256.134 163.906L252.839 164.578L249.392 165.227L245.796 165.854L242.058 166.458L238.184 167.037L234.178 167.591L230.047 168.119L225.797 168.619L221.435 169.092L216.967 169.537L212.398 169.953L207.738 170.339L202.991 170.694L198.166 171.019L193.269 171.313L188.308 171.575L185.805 171.694L183.289 171.805L180.761 171.908L178.222 172.003L175.672 172.089L173.112 172.168L170.544 172.238L167.968 172.3L165.386 172.353L162.798 172.399L160.205 172.436L157.608 172.464L155.009 172.484L152.407 172.496L149.805 172.5L147.203 172.495L144.602 172.482L142.002 172.46L139.406 172.431L136.814 172.392L134.227 172.346L131.645 172.291L129.07 172.228L126.504 172.156L123.945 172.077L121.397 171.989L118.859 171.893L116.333 171.789L113.819 171.677L111.319 171.556L106.362 171.292L101.47 170.996L96.6507 170.668L91.9104 170.31L87.2564 169.922L82.6957 169.504L78.235 169.057L73.881 168.582L69.64 168.079L65.5185 167.55L61.5226 166.994L57.6582 166.413L53.931 165.808L50.3466 165.179L46.9103 164.527L43.6272 163.854L40.5022 163.161L37.5399 162.447L34.7448 161.716L32.1209 160.967L27.4024 159.421L23.4125 157.819L20.1748 156.17L17.7087 154.485L16.7696 153.632L16.0286 152.774L15.4867 151.911L15.2907 151.478L15.1447 151.045L15.0032 150.178L15.0076 149.745L15.0622 149.311L15.3218 148.445L15.5267 148.012L15.7816 147.581L16.4408 146.72L17.2985 145.865L19.6041 144.173L22.6845 142.517L26.5215 140.904L31.0923 139.346L33.6446 138.59L36.3697 137.851L39.2638 137.13L42.3224 136.429L45.541 135.747L48.9149 135.086L52.4391 134.448L56.1082 133.833L59.9169 133.242L63.8594 132.676L67.93 132.135L72.1225 131.621L76.4308 131.135L80.8485 130.676L85.3689 130.246L89.9853 129.846L94.691 129.475L99.4788 129.135L104.342 128.826L109.273 128.548L111.761 128.421L114.264 128.303L116.78 128.192L119.308 128.089L121.848 127.995L124.398 127.908L126.958 127.83L129.527 127.76L132.102 127.699L134.685 127.645L137.273 127.6L139.866 127.563L142.463 127.535L145.063 127.515L147.664 127.503L150.266 127.5L152.869 127.505L155.47 127.518L158.069 127.54L160.665 127.57L163.257 127.609L165.844 127.655L168.426 127.71L171 127.774L173.567 127.845L176.125 127.925L178.673 128.013L181.211 128.109L183.737 128.214L186.25 128.326L188.75 128.447L191.236 128.575L196.16 128.856L201.015 129.168L205.795 129.511L210.492 129.885L215.099 130.288L219.61 130.721L224.016 131.183L228.313 131.672L232.494 132.189L236.552 132.732L240.481 133.301L244.276 133.894L247.93 134.512L251.439 135.152L254.798 135.815L258 136.499L261.043 137.203L263.92 137.925L266.628 138.666L269.162 139.424L273.696 140.985L277.495 142.6L280.537 144.258L282.803 145.951L283.641 146.807L284.28 147.668L284.719 148.532L284.864 148.965L284.958 149.399L284.997 150.266L284.941 150.7L284.835 151.133L284.473 151.999L284.217 152.43L283.911 152.861L282.191 154.571L281.035 155.417L279.685 156.255L276.409 157.901L272.381 159.5L267.627 161.043L264.985 161.791L262.173 162.521L259.194 163.232L256.053 163.923L252.754 164.594L249.302 165.243L245.703 165.87L241.962 166.473L238.084 167.051L234.075 167.605L229.941 168.132L225.688 168.632L221.323 169.104L216.852 169.548L212.281 169.963L207.618 170.348L202.87 170.703L198.043 171.027L193.144 171.32L188.181 171.582L185.678 171.7L183.162 171.811L180.633 171.913L178.093 172.008L175.542 172.094L172.982 172.172L170.414 172.241L167.838 172.303L165.255 172.356L162.666 172.401L160.073 172.437L157.476 172.465L154.877 172.485L152.275 172.497L149.673 172.5L147.071 172.495L144.47 172.481L141.871 172.459L139.275 172.429L136.683 172.39L134.096 172.343L131.514 172.288L128.94 172.224L126.374 172.153L123.816 172.073L121.268 171.984L118.731 171.888L116.205 171.783L113.692 171.671L111.192 171.55L106.237 171.285L101.347 170.988L96.5296 170.66L91.7914 170.301L87.1397 169.912L82.5814 169.493L78.1233 169.046L73.7721 168.57L69.5341 168.066L65.4157 167.536L61.4231 166.98L57.562 166.398L53.8384 165.792L50.2577 165.162L46.8252 164.51L43.546 163.837L40.4251 163.143L37.467 162.429L34.6761 161.697L32.0567 160.947L29.6125 160.182L25.2643 158.606L21.6574 156.979L18.8131 155.31L16.7484 153.61L16.0124 152.752L15.4756 151.889L15.2821 151.457L15.1387 151.023L15.0022 150.156L15.0092 149.723L15.0663 149.289L15.331 148.423L15.5384 147.99L15.7958 147.559L16.4601 146.699L17.3228 145.843L18.3828 144.994L21.0876 143.319L24.5584 141.684L28.7748 140.098L33.7115 138.571L36.441 137.833L39.3393 137.112L42.402 136.411L45.6246 135.73L49.0024 135.07L52.5303 134.432L56.203 133.818L60.0151 133.227L63.961 132.662L68.0347 132.122L72.2303 131.609L76.5414 131.123L80.9617 130.665L85.4847 130.236L90.1035 129.836L94.8113 129.466L99.6011 129.127L104.466 128.819L109.398 128.542L111.888 128.415L114.391 128.297L116.908 128.186L119.437 128.084L121.977 127.99L124.528 127.904L127.088 127.826L129.657 127.757L132.233 127.696L134.816 127.643L137.405 127.598L139.998 127.562L142.595 127.534L145.195 127.514L147.796 127.503L150.398 127.5L153.001 127.505L155.602 127.519L158.201 127.541L160.796 127.572L163.388 127.611L165.975 127.658L168.556 127.713L171.13 127.777L173.697 127.849L176.254 127.929L178.802 128.018L181.339 128.114L183.864 128.219L186.377 128.332L188.876 128.453L191.361 128.582L196.284 128.863L201.138 129.176L205.915 129.52L210.61 129.895L215.215 130.299L219.723 130.733L224.127 131.195L228.421 131.685L232.598 132.202L236.653 132.746L240.579 133.315L244.37 133.91L248.021 134.528L251.526 135.169L254.881 135.832L258.08 136.516L261.118 137.221L263.99 137.944L266.694 138.685L271.577 140.217L275.737 141.807L279.151 143.445L281.797 145.123L282.827 145.973L283.659 146.829L284.293 147.69L284.728 148.554L284.87 148.987L284.962 149.421L284.996 150.288L284.937 150.722L284.829 151.155L284.461 152.02L284.202 152.452L283.894 152.883L283.128 153.741L281.003 155.439L278.1 157.104L274.436 158.728L270.033 160.299L267.562 161.062L264.916 161.809L262.099 162.539L259.116 163.25L255.971 163.941L252.668 164.611L249.213 165.26L245.61 165.886L241.865 166.488L237.984 167.066L233.972 167.618L229.835 168.145L225.579 168.644L221.211 169.116L216.737 169.559L212.164 169.973L207.499 170.357L202.748 170.712L197.919 171.035L193.019 171.327L188.055 171.588L185.551 171.706L183.034 171.816L180.504 171.918L177.964 172.012L175.413 172.098L172.852 172.175L170.283 172.245L167.707 172.306L165.124 172.358L162.535 172.403L159.942 172.439L157.345 172.467L154.745 172.486L152.143 172.497L149.541 172.5L146.939 172.494L144.338 172.48L141.739 172.458L139.143 172.427L136.551 172.388L133.965 172.341L131.384 172.285L128.81 172.221L126.244 172.149L123.687 172.068L121.139 171.98L118.602 171.883L116.077 171.778L113.565 171.665L111.066 171.544L106.113 171.278L101.224 170.98L96.4086 170.651L91.6724 170.291L87.023 169.902L82.4672 169.482L78.0117 169.034L73.6633 168.557L69.4283 168.053L65.313 167.522L61.3236 166.965L57.466 166.383L53.7459 165.776L50.1688 165.146L46.7402 164.494L43.465 163.82L40.3481 163.125L37.3942 162.411L34.6076 161.678L31.9926 160.928L27.2922 159.381L23.3211 157.778L20.1027 156.128L17.6563 154.442L16.7273 153.589L15.9964 152.73L15.4646 151.867L15.2736 151.435L15.1327 151.001L15.0013 150.134L15.0108 149.701L15.0705 149.267L15.3403 148.401L15.5503 147.969L15.8102 147.537L16.4795 146.677L17.3473 145.822L19.6726 144.131L22.7725 142.475L26.6284 140.864L31.2174 139.307L33.7785 138.552L36.5124 137.814L39.4148 137.094L42.4817 136.393L45.7083 135.713L49.09 135.054L52.6216 134.416L56.2979 133.802L60.1135 133.213L64.0627 132.648L68.1396 132.108L72.3381 131.596L76.6521 131.111L81.0751 130.654L85.6006 130.225L90.2217 129.826L94.9317 129.457L99.7235 129.119L104.59 128.811L109.524 128.535L112.014 128.409L114.518 128.291L117.036 128.181L119.565 128.079L122.106 127.986L124.657 127.9L127.218 127.823L129.787 127.754L132.364 127.693L134.947 127.64L137.536 127.596L140.129 127.56L142.727 127.533L145.326 127.513L147.928 127.503L150.53 127.5L153.132 127.506L155.733 127.52L158.332 127.543L160.928 127.574L163.52 127.613L166.106 127.661L168.687 127.716L171.261 127.781L173.827 127.853L176.384 127.934L178.931 128.023L181.467 128.12L183.992 128.225L186.504 128.338L189.003 128.459L191.487 128.589L196.408 128.871L201.26 129.185L206.035 129.529L210.728 129.905L215.33 130.31L219.835 130.744L224.237 131.207L228.528 131.698L232.702 132.216L236.754 132.76L240.676 133.33L244.464 133.925L248.112 134.544L251.613 135.185L254.964 135.849L258.159 136.534L261.192 137.239L264.061 137.962L266.76 138.704L269.286 139.462L273.802 141.025L277.582 142.641L280.604 144.301L282.85 145.994L283.678 146.851L284.307 147.712L284.736 148.576L284.876 149.009L284.965 149.443L284.994 150.31L284.933 150.744L284.822 151.177L284.449 152.042L284.188 152.474L283.877 152.904L282.137 154.614L280.971 155.46L279.611 156.297L276.316 157.942L272.27 159.54L267.497 161.082L264.847 161.828L262.026 162.557L259.039 163.267L255.889 163.958L252.583 164.628L249.123 165.276L245.517 165.901L241.768 166.503L237.884 167.08L233.868 167.632L229.728 168.158L225.47 168.656L221.099 169.127L216.623 169.57L212.047 169.983L207.38 170.367L202.627 170.72L197.796 171.043L192.894 171.334L187.928 171.594L185.424 171.712L182.906 171.821L180.376 171.923L177.835 172.017L175.283 172.102L172.722 172.179L170.153 172.248L167.576 172.309L164.993 172.361L162.404 172.405L159.81 172.44L157.213 172.468L154.613 172.487L152.012 172.497L149.409 172.5L146.807 172.494L144.206 172.479L141.607 172.456L139.012 172.425L136.42 172.386L133.834 172.338L131.253 172.282L128.68 172.218L126.114 172.145L123.557 172.064L121.01 171.975L118.474 171.878L115.95 171.772L113.438 171.659L110.94 171.537L105.988 171.271L101.101 170.972L96.2875 170.642L91.5535 170.282L86.9064 169.891L82.353 169.471L77.9002 169.022L73.5545 168.545L69.3225 168.04L65.2103 167.508L61.2242 166.951L57.37 166.368L53.6534 165.761L50.0801 165.13L46.6553 164.477L43.384 163.802L40.2712 163.107L37.3215 162.392L34.5392 161.659L31.9286 160.909L29.4934 160.142L25.1637 158.565L21.5758 156.937L18.7511 155.268L16.7063 153.567L16.3185 153.138L15.9804 152.708L15.4537 151.845L15.2653 151.413L15.1269 150.98L15.0006 150.112L15.0127 149.679L15.0749 149.245L15.3497 148.379L15.5622 147.947L15.8247 147.515L16.4991 146.655L17.3718 145.8L18.4417 144.951L21.1661 143.277L24.6562 141.643L28.8911 140.059L33.8457 138.533L36.5838 137.796L39.4905 137.076L42.5615 136.376L45.7921 135.696L49.1776 135.037L52.713 134.401L56.3929 133.787L60.2119 133.198L64.1644 132.634L68.2445 132.095L72.446 131.583L76.7629 131.099L81.1885 130.642L85.7165 130.215L90.34 129.816L95.0521 129.448L99.8459 129.11L104.714 128.804L109.65 128.529L112.141 128.403L114.646 128.285L117.164 128.176L119.694 128.074L122.235 127.981L124.787 127.896L127.348 127.819L129.918 127.75L132.495 127.69L135.078 127.638L137.667 127.594L140.261 127.559L142.858 127.531L145.458 127.513L148.06 127.502L150.662 127.5L153.264 127.507L155.865 127.521L158.464 127.544L161.059 127.576L163.651 127.615L166.237 127.663L168.818 127.72L171.391 127.784L173.956 127.857L176.513 127.938L179.06 128.027L181.595 128.125L184.12 128.23L186.631 128.344L189.129 128.466L191.612 128.595L196.531 128.878L201.382 129.193L206.155 129.539L210.846 129.914L215.446 130.32L219.948 130.755L224.347 131.219L228.635 131.71L232.807 132.229L236.855 132.774L240.774 133.345L244.558 133.94L248.202 134.56L251.7 135.202L255.047 135.866L258.237 136.552L261.267 137.257L264.132 137.981L266.826 138.723L271.691 140.256L275.833 141.848L279.227 143.487L281.853 145.166L282.874 146.016L283.696 146.873L284.32 147.734L284.744 148.598L284.881 149.031L284.968 149.465L284.992 150.332L284.928 150.766L284.815 151.199L284.437 152.064L284.174 152.496L283.86 152.926L283.084 153.784L280.939 155.481L278.017 157.146L274.334 158.768L269.912 160.338L267.432 161.101L264.777 161.847L261.952 162.575L258.961 163.285L255.807 163.975L252.497 164.644L249.034 165.292L245.424 165.917L241.672 166.518L237.784 167.094L233.765 167.646L229.622 168.171L225.36 168.669L220.987 169.139L216.508 169.58L211.93 169.993L207.26 170.376L202.505 170.729L197.673 171.051L192.769 171.341L187.801 171.6L185.296 171.717L182.778 171.827L180.247 171.928L177.706 172.021L175.154 172.106L172.592 172.183L170.023 172.251L167.445 172.311L164.862 172.363L162.272 172.407L159.679 172.442L157.081 172.469L154.481 172.488L151.88 172.498L149.277 172.5L146.675 172.493L144.074 172.478L141.476 172.455L138.88 172.423L136.289 172.384L133.703 172.335L131.123 172.279L128.549 172.214L125.984 172.141L123.428 172.06L120.882 171.97L118.346 171.873L115.822 171.767L113.311 171.653L110.814 171.531L105.863 171.263L100.978 170.964L96.1666 170.634L91.4347 170.272L86.7898 169.881L82.2389 169.46L77.7887 169.01L73.4459 168.532L69.2168 168.027L65.1077 167.495L61.1249 166.936L57.2741 166.353L53.5611 165.745L49.9915 165.114L46.5705 164.46L43.3032 163.785L40.1944 163.089L37.2489 162.374L34.471 161.641L31.8647 160.89L27.1825 159.341L23.2302 157.736L20.0312 156.086L17.6045 154.399L16.6855 153.545L15.9646 152.686L15.4429 151.823L15.2571 151.391L15.1212 150.958L15 150.09L15.0146 149.657L15.0794 149.223L15.3593 148.357L15.5743 147.925L15.8393 147.493L16.5187 146.633L17.3965 145.778L19.7417 144.089L22.8609 142.434L26.7357 140.824L31.343 139.269L33.913 138.515L36.6554 137.777L39.5664 137.058L42.6414 136.358L45.876 135.679L49.2654 135.021L52.8044 134.385L56.488 133.772L60.3105 133.183L64.2663 132.62L68.3495 132.082L72.554 131.571L76.8737 131.087L81.302 130.631L85.8325 130.204L90.4583 129.807L95.1726 129.439L99.9684 129.102L104.839 128.796L109.776 128.522L112.267 128.397L114.773 128.28L117.292 128.17L119.822 128.069L122.364 127.976L124.917 127.892L127.478 127.815L130.048 127.747L132.626 127.687L135.209 127.635L137.799 127.592L140.393 127.557L142.99 127.53L145.59 127.512L148.192 127.502L150.794 127.5L153.396 127.507L155.997 127.522L158.595 127.546L161.191 127.577L163.782 127.617L166.368 127.666L168.948 127.723L171.521 127.788L174.086 127.861L176.642 127.942L179.188 128.032L181.724 128.13L184.247 128.236L186.758 128.35L189.255 128.472L191.738 128.602L196.655 128.886L201.503 129.201L206.275 129.548L210.963 129.924L215.561 130.331L220.061 130.767L224.457 131.231L228.742 131.723L232.911 132.243L236.956 132.788L240.872 133.36L244.653 133.956L248.293 134.576L251.787 135.219L255.13 135.883L258.316 136.569L261.342 137.275L264.202 138L266.892 138.742L269.409 139.501L273.907 141.065L277.668 142.683L280.671 144.343L282.897 146.038L283.714 146.894L284.333 147.756L284.752 148.62L284.887 149.053L284.971 149.487L284.99 150.354L284.924 150.788L284.808 151.221L284.425 152.086L284.159 152.518L283.843 152.948L282.082 154.657" stroke="black" stroke-width="2" stroke-miterlimit="10" stroke-linecap="round" stroke-linejoin="round"/>
<path d="M150.003 15L150.87 15.1003L151.303 15.2257L151.736 15.4011L152.599 15.9019L153.459 16.6021L154.313 17.5004L155.161 18.5957L156.833 21.3703L158.464 24.9092L160.045 29.1914L160.814 31.6035L161.566 34.1916L162.302 36.9517L163.019 39.8799L163.716 42.9717L164.394 46.2226L165.05 49.6277L165.683 53.182L166.294 56.8802L166.88 60.7167L167.441 64.686L167.976 68.782L168.484 72.9988L168.965 77.33L169.418 81.7691L169.842 86.3097L170.236 90.945L170.601 95.668L170.934 100.472L171.237 105.349L171.508 110.293L171.632 112.787L171.747 115.296L171.855 117.817L171.954 120.35L172.045 122.894L172.128 125.448L172.203 128.012L172.269 130.583L172.328 133.162L172.378 135.747L172.419 138.337L172.453 140.932L172.478 143.53L172.494 146.13L172.502 148.732L172.502 151.334L172.494 153.936L172.477 156.536L172.452 159.134L172.418 161.729L172.376 164.319L172.326 166.904L172.268 169.482L172.201 172.054L172.126 174.617L172.043 177.171L171.952 179.715L171.852 182.247L171.744 184.768L171.629 187.276L171.505 189.77L171.373 192.25L171.086 197.16L170.767 202.001L170.418 206.764L170.038 211.443L169.628 216.03L169.189 220.52L168.722 224.904L168.227 229.178L167.705 233.333L167.156 237.365L166.582 241.267L165.984 245.033L165.361 248.658L164.716 252.137L164.049 255.464L163.361 258.634L162.653 261.642L161.927 264.485L161.182 267.157L159.645 271.976L158.05 276.07L156.408 279.415L154.727 281.99L153.876 282.985L153.019 283.782L152.157 284.38L151.725 284.604L151.292 284.778L150.425 284.976L149.992 285L149.558 284.974L148.691 284.771L148.259 284.594L147.826 284.367L146.965 283.764L146.108 282.962L144.412 280.767L142.75 277.795L141.131 274.063L139.565 269.594L138.804 267.091L138.06 264.415L137.334 261.568L136.627 258.555L135.939 255.381L135.273 252.051L134.628 248.568L134.006 244.94L133.408 241.17L132.835 237.265L132.287 233.23L131.766 229.071L131.271 224.795L130.805 220.407L130.366 215.915L129.958 211.325L129.579 206.644L129.23 201.879L128.912 197.037L128.626 192.124L128.494 189.644L128.371 187.149L128.255 184.641L128.148 182.119L128.049 179.586L127.958 177.041L127.875 174.487L127.801 171.923L127.734 169.352L127.676 166.773L127.627 164.188L127.585 161.597L127.552 159.003L127.527 156.405L127.511 153.804L127.503 151.202L127.503 148.6L127.512 145.998L127.529 143.398L127.554 140.8L127.588 138.206L127.63 135.616L127.681 133.031L127.739 130.453L127.806 127.881L127.881 125.319L127.965 122.765L128.056 120.221L128.156 117.689L128.264 115.168L128.38 112.66L128.504 110.167L128.776 105.225L129.079 100.349L129.414 95.5473L129.779 90.8264L130.174 86.1935L130.599 81.6554L131.052 77.2189L131.534 72.8905L132.043 68.6767L132.579 64.5838L133.14 60.6179L133.727 56.7847L134.338 53.0901L134.972 49.5396L135.629 46.1383L136.307 42.8914L137.005 39.8037L137.722 36.8797L138.458 34.1238L139.211 31.5402L140.764 26.9047L142.372 23.0006L144.025 19.8512L145.714 17.4752L146.568 16.5819L147.428 15.8868L148.291 15.391L148.724 15.2181L149.157 15.0953L150.025 15.0001L150.458 15.0277L150.892 15.1055L151.758 15.4113L152.19 15.6393L152.621 15.9172L153.481 16.6224L154.335 17.5258L156.023 19.9215L157.675 23.0903L159.281 27.0132L160.833 31.6669L161.585 34.2594L162.32 37.0239L163.037 39.9562L163.734 43.0521L164.411 46.307L165.066 49.716L165.699 53.2739L166.309 56.9757L166.894 60.8157L167.455 64.7882L167.989 68.8874L168.497 73.1071L168.977 77.4411L169.429 81.883L169.852 86.426L170.246 91.0636L170.61 95.7887L170.942 100.594L171.244 105.474L171.515 110.419L171.638 112.914L171.753 115.423L171.86 117.945L171.959 120.478L172.05 123.023L172.132 125.578L172.206 128.142L172.273 130.714L172.33 133.293L172.38 135.878L172.421 138.468L172.454 141.063L172.479 143.661L172.495 146.262L172.503 148.864L172.502 151.466L172.493 154.068L172.476 156.668L172.45 159.266L172.416 161.86L172.374 164.45L172.324 167.035L172.265 169.613L172.198 172.184L172.122 174.746L172.039 177.3L171.947 179.843L171.847 182.375L171.739 184.896L171.623 187.403L171.498 189.896L171.366 192.375L171.078 197.284L170.759 202.122L170.408 206.884L170.028 211.56L169.618 216.145L169.178 220.632L168.71 225.014L168.214 229.285L167.691 233.437L167.142 237.466L166.568 241.364L165.968 245.127L165.345 248.748L164.7 252.223L164.032 255.546L163.343 258.712L162.635 261.716L161.908 264.554L161.163 267.222L160.402 269.716L158.834 274.167L157.214 277.879L155.551 280.832L153.854 283.007L152.997 283.799L152.135 284.392L151.703 284.614L151.27 284.786L150.403 284.979L149.97 285L149.536 284.971L148.669 284.763L148.237 284.584L147.805 284.354L146.943 283.746L146.086 282.939L145.235 281.935L143.555 279.339L141.914 275.975L140.321 271.863L138.785 267.026L138.041 264.345L137.316 261.494L136.609 258.477L135.922 255.299L135.256 251.964L134.612 248.478L133.991 244.846L133.393 241.073L132.821 237.164L132.273 233.126L131.753 228.964L131.259 224.685L130.793 220.295L130.356 215.8L129.948 211.208L129.569 206.525L129.221 201.757L128.904 196.913L128.619 191.999L128.488 189.518L128.365 187.023L128.25 184.513L128.143 181.991L128.044 179.457L127.954 176.912L127.871 174.357L127.797 171.793L127.731 169.221L127.674 166.642L127.624 164.057L127.583 161.466L127.551 158.871L127.526 156.273L127.51 153.672L127.503 151.07L127.504 148.468L127.513 145.866L127.53 143.266L127.556 140.669L127.59 138.074L127.633 135.484L127.683 132.9L127.742 130.322L127.81 127.751L127.885 125.189L127.969 122.636L128.061 120.093L128.161 117.561L128.27 115.041L128.386 112.534L128.51 110.041L128.783 105.1L129.087 100.226L129.423 95.4266L129.788 90.7079L130.184 86.0773L130.61 81.5417L131.064 77.1078L131.546 72.7823L132.056 68.5715L132.592 64.4817L133.155 60.5191L133.742 56.6894L134.354 52.9984L134.988 49.4515L135.646 46.0541L136.324 42.8112L137.023 39.7275L137.741 36.8078L138.477 34.0562L139.23 31.477L140 29.0739L141.582 24.8102L143.214 21.2904L144.887 18.5355L146.59 16.5618L147.019 16.1919L147.45 15.8718L148.313 15.3811L148.746 15.2107L149.179 15.0904L150.047 15.0003L150.48 15.0304L150.914 15.1107L151.78 15.4217L152.212 15.6522L152.643 15.9326L153.502 16.6428L154.356 17.5512L155.204 18.6565L156.875 21.4506L158.505 25.0086L160.084 29.3094L160.852 31.7305L161.604 34.3273L162.338 37.0961L163.055 40.0327L163.751 43.1327L164.428 46.3915L165.082 49.8043L165.715 53.366L166.324 57.0713L166.909 60.9147L167.469 64.8906L168.002 68.9929L168.509 73.2156L168.989 77.5524L169.44 81.9969L169.863 86.5424L170.256 91.1823L170.618 95.9095L170.95 100.717L171.252 105.598L171.521 110.545L171.644 113.041L171.758 115.55L171.865 118.073L171.964 120.607L172.054 123.152L172.136 125.708L172.21 128.272L172.276 130.844L172.333 133.423L172.382 136.009L172.423 138.6L172.455 141.195L172.48 143.793L172.495 146.394L172.503 148.996L172.502 151.598L172.492 154.2L172.475 156.8L172.449 159.397L172.414 161.991L172.372 164.581L172.321 167.165L172.261 169.743L172.194 172.314L172.118 174.876L172.034 177.429L171.942 179.972L171.841 182.503L171.733 185.023L171.616 187.53L171.492 190.022L171.359 192.5L171.07 197.407L170.75 202.244L170.399 207.003L170.018 211.678L169.607 216.26L169.166 220.745L168.698 225.124L168.201 229.391L167.678 233.541L167.128 237.566L166.553 241.461L165.953 245.221L165.329 248.838L164.683 252.309L164.015 255.628L163.326 258.79L162.617 261.79L161.889 264.624L161.144 267.288L159.605 272.089L158.009 276.164L156.366 279.489L154.684 282.045L153.833 283.03L152.975 283.817L152.113 284.405L151.681 284.624L151.248 284.793L150.382 284.981L149.948 285L149.514 284.968L148.647 284.755L148.215 284.573L147.783 284.341L146.921 283.728L146.065 282.916L144.37 280.701L142.709 277.709L141.091 273.959L139.526 269.472L138.766 266.96L138.023 264.274L137.298 261.419L136.591 258.398L135.905 255.216L135.239 251.878L134.596 248.388L133.975 244.752L133.379 240.975L132.806 237.063L132.26 233.022L131.74 228.857L131.247 224.575L130.782 220.182L130.345 215.685L129.938 211.09L129.56 206.405L129.213 201.635L128.897 196.789L128.612 191.874L128.481 189.392L128.359 186.896L128.244 184.386L128.138 181.863L128.039 179.328L127.949 176.783L127.867 174.228L127.794 171.663L127.728 169.091L127.671 166.511L127.622 163.925L127.582 161.335L127.549 158.739L127.525 156.141L127.51 153.54L127.503 150.939L127.504 148.336L127.513 145.735L127.531 143.134L127.557 140.537L127.592 137.943L127.635 135.353L127.686 132.769L127.746 130.192L127.813 127.621L127.889 125.059L127.974 122.506L128.066 119.964L128.167 117.433L128.275 114.913L128.392 112.407L128.517 109.915L128.79 104.976L129.095 100.104L129.431 95.306L129.798 90.5895L130.195 85.9612L130.621 81.4281L131.076 76.9968L131.559 72.6741L132.069 68.4664L132.606 64.3797L133.169 60.4204L133.757 56.5941L134.369 52.9067L135.005 49.3636L135.662 45.97L136.341 42.731L137.041 39.6515L137.759 36.736L138.496 33.9887L139.25 31.4139L140.804 26.7966L142.413 22.9114L144.067 19.7814L145.757 17.4252L146.612 16.5419L147.472 15.8569L148.335 15.3712L148.768 15.2034L149.201 15.0856L150.069 15.0006L150.502 15.0333L150.936 15.1161L151.802 15.4322L152.234 15.6652L152.665 15.9482L153.524 16.6634L154.378 17.5768L156.065 19.9924L157.716 23.1805L159.322 27.1222L160.871 31.7941L161.623 34.3954L162.357 37.1685L163.072 40.1092L163.769 43.2133L164.444 46.4761L165.099 49.8927L165.731 53.4581L166.339 57.167L166.923 61.0139L167.482 64.993L168.016 69.0984L168.522 73.3241L169.001 77.6637L169.451 82.1108L169.873 86.6588L170.265 91.301L170.627 96.0304L170.959 100.84L171.259 105.723L171.527 110.671L171.65 113.168L171.764 115.678L171.87 118.201L171.968 120.736L172.058 123.282L172.14 125.837L172.214 128.402L172.279 130.975L172.336 133.554L172.384 136.14L172.425 138.731L172.457 141.326L172.481 143.925L172.496 146.525L172.503 149.127L172.502 151.73L172.492 154.331L172.474 156.931L172.447 159.529L172.412 162.123L172.369 164.712L172.318 167.296L172.258 169.874L172.19 172.444L172.114 175.006L172.03 177.558L171.937 180.1L171.836 182.631L171.727 185.15L171.61 187.656L171.485 190.148L171.352 192.625L171.063 197.531L170.742 202.366L170.39 207.123L170.008 211.795L169.596 216.375L169.155 220.857L168.686 225.233L168.188 229.498L167.664 233.644L167.114 237.666L166.538 241.558L165.937 245.314L165.313 248.928L164.666 252.395L163.998 255.71L163.308 258.868L162.599 261.864L161.871 264.694L161.125 267.353L160.363 269.838L158.794 274.27L157.172 277.964L155.508 280.897L153.811 283.052L152.953 283.834L152.091 284.417L151.659 284.634L151.226 284.8L150.36 284.983L149.926 284.999L149.492 284.965L148.625 284.747L148.193 284.563L147.761 284.328L146.9 283.71L146.043 282.893L145.192 281.879L143.513 279.263L141.873 275.88L140.281 271.749L138.747 266.894L138.004 264.204L137.28 261.345L136.574 258.32L135.888 255.134L135.223 251.791L134.58 248.298L133.96 244.658L133.364 240.878L132.792 236.962L132.246 232.918L131.727 228.75L131.235 224.465L130.77 220.069L130.334 215.57L129.928 210.973L129.551 206.285L129.205 201.514L128.889 196.666L128.605 191.748L128.475 189.266L128.353 186.769L128.239 184.258L128.133 181.735L128.035 179.2L127.945 176.654L127.863 174.098L127.79 171.533L127.725 168.96L127.668 166.38L127.62 163.794L127.58 161.203L127.548 158.608L127.524 156.009L127.509 153.409L127.503 150.807L127.504 148.204L127.514 145.603L127.532 143.003L127.559 140.405L127.594 137.812L127.637 135.222L127.689 132.639L127.749 130.061L127.817 127.491L127.893 124.93L127.978 122.377L128.071 119.835L128.172 117.305L128.281 114.786L128.398 112.28L128.523 109.789L128.798 104.852L129.104 99.9814L129.44 95.1855L129.808 90.4711L130.205 85.8451L130.632 81.3145L131.088 76.8859L131.571 72.5661L132.083 68.3613L132.62 64.2778L133.184 60.3218L133.773 56.499L134.385 52.8151L135.021 49.2757L135.679 45.886L136.359 42.651L137.059 39.5756L137.778 36.6643L138.515 33.9214L140.039 28.9569L141.623 24.7118L143.256 21.2111L144.93 18.4758L146.634 16.5221L147.063 16.1572L147.493 15.8421L148.357 15.3615L148.79 15.1962L149.223 15.081L150.091 15.001L150.524 15.0363L150.958 15.1217L151.824 15.4428L152.256 15.6784L152.687 15.9638L153.546 16.6841L154.4 17.6025L155.247 18.7177L156.917 21.5314L158.546 25.1085L160.124 29.4278L160.891 31.8579L161.642 34.4635L162.375 37.2409L163.09 40.1859L163.786 43.294L164.461 46.5608L165.115 49.9812L165.746 53.5504L166.354 57.2628L166.938 61.1131L167.496 65.0955L168.029 69.204L168.534 73.4327L169.012 77.7751L169.462 82.2248L169.883 86.7753L170.275 91.4198L170.636 96.1513L170.967 100.963L171.266 105.847L171.534 110.797L171.656 113.295L171.77 115.806L171.875 118.329L171.973 120.865L172.063 123.411L172.144 125.967L172.217 128.532L172.282 131.105L172.338 133.685L172.387 136.271L172.427 138.863L172.458 141.458L172.482 144.057L172.496 146.657L172.503 149.259L172.501 151.862L172.491 154.463L172.473 157.063L172.446 159.66L172.411 162.254L172.367 164.843L172.315 167.427L172.255 170.004L172.187 172.574L172.11 175.135L172.025 177.687L171.932 180.229L171.831 182.759L171.722 185.278L171.604 187.783L171.345 192.75L171.055 197.654L170.733 202.487L170.381 207.242L169.998 211.912L169.585 216.49L169.143 220.969L168.673 225.343L168.175 229.604L167.651 233.748L167.099 237.767L166.523 241.655L165.922 245.407L165.297 249.018L164.65 252.481L163.98 255.792L163.29 258.946L162.581 261.938L161.852 264.763L161.106 267.418L159.566 272.201L157.968 276.257L156.324 279.564L154.641 282.1L153.789 283.075L152.932 283.851L152.07 284.429L151.637 284.643L151.204 284.807L150.338 284.985L149.904 284.999L149.47 284.962L148.604 284.739L148.171 284.552L147.739 284.315L146.878 283.692L146.021 282.87L144.327 280.635L142.667 277.624L141.05 273.854L139.487 269.349L138.728 266.828L137.986 264.134L137.261 261.27L136.556 258.241L135.871 255.051L135.206 251.705L134.564 248.207L133.945 244.564L133.349 240.78L132.778 236.861L132.233 232.814L131.714 228.643L131.223 224.355L130.759 219.957L130.324 215.454L129.918 210.855L129.542 206.165L129.196 201.392L128.882 196.542L128.598 191.623L128.469 189.14L128.347 186.642L128.233 184.131L128.127 181.607L128.03 179.071L127.941 176.524L127.86 173.968L127.787 171.403L127.722 168.83L127.666 166.249L127.618 163.663L127.578 161.072L127.547 158.476L127.523 155.878L127.509 153.277L127.502 150.675L127.504 148.072L127.515 145.471L127.533 142.871L127.561 140.274L127.596 137.68L127.64 135.091L127.692 132.508L127.752 129.931L127.821 127.361L127.898 124.8L127.983 122.248L128.076 119.707L128.177 117.177L128.287 114.659L128.404 112.154L128.53 109.663L128.805 104.727L129.112 99.8589L129.449 95.065L129.817 90.3527L130.216 85.7291L130.643 81.201L131.1 76.7751L131.584 72.4581L132.096 68.2563L132.634 64.176L133.199 60.2232L133.788 56.4039L134.401 52.7236L135.038 49.188L135.696 45.8021L136.376 42.5711L137.077 39.4998L137.796 36.5927L138.534 33.8541L139.288 31.2881L140.844 26.689L142.455 22.8227L144.11 19.7121L145.8 17.3757L146.655 16.5024L147.515 15.8275L148.379 15.3519L148.812 15.1892L149.245 15.0765L150.113 15.0016L150.546 15.0394L150.98 15.1273L151.846 15.4535L152.277 15.6916L152.708 15.9796L153.567 16.7049L154.421 17.6284L156.107 20.0637L157.758 23.2711L159.362 27.2317L160.91 31.9217L161.66 34.5318L162.393 37.3135L163.108 40.2626L163.803 43.3749L164.478 46.6456L165.131 50.0699L165.762 53.6427L166.369 57.3587L166.952 61.2124L167.51 65.198L168.042 69.3097L168.547 73.5413L169.024 77.8865L169.473 82.3389L169.894 86.8919L170.284 91.5386L170.645 96.2722L170.974 101.086L171.273 105.972L171.54 110.923L171.662 113.422L171.775 115.933L171.881 118.457L171.978 120.993L172.067 123.54L172.148 126.097L172.221 128.662L172.285 131.236L172.341 133.816L172.389 136.403L172.428 138.994L172.46 141.59L172.483 144.188L172.497 146.789L172.503 149.391L172.501 151.993L172.49 154.595L172.471 157.195L172.444 159.792L172.408 162.385L172.365 164.974L172.312 167.558L172.252 170.134L172.183 172.704L172.106 175.265L172.021 177.816L171.927 180.357L171.826 182.887L171.716 185.405L171.598 187.909L171.338 192.875L171.047 197.777L170.725 202.609L170.371 207.362L169.988 212.029L169.574 216.605L169.132 221.081L168.661 225.452L168.162 229.711L167.637 233.851L167.085 237.867L166.508 241.752L165.906 245.501L165.281 249.107L164.633 252.567L163.963 255.874L163.273 259.024L162.562 262.011L161.833 264.833L161.087 267.483L160.324 269.959L158.753 274.373L157.13 278.048L155.465 280.961L153.768 283.097L152.91 283.868L152.048 284.441L151.615 284.653L151.183 284.814L150.316 284.987L149.882 284.998L149.448 284.959L148.582 284.73L148.149 284.541L147.717 284.302L146.856 283.673L146 282.846L145.149 281.822L143.471 279.187L141.832 275.785L140.241 271.635L138.709 266.762L137.967 264.063L137.243 261.195L136.538 258.162L135.854 254.968L135.19 251.618L134.548 248.117L133.929 244.47L133.334 240.683L132.764 236.76L132.219 232.709L131.701 228.536L131.21 224.245L130.747 219.844L130.313 215.339L129.908 210.737L129.533 206.045L129.188 201.27L128.874 196.418L128.591 191.497L128.462 189.013L128.341 186.515L128.228 184.003L128.122 181.478L128.025 178.942L127.936 176.395L127.856 173.838L127.783 171.273L127.719 168.699L127.663 166.118L127.615 163.532L127.576 160.94L127.545 158.345L127.523 155.746L127.508 153.145L127.502 150.543L127.505 147.941L127.516 145.339L127.535 142.739L127.562 140.142L127.598 137.549L127.642 134.96L127.695 132.377L127.755 129.8L127.824 127.231L127.902 124.671L127.987 122.119L128.081 119.578L128.183 117.049L128.293 114.531L128.411 112.027L128.537 109.537L128.812 104.603L129.12 99.7365L129.458 94.9446L129.827 90.2344L130.226 85.6132L130.654 81.0875L131.112 76.6644L131.597 72.3502L132.109 68.1514L132.648 64.0742L133.213 60.1248L133.803 56.3089L134.417 52.6322L135.054 49.1003L135.713 45.7183L136.394 42.4913L137.095 39.4241L137.815 36.5212L138.553 33.7869L140.079 28.8403L141.664 24.6138L143.298 21.1323L144.973 18.4166L146.677 16.4828L147.107 16.123L147.537 15.8129L148.401 15.3425L148.834 15.1823L149.267 15.0721L150.135 15.0023L150.568 15.0427L151.002 15.1331L151.867 15.4644L152.299 15.705L152.73 15.9956L153.589 16.7259L155.29 18.7794L156.959 21.6127L158.586 25.2089L160.163 29.5466L160.929 31.9857L161.679 34.6002L162.412 37.3862L163.126 40.3395L163.821 43.4558L164.495 46.7305L165.148 50.1586L165.778 53.7351L166.384 57.4547L166.967 61.3118L167.524 65.3007L168.055 69.4155L168.559 73.65L169.036 77.998L169.484 82.4531L169.904 87.0085L170.294 91.6575L170.653 96.3932L170.982 101.209L171.28 106.097L171.547 111.05L171.668 113.548L171.781 116.061L171.886 118.586L171.983 121.122L172.071 123.67L172.152 126.227L172.224 128.793L172.288 131.366L172.344 133.947L172.391 136.534L172.43 139.126L172.461 141.721L172.483 144.32L172.498 146.921L172.503 149.523L172.501 152.125L172.49 154.727L172.47 157.326L172.443 159.923L172.406 162.517L172.362 165.105L172.309 167.688L172.248 170.265L172.179 172.834L172.102 175.394L172.016 177.945" stroke="black" stroke-width="2" stroke-miterlimit="10" stroke-linecap="round" stroke-linejoin="round"/>
</svg>
