<svg width="300" height="300" viewBox="0 0 300 300" fill="none" xmlns="http://www.w3.org/2000/svg">
<mask id="mask0_237_1518" style="mask-type:alpha" maskUnits="userSpaceOnUse" x="15" y="15" width="270" height="270">
<rect x="15" y="15" width="270" height="270" fill="#D9D9D9"/>
</mask>
<g mask="url(#mask0_237_1518)">
<ellipse cx="193.051" cy="163.937" rx="1" ry="112.5" transform="rotate(-22.5 193.051 163.937)" fill="black"/>
<ellipse cx="229.557" cy="139.555" rx="1" ry="112.5" transform="rotate(-45 229.557 139.555)" fill="black"/>
<ellipse cx="253.953" cy="103.059" rx="1" ry="112.5" transform="rotate(-67.5 253.953 103.059)" fill="black"/>
<ellipse cx="262.506" cy="60" rx="1" ry="112.5" transform="rotate(-90 262.506 60)" fill="black"/>
<ellipse cx="253.935" cy="16.9553" rx="1" ry="112.5" transform="rotate(-112.5 253.935 16.9553)" fill="black"/>
<ellipse cx="229.557" cy="-19.5441" rx="1" ry="112.5" transform="rotate(-135 229.557 -19.5441)" fill="black"/>
<ellipse cx="193.051" cy="-43.9363" rx="1" ry="112.5" transform="rotate(-157.5 193.051 -43.9363)" fill="black"/>
<ellipse cx="150" cy="-52.5" rx="1" ry="112.5" transform="rotate(-180 150 -52.5)" fill="black"/>
<ellipse cx="106.947" cy="-43.9363" rx="1" ry="112.5" transform="rotate(157.5 106.947 -43.9363)" fill="black"/>
<ellipse cx="70.4576" cy="-19.5441" rx="1" ry="112.5" transform="rotate(135 70.4576 -19.5441)" fill="black"/>
<ellipse cx="46.0616" cy="16.9553" rx="1" ry="112.5" transform="rotate(112.5 46.0616 16.9553)" fill="black"/>
<ellipse cx="37.5061" cy="60.0213" rx="1" ry="112.5" transform="rotate(90 37.5061 60.0213)" fill="black"/>
<ellipse cx="46.0616" cy="103.059" rx="1" ry="112.5" transform="rotate(67.5 46.0616 103.059)" fill="black"/>
<ellipse cx="70.4315" cy="139.555" rx="1" ry="112.5" transform="rotate(45 70.4315 139.555)" fill="black"/>
<ellipse cx="106.947" cy="163.937" rx="1" ry="112.5" transform="rotate(22.5 106.947 163.937)" fill="black"/>
<ellipse cx="150" cy="172.5" rx="1" ry="112.5" fill="black"/>
<path d="M150 160.755L150.571 160.139L152.132 158.503L153.698 156.867L155.233 155.231L156.697 153.595L158.052 151.958L159.26 150.322L160.286 148.686L161.099 147.05L161.67 145.414L161.857 144.596L161.976 143.778L162 142.142L161.902 141.323L161.731 140.505L161.164 138.869L160.301 137.233L159.154 135.597L157.74 133.961L156.083 132.325L154.214 130.689L152.172 129.053L150 127.416L147.828 129.053L145.786 130.689L143.917 132.325L142.26 133.961L140.846 135.597L139.699 137.233L138.836 138.869L138.269 140.505L138.098 141.323L138 142.142L138.024 143.778L138.143 144.596L138.33 145.414L138.901 147.05L139.714 148.686L140.74 150.322L141.948 151.958L143.303 153.595L144.767 155.231L146.302 156.867L147.868 158.503L149.429 160.139L150 160.755ZM150 160.755L149.054 161.775L147.613 163.411L146.281 165.047L145.085 166.683L144.049 168.319L143.191 169.955L142.524 171.592L142.059 173.228L141.797 174.864L141.74 176.5L141.879 178.136L142.206 179.772L142.704 181.408L143.358 183.045L144.144 184.681L145.041 186.317L146.022 187.953L147.062 189.589L148.134 191.225L149.211 192.861L150 194.083L150.789 192.861L151.866 191.225L152.938 189.589L153.978 187.953L154.959 186.317L155.856 184.681L156.642 183.045L157.296 181.408L157.794 179.772L158.121 178.136L158.26 176.5L158.203 174.864L157.941 173.228L157.476 171.592L156.809 169.955L155.951 168.319L154.915 166.683L153.719 165.047L152.387 163.411L150.946 161.775L150 160.755Z" stroke="black" stroke-linecap="round" stroke-linejoin="round"/>
<path d="M150 94.088L150.571 93.4723L152.132 91.836L153.698 90.1999L155.233 88.5639L156.697 86.9279L158.052 85.2915L159.26 83.6555L160.286 82.0195L161.099 80.3831L161.67 78.7471L161.857 77.9291L161.976 77.1111L162 75.4751L161.902 74.6567L161.731 73.8387L161.164 72.2027L160.301 70.5667L159.154 68.9303L157.74 67.2943L156.083 65.6583L154.214 64.0223L152.172 62.3859L150 60.7499L147.828 62.3859L145.786 64.0223L143.917 65.6583L142.26 67.2943L140.846 68.9303L139.699 70.5667L138.836 72.2027L138.269 73.8387L138.098 74.6567L138 75.4751L138.024 77.1111L138.143 77.9291L138.33 78.7471L138.901 80.3831L139.714 82.0195L140.74 83.6555L141.948 85.2915L143.303 86.9279L144.767 88.5639L146.302 90.1999L147.868 91.836L149.429 93.4723L150 94.088ZM150 94.088L149.054 95.1083L147.613 96.7444L146.281 98.3807L145.085 100.017L144.049 101.653L143.191 103.289L142.524 104.925L142.059 106.561L141.797 108.197L141.74 109.834L141.879 111.47L142.206 113.106L142.704 114.742L143.358 116.378L144.144 118.014L145.041 119.65L146.022 121.286L147.062 122.922L148.134 124.558L149.211 126.194L150 127.417L150.789 126.194L151.866 124.558L152.938 122.922L153.978 121.286L154.959 119.65L155.856 118.014L156.642 116.378L157.296 114.742L157.794 113.106L158.121 111.47L158.26 109.834L158.203 108.197L157.941 106.561L157.476 104.925L156.809 103.289L155.951 101.653L154.915 100.017L153.719 98.3807L152.387 96.7444L150.946 95.1083L150 94.088Z" stroke="black" stroke-linecap="round" stroke-linejoin="round"/>
<path d="M150 227.421L150.571 226.806L152.132 225.169L153.698 223.533L155.233 221.897L156.697 220.261L158.052 218.625L159.26 216.989L160.286 215.353L161.099 213.717L161.67 212.08L161.857 211.262L161.976 210.444L162 208.808L161.902 207.99L161.731 207.172L161.164 205.536L160.301 203.9L159.154 202.264L157.74 200.628L156.083 198.992L154.214 197.356L152.172 195.719L150 194.083L147.828 195.719L145.786 197.356L143.917 198.992L142.26 200.628L140.846 202.264L139.699 203.9L138.836 205.536L138.269 207.172L138.098 207.99L138 208.808L138.024 210.444L138.143 211.262L138.33 212.08L138.901 213.717L139.714 215.353L140.74 216.989L141.948 218.625L143.303 220.261L144.767 221.897L146.302 223.533L147.868 225.169L149.429 226.806L150 227.421ZM150 227.421L149.054 228.442L147.613 230.078L146.281 231.714L145.085 233.35L144.049 234.986L143.191 236.622L142.524 238.259L142.059 239.895L141.797 241.531L141.74 243.167L141.879 244.803L142.206 246.439L142.704 248.075L143.358 249.711L144.144 251.347L145.041 252.983L146.022 254.62L147.062 256.256L148.134 257.892L149.211 259.528L150 260.75L150.789 259.528L151.866 257.892L152.938 256.256L153.978 254.62L154.959 252.983L155.856 251.347L156.642 249.711L157.296 248.075L157.794 246.439L158.121 244.803L158.26 243.167L158.203 241.531L157.941 239.895L157.476 238.259L156.809 236.622L155.951 234.986L154.915 233.35L153.719 231.714L152.387 230.078L150.946 228.442L150 227.421Z" stroke="black" stroke-linecap="round" stroke-linejoin="round"/>
<mask id="mask1_237_1518" style="mask-type:alpha" maskUnits="userSpaceOnUse" x="136" y="260" width="28" height="26">
<rect x="164" y="260.75" width="25" height="28" transform="rotate(90 164 260.75)" fill="#D9D9D9"/>
</mask>
<g mask="url(#mask1_237_1518)">
<path d="M150 293.755L150.571 293.145L152.132 291.525L153.698 289.905L155.233 288.286L156.697 286.666L158.052 285.046L159.26 283.426L160.286 281.807L161.099 280.187L161.67 278.567L161.857 277.757L161.976 276.947L162 275.328L161.902 274.518L161.731 273.708L161.164 272.088L160.301 270.469L159.154 268.849L157.74 267.229L156.083 265.609L154.214 263.99L152.172 262.37L150 260.75L147.828 262.37L145.786 263.99L143.917 265.609L142.26 267.229L140.846 268.849L139.699 270.469L138.836 272.088L138.269 273.708L138.098 274.518L138 275.328L138.024 276.947L138.143 277.757L138.33 278.567L138.901 280.187L139.714 281.807L140.74 283.426L141.948 285.046L143.303 286.666L144.767 288.286L146.302 289.905L147.868 291.525L149.429 293.145L150 293.755ZM150 293.755L149.054 294.765L147.613 296.384L146.281 298.004L145.085 299.624L144.049 301.244L143.191 302.863L142.524 304.483L142.059 306.103L141.797 307.723L141.74 309.343L141.879 310.962L142.206 312.582L142.704 314.202L143.358 315.822L144.144 317.441L145.041 319.061L146.022 320.681L147.062 322.301L148.134 323.92L149.211 325.54L150 326.75L150.789 325.54L151.866 323.92L152.938 322.301L153.978 320.681L154.959 319.061L155.856 317.441L156.642 315.822L157.296 314.202L157.794 312.582L158.121 310.962L158.26 309.343L158.203 307.723L157.941 306.103L157.476 304.483L156.809 302.863L155.951 301.244L154.915 299.624L153.719 298.004L152.387 296.384L150.946 294.765L150 293.755Z" stroke="black" stroke-linecap="round" stroke-linejoin="round"/>
</g>
<path d="M188.468 152.924L188.761 152.136L189.576 150.027L190.397 147.916L191.189 145.817L191.916 143.746L192.541 141.715L193.031 139.742L193.353 137.837L193.478 136.015L193.379 134.285L193.239 133.457L193.036 132.656L192.432 131.135L192.029 130.417L191.557 129.727L190.407 128.432L188.984 127.251L187.299 126.178L185.366 125.208L183.208 124.33L180.856 123.534L178.343 122.804L175.711 122.123L174.33 124.466L173.07 126.759L171.969 128.986L171.064 131.131L170.383 133.184L169.95 135.135L169.78 136.976L169.882 138.705L170.036 139.526L170.259 140.32L170.907 141.822L171.33 142.532L171.816 143.216L172.97 144.509L174.347 145.71L175.921 146.829L177.663 147.878L179.541 148.872L181.52 149.823L183.564 150.747L185.637 151.659L187.705 152.573L188.468 152.924ZM188.468 152.924L187.985 154.228L187.28 156.291L186.676 158.313L186.197 160.282L185.865 162.19L185.699 164.03L185.709 165.797L185.905 167.486L186.29 169.098L186.863 170.632L187.617 172.09L188.545 173.476L189.632 174.797L190.862 176.059L192.214 177.269L193.669 178.438L195.202 179.574L196.788 180.688L198.405 181.789L200.026 182.888L201.223 183.715L201.484 182.284L201.853 180.36L202.217 178.439L202.552 176.529L202.832 174.642L203.035 172.787L203.135 170.975L203.112 169.213L202.947 167.511L202.623 165.874L202.125 164.31L201.446 162.82L200.578 161.408L199.522 160.075L198.28 158.818L196.861 157.635L195.278 156.52L193.547 155.467L191.69 154.464L189.733 153.504L188.468 152.924Z" stroke="black" stroke-linecap="round" stroke-linejoin="round"/>
<path d="M162.956 91.3317L163.248 90.5443L164.064 88.4354L164.885 86.3243L165.677 84.2255L166.404 82.1537L167.029 80.1235L167.519 78.1498L167.841 76.2455L167.966 74.4228L167.867 72.6928L167.727 71.8653L167.524 71.0641L166.92 69.5434L166.517 68.8247L166.045 68.1347L164.895 66.8402L163.472 65.6587L161.786 64.5858L159.854 63.6156L157.696 62.7384L155.344 61.942L152.831 61.2117L150.198 60.5313L148.818 62.8739L147.557 65.1673L146.457 67.3938L145.552 69.5395L144.871 71.5923L144.438 73.543L144.267 75.3845L144.369 77.113L144.524 77.9345L144.747 78.7278L145.395 80.2301L145.818 80.9405L146.304 81.6245L147.458 82.9174L148.834 84.1184L150.409 85.237L152.151 86.2862L154.029 87.2796L156.007 88.2309L158.051 89.155L160.125 90.0669L162.193 90.9816L162.956 91.3317ZM162.956 91.3317L162.472 92.6366L161.768 94.6993L161.163 96.7208L160.685 98.6899L160.353 100.598L160.186 102.438L160.197 104.205L160.393 105.894L160.777 107.506L161.35 109.04L162.105 110.498L163.033 111.885L164.12 113.205L165.349 114.467L166.702 115.677L168.157 116.846L169.689 117.982L171.276 119.096L172.893 120.197L174.514 121.296L175.711 122.123L175.972 120.692L176.341 118.769L176.705 116.847L177.04 114.937L177.32 113.05L177.522 111.196L177.623 109.383L177.6 107.621L177.435 105.919L177.111 104.283L176.613 102.718L175.934 101.228L175.066 99.8165L174.01 98.4831L172.768 97.2264L171.349 96.0434L169.766 94.9285L168.035 93.8746L166.178 92.8725L164.221 91.9123L162.956 91.3317Z" stroke="black" stroke-linecap="round" stroke-linejoin="round"/>
<path d="M213.981 214.516L214.273 213.728L215.088 211.619L215.91 209.508L216.702 207.409L217.428 205.338L218.053 203.307L218.543 201.334L218.866 199.429L218.99 197.607L218.892 195.877L218.752 195.049L218.548 194.248L217.944 192.727L217.541 192.009L217.069 191.319L215.919 190.024L214.497 188.843L212.811 187.77L210.878 186.8L208.721 185.922L206.368 185.126L203.855 184.396L201.223 183.715L199.842 186.058L198.582 188.351L197.482 190.578L196.576 192.723L195.896 194.776L195.462 196.727L195.292 198.568L195.394 200.297L195.548 201.118L195.771 201.912L196.42 203.414L196.842 204.124L197.329 204.808L198.482 206.101L199.859 207.302L201.433 208.421L203.175 209.47L205.053 210.464L207.032 211.415L209.076 212.339L211.15 213.251L213.217 214.166L213.981 214.516ZM213.981 214.516L213.497 215.821L212.792 217.883L212.188 219.905L211.709 221.874L211.378 223.782L211.211 225.622L211.221 227.389L211.417 229.078L211.802 230.69L212.375 232.224L213.13 233.682L214.057 235.068L215.144 236.389L216.374 237.651L217.727 238.861L219.181 240.03L220.714 241.166L222.301 242.28L223.917 243.381L225.538 244.48L226.735 245.307L226.997 243.876L227.365 241.953L227.73 240.031L228.064 238.121L228.345 236.234L228.547 234.379L228.648 232.567L228.625 230.805L228.46 229.103L228.135 227.466L227.638 225.902L226.958 224.412L226.091 223L225.035 221.667L223.793 220.41L222.373 219.227L220.79 218.112L219.059 217.059L217.202 216.056L215.245 215.096L213.981 214.516Z" stroke="black" stroke-linecap="round" stroke-linejoin="round"/>
<mask id="mask2_237_1518" style="mask-type:alpha" maskUnits="userSpaceOnUse" x="213" y="239" width="37" height="35">
<rect x="239.669" y="239.95" width="25" height="28" transform="rotate(67.5 239.669 239.95)" fill="#D9D9D9"/>
</mask>
<g mask="url(#mask2_237_1518)">
<path d="M239.365 275.8L239.66 275.018L240.482 272.924L241.309 270.828L242.107 268.744L242.84 266.688L243.472 264.673L243.968 262.714L244.297 260.825L244.427 259.017L244.335 257.302L244.198 256.482L243.998 255.689L243.4 254.183L243 253.472L242.532 252.79L241.388 251.51L239.971 250.344L238.292 249.286L236.365 248.331L234.214 247.469L231.868 246.688L229.361 245.972L226.735 245.307L225.348 247.635L224.081 249.913L222.975 252.124L222.064 254.255L221.377 256.293L220.937 258.228L220.76 260.055L220.856 261.768L221.007 262.582L221.227 263.368L221.869 264.855L222.289 265.558L222.772 266.234L223.919 267.512L225.29 268.698L226.858 269.801L228.594 270.835L230.465 271.814L232.438 272.75L234.475 273.659L236.543 274.556L238.604 275.455L239.365 275.8ZM239.365 275.8L238.878 277.095L238.167 279.143L237.556 281.149L237.071 283.103L236.733 284.996L236.56 286.821L236.564 288.573L236.754 290.247L237.133 291.843L237.699 293.362L238.448 294.805L239.369 296.177L240.45 297.482L241.673 298.729L243.02 299.924L244.468 301.078L245.995 302.199L247.575 303.297L249.185 304.383L250.8 305.468L251.992 306.283L252.258 304.863L252.633 302.955L253.004 301.048L253.345 299.154L253.632 297.282L253.84 295.442L253.947 293.645L253.93 291.898L253.771 290.211L253.453 288.59L252.962 287.04L252.289 285.565L251.428 284.169L250.378 282.851L249.142 281.609L247.729 280.441L246.152 279.342L244.427 278.303L242.577 277.316L240.626 276.371L239.365 275.8Z" stroke="black" stroke-linecap="round" stroke-linejoin="round"/>
</g>
<path d="M221.022 131.071L220.99 130.231L220.936 127.971L220.888 125.706L220.816 123.464L220.694 121.272L220.495 119.157L220.192 117.146L219.762 115.263L219.179 113.532L218.426 111.971L217.98 111.26L217.485 110.598L216.346 109.424L215.698 108.914L214.998 108.457L213.44 107.701L211.674 107.154L209.706 106.808L207.549 106.652L205.22 106.667L202.742 106.831L200.141 107.118L197.448 107.497L197.069 110.189L196.782 112.791L196.618 115.269L196.603 117.598L196.759 119.755L197.105 121.723L197.653 123.489L198.408 125.047L198.865 125.747L199.375 126.395L200.549 127.534L201.211 128.029L201.922 128.475L203.483 129.228L205.214 129.81L207.097 130.241L209.108 130.544L211.223 130.743L213.415 130.865L215.657 130.936L217.922 130.985L220.182 131.039L221.022 131.071ZM221.022 131.071L221.074 132.461L221.212 134.637L221.428 136.735L221.739 138.738L222.163 140.628L222.713 142.391L223.399 144.02L224.226 145.506L225.198 146.847L226.315 148.045L227.57 149.103L228.958 150.03L230.467 150.834L232.086 151.529L233.799 152.129L235.59 152.652L237.441 153.116L239.333 153.537L241.248 153.936L243.166 154.331L244.588 154.637L244.282 153.215L243.887 151.297L243.488 149.382L243.067 147.49L242.604 145.639L242.081 143.848L241.48 142.135L240.785 140.516L239.981 139.007L239.055 137.619L237.996 136.363L236.798 135.247L235.457 134.275L233.971 133.447L232.342 132.762L230.579 132.212L228.689 131.788L226.687 131.476L224.588 131.261L222.412 131.123L221.022 131.071Z" stroke="black" stroke-linecap="round" stroke-linejoin="round"/>
<path d="M173.881 83.9301L173.85 83.0908L173.796 80.8304L173.747 78.5657L173.676 76.3235L173.554 74.1315L173.355 72.0165L173.052 70.0055L172.621 68.1228L172.038 66.3913L171.285 64.8307L170.84 64.1197L170.345 63.4574L169.205 62.2835L168.557 61.7739L167.858 61.3168L166.3 60.561L164.533 60.0139L162.565 59.6678L160.408 59.5112L158.079 59.5262L155.601 59.6906L153 59.9777L150.308 60.3565L149.929 63.049L149.642 65.6502L149.477 68.1283L149.462 70.4571L149.619 72.6141L149.965 74.5822L150.512 76.3487L151.268 77.9066L151.725 78.6064L152.235 79.2541L153.408 80.3939L154.071 80.8885L154.782 81.3343L156.342 82.0874L158.074 82.67L159.957 83.101L161.968 83.4037L164.083 83.6029L166.275 83.7245L168.517 83.7961L170.781 83.845L173.042 83.8987L173.881 83.9301ZM173.881 83.9301L173.934 85.3208L174.072 87.4962L174.287 89.595L174.598 91.5975L175.022 93.4873L175.572 95.2509L176.258 96.8793L177.086 98.3653L178.058 99.7069L179.174 100.905L180.43 101.963L181.817 102.889L183.327 103.693L184.946 104.388L186.659 104.989L188.449 105.512L190.301 105.975L192.193 106.397L194.107 106.796L196.026 107.191L197.448 107.497L197.142 106.075L196.747 104.156L196.348 102.242L195.926 100.349L195.463 98.4984L194.94 96.7076L194.34 94.9946L193.644 93.3757L192.84 91.8661L191.914 90.4785L190.856 89.223L189.658 88.1068L188.316 87.1347L186.83 86.307L185.202 85.6213L183.438 85.0714L181.549 84.6473L179.546 84.3361L177.447 84.1207L175.272 83.9825L173.881 83.9301Z" stroke="black" stroke-linecap="round" stroke-linejoin="round"/>
<path d="M268.162 178.211L268.131 177.372L268.077 175.111L268.028 172.847L267.957 170.604L267.835 168.412L267.636 166.297L267.333 164.286L266.902 162.404L266.319 160.672L265.566 159.112L265.12 158.401L264.626 157.738L263.486 156.564L262.838 156.055L262.139 155.598L260.581 154.842L258.814 154.295L256.846 153.949L254.689 153.792L252.36 153.807L249.882 153.972L247.281 154.259L244.589 154.637L244.21 157.33L243.923 159.931L243.758 162.409L243.743 164.738L243.9 166.895L244.246 168.863L244.793 170.63L245.549 172.188L246.006 172.887L246.516 173.535L247.689 174.675L248.352 175.169L249.063 175.615L250.623 176.368L252.355 176.951L254.238 177.382L256.248 177.685L258.363 177.884L260.556 178.005L262.798 178.077L265.062 178.126L267.323 178.18L268.162 178.211ZM268.162 178.211L268.214 179.602L268.353 181.777L268.568 183.876L268.879 185.878L269.303 187.768L269.853 189.532L270.539 191.16L271.367 192.646L272.339 193.988L273.455 195.186L274.71 196.244L276.098 197.17L277.608 197.974L279.227 198.669L280.94 199.27L282.73 199.793L284.581 200.256L286.474 200.678L288.388 201.077L290.307 201.472L291.729 201.778L291.423 200.356L291.028 198.437L290.629 196.522L290.207 194.63L289.744 192.779L289.221 190.989L288.62 189.276L287.925 187.657L287.121 186.147L286.195 184.759L285.137 183.504L283.939 182.388L282.597 181.416L281.111 180.588L279.483 179.902L277.719 179.352L275.829 178.928L273.827 178.617L271.728 178.402L269.553 178.263L268.162 178.211Z" stroke="black" stroke-linecap="round" stroke-linejoin="round"/>
<mask id="mask3_237_1518" style="mask-type:alpha" maskUnits="userSpaceOnUse" x="281" y="191" width="39" height="39">
<rect x="301.628" y="191.878" width="25" height="28" transform="rotate(45 301.628 191.878)" fill="#D9D9D9"/>
</mask>
<g mask="url(#mask3_237_1518)">
<path d="M315.067 225.116L315.04 224.281L314.998 222.032L314.96 219.779L314.9 217.548L314.79 215.368L314.603 213.264L314.311 211.265L313.892 209.394L313.321 207.674L312.579 206.125L312.139 205.42L311.651 204.763L310.522 203.601L309.88 203.097L309.186 202.646L307.64 201.901L305.885 201.366L303.929 201.031L301.783 200.886L299.466 200.913L296.999 201.089L294.41 201.387L291.729 201.778L291.338 204.459L291.04 207.048L290.864 209.515L290.837 211.832L290.982 213.978L291.317 215.934L291.852 217.689L292.597 219.235L293.048 219.929L293.552 220.571L294.714 221.7L295.371 222.188L296.076 222.628L297.625 223.37L299.345 223.941L301.216 224.36L303.215 224.652L305.319 224.839L307.499 224.949L309.73 225.009L311.983 225.047L314.232 225.089L315.067 225.116ZM315.067 225.116L315.112 226.499L315.239 228.663L315.442 230.75L315.742 232.741L316.154 234.619L316.693 236.371L317.367 237.988L318.183 239.463L319.144 240.793L320.248 241.979L321.492 243.026L322.868 243.94L324.366 244.733L325.974 245.416L327.675 246.006L329.454 246.517L331.294 246.968L333.174 247.378L335.078 247.766L336.984 248.149L338.398 248.447L338.101 247.033L337.717 245.127L337.329 243.223L336.919 241.343L336.468 239.503L335.957 237.724L335.367 236.023L334.684 234.415L333.891 232.917L332.977 231.541L331.93 230.297L330.744 229.193L329.414 228.232L327.939 227.416L326.322 226.742L324.57 226.204L322.692 225.791L320.701 225.491L318.614 225.288L316.45 225.161L315.067 225.116Z" stroke="black" stroke-linecap="round" stroke-linejoin="round"/>
</g>
<path d="M242.734 98.4233L242.384 97.66L241.469 95.5922L240.557 93.5186L239.633 91.4745L238.682 89.4959L237.688 87.6181L236.639 85.876L235.521 84.3015L234.32 82.9248L233.027 81.7712L232.343 81.2849L231.632 80.8622L230.13 80.214L229.337 79.9909L228.515 79.8365L226.787 79.7344L224.945 79.9049L222.994 80.3384L220.942 81.0191L218.796 81.9242L216.569 83.0244L214.276 84.285L211.933 85.6654L212.614 88.298L213.344 90.811L214.141 93.1634L215.018 95.3206L215.988 97.2535L217.061 98.9394L218.242 100.362L219.537 101.512L220.227 101.984L220.946 102.387L222.466 102.991L223.267 103.194L224.095 103.334L225.825 103.433L227.648 103.308L229.552 102.986L231.526 102.496L233.556 101.871L235.628 101.144L237.726 100.352L239.838 99.5309L241.946 98.7156L242.734 98.4233ZM242.734 98.4233L243.314 99.6881L244.275 101.645L245.277 103.502L246.331 105.233L247.445 106.816L248.629 108.235L249.885 109.477L251.219 110.533L252.63 111.401L254.12 112.08L255.685 112.578L257.321 112.902L259.023 113.067L260.785 113.09L262.598 112.99L264.452 112.787L266.34 112.507L268.249 112.172L270.171 111.808L272.094 111.439L273.525 111.178L272.698 109.981L271.599 108.36L270.498 106.743L269.384 105.157L268.248 103.624L267.08 102.169L265.869 100.817L264.607 99.587L263.287 98.5L261.9 97.5724L260.442 96.8174L258.908 96.2446L257.297 95.8599L255.607 95.6639L253.84 95.6535L252 95.8205L250.092 96.1517L248.123 96.6305L246.101 97.2348L244.039 97.9396L242.734 98.4233Z" stroke="black" stroke-linecap="round" stroke-linejoin="round"/>
<path d="M181.142 72.9111L180.792 72.1478L179.877 70.08L178.965 68.0064L178.041 65.9623L177.09 63.9836L176.096 62.1059L175.047 60.3638L173.929 58.7893L172.728 57.4126L171.435 56.259L170.751 55.7727L170.04 55.35L168.538 54.7018L167.745 54.4787L166.923 54.3243L165.195 54.2222L163.353 54.3927L161.403 54.8262L159.35 55.5069L157.204 56.412L154.978 57.5122L152.684 58.7728L150.342 60.1532L151.022 62.7858L151.752 65.2988L152.549 67.6512L153.426 69.8084L154.396 71.7413L155.469 73.4272L156.65 74.8498L157.945 75.9999L158.635 76.4716L159.354 76.8749L160.874 77.4787L161.676 77.6822L162.503 77.822L164.233 77.9205L166.056 77.7962L167.96 77.4738L169.934 76.9839L171.964 76.3586L174.036 75.6321L176.135 74.8402L178.246 74.0187L180.355 73.2034L181.142 72.9111ZM181.142 72.9111L181.723 74.1759L182.683 76.1328L183.685 77.9895L184.739 79.7205L185.854 81.3042L187.037 82.723L188.293 83.965L189.627 85.0212L191.038 85.8887L192.528 86.5682L194.093 87.0654L195.729 87.39L197.432 87.5551L199.193 87.578L201.006 87.4774L202.86 87.2752L204.748 86.9947L206.657 86.6601L208.579 86.2958L210.502 85.9269L211.934 85.6654L211.107 84.4686L210.007 82.8475L208.906 81.2311L207.792 79.6444L206.656 78.1115L205.488 76.6571L204.277 75.3043L203.015 74.0748L201.695 72.9878L200.308 72.0602L198.85 71.3052L197.316 70.7324L195.705 70.3477L194.015 70.1517L192.248 70.1413L190.408 70.3083L188.5 70.6395L186.531 71.1183L184.51 71.7226L182.447 72.4274L181.142 72.9111Z" stroke="black" stroke-linecap="round" stroke-linejoin="round"/>
<path d="M304.326 123.936L303.976 123.172L303.061 121.104L302.149 119.031L301.225 116.987L300.274 115.008L299.28 113.13L298.231 111.388L297.113 109.814L295.912 108.437L294.619 107.283L293.935 106.797L293.224 106.374L291.722 105.726L290.929 105.503L290.107 105.349L288.379 105.247L286.537 105.417L284.587 105.851L282.534 106.531L280.388 107.436L278.161 108.537L275.868 109.797L273.526 111.178L274.206 113.81L274.936 116.323L275.733 118.676L276.61 120.833L277.58 122.766L278.653 124.452L279.834 125.874L281.129 127.024L281.819 127.496L282.538 127.899L284.058 128.503L284.859 128.707L285.687 128.846L287.417 128.945L289.24 128.821L291.144 128.498L293.118 128.008L295.148 127.383L297.22 126.657L299.319 125.865L301.43 125.043L303.539 124.228L304.326 123.936ZM304.326 123.936L304.906 125.2L305.867 127.157L306.869 129.014L307.923 130.745L309.038 132.329L310.221 133.747L311.477 134.989L312.811 136.046L314.222 136.913L315.712 137.593L317.277 138.09L318.913 138.414L320.616 138.58L322.377 138.602L324.19 138.502L326.044 138.3L327.932 138.019L329.841 137.685L331.763 137.32L333.686 136.951L335.117 136.69L334.29 135.493L333.191 133.872L332.09 132.256L330.976 130.669L329.84 129.136L328.672 127.682L327.461 126.329L326.199 125.099L324.879 124.012L323.492 123.085L322.034 122.33L320.5 121.757L318.889 121.372L317.199 121.176L315.432 121.166L313.592 121.333L311.684 121.664L309.715 122.143L307.694 122.747L305.631 123.452L304.326 123.936Z" stroke="black" stroke-linecap="round" stroke-linejoin="round"/>
<path d="M250.3 59.9524L249.684 59.3811L248.048 57.8207L246.412 56.2539L244.776 54.7191L243.14 53.2551L241.503 51.9004L239.867 50.6925L238.231 49.666L236.595 48.8535L234.959 48.2826L234.141 48.0951L233.323 47.9764L231.687 47.9524L230.869 48.0499L230.051 48.2216L228.414 48.7888L226.778 49.651L225.142 50.798L223.506 52.2124L221.87 53.8698L220.234 55.7383L218.598 57.7806L216.962 59.9524L218.598 62.1242L220.234 64.1664L221.87 66.035L223.506 67.6923L225.142 69.1068L226.778 70.2537L228.414 71.116L230.051 71.6831L230.869 71.8548L231.687 71.9524L233.323 71.9284L234.141 71.8097L234.959 71.6222L236.595 71.0512L238.231 70.2388L239.867 69.2122L241.503 68.0043L243.14 66.6496L244.776 65.1857L246.412 63.6508L248.048 62.084L249.684 60.5237L250.3 59.9524ZM250.3 59.9524L251.32 60.8987L252.956 62.3392L254.593 63.671L256.229 64.8669L257.865 65.9035L259.501 66.7616L261.137 67.4281L262.773 67.8936L264.409 68.1549L266.045 68.2126L267.681 68.0732L269.317 67.7468L270.953 67.2479L272.59 66.5949L274.226 65.8082L275.862 64.9118L277.498 63.9303L279.134 62.8906L280.77 61.8186L282.406 60.7416L283.628 59.9524L282.406 59.1631L280.77 58.0862L279.134 57.0142L277.498 55.9744L275.862 54.993L274.226 54.0965L272.59 53.3099L270.953 52.6569L269.317 52.1579L267.681 51.8316L266.045 51.6921L264.409 51.7498L262.773 52.0112L261.137 52.4767L259.501 53.1432L257.865 54.0016L256.229 55.0378L254.593 56.2337L252.956 57.5656L251.32 59.0061L250.3 59.9524Z" stroke="black" stroke-linecap="round" stroke-linejoin="round"/>
<path d="M183.633 59.9524L183.017 59.3811L181.381 57.8207L179.745 56.2539L178.109 54.7191L176.473 53.2551L174.837 51.9004L173.201 50.6925L171.565 49.666L169.928 48.8535L168.292 48.2826L167.474 48.0951L166.656 47.9764L165.02 47.9524L164.202 48.0499L163.384 48.2216L161.748 48.7888L160.112 49.651L158.475 50.798L156.839 52.2124L155.203 53.8698L153.567 55.7383L151.931 57.7806L150.295 59.9524L151.931 62.1242L153.567 64.1664L155.203 66.035L156.839 67.6923L158.475 69.1068L160.112 70.2537L161.748 71.116L163.384 71.6831L164.202 71.8548L165.02 71.9524L166.656 71.9284L167.474 71.8097L168.292 71.6222L169.928 71.0512L171.565 70.2388L173.201 69.2122L174.837 68.0043L176.473 66.6496L178.109 65.1857L179.745 63.6508L181.381 62.084L183.017 60.5237L183.633 59.9524ZM183.633 59.9524L184.654 60.8987L186.29 62.3392L187.926 63.671L189.562 64.8669L191.198 65.9035L192.834 66.7616L194.47 67.4281L196.106 67.8936L197.742 68.1549L199.379 68.2126L201.015 68.0732L202.651 67.7468L204.287 67.2479L205.923 66.5949L207.559 65.8082L209.195 64.9118L210.832 63.9303L212.468 62.8906L214.104 61.8186L215.74 60.7416L216.962 59.9524L215.74 59.1631L214.104 58.0862L212.468 57.0142L210.832 55.9744L209.195 54.993L207.559 54.0965L205.923 53.3099L204.287 52.6569L202.651 52.1579L201.015 51.8316L199.379 51.6921L197.742 51.7498L196.106 52.0112L194.47 52.4767L192.834 53.1432L191.198 54.0016L189.562 55.0378L187.926 56.2337L186.29 57.5656L184.654 59.0061L183.633 59.9524Z" stroke="black" stroke-linecap="round" stroke-linejoin="round"/>
<path d="M316.966 59.9524L316.351 59.3811L314.715 57.8207L313.078 56.2539L311.442 54.7191L309.806 53.2551L308.17 51.9004L306.534 50.6925L304.898 49.666L303.262 48.8535L301.626 48.2826L300.808 48.0951L299.99 47.9764L298.354 47.9524L297.535 48.0499L296.717 48.2216L295.081 48.7888L293.445 49.651L291.809 50.798L290.173 52.2124L288.537 53.8698L286.901 55.7383L285.264 57.7806L283.628 59.9524L285.264 62.1242L286.901 64.1664L288.537 66.035L290.173 67.6923L291.809 69.1068L293.445 70.2537L295.081 71.116L296.717 71.6831L297.535 71.8548L298.354 71.9524L299.99 71.9284L300.808 71.8097L301.626 71.6222L303.262 71.0512L304.898 70.2388L306.534 69.2122L308.17 68.0043L309.806 66.6496L311.442 65.1857L313.078 63.6508L314.715 62.084L316.351 60.5237L316.966 59.9524ZM316.966 59.9524L317.987 60.8987L319.623 62.3392L321.259 63.671L322.895 64.8669L324.531 65.9035L326.167 66.7616L327.804 67.4281L329.44 67.8936L331.076 68.1549L332.712 68.2126L334.348 68.0732L335.984 67.7468L337.62 67.2479L339.257 66.5949L340.893 65.8082L342.529 64.9118L344.165 63.9303L345.801 62.8906L347.437 61.8186L349.073 60.7416L350.295 59.9524L349.073 59.1631L347.437 58.0862L345.801 57.0142L344.165 55.9744L342.529 54.993L340.893 54.0965L339.257 53.3099L337.62 52.6569L335.984 52.1579L334.348 51.8316L332.712 51.6921L331.076 51.7498L329.44 52.0112L327.804 52.4767L326.167 53.1432L324.531 54.0016L322.895 55.0378L321.259 56.2337L319.623 57.5656L317.987 59.0061L316.966 59.9524Z" stroke="black" stroke-linecap="round" stroke-linejoin="round"/>
<path d="M242.568 21.5145L241.78 21.2223L239.671 20.4069L237.56 19.5855L235.461 18.7935L233.39 18.0671L231.36 17.4417L229.386 16.9518L227.481 16.6295L225.659 16.5051L223.929 16.6037L223.101 16.7435L222.3 16.9469L220.779 17.5508L220.061 17.9541L219.371 18.4257L218.076 19.5758L216.895 20.9985L215.822 22.6843L214.852 24.6172L213.974 26.7745L213.178 29.1269L212.448 31.6399L211.767 34.2724L214.11 35.6528L216.403 36.9134L218.63 38.0137L220.776 38.9188L222.828 39.5995L224.779 40.0329L226.62 40.2034L228.349 40.1014L229.17 39.9469L229.964 39.7239L231.466 39.0756L232.176 38.653L232.86 38.1667L234.153 37.0131L235.354 35.6363L236.473 34.0618L237.522 32.3198L238.516 30.442L239.467 28.4634L240.391 26.4193L241.303 24.3457L242.218 22.2779L242.568 21.5145ZM242.568 21.5145L243.873 21.9983L245.935 22.7031L247.957 23.3073L249.926 23.7861L251.834 24.1176L253.674 24.2844L255.441 24.2739L257.13 24.0779L258.742 23.6933L260.276 23.1204L261.734 22.3655L263.12 21.4379L264.441 20.3509L265.703 19.1213L266.913 17.7685L268.082 16.3142L269.218 14.7812L270.332 13.1946L271.433 11.5781L272.532 9.95706L273.359 8.7602L271.928 8.4987L270.005 8.1298L268.083 7.76551L266.173 7.43098L264.286 7.15045L262.432 6.94829L260.619 6.84762L258.857 6.87051L257.155 7.03564L255.519 7.3602L253.954 7.85744L252.464 8.53697L251.052 9.40448L249.719 10.4606L248.462 11.7026L247.279 13.1218L246.164 14.7052L245.111 16.4361L244.108 18.2928L243.148 20.2498L242.568 21.5145Z" stroke="black" stroke-linecap="round" stroke-linejoin="round"/>
<path d="M180.976 47.0267L180.188 46.7345L178.079 45.9191L175.968 45.0977L173.87 44.3057L171.798 43.5793L169.768 42.9539L167.794 42.464L165.89 42.1417L164.067 42.0173L162.337 42.1159L161.509 42.2557L160.708 42.4591L159.188 43.063L158.469 43.4663L157.779 43.9379L156.484 45.088L155.303 46.5107L154.23 48.1966L153.26 50.1294L152.382 52.2867L151.586 54.6391L150.856 57.1521L150.175 59.7846L152.518 61.165L154.811 62.4256L157.038 63.5259L159.184 64.431L161.236 65.1117L163.187 65.5451L165.029 65.7156L166.757 65.6136L167.579 65.4591L168.372 65.2361L169.874 64.5878L170.585 64.1652L171.269 63.6789L172.562 62.5253L173.762 61.1485L174.881 59.574L175.93 57.832L176.924 55.9542L177.875 53.9756L178.799 51.9315L179.711 49.8579L180.626 47.7901L180.976 47.0267ZM180.976 47.0267L182.281 47.5105L184.343 48.2153L186.365 48.8195L188.334 49.2983L190.242 49.6298L192.082 49.7966L193.849 49.7861L195.538 49.5901L197.15 49.2055L198.684 48.6326L200.142 47.8777L201.529 46.9501L202.849 45.8631L204.111 44.6335L205.321 43.2807L206.49 41.8264L207.626 40.2934L208.74 38.7068L209.841 37.0903L210.94 35.4693L211.767 34.2724L210.336 34.0109L208.413 33.642L206.491 33.2777L204.582 32.9432L202.694 32.6627L200.84 32.4605L199.027 32.3598L197.265 32.3827L195.563 32.5478L193.927 32.8724L192.362 33.3696L190.872 34.0492L189.461 34.9167L188.127 35.9729L186.87 37.2148L185.687 38.634L184.573 40.2174L183.519 41.9483L182.517 43.805L181.556 45.762L180.976 47.0267Z" stroke="black" stroke-linecap="round" stroke-linejoin="round"/>
<path d="M304.16 -3.99776L303.372 -4.28998L301.263 -5.10534L299.152 -5.9268L297.053 -6.71875L294.982 -7.4452L292.952 -8.07056L290.978 -8.56044L289.073 -8.88279L287.251 -9.00714L285.521 -8.90859L284.693 -8.76878L283.892 -8.56536L282.371 -7.96148L281.653 -7.55818L280.963 -7.08653L279.668 -5.93644L278.487 -4.51378L277.414 -2.82791L276.444 -0.895049L275.566 1.2622L274.77 3.61459L274.04 6.12763L273.359 8.76017L275.702 10.1405L277.995 11.4012L280.222 12.5014L282.368 13.4065L284.42 14.0872L286.371 14.5207L288.212 14.6912L289.941 14.5891L290.762 14.4347L291.556 14.2116L293.058 13.5634L293.768 13.1407L294.452 12.6544L295.745 11.5008L296.946 10.1241L298.065 8.54955L299.114 6.80751L300.108 4.92974L301.059 2.95113L301.983 0.907024L302.895 -1.16659L303.81 -3.23437L304.16 -3.99776ZM304.16 -3.99776L305.465 -3.51399L307.527 -2.8092L309.549 -2.20495L311.518 -1.72616L313.426 -1.39462L315.266 -1.22791L317.033 -1.23835L318.722 -1.43433L320.334 -1.81898L321.868 -2.39186L323.326 -3.14678L324.713 -4.07438L326.033 -5.16141L327.295 -6.39093L328.505 -7.74375L329.674 -9.19808L330.81 -10.731L331.924 -12.3177L333.025 -13.9342L334.124 -15.5552L334.951 -16.7521L333.52 -17.0136L331.597 -17.3825L329.675 -17.7468L327.765 -18.0813L325.878 -18.3618L324.024 -18.564L322.211 -18.6646L320.449 -18.6417L318.747 -18.4766L317.111 -18.1521L315.546 -17.6548L314.056 -16.9753L312.645 -16.1078L311.311 -15.0516L310.054 -13.8096L308.871 -12.3905L307.756 -10.8071L306.703 -9.07612L305.701 -7.21946L304.74 -5.26251L304.16 -3.99776Z" stroke="black" stroke-linecap="round" stroke-linejoin="round"/>
<path d="M220.715 -11.0385L219.875 -11.0072L217.615 -10.9534L215.35 -10.9045L213.108 -10.8329L210.916 -10.7113L208.801 -10.5121L206.79 -10.2094L204.907 -9.77844L203.176 -9.19581L201.615 -8.44273L200.904 -7.99689L200.242 -7.50237L199.068 -6.36251L198.558 -5.71487L198.101 -5.01505L197.346 -3.45715L196.798 -1.69064L196.452 0.277478L196.296 2.43449L196.311 4.76324L196.475 7.24134L196.762 9.84254L197.141 12.5351L199.834 12.9139L202.435 13.2009L204.913 13.3654L207.242 13.3804L209.399 13.2237L211.367 12.8777L213.133 12.3305L214.691 11.5748L215.391 11.1177L216.039 10.6081L217.178 9.43422L217.673 8.7719L218.119 8.0609L218.872 6.5003L219.454 4.76876L219.885 2.88603L220.188 0.875071L220.387 -1.23992L220.509 -3.43194L220.581 -5.67409L220.629 -7.93883L220.683 -10.1992L220.715 -11.0385ZM220.715 -11.0385L222.105 -11.0909L224.281 -11.2292L226.379 -11.4445L228.382 -11.7557L230.272 -12.1796L232.035 -12.7297L233.664 -13.4155L235.15 -14.2431L236.491 -15.2152L237.689 -16.3315L238.747 -17.5869L239.674 -18.9745L240.478 -20.4842L241.173 -22.103L241.774 -23.8161L242.296 -25.6068L242.76 -27.4579L243.181 -29.3499L243.58 -31.2648L243.975 -33.1831L244.281 -34.6054L242.859 -34.2993L240.941 -33.904L239.026 -33.5052L237.134 -33.0835L235.283 -32.6204L233.492 -32.0975L231.779 -31.4969L230.16 -30.8016L228.651 -29.9975L227.263 -29.0715L226.008 -28.0132L224.891 -26.8153L223.919 -25.4737L223.092 -23.9877L222.406 -22.3593L221.856 -20.5955L221.432 -18.7059L221.121 -16.7035L220.905 -14.6046L220.767 -12.4292L220.715 -11.0385Z" stroke="black" stroke-linecap="round" stroke-linejoin="round"/>
<path d="M173.574 36.1019L172.735 36.1332L170.474 36.187L168.21 36.2359L165.968 36.3075L163.776 36.4291L161.661 36.6283L159.65 36.931L157.767 37.362L156.035 37.9446L154.475 38.6977L153.764 39.1435L153.101 39.638L151.928 40.7779L151.418 41.4255L150.961 42.1254L150.205 43.6833L149.658 45.4498L149.312 47.4179L149.155 49.5749L149.17 51.9036L149.335 54.3818L149.622 56.983L150.001 59.6755L152.693 60.0543L155.294 60.3413L157.772 60.5058L160.101 60.5208L162.258 60.3642L164.226 60.0181L165.993 59.4709L167.551 58.7152L168.25 58.2581L168.898 57.7485L170.038 56.5746L170.532 55.9123L170.978 55.2013L171.731 53.6407L172.314 51.9092L172.745 50.0264L173.048 48.0155L173.247 45.9005L173.369 43.7085L173.44 41.4663L173.489 39.2016L173.543 36.9412L173.574 36.1019ZM173.574 36.1019L174.965 36.0495L177.14 35.9113L179.239 35.6959L181.242 35.3847L183.131 34.9608L184.895 34.4107L186.523 33.7249L188.009 32.8973L189.351 31.9252L190.549 30.809L191.607 29.5535L192.533 28.1659L193.337 26.6563L194.032 25.0374L194.633 23.3243L195.156 21.5336L195.619 19.6825L196.041 17.7905L196.44 15.8756L196.835 13.9573L197.141 12.535L195.719 12.8411L193.8 13.2364L191.886 13.6353L189.993 14.0569L188.142 14.52L186.352 15.0429L184.639 15.6435L183.02 16.3388L181.51 17.1429L180.123 18.069L178.867 19.1272L177.751 20.3251L176.779 21.6667L175.951 23.1527L175.265 24.7811L174.715 26.5449L174.291 28.4345L173.98 30.437L173.765 32.5358L173.627 34.7112L173.574 36.1019Z" stroke="black" stroke-linecap="round" stroke-linejoin="round"/>
<path d="M162.555 28.8411L161.792 29.1912L159.724 30.1059L157.65 31.0178L155.606 31.9419L153.628 32.8932L151.75 33.8866L150.008 34.9358L148.433 36.0544L147.057 37.2553L145.903 38.5483L145.417 39.2323L144.994 39.9426L144.346 41.4449L144.123 42.2383L143.968 43.0598L143.866 44.7883L144.037 46.6298L144.47 48.5805L145.151 50.6333L146.056 52.779L147.156 55.0055L148.417 57.2989L149.797 59.6415L152.43 58.9611L154.943 58.2308L157.295 57.4344L159.453 56.5571L161.385 55.5869L163.071 54.5141L164.494 53.3325L165.644 52.0381L166.116 51.3481L166.519 50.6293L167.123 49.1087L167.326 48.3075L167.466 47.48L167.565 45.75L167.44 43.9273L167.118 42.023L166.628 40.0493L166.003 38.019L165.276 35.9473L164.484 33.8485L163.663 31.7374L162.847 29.6285L162.555 28.8411ZM162.555 28.8411L163.82 28.2605L165.777 27.3003L167.634 26.2981L169.365 25.2443L170.948 24.1295L172.367 22.9464L173.609 21.6896L174.665 20.3563L175.533 18.9448L176.212 17.4551L176.71 15.8903L177.034 14.2539L177.199 12.5515L177.222 10.7898L177.121 8.97725L176.919 7.12269L176.639 5.23531L176.304 3.32593L175.94 1.40422L175.571 -0.519401L175.31 -1.95051L174.113 -1.12347L172.492 -0.0241185L170.875 1.07714L169.289 2.19073L167.756 3.32695L166.301 4.49537L164.948 5.70583L163.719 6.96772L162.632 8.28828L161.704 9.67487L160.949 11.133L160.376 12.6669L159.992 14.2784L159.796 15.968L159.785 17.7349L159.952 19.5748L160.284 21.4829L160.762 23.452L161.367 25.4735L162.071 27.5362L162.555 28.8411Z" stroke="black" stroke-linecap="round" stroke-linejoin="round"/>
<path d="M149.596 26.3497L149.025 26.9654L147.465 28.6017L145.898 30.2378L144.363 31.8738L142.899 33.5098L141.544 35.1462L140.337 36.7822L139.31 38.4182L138.498 40.0546L137.927 41.6906L137.739 42.5086L137.62 43.3266L137.596 44.9626L137.694 45.781L137.866 46.599L138.433 48.235L139.295 49.871L140.442 51.5074L141.856 53.1434L143.514 54.7794L145.382 56.4154L147.425 58.0518L149.596 59.6878L151.768 58.0518L153.811 56.4154L155.679 54.7794L157.336 53.1434L158.751 51.5074L159.898 49.871L160.76 48.235L161.327 46.599L161.499 45.781L161.596 44.9626L161.572 43.3266L161.454 42.5086L161.266 41.6906L160.695 40.0546L159.883 38.4182L158.856 36.7822L157.648 35.1462L156.294 33.5098L154.83 31.8738L153.295 30.2378L151.728 28.6017L150.168 26.9654L149.596 26.3497ZM149.596 26.3497L150.543 25.3294L151.983 23.6933L153.315 22.057L154.511 20.421L155.548 18.7849L156.406 17.1489L157.072 15.5125L157.538 13.8765L157.799 12.2405L157.857 10.6041L157.717 8.96813L157.391 7.3321L156.892 5.69608L156.239 4.05972L155.452 2.4237L154.556 0.787682L153.574 -0.848679L152.535 -2.4847L151.463 -4.12072L150.386 -5.75674L149.596 -6.97884L148.807 -5.75674L147.73 -4.12072L146.658 -2.4847L145.619 -0.848679L144.637 0.787681L143.741 2.4237L142.954 4.05972L142.301 5.69608L141.802 7.3321L141.476 8.96813L141.336 10.6041L141.394 12.2405L141.655 13.8765L142.121 15.5125L142.787 17.1489L143.646 18.7849L144.682 20.421L145.878 22.057L147.21 23.6933L148.65 25.3294L149.596 26.3497Z" stroke="black" stroke-linecap="round" stroke-linejoin="round"/>
<path d="M136.671 29.0071L136.379 29.7945L135.563 31.9034L134.742 34.0145L133.95 36.1134L133.223 38.1851L132.598 40.2153L132.108 42.189L131.786 44.0934L131.661 45.9161L131.76 47.6461L131.9 48.4736L132.103 49.2747L132.707 50.7954L133.11 51.5141L133.582 52.2042L134.732 53.4986L136.155 54.6801L137.841 55.753L139.773 56.7232L141.931 57.6004L144.283 58.3969L146.796 59.1271L149.429 59.8075L150.809 57.4649L152.07 55.1716L153.17 52.945L154.075 50.7993L154.756 48.7465L155.189 46.7958L155.36 44.9544L155.258 43.2258L155.103 42.4044L154.88 41.611L154.232 40.1087L153.809 39.3984L153.323 38.7144L152.169 37.4214L150.793 36.2205L149.218 35.1018L147.476 34.0526L145.598 33.0592L143.62 32.108L141.576 31.1839L139.502 30.272L137.434 29.3573L136.671 29.0071ZM136.671 29.0071L137.154 27.7023L137.859 25.6395L138.464 23.6181L138.942 21.6489L139.274 19.7408L139.441 17.9009L139.43 16.134L139.234 14.4444L138.85 12.8329L138.277 11.299L137.522 9.84091L136.594 8.45432L135.507 7.13376L134.278 5.87187L132.925 4.66141L131.47 3.49299L129.937 2.35677L128.351 1.24318L126.734 0.141919L125.113 -0.957435L123.916 -1.78447L123.655 -0.353363L123.286 1.57026L122.922 3.49197L122.587 5.40135L122.307 7.28873L122.105 9.14329L122.004 10.9558L122.027 12.7175L122.192 14.4199L122.516 16.0563L123.014 17.6212L123.693 19.1109L124.561 20.5223L125.617 21.8557L126.859 23.1124L128.278 24.2954L129.861 25.4104L131.592 26.4642L133.449 27.4663L135.406 28.4265L136.671 29.0071Z" stroke="black" stroke-linecap="round" stroke-linejoin="round"/>
<path d="M78.6054 -10.7317L78.6367 -9.8924L78.6905 -7.63199L78.7394 -5.36725L78.8109 -3.1251L78.9326 -0.933075L79.1318 1.18192L79.4345 3.19288L79.8654 5.07561L80.4481 6.80715L81.2012 8.36774L81.647 9.07875L82.1415 9.74107L83.2814 10.9149L83.929 11.4246L84.6288 11.8816L86.1867 12.6374L87.9533 13.1845L89.9214 13.5306L92.0784 13.6873L94.4071 13.6722L96.8852 13.5078L99.4864 13.2207L102.179 12.8419L102.558 10.1494L102.845 7.54819L103.009 5.07008L103.024 2.74134L102.868 0.584325L102.522 -1.38379L101.974 -3.1503L101.219 -4.70821L100.762 -5.40802L100.252 -6.05567L99.0781 -7.19552L98.4158 -7.69004L97.7048 -8.13588L96.1442 -8.88897L94.4127 -9.4716L92.5299 -9.90255L90.519 -10.2053L88.404 -10.4044L86.2119 -10.5261L83.9698 -10.5976L81.7051 -10.6466L79.4446 -10.7003L78.6054 -10.7317ZM78.6054 -10.7317L78.553 -12.1223L78.4147 -14.2978L78.1994 -16.3966L77.8882 -18.3991L77.4643 -20.2889L76.9142 -22.0525L76.2284 -23.6808L75.4008 -25.1669L74.4287 -26.5085L73.3124 -27.7064L72.057 -28.7646L70.6694 -29.6907L69.1597 -30.4947L67.5409 -31.1901L65.8278 -31.7907L64.0371 -32.3136L62.186 -32.7767L60.2939 -33.1983L58.3791 -33.5972L56.4607 -33.9925L55.0385 -34.2986L55.3446 -32.8763L55.7399 -30.9579L56.1387 -29.0431L56.5604 -27.1511L57.0234 -25.3L57.5464 -23.5092L58.147 -21.7962L58.8423 -20.1773L59.6464 -18.6677L60.5724 -17.2801L61.6307 -16.0246L62.8286 -14.9083L64.1702 -13.9363L65.6562 -13.1086L67.2846 -12.4228L69.0484 -11.873L70.938 -11.4489L72.9404 -11.1376L75.0393 -10.9223L77.2147 -10.7841L78.6054 -10.7317Z" stroke="black" stroke-linecap="round" stroke-linejoin="round"/>
<path d="M125.746 36.4087L125.777 37.248L125.831 39.5084L125.88 41.7732L125.951 44.0153L126.073 46.2073L126.272 48.3223L126.575 50.3333L127.006 52.216L127.589 53.9476L128.342 55.5082L128.787 56.2192L129.282 56.8815L130.422 58.0553L131.069 58.565L131.769 59.022L133.327 59.7778L135.094 60.325L137.062 60.671L139.219 60.8277L141.548 60.8126L144.026 60.6482L146.627 60.3612L149.319 59.9823L149.698 57.2898L149.985 54.6886L150.15 52.2105L150.165 49.8818L150.008 47.7247L149.662 45.7566L149.115 43.9901L148.359 42.4322L147.902 41.7324L147.392 41.0848L146.219 39.9449L145.556 39.4504L144.845 39.0045L143.285 38.2515L141.553 37.6688L139.67 37.2379L137.659 36.9352L135.544 36.736L133.352 36.6143L131.11 36.5428L128.846 36.4938L126.585 36.4401L125.746 36.4087ZM125.746 36.4087L125.693 35.0181L125.555 32.8426L125.34 30.7438L125.029 28.7413L124.605 26.8516L124.055 25.088L123.369 23.4596L122.541 21.9736L121.569 20.6319L120.453 19.434L119.197 18.3758L117.81 17.4497L116.3 16.6457L114.681 15.9504L112.968 15.3498L111.178 14.8268L109.326 14.3637L107.434 13.9421L105.52 13.5433L103.601 13.1479L102.179 12.8419L102.485 14.2641L102.88 16.1825L103.279 18.0973L103.701 19.9894L104.164 21.8404L104.687 23.6312L105.287 25.3443L105.983 26.9631L106.787 28.4727L107.713 29.8604L108.771 31.1158L109.969 32.2321L111.311 33.2041L112.797 34.0318L114.425 34.7176L116.189 35.2674L118.078 35.6916L120.081 36.0028L122.18 36.2181L124.355 36.3563L125.746 36.4087Z" stroke="black" stroke-linecap="round" stroke-linejoin="round"/>
<path d="M56.8932 21.9155L57.2434 22.6789L58.158 24.7467L59.0699 26.8203L59.9941 28.8644L60.9453 30.843L61.9387 32.7208L62.9879 34.4628L64.1066 36.0373L65.3075 37.4141L66.6004 38.5677L67.2844 39.054L67.9948 39.4766L69.4971 40.1249L70.2905 40.3479L71.1119 40.5024L72.8404 40.6044L74.6819 40.4339L76.6326 40.0005L78.6854 39.3198L80.8311 38.4147L83.0576 37.3144L85.351 36.0538L87.6936 34.6734L87.0132 32.0409L86.2829 29.5279L85.4865 27.1755L84.6093 25.0182L83.6391 23.0853L82.5662 21.3995L81.3847 19.9768L80.0902 18.8267L79.4002 18.3551L78.6815 17.9518L77.1608 17.3479L76.3596 17.1445L75.5321 17.0047L73.8021 16.9061L71.9795 17.0305L70.0751 17.3528L68.1014 17.8427L66.0712 18.4681L63.9994 19.1945L61.9006 19.9865L59.7895 20.8079L57.6806 21.6233L56.8932 21.9155ZM56.8932 21.9155L56.3126 20.6507L55.3524 18.6938L54.3503 16.8371L53.2964 15.1062L52.1816 13.5225L50.9985 12.1036L49.7418 10.8616L48.4084 9.80547L46.997 8.93796L45.5072 8.25843L43.9424 7.76119L42.306 7.43664L40.6036 7.2715L38.8419 7.24861L37.0294 7.34928L35.1748 7.55145L33.2874 7.83197L31.3781 8.1665L29.4563 8.53079L27.5327 8.89969L26.1016 9.16119L26.9286 10.358L28.028 11.9791L29.1293 13.5956L30.2429 15.1822L31.3791 16.7152L32.5475 18.1695L33.7579 19.5223L35.0198 20.7518L36.3404 21.8389L37.727 22.7665L39.1851 23.5214L40.719 24.0943L42.3305 24.4789L44.0201 24.6749L45.787 24.6853L47.627 24.5184L49.535 24.1871L51.5041 23.7083L53.5256 23.1041L55.5884 22.3993L56.8932 21.9155Z" stroke="black" stroke-linecap="round" stroke-linejoin="round"/>
<path d="M118.485 47.4277L118.835 48.1911L119.75 50.2589L120.662 52.3325L121.586 54.3766L122.537 56.3552L123.531 58.233L124.58 59.975L125.698 61.5495L126.899 62.9263L128.192 64.0799L128.876 64.5662L129.587 64.9888L131.089 65.6371L131.882 65.8601L132.704 66.0146L134.432 66.1166L136.274 65.9461L138.225 65.5127L140.277 64.832L142.423 63.9269L144.65 62.8266L146.943 61.566L149.286 60.1856L148.605 57.5531L147.875 55.0401L147.078 52.6877L146.201 50.5304L145.231 48.5976L144.158 46.9117L142.977 45.489L141.682 44.3389L140.992 43.8673L140.273 43.464L138.753 42.8601L137.952 42.6567L137.124 42.5169L135.394 42.4183L133.571 42.5427L131.667 42.865L129.693 43.3549L127.663 43.9803L125.591 44.7067L123.493 45.4987L121.381 46.3201L119.273 47.1355L118.485 47.4277ZM118.485 47.4277L117.905 46.163L116.944 44.206L115.942 42.3493L114.888 40.6184L113.774 39.0347L112.59 37.6158L111.334 36.3739L110 35.3177L108.589 34.4502L107.099 33.7706L105.534 33.2734L103.898 32.9489L102.196 32.7837L100.434 32.7608L98.6213 32.8615L96.7667 33.0637L94.8794 33.3442L92.97 33.6787L91.0483 34.043L89.1246 34.4119L87.6935 34.6734L88.5206 35.8703L89.6199 37.4913L90.7212 39.1078L91.8348 40.6944L92.971 42.2274L94.1394 43.6817L95.3499 45.0345L96.6118 46.2641L97.9323 47.3511L99.3189 48.2787L100.777 49.0336L102.311 49.6065L103.922 49.9911L105.612 50.1871L107.379 50.1976L109.219 50.0306L111.127 49.6993L113.096 49.2205L115.118 48.6163L117.18 47.9115L118.485 47.4277Z" stroke="black" stroke-linecap="round" stroke-linejoin="round"/>
<path d="M-4.69883 -3.59678L-4.34869 -2.83338L-3.43401 -0.765598L-2.52211 1.30801L-1.59799 3.35212L-0.646739 5.33073L0.346644 7.2085L1.39588 8.95054L2.51452 10.525L3.71543 11.9018L5.0084 13.0554L5.69239 13.5417L6.40273 13.9643L7.90502 14.6126L8.69841 14.8357L9.51985 14.9901L11.2484 15.0922L13.0898 14.9217L15.0406 14.4882L17.0933 13.8075L19.2391 12.9024L21.4656 11.8022L23.759 10.5415L26.1015 9.16116L25.4212 6.52862L24.6909 4.01559L23.8945 1.66319L23.0172 -0.494058L22.047 -2.42692L20.9742 -4.11279L19.7926 -5.53545L18.4982 -6.68554L17.8082 -7.15719L17.0894 -7.56049L15.5687 -8.16437L14.7676 -8.36779L13.9401 -8.5076L12.2101 -8.60615L10.3874 -8.4818L8.48308 -8.15946L6.50934 -7.66957L4.47913 -7.04421L2.40741 -6.31776L0.308553 -5.52581L-1.80252 -4.70436L-3.91144 -3.88899L-4.69883 -3.59678ZM-4.69883 -3.59678L-5.27942 -4.86152L-6.23964 -6.81847L-7.24177 -8.67514L-8.2956 -10.4061L-9.41043 -11.9898L-10.5935 -13.4086L-11.8503 -14.6506L-13.1836 -15.7068L-14.5951 -16.5743L-16.0848 -17.2538L-17.6497 -17.7511L-19.286 -18.0756L-20.9885 -18.2408L-22.7502 -18.2637L-24.5627 -18.163L-26.4172 -17.9608L-28.3046 -17.6803L-30.214 -17.3458L-32.1357 -16.9815L-34.0593 -16.6126L-35.4904 -16.3511L-34.6634 -15.1542L-33.564 -13.5332L-32.4628 -11.9167L-31.3492 -10.33L-30.213 -8.79709L-29.0446 -7.34277L-27.8341 -5.98995L-26.5722 -4.76042L-25.2516 -3.6734L-23.8651 -2.74579L-22.4069 -1.99088L-20.873 -1.41799L-19.2616 -1.03335L-17.5719 -0.837361L-15.8051 -0.826922L-13.9651 -0.993901L-12.057 -1.32517L-10.0879 -1.80396L-8.06643 -2.40821L-6.00368 -3.11301L-4.69883 -3.59678Z" stroke="black" stroke-linecap="round" stroke-linejoin="round"/>
<path d="M49.3272 60.3864L49.9428 60.9577L51.5792 62.5181L53.2152 64.0849L54.8512 65.6197L56.4873 67.0837L58.1236 68.4384L59.7596 69.6463L61.3957 70.6729L63.032 71.4853L64.668 72.0563L65.486 72.2438L66.3041 72.3624L67.9401 72.3864L68.7584 72.2889L69.5764 72.1172L71.2125 71.55L72.8485 70.6878L74.4848 69.5408L76.1209 68.1264L77.7569 66.4691L79.3929 64.6005L81.0293 62.5582L82.6653 60.3864L81.0293 58.2147L79.3929 56.1724L77.7569 54.3038L76.1209 52.6465L74.4848 51.232L72.8485 50.0851L71.2125 49.2229L69.5764 48.6557L68.7584 48.484L67.9401 48.3864L66.3041 48.4105L65.486 48.5291L64.668 48.7166L63.032 49.2876L61.3957 50.1L59.7596 51.1266L58.1236 52.3345L56.4873 53.6892L54.8512 55.1531L53.2152 56.688L51.5792 58.2548L49.9428 59.8151L49.3272 60.3864ZM49.3272 60.3864L48.3068 59.4401L46.6708 57.9996L45.0344 56.6678L43.3984 55.4719L41.7624 54.4354L40.1264 53.5772L38.49 52.9107L36.854 52.4452L35.218 52.1839L33.5816 52.1262L31.9456 52.2656L30.3096 52.592L28.6735 53.0909L27.0372 53.7439L25.4012 54.5306L23.7651 55.4271L22.1288 56.4085L20.4928 57.4482L18.8567 58.5202L17.2207 59.5972L15.9986 60.3864L17.2207 61.1757L18.8567 62.2526L20.4928 63.3246L22.1288 64.3644L23.7651 65.3458L25.4012 66.2423L27.0372 67.0289L28.6735 67.6819L30.3096 68.1809L31.9456 68.5072L33.5816 68.6467L35.218 68.589L36.854 68.3276L38.49 67.8621L40.1264 67.1956L41.7624 66.3372L43.3984 65.301L45.0344 64.1051L46.6708 62.7732L48.3068 61.3327L49.3272 60.3864Z" stroke="black" stroke-linecap="round" stroke-linejoin="round"/>
<path d="M115.994 60.3864L116.609 60.9577L118.246 62.5181L119.882 64.0849L121.518 65.6197L123.154 67.0837L124.79 68.4384L126.426 69.6463L128.062 70.6729L129.699 71.4853L131.335 72.0563L132.153 72.2438L132.971 72.3624L134.607 72.3864L135.425 72.2889L136.243 72.1172L137.879 71.55L139.515 70.6878L141.151 69.5408L142.787 68.1264L144.424 66.4691L146.06 64.6005L147.696 62.5582L149.332 60.3864L147.696 58.2147L146.06 56.1724L144.424 54.3038L142.787 52.6465L141.151 51.232L139.515 50.0851L137.879 49.2229L136.243 48.6557L135.425 48.484L134.607 48.3864L132.971 48.4105L132.153 48.5291L131.335 48.7166L129.699 49.2876L128.062 50.1L126.426 51.1266L124.79 52.3345L123.154 53.6892L121.518 55.1531L119.882 56.688L118.246 58.2548L116.609 59.8151L115.994 60.3864ZM115.994 60.3864L114.973 59.4401L113.337 57.9996L111.701 56.6678L110.065 55.4719L108.429 54.4354L106.793 53.5773L105.157 52.9108L103.521 52.4452L101.885 52.1839L100.248 52.1262L98.6122 52.2656L96.9762 52.592L95.3402 53.0909L93.7038 53.744L92.0678 54.5306L90.4318 55.4271L88.7954 56.4085L87.1594 57.4483L85.5234 58.5202L83.8873 59.5972L82.6652 60.3864L83.8873 61.1757L85.5234 62.2526L87.1594 63.3246L88.7954 64.3644L90.4318 65.3458L92.0678 66.2423L93.7038 67.0289L95.3402 67.6819L96.9762 68.1809L98.6122 68.5072L100.248 68.6467L101.885 68.589L103.521 68.3276L105.157 67.8621L106.793 67.1956L108.429 66.3372L110.065 65.301L111.701 64.1051L113.337 62.7733L114.973 61.3327L115.994 60.3864Z" stroke="black" stroke-linecap="round" stroke-linejoin="round"/>
<path d="M-17.3395 60.3864L-16.7239 60.9577L-15.0876 62.5181L-13.4515 64.0849L-11.8155 65.6197L-10.1795 67.0837L-8.54314 68.4384L-6.90712 69.6463L-5.27109 70.6729L-3.63473 71.4853L-1.99871 72.0563L-1.1807 72.2438L-0.362692 72.3624L1.27333 72.3864L2.09168 72.2889L2.90969 72.1172L4.54571 71.55L6.18173 70.6878L7.81809 69.5408L9.45411 68.1264L11.0901 66.469L12.7262 64.6005L14.3625 62.5582L15.9985 60.3864L14.3625 58.2146L12.7262 56.1724L11.0901 54.3038L9.45411 52.6465L7.81809 51.232L6.18173 50.0851L4.54571 49.2228L2.90969 48.6557L2.09168 48.484L1.27333 48.3864L-0.36269 48.4104L-1.1807 48.5291L-1.99871 48.7166L-3.63473 49.2876L-5.27109 50.1L-6.90711 51.1266L-8.54313 52.3345L-10.1795 53.6892L-11.8155 55.1531L-13.4515 56.688L-15.0876 58.2548L-16.7239 59.8151L-17.3395 60.3864ZM-17.3395 60.3864L-18.3599 59.4401L-19.996 57.9996L-21.6323 56.6678L-23.2683 55.4719L-24.9044 54.4353L-26.5404 53.5772L-28.1767 52.9107L-29.8128 52.4452L-31.4488 52.1839L-33.0851 52.1262L-34.7212 52.2656L-36.3572 52.592L-37.9932 53.0909L-39.6296 53.7439L-41.2656 54.5306L-42.9016 55.427L-44.538 56.4085L-46.174 57.4482L-47.81 58.5202L-49.446 59.5972L-50.6681 60.3864L-49.446 61.1757L-47.81 62.2526L-46.174 63.3246L-44.538 64.3644L-42.9016 65.3458L-41.2656 66.2423L-39.6296 67.0289L-37.9932 67.6819L-36.3572 68.1809L-34.7212 68.5072L-33.0851 68.6467L-31.4488 68.589L-29.8128 68.3276L-28.1767 67.8621L-26.5404 67.1956L-24.9044 66.3372L-23.2683 65.301L-21.6323 64.1051L-19.996 62.7732L-18.3599 61.3327L-17.3395 60.3864Z" stroke="black" stroke-linecap="round" stroke-linejoin="round"/>
<path d="M57.0593 98.8243L57.8467 99.1165L59.9556 99.9319L62.0667 100.753L64.1655 101.545L66.2372 102.272L68.2674 102.897L70.2412 103.387L72.1455 103.709L73.9682 103.834L75.6982 103.735L76.5257 103.595L77.3268 103.392L78.8475 102.788L79.5662 102.385L80.2563 101.913L81.5507 100.763L82.7323 99.3403L83.8051 97.6545L84.7753 95.7216L85.6526 93.5644L86.449 91.212L87.1793 88.6989L87.8596 86.0664L85.5171 84.686L83.2237 83.4254L80.9972 82.3251L78.8514 81.4201L76.7987 80.7394L74.8479 80.3059L73.0065 80.1354L71.278 80.2375L70.4565 80.3919L69.6631 80.6149L68.1608 81.2632L67.4505 81.6859L66.7665 82.1721L65.4735 83.3257L64.2726 84.7025L63.154 86.277L62.1047 88.019L61.1114 89.8968L60.1601 91.8754L59.236 93.9195L58.3241 95.9931L57.4094 98.0609L57.0593 98.8243ZM57.0593 98.8243L55.7544 98.3405L53.6917 97.6358L51.6702 97.0315L49.7011 96.5527L47.7929 96.2212L45.953 96.0545L44.1862 96.0649L42.4965 96.2609L40.8851 96.6455L39.3512 97.2184L37.893 97.9733L36.5065 98.9009L35.1859 99.988L33.924 101.217L32.7135 102.57L31.5451 104.025L30.4089 105.558L29.2953 107.144L28.1941 108.761L27.0947 110.382L26.2677 111.579L27.6988 111.84L29.6224 112.209L31.5441 112.573L33.4535 112.908L35.3409 113.188L37.1954 113.391L39.0079 113.491L40.7696 113.468L42.4721 113.303L44.1084 112.979L45.6733 112.481L47.163 111.802L48.5745 110.934L49.9078 109.878L51.1646 108.636L52.3476 107.217L53.4625 105.634L54.5163 103.903L55.5185 102.046L56.4787 100.089L57.0593 98.8243Z" stroke="black" stroke-linecap="round" stroke-linejoin="round"/>
<path d="M118.651 73.3121L119.439 73.6043L121.547 74.4197L123.659 75.2411L125.757 76.0331L127.829 76.7595L129.859 77.3849L131.833 77.8748L133.737 78.1971L135.56 78.3215L137.29 78.2229L138.118 78.0831L138.919 77.8797L140.439 77.2758L141.158 76.8725L141.848 76.4009L143.143 75.2508L144.324 73.8281L145.397 72.1423L146.367 70.2094L147.245 68.0522L148.041 65.6998L148.771 63.1867L149.452 60.5542L147.109 59.1738L144.816 57.9132L142.589 56.8129L140.443 55.9078L138.391 55.2271L136.44 54.7937L134.598 54.6232L132.87 54.7253L132.048 54.8797L131.255 55.1027L129.753 55.751L129.042 56.1736L128.358 56.6599L127.065 57.8135L125.865 59.1903L124.746 60.7648L123.697 62.5068L122.703 64.3846L121.752 66.3632L120.828 68.4073L119.916 70.4809L119.001 72.5487L118.651 73.3121ZM118.651 73.3121L117.346 72.8283L115.284 72.1235L113.262 71.5193L111.293 71.0405L109.385 70.709L107.545 70.5423L105.778 70.5527L104.088 70.7487L102.477 71.1333L100.943 71.7062L99.485 72.4611L98.0984 73.3887L96.7778 74.4758L95.5159 75.7053L94.3055 77.0581L93.137 78.5124L92.0008 80.0454L90.8872 81.632L89.786 83.2485L88.6866 84.8696L87.8596 86.0664L89.2907 86.3279L91.2143 86.6968L93.136 87.0611L95.0454 87.3956L96.9328 87.6762L98.7873 87.8783L100.6 87.979L102.362 87.9561L104.064 87.791L105.7 87.4664L107.265 86.9692L108.755 86.2896L110.166 85.4221L111.5 84.366L112.756 83.124L113.939 81.7048L115.054 80.1214L116.108 78.3905L117.11 76.5338L118.071 74.5769L118.651 73.3121Z" stroke="black" stroke-linecap="round" stroke-linejoin="round"/>
<path d="M-4.53277 124.337L-3.74538 124.629L-1.63646 125.444L0.474611 126.266L2.57346 127.058L4.64519 127.784L6.6754 128.409L8.64913 128.899L10.5535 129.222L12.3762 129.346L14.1062 129.247L14.9337 129.108L15.7348 128.904L17.2555 128.3L17.9742 127.897L18.6643 127.425L19.9587 126.275L21.1402 124.853L22.2131 123.167L23.1833 121.234L24.0605 119.077L24.857 116.724L25.5872 114.211L26.2676 111.579L23.925 110.198L21.6317 108.938L19.4051 107.837L17.2594 106.932L15.2066 106.252L13.2559 105.818L11.4145 105.648L9.68592 105.75L8.86447 105.904L8.07108 106.127L6.56879 106.775L5.85845 107.198L5.17446 107.684L3.88149 108.838L2.68058 110.215L1.56194 111.789L0.512703 113.531L-0.48068 115.409L-1.43193 117.388L-2.35605 119.432L-3.26795 121.505L-4.18263 123.573L-4.53277 124.337ZM-4.53277 124.337L-5.83762 123.853L-7.90037 123.148L-9.92185 122.544L-11.891 122.065L-13.7991 121.733L-15.639 121.567L-17.4059 121.577L-19.0955 121.773L-20.707 122.158L-22.2409 122.731L-23.699 123.486L-25.0856 124.413L-26.4061 125.5L-27.668 126.73L-28.8785 128.083L-30.0469 129.537L-31.1831 131.07L-32.2967 132.657L-33.398 134.273L-34.4973 135.894L-35.3244 137.091L-33.8933 137.352L-31.9696 137.721L-30.0479 138.086L-28.1386 138.42L-26.2512 138.701L-24.3966 138.903L-22.5841 139.003L-20.8224 138.981L-19.12 138.815L-17.4836 138.491L-15.9187 137.994L-14.429 137.314L-13.0176 136.447L-11.6842 135.39L-10.4275 134.148L-9.24449 132.729L-8.12955 131.146L-7.07571 129.415L-6.07358 127.558L-5.11336 125.601L-4.53277 124.337Z" stroke="black" stroke-linecap="round" stroke-linejoin="round"/>
<path d="M78.9124 131.377L79.7517 131.346L82.0121 131.292L84.2768 131.243L86.519 131.172L88.711 131.05L90.826 130.851L92.8369 130.548L94.7197 130.117L96.4512 129.535L98.0118 128.782L98.7228 128.336L99.3851 127.841L100.559 126.701L101.069 126.054L101.526 125.354L102.281 123.796L102.829 122.029L103.175 120.061L103.331 117.904L103.316 115.576L103.152 113.097L102.865 110.496L102.486 107.804L99.7934 107.425L97.1923 107.138L94.7141 106.973L92.3854 106.958L90.2284 107.115L88.2603 107.461L86.4938 108.008L84.9359 108.764L84.236 109.221L83.5884 109.731L82.4485 110.905L81.954 111.567L81.5082 112.278L80.7551 113.839L80.1725 115.57L79.7415 117.453L79.4388 119.464L79.2396 121.579L79.118 123.771L79.0464 126.013L78.9975 128.278L78.9437 130.538L78.9124 131.377ZM78.9124 131.377L77.5217 131.43L75.3463 131.568L73.2474 131.783L71.245 132.095L69.3552 132.518L67.5916 133.069L65.9632 133.754L64.4772 134.582L63.1356 135.554L61.9377 136.67L60.8794 137.926L59.9534 139.313L59.1493 140.823L58.454 142.442L57.8534 144.155L57.3305 145.946L56.8674 147.797L56.4457 149.689L56.0469 151.604L55.6516 153.522L55.3455 154.944L56.7678 154.638L58.6861 154.243L60.601 153.844L62.493 153.422L64.3441 152.959L66.1348 152.436L67.8479 151.836L69.4667 151.14L70.9764 150.336L72.364 149.41L73.6194 148.352L74.7357 147.154L75.7078 145.813L76.5354 144.327L77.2212 142.698L77.7711 140.934L78.1952 139.045L78.5064 137.042L78.7217 134.943L78.86 132.768L78.9124 131.377Z" stroke="black" stroke-linecap="round" stroke-linejoin="round"/>
<path d="M126.053 84.2369L126.892 84.2056L129.153 84.1518L131.417 84.1029L133.659 84.0314L135.851 83.9097L137.966 83.7105L139.977 83.4078L141.86 82.9769L143.592 82.3942L145.152 81.6411L145.863 81.1953L146.526 80.7008L147.699 79.5609L148.209 78.9133L148.666 78.2135L149.422 76.6556L149.969 74.8891L150.315 72.9209L150.472 70.7639L150.457 68.4352L150.292 65.9571L150.005 63.3559L149.626 60.6634L146.934 60.2845L144.333 59.9975L141.855 59.8331L139.526 59.818L137.369 59.9747L135.401 60.3207L133.634 60.8679L132.076 61.6237L131.376 62.0807L130.729 62.5904L129.589 63.7642L129.094 64.4265L128.649 65.1375L127.896 66.6981L127.313 68.4297L126.882 70.3124L126.579 72.3233L126.38 74.4383L126.258 76.6304L126.187 78.8725L126.138 81.1372L126.084 83.3977L126.053 84.2369ZM126.053 84.2369L124.662 84.2893L122.487 84.4276L120.388 84.6429L118.385 84.9541L116.496 85.378L114.732 85.9281L113.104 86.6139L111.618 87.4416L110.276 88.4136L109.078 89.5299L108.02 90.7853L107.094 92.1729L106.29 93.6826L105.594 95.3014L104.994 97.0145L104.471 98.8052L104.008 100.656L103.586 102.548L103.187 104.463L102.792 106.382L102.486 107.804L103.908 107.498L105.827 107.102L107.741 106.704L109.633 106.282L111.485 105.819L113.275 105.296L114.988 104.695L116.607 104L118.117 103.196L119.504 102.27L120.76 101.212L121.876 100.014L122.848 98.6721L123.676 97.1861L124.362 95.5577L124.912 93.7939L125.336 91.9043L125.647 89.9019L125.862 87.803L126 85.6276L126.053 84.2369Z" stroke="black" stroke-linecap="round" stroke-linejoin="round"/>
<path d="M31.7719 178.518L32.6112 178.487L34.8716 178.433L37.1363 178.384L39.3785 178.312L41.5705 178.191L43.6855 177.991L45.6964 177.689L47.5792 177.258L49.3107 176.675L50.8713 175.922L51.5823 175.476L52.2446 174.982L53.4185 173.842L53.9281 173.194L54.3852 172.494L55.1409 170.936L55.6881 169.17L56.0342 167.202L56.1908 165.045L56.1758 162.716L56.0113 160.238L55.7243 157.637L55.3455 154.944L52.6529 154.565L50.0518 154.278L47.5736 154.114L45.2449 154.099L43.0879 154.256L41.1198 154.602L39.3533 155.149L37.7954 155.905L37.0955 156.362L36.4479 156.871L35.308 158.045L34.8135 158.707L34.3677 159.418L33.6146 160.979L33.032 162.711L32.601 164.593L32.2983 166.604L32.0991 168.719L31.9775 170.911L31.9059 173.153L31.857 175.418L31.8032 177.679L31.7719 178.518ZM31.7719 178.518L30.3812 178.57L28.2058 178.708L26.1069 178.924L24.1045 179.235L22.2147 179.659L20.4511 180.209L18.8227 180.895L17.3367 181.722L15.9951 182.695L14.7972 183.811L13.7389 185.066L12.8129 186.454L12.0088 187.964L11.3135 189.582L10.7129 191.295L10.19 193.086L9.72687 194.937L9.30524 196.829L8.90639 198.744L8.51107 200.662L8.20501 202.085L9.62725 201.779L11.5456 201.383L13.4605 200.985L15.3525 200.563L17.2036 200.1L18.9943 199.577L20.7074 198.976L22.3262 198.281L23.8359 197.477L25.2235 196.551L26.4789 195.493L27.5952 194.295L28.5673 192.953L29.3949 191.467L30.0807 189.839L30.6306 188.075L31.0547 186.185L31.3659 184.183L31.5812 182.084L31.7195 179.909L31.7719 178.518Z" stroke="black" stroke-linecap="round" stroke-linejoin="round"/>
<mask id="mask4_237_1518" style="mask-type:alpha" maskUnits="userSpaceOnUse" x="-20" y="192" width="39" height="38">
<rect x="18.1044" y="211.984" width="25" height="28" transform="rotate(135 18.1044 211.984)" fill="#D9D9D9"/>
</mask>
<g mask="url(#mask4_237_1518)">
<path d="M-15.1328 225.423L-14.2979 225.396L-12.0491 225.353L-9.79589 225.316L-7.5653 225.256L-5.38485 225.146L-3.28143 224.958L-1.28204 224.667L0.589127 224.248L2.30909 223.677L3.85812 222.935L4.56334 222.495L5.21988 222.006L6.38214 220.878L6.88603 220.236L7.33727 219.542L8.08148 217.996L8.61708 216.241L8.95156 214.284L9.09666 212.139L9.07003 209.822L8.89403 207.355L8.59543 204.766L8.20503 202.085L5.52407 201.694L2.93445 201.396L0.467908 201.22L-1.84927 201.193L-3.99471 201.338L-5.95126 201.673L-7.7062 202.208L-9.25254 202.952L-9.94657 203.404L-10.5884 203.908L-11.7167 205.07L-12.2055 205.726L-12.6455 206.432L-13.387 207.981L-13.9581 209.701L-14.3775 211.572L-14.6686 213.571L-14.8562 215.675L-14.9663 217.855L-15.0263 220.086L-15.0636 222.339L-15.1058 224.588L-15.1328 225.423ZM-15.1328 225.423L-16.5163 225.468L-18.6801 225.594L-20.7674 225.798L-22.7583 226.098L-24.6365 226.51L-26.3886 227.049L-28.0054 227.723L-29.4798 228.539L-30.8099 229.499L-31.9962 230.604L-33.0429 231.848L-33.9573 233.224L-34.7498 234.722L-35.4336 236.329L-36.0226 238.031L-36.534 239.81L-36.9855 241.65L-37.3956 243.53L-37.7828 245.433L-38.1666 247.34L-38.464 248.754L-37.0504 248.456L-35.1436 248.073L-33.2404 247.685L-31.3599 247.275L-29.5204 246.824L-27.7412 246.312L-26.0397 245.723L-24.4324 245.04L-22.9344 244.247L-21.5583 243.333L-20.3144 242.286L-19.2097 241.1L-18.2492 239.77L-17.4331 238.295L-16.7589 236.678L-16.2206 234.926L-15.8081 233.048L-15.5084 231.057L-15.3047 228.97L-15.178 226.806L-15.1328 225.423Z" stroke="black" stroke-linecap="round" stroke-linejoin="round"/>
</g>
<path d="M111.56 153.09L112.323 152.74L114.391 151.825L116.464 150.913L118.508 149.989L120.487 149.038L122.365 148.044L124.107 146.995L125.681 145.876L127.058 144.675L128.212 143.382L128.698 142.698L129.121 141.988L129.769 140.486L129.992 139.692L130.146 138.871L130.248 137.142L130.078 135.301L129.644 133.35L128.964 131.297L128.059 129.152L126.958 126.925L125.698 124.632L124.317 122.289L121.685 122.97L119.172 123.7L116.819 124.496L114.662 125.374L112.729 126.344L111.043 127.417L109.621 128.598L108.471 129.893L107.999 130.583L107.596 131.301L106.992 132.822L106.788 133.623L106.649 134.451L106.55 136.181L106.674 138.003L106.997 139.908L107.487 141.881L108.112 143.912L108.839 145.983L109.63 148.082L110.452 150.193L111.267 152.302L111.56 153.09ZM111.56 153.09L110.295 153.67L108.338 154.63L106.481 155.633L104.75 156.686L103.166 157.801L101.748 158.984L100.506 160.241L99.4495 161.574L98.582 162.986L97.9024 164.476L97.4052 166.04L97.0806 167.677L96.9155 169.379L96.8926 171.141L96.9933 172.953L97.1955 174.808L97.476 176.695L97.8105 178.605L98.1748 180.527L98.5437 182.45L98.8052 183.881L100.002 183.054L101.623 181.955L103.24 180.854L104.826 179.74L106.359 178.604L107.814 177.435L109.166 176.225L110.396 174.963L111.483 173.642L112.41 172.256L113.165 170.798L113.738 169.264L114.123 167.652L114.319 165.963L114.329 164.196L114.162 162.356L113.831 160.448L113.352 158.479L112.748 156.457L112.043 154.395L111.56 153.09Z" stroke="black" stroke-linecap="round" stroke-linejoin="round"/>
<path d="M137.072 91.4977L137.835 91.1476L139.903 90.2329L141.976 89.321L144.021 88.3969L145.999 87.4456L147.877 86.4523L149.619 85.403L151.194 84.2844L152.57 83.0835L153.724 81.7905L154.21 81.1065L154.633 80.3962L155.281 78.8939L155.504 78.1005L155.659 77.279L155.761 75.5505L155.59 73.7091L155.157 71.7583L154.476 69.7056L153.571 67.5598L152.471 65.3333L151.21 63.0399L149.83 60.6974L147.197 61.3777L144.684 62.108L142.332 62.9044L140.174 63.7817L138.242 64.7519L136.556 65.8247L135.133 67.0063L133.983 68.3007L133.511 68.9907L133.108 69.7095L132.504 71.2301L132.301 72.0313L132.161 72.8588L132.062 74.5888L132.187 76.4115L132.509 78.3158L132.999 80.2896L133.624 82.3198L134.351 84.3915L135.143 86.4903L135.964 88.6014L136.779 90.7103L137.072 91.4977ZM137.072 91.4977L135.807 92.0783L133.85 93.0385L131.993 94.0407L130.262 95.0945L128.679 96.2093L127.26 97.3924L126.018 98.6492L124.962 99.9825L124.094 101.394L123.415 102.884L122.917 104.449L122.593 106.085L122.428 107.787L122.405 109.549L122.505 111.362L122.708 113.216L122.988 115.104L123.323 117.013L123.687 118.935L124.056 120.858L124.317 122.289L125.514 121.462L127.135 120.363L128.752 119.262L130.338 118.148L131.871 117.012L133.326 115.843L134.679 114.633L135.908 113.371L136.995 112.051L137.923 110.664L138.678 109.206L139.25 107.672L139.635 106.06L139.831 104.371L139.842 102.604L139.675 100.764L139.343 98.8559L138.865 96.8868L138.26 94.8653L137.555 92.8026L137.072 91.4977Z" stroke="black" stroke-linecap="round" stroke-linejoin="round"/>
<path d="M86.0472 214.682L86.8106 214.332L88.8784 213.417L90.952 212.505L92.9961 211.581L94.9747 210.63L96.8525 209.636L98.5946 208.587L100.169 207.468L101.546 206.267L102.699 204.974L103.186 204.29L103.608 203.58L104.257 202.078L104.48 201.284L104.634 200.463L104.736 198.734L104.566 196.893L104.132 194.942L103.451 192.89L102.546 190.744L101.446 188.517L100.186 186.224L98.8052 183.881L96.1726 184.562L93.6596 185.292L91.3072 186.088L89.15 186.966L87.2171 187.936L85.5312 189.009L84.1086 190.19L82.9585 191.485L82.4868 192.175L82.0835 192.893L81.4796 194.414L81.2762 195.215L81.1364 196.043L81.0379 197.773L81.1622 199.595L81.4846 201.5L81.9744 203.474L82.5998 205.504L83.3262 207.575L84.1182 209.674L84.9397 211.785L85.755 213.894L86.0472 214.682ZM86.0472 214.682L84.7825 215.262L82.8255 216.223L80.9689 217.225L79.2379 218.278L77.6542 219.393L76.2354 220.576L74.9934 221.833L73.9372 223.166L73.0697 224.578L72.3902 226.068L71.8929 227.633L71.5684 229.269L71.4032 230.971L71.3804 232.733L71.481 234.546L71.6832 236.4L71.9637 238.287L72.2982 240.197L72.6625 242.119L73.0314 244.042L73.2929 245.473L74.4898 244.646L76.1108 243.547L77.7273 242.446L79.314 241.332L80.8469 240.196L82.3012 239.027L83.6541 237.817L84.8836 236.555L85.9706 235.235L86.8982 233.848L87.6531 232.39L88.226 230.856L88.6107 229.244L88.8066 227.555L88.8171 225.788L88.6501 223.948L88.3188 222.04L87.84 220.071L87.2358 218.049L86.531 215.987L86.0472 214.682Z" stroke="black" stroke-linecap="round" stroke-linejoin="round"/>
<mask id="mask5_237_1518" style="mask-type:alpha" maskUnits="userSpaceOnUse" x="50" y="240" width="37" height="34">
<rect x="86.2272" y="250.831" width="25" height="28" transform="rotate(112.5 86.2272 250.831)" fill="#D9D9D9"/>
</mask>
<g mask="url(#mask5_237_1518)">
<path d="M60.6626 275.966L61.4236 275.621L63.4852 274.722L65.5525 273.825L67.5904 272.916L69.5627 271.98L71.4342 271.001L73.17 269.967L74.7382 268.864L76.1087 267.678L77.2561 266.4L77.7392 265.724L78.1588 265.021L78.8008 263.534L79.0207 262.748L79.172 261.934L79.2678 260.221L79.091 258.394L78.6513 256.459L77.9643 254.421L77.053 252.29L75.9465 250.079L74.6796 247.801L73.293 245.473L70.6667 246.139L68.1599 246.854L65.8138 247.635L63.6628 248.497L61.7362 249.452L60.0566 250.51L58.6402 251.676L57.4964 252.956L57.0278 253.638L56.6277 254.349L56.03 255.855L55.8298 256.649L55.6931 257.468L55.6008 259.183L55.7314 260.991L56.06 262.88L56.5561 264.839L57.1878 266.854L57.9205 268.91L58.7187 270.994L59.5464 273.09L60.368 275.184L60.6626 275.966ZM60.6626 275.966L59.4018 276.537L57.4511 277.482L55.6007 278.469L53.876 279.508L52.2985 280.607L50.8859 281.775L49.6502 283.017L48.6003 284.335L47.7391 285.732L47.0658 287.206L46.5748 288.756L46.2565 290.377L46.0977 292.064L46.081 293.811L46.188 295.608L46.3964 297.448L46.6832 299.32L47.024 301.214L47.3945 303.121L47.7697 305.03L48.0358 306.449L49.228 305.634L50.8428 304.549L52.453 303.463L54.0334 302.365L55.5601 301.244L57.0082 300.09L58.3547 298.895L59.578 297.648L60.6588 296.343L61.5801 294.971L62.3288 293.528L62.8954 292.01L63.2738 290.413L63.4635 288.739L63.4677 286.987L63.2944 285.162L62.9569 283.269L62.4718 281.315L61.8613 279.309L61.1503 277.261L60.6626 275.966Z" stroke="black" stroke-linecap="round" stroke-linejoin="round"/>
</g>
</g>
</svg>
