<svg width="300" height="300" viewBox="0 0 300 300" fill="none" xmlns="http://www.w3.org/2000/svg">
<path d="M149.997 284.668L149.866 276.661L149.631 271.249L149.255 265.686L148.752 260.285L148.131 255.097L147.436 250.357L146.663 245.886L145.754 241.362L144.72 236.883L143.54 232.397L142.074 227.504L140.508 222.898L138.72 218.233L137.976 216.445L135.762 211.553L132.565 205.404L130.697 202.207L127.629 197.461L125.075 193.91L124.16 192.715L120.22 187.969L115.719 183.223L110.529 178.477L106.09 174.925L102.539 172.371L97.793 169.303L94.596 167.435L93.0469 166.583L88.1664 164.104L81.7667 161.28L77.1024 159.492L72.4965 157.926L67.3133 156.379L62.1973 155.056L56.5066 153.802L51.1438 152.81L45.5859 151.962L39.6033 151.237L33.4241 150.676L27.1948 150.289L20.9656 150.071L16.5036 150.012L15 150L25.2138 149.799L32.3054 149.407L38.5277 148.874L44.3994 148.197L50.0724 147.367L55.283 146.44L60.8789 145.254L65.789 144.035L69.8836 142.881L74.8515 141.297L78.8086 139.878L83.5547 137.976L88.4468 135.762L94.596 132.565L97.793 130.697L102.539 127.629L106.09 125.075L107.285 124.16L112.031 120.22L116.777 115.718L121.523 110.529L125.075 106.09L127.629 102.539L130.697 97.793L132.565 94.5959L133.417 93.0469L135.896 88.1664L138.72 81.7667L140.508 77.1024L141.562 74.0625L143.049 69.3164L144.354 64.5703L145.493 59.8242L146.48 55.0781L147.367 50.0723L148.119 44.9927L148.722 39.9959L149.222 34.7222L149.607 29.1747L149.857 23.6352L149.975 17.9993L150 15L150.134 23.3386L150.369 28.7506L150.745 34.314L151.248 39.7152L151.869 44.903L152.564 49.6435L153.337 54.1139L154.246 58.6377L155.28 63.1168L156.46 67.6025L157.926 72.4965L159.492 77.1024L161.28 81.7667L162.024 83.5547L164.238 88.4468L167.435 94.5959L169.303 97.793L172.371 102.539L174.925 106.09L175.84 107.285L179.78 112.031L184.282 116.777L189.471 121.523L193.91 125.075L197.461 127.629L202.207 130.697L205.404 132.565L206.953 133.417L211.834 135.896L218.233 138.72L222.898 140.508L227.504 142.074L232.687 143.621L237.803 144.944L243.493 146.198L248.856 147.19L254.414 148.038L260.397 148.763L266.576 149.324L272.805 149.711L279.034 149.929L283.496 149.988L285 150L274.786 150.201L267.695 150.593L261.472 151.126L255.601 151.803L249.928 152.633L244.717 153.56L239.121 154.746L234.211 155.965L230.116 157.119L225.149 158.703L221.191 160.122L216.445 162.024L211.553 164.238L205.404 167.435L202.207 169.303L197.461 172.371L193.91 174.925L192.715 175.84L187.969 179.78L183.223 184.282L178.477 189.471L174.925 193.91L172.371 197.461L169.303 202.207L167.435 205.404L166.583 206.953L164.104 211.834L161.28 218.233L159.492 222.898L158.438 225.937L156.951 230.684L155.646 235.43L154.507 240.176L153.52 244.922L152.633 249.928L151.881 255.007L151.278 260.004L150.778 265.278L150.393 270.825L150.143 276.365L150.025 282.001L150 285L149.997 284.668Z" stroke="black" stroke-width="2" stroke-miterlimit="10" stroke-linecap="round" stroke-linejoin="round"/>
<path d="M150 284.67L149.886 250.261L149.67 237.473L149.383 228.334L149.021 220.806L148.581 214.304L148.064 208.577L147.46 203.394L146.791 198.823L146.125 195.088L145.254 191.042L144.465 187.969L143.552 184.924L142.305 181.425L141.05 178.477L140.508 177.342L139.639 175.669L137.849 172.687L137.429 172.063L135.072 168.984L133.125 166.875L130.181 164.238L127.313 162.151L126.27 161.486L122.658 159.492L120.538 158.507L117.041 157.119L113.881 156.072L110.637 155.162L106.799 154.26L102.539 153.439L97.5056 152.66L91.8604 151.981L85.5219 151.405L77.9018 150.907L69.2501 150.527L58.9787 150.252L56.0648 150.2L49.7388 150.118L47.2754 150.09L15 150L54.3123 149.827L75.5457 149.213L82.0715 148.843L88.9762 148.302L95.2971 147.627L100.166 146.951L104.912 146.125L108.958 145.254L112.031 144.465L115.076 143.552L118.575 142.305L121.523 141.05L122.658 140.508L124.331 139.639L127.313 137.849L127.937 137.429L131.016 135.072L133.125 133.125L135.762 130.181L137.849 127.313L139.639 124.331L141.05 121.523L142.305 118.575L143.645 114.787L144.465 112.031L145.368 108.472L146.125 104.912L146.825 100.968L147.46 96.6064L148.064 91.423L148.563 85.9277L148.998 79.5867L149.36 72.2363L149.634 63.977L149.842 53.2983L149.956 40.7956L149.984 25.7117L150 15L150.114 49.7388L150.33 62.5271L150.617 71.6658L150.979 79.1943L151.419 85.6957L151.936 91.423L152.54 96.6064L153.209 101.177L153.875 104.912L154.746 108.958L155.535 112.031L156.448 115.076L157.695 118.575L158.95 121.523L159.492 122.658L160.361 124.331L162.151 127.313L162.571 127.937L164.928 131.016L166.875 133.125L169.819 135.762L172.687 137.849L173.73 138.514L177.342 140.508L179.462 141.493L182.959 142.881L186.119 143.928L189.363 144.838L193.201 145.74L197.461 146.561L202.494 147.34L208.14 148.019L214.478 148.595L222.098 149.093L230.75 149.473L241.021 149.748L243.935 149.8L250.261 149.882L252.725 149.91L285 150L245.688 150.173L224.454 150.787L217.928 151.157L211.024 151.698L204.703 152.373L199.834 153.049L195.088 153.875L191.042 154.746L187.969 155.535L184.924 156.448L181.425 157.695L178.477 158.95L177.342 159.492L175.669 160.361L172.687 162.151L172.063 162.571L168.984 164.928L166.875 166.875L164.238 169.819L162.151 172.687L160.361 175.669L158.95 178.477L157.695 181.425L156.355 185.213L155.535 187.969L154.632 191.528L153.875 195.088L153.176 199.032L152.54 203.394L151.936 208.577L151.437 214.072L151.002 220.413L150.64 227.764L150.366 236.023L150.158 246.702L150.044 259.204L150.016 274.288L150 285L150 284.67Z" stroke="black" stroke-width="2" stroke-miterlimit="10" stroke-linecap="round" stroke-linejoin="round"/>
<path d="M149.985 284.655L149.839 282.729L149.506 280.221L148.975 277.255L148.22 273.858L147.271 270.254L146.064 266.279L144.764 262.475L143.521 259.16L141.569 254.414L139.419 249.668L137.075 244.922L134.536 240.176L131.016 234.128L127.846 229.108L124.001 223.46L119.983 217.986L115.797 212.68L111.447 207.537L106.938 202.555L102.539 197.999L102.001 197.461L97.0732 192.715L91.7921 187.969L86.11 183.223L79.9631 178.477L76.5405 175.999L70.8924 172.154L65.8718 168.984L62.6617 167.076L57.5783 164.238L51.807 161.288L46.3252 158.753L42.4506 157.119L37.5254 155.236L32.5335 153.559L27.7881 152.196L23.8933 151.264L20.1208 150.548L16.8127 150.117L15 150L18.0453 149.749L21.2622 149.257L24.8218 148.531L28.456 147.627L32.5357 146.44L37.5254 144.764L42.4506 142.881L46.3252 141.247L51.807 138.712L55.0781 137.075L59.8242 134.536L65.8718 131.016L70.8924 127.846L76.5405 124.001L82.0142 119.983L87.32 115.797L92.4627 111.447L97.0732 107.285L97.793 106.612L102.539 102.001L107.285 97.0732L112.031 91.792L116.777 86.11L121.523 79.9631L124.001 76.5405L127.846 70.8924L131.506 65.061L132.924 62.6616L135.762 57.5783L138.712 51.807L140.519 47.959L142.66 42.9924L144.421 38.4668L145.865 34.3314L147.152 30.1611L148.107 26.6016L148.941 22.9143L149.506 19.779L149.856 17.1094L150 15L150.161 17.2706L150.494 19.779L151.025 22.7454L151.78 26.1418L152.729 29.7461L153.936 33.7207L155.236 37.5253L156.479 40.8398L158.431 45.5859L160.581 50.332L162.925 55.0781L165.464 59.8242L168.984 65.8718L172.154 70.8924L175.999 76.5405L180.017 82.0141L184.203 87.3199L188.553 92.4627L193.062 97.4455L197.461 102.001L197.999 102.539L202.927 107.285L208.208 112.031L213.89 116.777L220.037 121.523L223.46 124.001L229.108 127.846L234.128 131.016L237.338 132.924L242.422 135.762L248.193 138.712L253.675 141.247L257.549 142.881L262.475 144.764L267.467 146.441L272.212 147.804L276.107 148.736L279.879 149.452L283.187 149.883L285 150L281.955 150.251L278.738 150.743L275.178 151.469L271.544 152.373L267.464 153.56L262.475 155.236L257.549 157.119L253.675 158.753L248.193 161.288L244.922 162.925L240.176 165.464L234.128 168.984L229.108 172.154L223.46 175.999L217.986 180.017L212.68 184.203L207.537 188.553L202.927 192.715L202.207 193.388L197.461 197.999L192.715 202.927L187.969 208.208L183.223 213.89L178.477 220.037L175.999 223.46L172.154 229.108L168.494 234.939L167.076 237.338L164.238 242.422L161.288 248.193L159.481 252.041L157.34 257.008L155.579 261.533L154.135 265.669L152.848 269.839L151.893 273.398L151.059 277.086L150.494 280.221L150.144 282.891L150 285L149.985 284.655Z" stroke="black" stroke-width="2" stroke-miterlimit="10" stroke-linecap="round" stroke-linejoin="round"/>
<path d="M245.222 245.308L239.469 239.739L235.475 236.079L231.275 232.41L227.1 228.947L222.993 225.718L219.15 222.857L215.442 220.243L211.6 217.686L207.702 215.25L203.696 212.913L199.199 210.489L194.834 208.34L190.272 206.306L188.482 205.567L183.457 203.674L176.848 201.586L173.267 200.646L167.742 199.46L163.424 198.755L161.932 198.557L155.791 197.987L149.251 197.814L142.226 198.127L136.576 198.755L132.258 199.46L126.733 200.646L123.152 201.586L121.454 202.079L116.25 203.777L109.728 206.306L105.166 208.34L100.801 210.489L96.0425 213.06L91.4895 215.743L86.5783 218.879L82.0851 221.97L77.5554 225.3L72.8121 229.018L68.0462 232.991L63.368 237.122L58.8089 241.372L55.6126 244.486L54.5406 245.541L61.6205 238.176L66.3578 232.884L70.3813 228.108L74.0541 223.477L77.4789 218.879L80.5079 214.539L83.6259 209.743L86.2361 205.41L88.3151 201.698L90.7078 197.065L92.503 193.264L94.5139 188.563L96.4073 183.538L98.4948 176.929L99.4348 173.348L100.622 167.823L101.326 163.505L101.525 162.014L102.095 155.872L102.267 149.332L101.954 142.307L101.326 136.657L100.622 132.34L99.4348 126.814L98.4948 123.233L98.0021 121.535L96.3041 116.331L93.7754 109.809L91.7416 105.247L90.3379 102.351L88.0327 97.9446L85.5998 93.6656L83.0495 89.5039L80.3911 85.4503L77.4789 81.2833L74.4182 77.1602L71.3114 73.2006L67.936 69.1178L64.2855 64.9228L60.5455 60.8289L56.6437 56.7602L54.5406 54.6217L60.5313 60.4236L64.5248 64.0838L68.7245 67.7519L72.8996 71.2153L77.0071 74.4444L80.85 77.3056L84.5581 79.9197L88.3995 82.4759L92.2979 84.9119L96.3041 87.2495L100.801 89.6733L105.166 91.8228L109.728 93.8566L111.518 94.595L116.543 96.4885L123.152 98.576L126.733 99.516L132.258 100.703L136.576 101.408L138.068 101.606L144.209 102.176L150.749 102.349L157.774 102.035L163.424 101.408L167.742 100.703L173.267 99.516L176.848 98.576L178.546 98.0833L183.75 96.3852L190.272 93.8566L194.834 91.8228L199.199 89.6733L203.958 87.102L208.51 84.4198L213.422 81.2833L217.915 78.1923L222.445 74.862L227.188 71.1446L231.954 67.1717L236.632 63.0404L241.191 58.7901L244.387 55.6761L245.459 54.6217L238.38 61.9863L233.642 67.278L229.619 72.0543L225.946 76.6853L222.521 81.2833L219.492 85.6231L216.374 90.419L213.764 94.7528L211.685 98.4643L209.292 103.097L207.497 106.898L205.486 111.599L203.593 116.624L201.505 123.233L200.565 126.814L199.378 132.34L198.674 136.657L198.475 138.149L197.905 144.291L197.733 150.83L198.046 157.856L198.674 163.505L199.378 167.823L200.565 173.348L201.505 176.929L201.998 178.627L203.696 183.831L206.225 190.353L208.258 194.916L209.662 197.811L211.967 202.218L214.4 206.497L216.951 210.658L219.609 214.712L222.521 218.879L225.582 223.002L228.689 226.962L232.064 231.045L235.714 235.24L239.454 239.333L243.356 243.402L245.459 245.541L245.222 245.308Z" stroke="black" stroke-width="2" stroke-miterlimit="10" stroke-linecap="round" stroke-linejoin="round"/>
<path d="M245.226 245.308L220.815 221.057L211.619 212.167L204.954 205.908L199.375 200.841L194.467 196.554L190.051 192.87L185.959 189.632L182.253 186.873L179.142 184.703L175.665 182.458L172.934 180.843L170.136 179.335L166.78 177.743L163.808 176.546L162.621 176.127L160.824 175.558L157.45 174.716L156.712 174.572L152.868 174.061L150 173.946L146.054 174.163L142.55 174.716L141.342 174.983L137.379 176.127L135.183 176.929L131.728 178.421L128.753 179.915L125.816 181.565L122.465 183.641L118.871 186.073L114.762 189.081L110.29 192.593L105.401 196.668L99.6601 201.703L93.2738 207.553L85.8166 214.621L83.7191 216.645L79.1879 221.06L77.4266 222.782L54.5406 245.541L82.2166 217.621L96.7964 202.172L101.149 197.296L105.649 192.031L109.641 187.084L112.606 183.163L115.378 179.223L117.623 175.746L119.238 173.015L120.746 170.217L122.338 166.861L123.536 163.889L123.955 162.703L124.523 160.906L125.365 157.531L125.51 156.793L126.02 152.949L126.135 150.081L125.918 146.135L125.365 142.631L124.523 139.257L123.536 136.274L122.338 133.301L120.607 129.675L119.238 127.147L117.36 123.992L115.378 120.939L113.084 117.656L110.449 114.122L107.211 110.03L103.678 105.791L99.502 101L94.5604 95.5462L88.9135 89.5129L81.5099 81.8144L72.7496 72.8933L62.1039 62.207L54.5406 54.6217L79.1851 79.1053L88.3806 87.9953L95.0456 94.2544L100.625 99.3217L105.533 103.608L109.949 107.292L114.041 110.53L117.747 113.289L120.858 115.459L124.335 117.704L127.066 119.32L129.864 120.827L133.22 122.419L136.192 123.617L137.379 124.036L139.176 124.604L142.55 125.447L143.288 125.591L147.132 126.102L150 126.216L153.946 125.999L157.45 125.447L158.658 125.179L162.621 124.036L164.817 123.233L168.272 121.742L171.247 120.247L174.184 118.597L177.535 116.521L181.129 114.09L185.238 111.081L189.71 107.569L194.599 103.495L200.34 98.4588L206.726 92.6097L214.183 85.5409L216.281 83.5176L220.812 79.1025L222.573 77.3801L245.459 54.6217L217.783 82.5418L203.204 97.9904L198.851 102.867L194.351 108.131L190.359 113.078L187.394 116.999L184.622 120.939L182.377 124.416L180.762 127.147L179.254 129.945L177.662 133.301L176.464 136.274L176.045 137.46L175.477 139.257L174.635 142.631L174.49 143.369L173.98 147.213L173.865 150.081L174.082 154.027L174.635 157.531L175.477 160.906L176.464 163.889L177.662 166.861L179.393 170.487L180.762 173.016L182.64 176.171L184.622 179.223L186.916 182.506L189.551 186.04L192.789 190.133L196.322 194.371L200.498 199.163L205.44 204.616L211.087 210.649L218.49 218.348L227.25 227.269L237.896 237.955L245.459 245.541L245.226 245.308Z" stroke="black" stroke-width="2" stroke-miterlimit="10" stroke-linecap="round" stroke-linejoin="round"/>
<path d="M245.205 245.308L243.74 244.049L241.731 242.511L239.258 240.788L236.323 238.921L233.102 237.044L229.439 235.086L225.829 233.315L222.606 231.851L217.87 229.875L212.994 228.039L207.981 226.34L202.829 224.78L196.064 222.993L190.272 221.684L183.56 220.409L176.848 219.38L170.136 218.588L163.424 218.027L156.712 217.692L150.38 217.582H149.62L142.779 217.71L135.689 218.088L128.315 218.75L120.612 219.741L116.44 220.409L109.728 221.684L103.936 222.993L100.317 223.913L94.716 225.501L88.5491 227.496L82.8801 229.58L78.9851 231.164L74.1711 233.315L69.4551 235.659L65.1357 238.051L61.7226 240.146L58.5491 242.307L55.905 244.341L54.5406 245.541L56.5168 243.21L58.4433 240.587L60.4466 237.557L62.3774 234.348L64.4232 230.624L66.7658 225.91L68.9171 221.096L70.5016 217.201L72.585 211.532L73.7407 208.062L75.3013 202.91L77.0884 196.145L78.3969 190.353L79.6725 183.641L80.7014 176.929L81.493 170.217L82.0539 163.505L82.3712 157.302L82.4039 156.317L82.4996 149.701L82.3712 142.86L81.9928 135.77L81.331 128.396L80.3405 120.694L79.6725 116.521L78.3969 109.809L76.8621 103.097L76.1681 100.398L74.58 94.7971L72.585 88.6303L71.1418 84.6315L69.1443 79.6053L67.1891 75.1603L65.2858 71.2153L63.2474 67.356L61.4057 64.1637L59.3881 60.9668L57.5706 58.3503L55.9301 56.2153L54.5406 54.6217L56.2602 56.1133L58.2692 57.6518L60.742 59.3739L63.6775 61.2417L66.8976 63.1188L70.5613 65.0761L74.171 66.847L77.3936 68.3118L82.1297 70.2877L87.0057 72.1237L92.0195 73.8219L97.1709 75.3825L103.936 77.1696L109.728 78.4781L116.44 79.7537L123.152 80.7826L129.864 81.5742L136.576 82.1351L143.288 82.4699L149.62 82.5808L150.38 82.5808L157.221 82.4523L164.311 82.074L171.685 81.4122L179.388 80.4216L183.56 79.7537L190.272 78.4781L196.064 77.1696L199.683 76.2493L205.284 74.6612L211.451 72.6662L217.12 70.5828L221.015 68.9983L225.829 66.847L230.545 64.5033L234.864 62.1117L238.277 60.0167L241.451 57.855L244.095 55.821L245.459 54.6217L243.483 56.9523L241.557 59.5751L239.553 62.6058L237.623 65.8146L235.577 69.5384L233.234 74.2522L231.083 79.0663L229.498 82.9613L227.415 88.6303L226.259 92.1006L224.699 97.2521L222.912 104.018L221.603 109.809L220.327 116.521L219.299 123.233L218.507 129.945L217.946 136.657L217.629 142.86L217.596 143.845L217.5 150.462L217.629 157.302L218.007 164.392L218.669 171.766L219.66 179.469L220.327 183.641L221.603 190.353L223.138 197.065L223.832 199.764L225.42 205.365L227.415 211.532L228.858 215.531L230.856 220.557L232.811 225.002L234.714 228.947L236.753 232.806L238.594 235.999L240.612 239.196L242.429 241.812L244.07 243.947L245.459 245.541L245.205 245.308Z" stroke="black" stroke-width="2" stroke-miterlimit="10" stroke-linecap="round" stroke-linejoin="round"/>
</svg>
